<svg width="20" height="26" viewBox="0 0 20 26" fill="none" xmlns="http://www.w3.org/2000/svg">
<path d="M11.5214 13.9727C11.0311 13.4824 10.5409 13.2373 9.80546 13.2373C9.07005 13.2373 8.57978 13.4824 8.08952 13.9727L0.735479 21.3267C-0.24506 22.3073 -0.24506 23.7781 0.735479 24.7586C1.71602 25.7391 3.18682 25.7391 4.16736 24.7586L9.80546 19.3656L15.4436 25.0037C16.4241 25.9843 17.8949 25.9843 18.8754 25.0037C19.856 24.0232 19.856 22.5524 18.8754 21.5718L11.5214 13.9727ZM4.16736 11.5213L9.80546 5.88324L15.4436 11.5213C16.4241 12.5019 17.8949 12.5019 18.8754 11.5213C19.856 10.5408 19.856 9.06999 18.8754 8.08945L11.5214 0.735413C11.0311 0.245144 10.5409 6.24528e-06 9.80546 6.24528e-06C9.07005 6.24528e-06 8.57978 0.245144 8.08952 0.735413L0.735479 8.08945C-0.24506 9.06999 -0.24506 10.5408 0.735479 11.5213C1.71602 12.2567 3.18682 12.2567 4.16736 11.5213Z" fill="white"/>
</svg>
