<svg width="21" height="27" viewBox="0 0 21 27" fill="none" xmlns="http://www.w3.org/2000/svg">
<path d="M8.62801 12.6325C9.11828 13.1228 9.60855 13.3679 10.344 13.3679C11.0794 13.3679 11.5696 13.1228 12.0599 12.6325L19.4139 5.27848C20.3945 4.29794 20.3945 2.82713 19.4139 1.84659C18.4334 0.866056 16.9626 0.866056 15.9821 1.84659L10.344 7.23955L4.70586 1.60146C3.72532 0.620922 2.25452 0.620922 1.27398 1.60146C0.29344 2.582 0.29344 4.0528 1.27398 5.03334L8.62801 12.6325ZM15.9821 15.0839L10.344 20.722L4.70586 15.0839C3.72532 14.1033 2.25452 14.1033 1.27398 15.0839C0.29344 16.0644 0.29344 17.5352 1.27398 18.5157L8.62801 25.8698C9.11828 26.36 9.60855 26.6052 10.344 26.6052C11.0794 26.6052 11.5696 26.36 12.0599 25.8698L19.4139 18.5157C20.3945 17.5352 20.3945 16.0644 19.4139 15.0839C18.4334 14.3485 16.9626 14.3485 15.9821 15.0839Z" fill="white"/>
</svg>
