<svg width="96" height="96" viewBox="0 0 96 96" fill="none" xmlns="http://www.w3.org/2000/svg">
<path d="M27.2202 16.0876C29.4236 16.6886 31.6271 17.0892 33.8305 17.6901C36.034 18.2911 38.2374 18.6917 40.4408 19.2926C41.0418 19.493 41.2421 19.2926 41.4424 18.6917C42.2437 15.2864 43.0449 12.0814 43.8462 8.67606C44.0465 8.07512 44.2468 7.8748 44.8477 8.07512C46.8509 8.67606 48.6537 9.07668 50.6568 9.47731C51.2577 9.67762 51.2577 9.87793 51.0574 10.2786C50.2562 13.4836 49.4549 16.8889 48.6537 20.0939C48.6537 20.2942 48.6537 20.4945 48.4534 20.8951C50.0559 21.2958 51.8587 21.6964 53.4612 22.097C53.6615 22.097 53.8618 21.6964 54.0621 21.4961C54.6631 18.892 55.264 16.4883 56.0653 13.8842C56.2656 13.0829 56.4659 12.2817 56.6662 11.4804C56.6662 11.0798 56.8665 10.8795 57.2671 11.0798C59.2703 11.6808 61.2734 12.0814 63.4768 12.6823C63.6771 12.6823 63.6771 12.8826 63.8775 12.8826C63.2765 15.4867 62.6756 17.8905 62.0746 20.2942C61.8743 21.2958 61.674 22.2973 61.2734 23.2989C61.0731 23.8998 61.2734 24.1002 61.8743 24.3005C64.0778 25.302 66.2812 26.3036 68.4847 27.3052C70.4878 28.507 72.2906 30.1095 73.6928 32.1127C75.4956 35.1174 75.6959 38.3224 74.8947 41.5274C74.2937 43.7308 73.4925 45.734 71.89 47.3365C70.6881 48.5383 69.0856 49.3396 67.4831 49.9405C67.2828 49.9405 67.0825 50.1408 66.6818 50.1408C67.4831 50.7418 68.2843 51.1424 69.0856 51.7433C71.4894 53.5462 73.0919 55.7496 73.8931 58.554C74.2937 60.7574 74.0934 63.1612 73.4925 65.3646C72.6912 68.169 71.6897 70.5728 69.8868 72.7762C67.6834 75.3803 64.879 76.7825 61.674 77.1831C57.4674 77.784 53.4612 77.3834 49.4549 76.7825C48.854 76.5822 48.4534 76.7825 48.253 77.3834C47.4518 80.5884 46.6505 83.9937 45.8493 87.1988C45.649 88 45.649 88.2003 44.6474 87.7997C42.8446 87.3991 40.8415 86.7981 39.0387 86.3975C38.4377 86.1972 38.4377 85.9969 38.638 85.5962C39.4393 82.1909 40.2405 78.7856 41.2421 75.5806C41.2421 75.18 41.4424 74.9797 41.0418 74.7793C39.4393 74.3787 37.8368 73.9781 36.034 73.5775C35.6333 75.3803 35.0324 77.1831 34.6318 78.9859C34.2311 80.7887 33.6302 82.5916 33.2296 84.3944C33.0293 84.795 33.0293 84.9953 32.4283 84.795C30.4252 84.1941 28.4221 83.7934 26.4189 83.3928C25.818 83.1925 25.818 82.9922 26.0183 82.5915C26.8196 79.1862 27.6208 75.7809 28.6224 72.5759C28.6224 72.3756 28.8227 72.1753 28.8227 71.7746C24.2155 70.5728 19.6083 69.3709 14.8008 68.169C15.2014 67.3678 15.4017 66.7668 15.8023 65.9656C16.6036 64.1628 17.4049 62.3599 18.0058 60.7574C18.2061 60.1565 18.4064 60.1565 19.0074 60.1565C20.4095 60.5571 22.012 60.9577 23.4142 61.1581C25.0167 61.5587 26.2186 60.7574 26.4189 59.3552C29.023 49.1393 31.6271 38.9233 34.0308 28.507C34.4315 26.9045 33.4299 25.1017 31.6271 24.5008C29.8243 23.8998 28.0214 23.4992 26.4189 23.0986C26.0183 23.0986 25.818 22.8983 26.0183 22.4977C26.6192 20.2942 27.2202 17.8905 27.8211 15.687C27.0199 16.288 27.0199 16.2879 27.2202 16.0876ZM37.4361 65.5649C37.6365 65.5649 37.8368 65.7653 37.8368 65.7653C41.0418 66.5665 44.4471 67.5681 47.8524 67.7684C50.2562 67.9687 52.4596 67.9687 54.6631 67.1674C58.469 65.9656 60.0715 60.9577 57.8681 57.7527C56.8665 56.1502 55.264 55.1487 53.6615 54.1471C50.0559 52.144 45.8493 51.3427 41.843 50.5415C41.2421 50.3412 41.2421 50.5415 41.0418 51.1424C40.6412 53.1455 40.0402 54.9484 39.6396 56.9515C38.8383 59.7559 38.2374 62.5602 37.4361 65.5649ZM54.2624 45.133C54.6631 45.133 55.6646 44.9327 56.4659 44.7324C60.2718 43.9311 62.275 39.5243 60.2718 36.1189C59.2703 34.3161 57.4674 33.1142 55.6646 32.313C52.8602 31.1111 50.0559 30.5102 47.0512 29.7089C46.4502 29.5086 46.2499 29.7089 46.0496 30.3099C45.048 34.5164 44.0465 38.5227 42.8446 42.7293C42.6443 43.1299 42.8446 43.3302 43.2452 43.5305C44.0465 43.7308 44.6474 43.9311 45.4487 44.1315C48.4534 44.5321 51.0574 45.133 54.2624 45.133Z" fill="#F5B300"/>
</svg>
