<svg width="28" height="28" viewBox="0 0 28 28" fill="none" xmlns="http://www.w3.org/2000/svg">
<g clip-path="url(#clip0_533_3783)">
<path d="M2.8 29.3044H25.21C26.2161 29.3018 27.1801 28.9003 27.8905 28.1879C28.601 27.4756 29 26.5105 29 25.5044V3.10444C28.9974 2.09743 28.5962 1.13242 27.8841 0.420354C27.172 -0.291713 26.207 -0.692917 25.2 -0.695557H2.8C1.79299 -0.692917 0.827977 -0.291713 0.115911 0.420354C-0.596156 1.13242 -0.99736 2.09743 -1 3.10444V25.5044C-0.99736 26.5115 -0.596156 27.4765 0.115911 28.1885C0.827977 28.9006 1.79299 29.3018 2.8 29.3044ZM1.53 3.10444C1.53 2.76762 1.6638 2.44459 1.90197 2.20642C2.14015 1.96825 2.46318 1.83444 2.8 1.83444H25.2C25.5368 1.83444 25.8599 1.96825 26.098 2.20642C26.3362 2.44459 26.47 2.76762 26.47 3.10444V25.5044C26.47 25.8413 26.3362 26.1643 26.098 26.4025C25.8599 26.6406 25.5368 26.7744 25.2 26.7744H2.8C2.46318 26.7744 2.14015 26.6406 1.90197 26.4025C1.6638 26.1643 1.53 25.8413 1.53 25.5044V3.10444Z" fill="#0471A6"/>
<path d="M16.1701 21.8745H23.3001C23.6161 21.8464 23.9103 21.7009 24.1245 21.4668C24.3387 21.2327 24.4575 20.9268 24.4575 20.6095C24.4575 20.2922 24.3387 19.9863 24.1245 19.7522C23.9103 19.5181 23.6161 19.3726 23.3001 19.3445H16.1701C15.9945 19.3289 15.8176 19.35 15.6506 19.4064C15.4836 19.4629 15.3302 19.5535 15.2002 19.6725C15.0701 19.7915 14.9663 19.9363 14.8952 20.0976C14.8242 20.2589 14.7875 20.4332 14.7875 20.6095C14.7875 20.7858 14.8242 20.9601 14.8952 21.1214C14.9663 21.2827 15.0701 21.4275 15.2002 21.5465C15.3302 21.6655 15.4836 21.7561 15.6506 21.8126C15.8176 21.869 15.9945 21.8901 16.1701 21.8745ZM6.88006 10.9945C6.99839 11.1123 7.13879 11.2056 7.29322 11.2691C7.44765 11.3326 7.61309 11.365 7.78006 11.3645C7.94568 11.3659 8.10988 11.3339 8.26281 11.2703C8.41575 11.2067 8.55427 11.1129 8.67006 10.9945L13.1401 6.5245C13.2569 6.40697 13.3495 6.26757 13.4125 6.11426C13.4755 5.96094 13.5077 5.79672 13.5072 5.63097C13.5068 5.46522 13.4737 5.30118 13.4098 5.14822C13.346 4.99526 13.2526 4.85638 13.1351 4.7395C13.0175 4.62263 12.8781 4.53005 12.7248 4.46704C12.5715 4.40404 12.4073 4.37186 12.2415 4.37232C12.0758 4.37278 11.9117 4.40589 11.7588 4.46975C11.6058 4.53361 11.4669 4.62697 11.3501 4.7445L7.78006 8.3045L5.78006 6.3045C5.54257 6.0712 5.22297 5.94049 4.89006 5.94049C4.55715 5.94049 4.23755 6.0712 4.00006 6.3045C3.88184 6.42165 3.78801 6.56106 3.72397 6.71468C3.65993 6.86829 3.62695 7.03307 3.62695 7.19951C3.62695 7.36594 3.65993 7.53072 3.72397 7.68433C3.78801 7.83795 3.88184 7.97736 4.00006 8.09451L6.88006 10.9945ZM8.55006 16.1745C7.67192 16.1765 6.81408 16.4388 6.08503 16.9283C5.35598 17.4179 4.78845 18.1126 4.45423 18.9246C4.12001 19.7367 4.03409 20.6296 4.20735 21.4905C4.38061 22.3514 4.80526 23.1416 5.4276 23.7611C6.04994 24.3807 6.84202 24.8017 7.70368 24.9711C8.56534 25.1405 9.45787 25.0506 10.2684 24.7127C11.079 24.3748 11.7711 23.8042 12.2573 23.0729C12.7436 22.3417 13.002 21.4826 13.0001 20.6045C13.0001 20.0211 12.8848 19.4434 12.6609 18.9046C12.4371 18.3658 12.109 17.8766 11.6955 17.4649C11.282 17.0533 10.7913 16.7274 10.2515 16.506C9.71171 16.2845 9.1335 16.1719 8.55006 16.1745ZM8.55006 22.5145C8.1723 22.5145 7.80302 22.4025 7.48892 22.1926C7.17483 21.9827 6.93002 21.6844 6.78545 21.3354C6.64089 20.9864 6.60307 20.6024 6.67676 20.2319C6.75046 19.8614 6.93237 19.521 7.19949 19.2539C7.46661 18.9868 7.80694 18.8049 8.17744 18.7312C8.54794 18.6575 8.93198 18.6953 9.28099 18.8399C9.63 18.9845 9.9283 19.2293 10.1382 19.5434C10.348 19.8575 10.4601 20.2267 10.4601 20.6045C10.4574 21.1103 10.2554 21.5945 9.89773 21.9522C9.54011 22.3098 9.05582 22.5119 8.55006 22.5145ZM16.1701 9.1345H23.3001C23.6161 9.10637 23.9103 8.96093 24.1245 8.7268C24.3387 8.49268 24.4575 8.18684 24.4575 7.86951C24.4575 7.55217 24.3387 7.24633 24.1245 7.01221C23.9103 6.77808 23.6161 6.63264 23.3001 6.6045H16.1701C15.9945 6.58888 15.8176 6.60997 15.6506 6.66645C15.4836 6.72292 15.3302 6.81353 15.2002 6.93252C15.0701 7.05151 14.9663 7.19627 14.8952 7.35758C14.8242 7.5189 14.7875 7.69324 14.7875 7.86951C14.7875 8.04577 14.8242 8.22011 14.8952 8.38143C14.9663 8.54274 15.0701 8.6875 15.2002 8.80649C15.3302 8.92548 15.4836 9.01609 15.6506 9.07256C15.8176 9.12904 15.9945 9.15013 16.1701 9.1345Z" fill="#0471A6"/>
</g>
<defs>
<clipPath id="clip0_533_3783">
<rect width="27.7171" height="27.7171" fill="white"/>
</clipPath>
</defs>
</svg>
