<svg width="32" height="32" viewBox="0 0 32 32" fill="none" xmlns="http://www.w3.org/2000/svg">
<path d="M23.2182 8.78133C22.7182 8.2814 22.04 8.00056 21.3329 8.00056C20.6258 8.00056 19.9476 8.2814 19.4476 8.78133L15.9996 12.2293L12.5516 8.78133C12.3056 8.52663 12.0113 8.32348 11.686 8.18372C11.3606 8.04397 11.0107 7.9704 10.6566 7.96732C10.3026 7.96425 9.95141 8.03172 9.62369 8.1658C9.29596 8.29988 8.99823 8.49789 8.74785 8.74827C8.49747 8.99865 8.29946 9.29639 8.16537 9.62412C8.03129 9.95184 7.96382 10.303 7.9669 10.6571C7.96997 11.0111 8.04354 11.3611 8.1833 11.6864C8.32305 12.0117 8.5262 12.306 8.7809 12.552L12.2276 16L8.7809 19.448C8.5262 19.694 8.32305 19.9882 8.1833 20.3136C8.04354 20.6389 7.96997 20.9888 7.9669 21.3429C7.96382 21.697 8.03129 22.0481 8.16537 22.3759C8.29946 22.7036 8.49747 23.0013 8.74785 23.2517C8.99823 23.5021 9.29596 23.7001 9.62369 23.8342C9.95141 23.9683 10.3026 24.0357 10.6566 24.0327C11.0107 24.0296 11.3606 23.956 11.686 23.8163C12.0113 23.6765 12.3056 23.4734 12.5516 23.2187L15.9996 19.7707L19.4476 23.2187C19.9676 23.74 20.6502 24 21.3329 24C22.0156 24 22.6982 23.74 23.2182 23.2187C23.7182 22.7186 23.999 22.0404 23.999 21.3333C23.999 20.6262 23.7182 19.9481 23.2182 19.448L19.7716 16L23.2182 12.552C23.7182 12.0519 23.999 11.3738 23.999 10.6667C23.999 9.95955 23.7182 9.2814 23.2182 8.78133Z" fill="#035a85"/>
</svg>
