<svg width="25" height="25" viewBox="0 0 25 25" fill="none" xmlns="http://www.w3.org/2000/svg">
<path d="M15.0556 14.3346L16.5446 14.3431C15.8367 16.3562 15.2364 17.3188 13.2527 18.1323C12.9217 18.2681 12.7328 18.6185 12.8012 18.9698C12.8695 19.3204 13.1757 19.574 13.5331 19.5761C13.5339 19.5761 13.5339 19.5761 13.5346 19.5761C17.6633 19.5922 20.0442 17.9505 21.7489 13.9142C22.2929 12.6465 22.5731 11.288 22.5811 9.87735C22.5934 7.70794 21.9439 6.52283 20.9523 4.96226C20.8158 4.74691 20.5785 4.61588 20.3236 4.61443L15.1111 4.58479C13.8704 4.57773 12.8554 5.58125 12.8483 6.82195L12.8184 12.0719C12.8114 13.3126 13.8149 14.3276 15.0556 14.3346ZM3.80579 14.2706L5.29482 14.2791C4.58683 16.2922 3.9866 17.2548 2.00292 18.0683C1.67184 18.2041 1.48302 18.5546 1.55137 18.9058C1.61966 19.2564 1.92587 19.51 2.28331 19.5121C2.28406 19.5121 2.28406 19.5121 2.28481 19.5121C6.41346 19.5282 8.79441 17.8865 10.499 13.8502C11.043 12.5825 11.3232 11.224 11.3313 9.81337C11.3436 7.64396 10.6941 6.45885 9.70244 4.89828C9.56597 4.68293 9.32866 4.5519 9.07381 4.55045L3.86124 4.5208C2.62054 4.51375 1.60554 5.51727 1.59849 6.75797L1.56863 12.0079C1.56157 13.2486 2.56509 14.2636 3.80579 14.2706Z" fill="black"/>
</svg>
