<svg width="9" height="24" viewBox="0 0 9 24" fill="none" xmlns="http://www.w3.org/2000/svg">
<path d="M1.31564 2.10693L1.31564 2.10693L1.91064 14.0069L2.00006 14.0025L1.91064 14.0069C1.94098 14.6134 2.44155 15.0896 3.04881 15.0896H5.95119C6.55845 15.0896 7.05902 14.6134 7.08936 14.0069L7.68436 2.10693L7.59488 2.10246L7.68436 2.10693C7.71689 1.45599 7.19795 0.9104 6.54619 0.9104H2.45381C1.80205 0.9104 1.28311 1.45599 1.31564 2.10693ZM4.5 23.4896C6.47938 23.4896 8.0896 21.8794 8.0896 19.9C8.0896 17.9206 6.47938 16.3104 4.5 16.3104C2.52062 16.3104 0.9104 17.9206 0.9104 19.9C0.9104 21.8794 2.52062 23.4896 4.5 23.4896Z" stroke="white" stroke-width="0.1792"/>
</svg>
