<svg width="48" height="48" viewBox="0 0 48 48" fill="none" xmlns="http://www.w3.org/2000/svg">
<g clip-path="url(#clip0_280_1735)">
<path d="M24 48.0005C37.2548 48.0005 48 37.2553 48 24.0005C48 10.7457 37.2548 0.000488281 24 0.000488281C10.7452 0.000488281 0 10.7457 0 24.0005C0 37.2553 10.7452 48.0005 24 48.0005Z" fill="#0471A6"/>
<path d="M30.0335 24.9398H25.751V40.6289H19.2626V24.9398H16.1768V19.426H19.2626V15.858C19.2626 13.3065 20.4747 9.31104 25.8088 9.31104L30.6149 9.33114V14.6832H27.1277C26.5557 14.6832 25.7514 14.969 25.7514 16.1861V19.4312H30.6004L30.0335 24.9398Z" fill="white"/>
</g>
<defs>
<clipPath id="clip0_280_1735">
<rect width="48" height="48" fill="white" transform="translate(0 0.000488281)"/>
</clipPath>
</defs>
</svg>
