<svg width="517" height="495" viewBox="0 0 517 495" fill="none" xmlns="http://www.w3.org/2000/svg">
<path d="M291.348 492.614C271.194 483.074 263.163 460.395 260.322 439.27C259.842 435.763 258.837 432.115 259.983 428.749C261.128 425.382 264.659 422.634 268.049 423.581C270.867 424.365 272.515 427.194 274.397 429.427C276.9 432.439 280.209 434.677 283.937 435.88C286.368 436.663 289.256 436.908 291.255 435.319C293.99 433.132 293.593 428.901 293.032 425.417C291.886 418.956 290.764 412.495 289.665 406.034C288.873 402.586 288.64 399.034 288.975 395.513C289.49 392.005 291.372 388.498 294.528 387.049C297.685 385.599 302.115 386.78 303.39 390.076C303.765 391.494 304.047 392.935 304.231 394.39C304.57 395.828 305.517 397.313 306.955 397.488C308.393 397.664 309.644 396.436 310.521 395.232C313.514 391.105 315.197 386.16 316.717 381.262C318.237 376.363 319.663 371.372 322.281 366.976C324.9 362.58 328.898 358.793 333.843 357.624C338.788 356.455 344.634 358.676 346.703 363.364C348.772 368.052 346.773 373.534 344.365 378.047C340.707 384.729 336.105 390.848 330.699 396.214C329.62 397.073 328.843 398.252 328.477 399.581C328.115 402.036 330.71 403.976 333.154 404.351C335.889 404.771 338.671 404.023 341.442 403.883C344.213 403.743 347.358 404.444 348.831 406.841C350.853 410.161 348.503 414.404 345.99 417.362C340.941 423.255 334.919 428.237 328.185 432.092C325.777 433.46 323.217 434.746 321.451 436.897C319.686 439.048 318.973 442.391 320.633 444.636C322.293 446.88 325.648 447.126 328.244 446.167C330.839 445.209 333.002 443.35 335.398 441.959C339.887 439.34 346.13 438.615 349.906 442.239C351.084 443.507 351.951 445.03 352.44 446.689C352.929 448.349 353.026 450.099 352.723 451.802C352.102 455.195 350.801 458.428 348.901 461.307C342.846 471.714 334.141 480.33 323.673 486.277C313.21 492.006 303.086 494.8 291.36 492.625" fill="#F5F5F5"/>
<path d="M294.521 478.5C296.071 466.469 298.312 454.537 301.231 442.762L303.476 433.492C304.212 430.441 304.949 427.424 305.814 424.525C307.562 418.961 309.615 413.497 311.963 408.159C314.172 403.038 316.452 398.245 318.615 393.791C320.778 389.337 322.894 385.222 324.974 381.563C328.223 375.759 331.929 370.224 336.057 365.009C337.518 363.162 338.699 361.771 339.506 360.836C339.891 360.391 340.207 360.041 340.429 359.772C340.651 359.503 340.757 359.421 340.768 359.433C340.684 359.568 340.59 359.696 340.488 359.819L339.599 360.917C338.828 361.876 337.682 363.255 336.256 365.161C332.218 370.427 328.579 375.987 325.372 381.797C323.326 385.467 321.245 389.582 319.094 394.036C316.943 398.491 314.699 403.284 312.512 408.404C310.184 413.743 308.155 419.207 306.433 424.771C305.533 427.658 304.808 430.616 304.095 433.702L301.851 442.984C298.938 454.734 296.686 466.638 295.105 478.64" fill="#E0E0E0"/>
<path d="M306.025 424.487C305.772 424.032 305.572 423.549 305.429 423.049C305.078 422.125 304.622 420.71 304.085 419.062C303.009 415.672 301.676 410.937 300.227 405.723C298.777 400.509 297.386 395.798 296.252 392.443C295.691 390.759 295.223 389.392 294.896 388.468C294.699 387.988 294.547 387.491 294.44 386.983C294.722 387.419 294.953 387.886 295.13 388.375C295.539 389.275 296.065 390.619 296.685 392.279C297.935 395.623 299.397 400.311 300.858 405.548C302.319 410.785 303.547 415.368 304.529 418.922C304.985 420.535 305.359 421.891 305.698 422.978C305.851 423.471 305.96 423.975 306.025 424.487V424.487Z" fill="#E0E0E0"/>
<path d="M349.455 408.52C348.89 408.755 348.302 408.931 347.701 409.046C346.532 409.338 344.931 409.759 342.92 410.343C338.887 411.512 333.38 413.242 327.383 415.464C321.386 417.685 316.043 419.941 312.185 421.671C310.268 422.525 308.737 423.261 307.673 423.764C307.138 424.055 306.579 424.298 306.001 424.489C306.485 424.116 307.006 423.795 307.556 423.53C308.585 422.957 310.093 422.162 311.987 421.192C315.763 419.345 321.094 417.019 327.103 414.786C332.231 412.867 337.456 411.216 342.756 409.841C344.79 409.303 346.45 408.952 347.608 408.73C348.216 408.603 348.834 408.532 349.455 408.52V408.52Z" fill="#E0E0E0"/>
<path d="M294.934 477.585C294.784 477.431 294.651 477.263 294.536 477.082L293.496 475.597C292.596 474.288 291.345 472.382 289.837 469.997C286.797 465.228 282.823 458.506 278.532 451.024C274.242 443.542 270.349 436.797 267.391 431.98L263.884 426.263L262.949 424.709C262.825 424.536 262.727 424.347 262.656 424.147C262.656 424.147 262.808 424.299 263.054 424.638C263.299 424.978 263.685 425.527 264.094 426.135C264.995 427.432 266.245 429.338 267.765 431.735C270.793 436.504 274.78 443.215 279.07 450.697C283.36 458.178 287.253 464.924 290.199 469.752L293.706 475.457C294.08 476.077 294.396 476.626 294.642 477.012C294.767 477.187 294.866 477.38 294.934 477.585V477.585Z" fill="#E0E0E0"/>
<path d="M351.267 448.299C351.103 448.443 350.917 448.561 350.718 448.65L349.093 449.515L343.06 452.66C337.963 455.325 330.972 459.078 323.257 463.181C315.541 467.285 308.515 471.037 303.383 473.586C300.811 474.86 298.707 475.924 297.257 476.544L295.503 477.315C295.311 477.417 295.107 477.496 294.896 477.549C295.063 477.409 295.247 477.291 295.445 477.198L297.082 476.333L303.114 473.177C308.199 470.523 315.19 466.77 322.906 462.655C330.622 458.54 337.659 454.811 342.78 452.262C345.352 450.988 347.456 449.924 348.906 449.305L350.589 448.533C350.802 448.421 351.03 448.342 351.267 448.299V448.299Z" fill="#E0E0E0"/>
<path d="M145.156 241.664C145.156 241.664 131.268 243.593 139.065 274.011C146.863 304.43 153.48 320.119 153.48 320.119C153.48 320.119 154.52 327.004 148.967 326.794C143.414 326.583 132.086 322.118 128.24 328.068C124.265 334.287 127.749 341.769 136.423 349.614C145.098 357.458 163.592 375.333 165.252 376.958C166.912 378.583 168.128 381.926 164.317 382.382C160.506 382.838 133.477 379.67 132.753 392.588C132.028 405.506 159.886 423.369 162.891 425.379C165.895 427.39 166.398 428.957 165.696 430.71C164.995 432.464 156.04 430.535 148.313 429.939C140.585 429.343 131.513 430.032 131.712 437.514C131.911 444.996 146.547 463.935 189.218 478.01L209.43 483.236L224.359 468.529C254.404 435.106 257.689 411.409 254.146 404.816C250.604 398.223 242.456 402.139 235.979 406.488C229.503 410.837 222.722 417.009 221.273 415.84C219.823 414.671 219.449 413.058 221.062 409.819C222.676 406.581 237.978 377.238 230.917 366.389C223.856 355.541 201.972 371.697 198.465 373.182C194.958 374.666 194.326 371.136 194.958 368.938C195.589 366.74 202.72 342.05 206.391 330.885C210.062 319.721 209.36 311.514 202.814 308.101C196.501 304.816 188.914 314.355 184.191 317.301C179.468 320.247 176.966 313.794 176.966 313.794C176.966 313.794 174.908 296.901 166.561 266.623C158.214 236.345 144.899 241.769 144.899 241.769" fill="#EBEBEB"/>
<path d="M209.433 488.261C203.389 466.05 193.3 426.302 184.474 392.177C175.647 358.053 167.628 327.283 161.689 305.001C158.719 293.872 156.311 284.87 154.675 278.616C153.856 275.518 153.213 273.098 152.769 271.438L152.278 269.567C152.173 269.146 152.138 268.924 152.138 268.924C152.138 268.924 152.22 269.123 152.348 269.544C152.477 269.965 152.652 270.608 152.886 271.403C153.365 273.063 154.055 275.459 154.92 278.546C156.674 284.753 159.152 293.743 162.168 304.873C168.212 327.085 176.314 357.959 185.14 392.014C193.966 426.068 203.973 465.851 209.912 488.133" fill="#E0E0E0"/>
<path d="M143.845 335.021C144.312 335.214 144.758 335.452 145.177 335.734C146.007 336.225 147.2 336.973 148.685 337.909C151.596 339.791 155.559 342.491 159.872 345.542L170.885 353.398L174.24 355.737C174.663 356 175.055 356.309 175.409 356.66C174.937 356.47 174.487 356.231 174.065 355.947C173.235 355.456 172.042 354.708 170.557 353.761C167.67 351.855 163.742 349.085 159.428 346.045L148.357 338.271L144.99 335.933C144.577 335.671 144.193 335.365 143.845 335.021V335.021Z" fill="#E0E0E0"/>
<path d="M177.091 355.678C176.939 355.585 182.142 347.179 188.7 336.903C195.258 326.628 200.718 318.374 200.87 318.468C201.022 318.561 195.82 326.978 189.249 337.254C182.679 347.53 177.243 355.749 177.091 355.678Z" fill="#E0E0E0"/>
<path d="M188.302 408.628C188.625 408.224 188.998 407.863 189.412 407.552L192.557 404.793C195.211 402.455 198.87 399.229 202.775 395.511C206.679 391.793 210.116 388.321 212.571 385.785C213.74 384.616 214.699 383.575 215.482 382.78C215.836 382.388 216.228 382.032 216.651 381.716C216.392 382.163 216.078 382.576 215.716 382.944C215.085 383.704 214.138 384.779 212.945 386.089C210.607 388.719 207.194 392.261 203.266 395.979C199.338 399.696 195.643 402.899 192.908 405.144C191.528 406.313 190.406 407.155 189.611 407.751C189.208 408.091 188.769 408.385 188.302 408.628V408.628Z" fill="#E0E0E0"/>
<path d="M154.093 396.525C154.565 396.581 155.028 396.695 155.472 396.864L159.178 398.033C162.288 399.027 166.578 400.441 171.301 402.031C176.024 403.621 180.291 405.117 183.366 406.228L187.002 407.561C187.454 407.702 187.89 407.894 188.299 408.134C187.827 408.086 187.363 407.976 186.92 407.806L183.214 406.637C180.104 405.643 175.814 404.229 171.091 402.627C166.368 401.026 162.101 399.541 159.026 398.442L155.391 397.098C154.934 396.966 154.498 396.773 154.093 396.525V396.525Z" fill="#E0E0E0"/>
<path d="M158.054 444.54C158.656 444.629 159.247 444.778 159.82 444.984L164.566 446.433C168.564 447.684 174.07 449.45 180.149 451.449C186.229 453.448 191.711 455.271 195.674 456.639L200.351 458.276C200.932 458.462 201.499 458.693 202.046 458.966C201.44 458.877 200.845 458.728 200.269 458.521L195.522 457.072C191.524 455.821 186.018 454.056 179.939 452.057C173.86 450.057 168.377 448.222 164.426 446.866L159.75 445.218C159.165 445.043 158.598 444.816 158.054 444.54Z" fill="#E0E0E0"/>
<path d="M201.088 458.295C201.5 457.79 201.958 457.324 202.456 456.904L206.325 453.268C209.587 450.193 214.076 445.926 218.904 441.075C223.733 436.223 228 431.723 231.063 428.449L234.687 424.568C235.113 424.072 235.578 423.611 236.078 423.188C235.737 423.738 235.346 424.255 234.909 424.732C234.114 425.702 232.921 427.07 231.402 428.753C228.42 432.12 224.212 436.679 219.36 441.531C214.509 446.382 210.008 450.614 206.641 453.607C204.958 455.092 203.59 456.296 202.62 457.114C202.143 457.55 201.631 457.945 201.088 458.295V458.295Z" fill="#E0E0E0"/>
<path d="M84.8403 60.2822L73.4304 56.7751C73.4304 56.7751 70.4376 66.3612 60.4306 63.4269C58.4932 62.8934 56.7696 61.7709 55.4983 60.2148C54.227 58.6586 53.4708 56.7457 53.3344 54.7409C53.1846 53.0503 53.4406 51.3483 54.0811 49.7765C54.7216 48.2047 55.7281 46.8086 57.0169 45.7042C59.9512 43.1089 65.0951 41.5307 72.3549 45.2833L80.3862 19.5643L69.1049 16.0571L64.4287 31.1262C64.4287 31.1262 47.3138 30.2728 41.8778 47.7032C36.6755 64.3856 50.4235 72.9313 56.8299 74.9304C61.6931 76.4501 78.7729 80.4716 84.8403 60.2822Z" fill="#F5F5F5"/>
<path d="M70.6194 10.6913L82.0693 14.2642L85.4054 3.57307L73.9554 0.000223989L70.6194 10.6913Z" fill="#F5F5F5"/>
<path d="M116.33 31.2167L120.901 30.0476C120.761 29.5285 120.728 28.9866 120.802 28.4542C120.876 27.9218 121.056 27.4097 121.332 26.9484C121.608 26.4871 121.974 26.0859 122.408 25.7688C122.842 25.4517 123.335 25.2251 123.859 25.1025C124.62 24.8726 125.434 24.8853 126.189 25.1387C126.943 25.3922 127.599 25.8739 128.067 26.5171C128.465 27.0512 128.73 27.6717 128.842 28.3279C128.954 28.9842 128.908 29.6576 128.71 30.2931C128.278 31.7778 126.887 33.3911 123.66 33.66L126.384 43.9593L130.896 42.7902L129.306 36.7579C131.018 35.7258 132.342 34.1595 133.075 32.3004C133.808 30.4413 133.909 28.3926 133.363 26.4703C131.609 19.7834 125.18 19.8184 122.643 20.4848C120.679 20.9407 114.12 23.1736 116.33 31.2167Z" fill="#EBEBEB"/>
<path d="M132.482 44.3177L127.878 45.5518L129.03 49.8495L133.634 48.6155L132.482 44.3177Z" fill="#EBEBEB"/>
<path d="M493.678 149.549L498.121 151.151C498.307 150.648 498.592 150.187 498.959 149.796C499.326 149.405 499.768 149.091 500.258 148.873C500.748 148.655 501.277 148.538 501.814 148.527C502.35 148.517 502.883 148.614 503.381 148.813C504.13 149.053 504.785 149.52 505.258 150.147C505.731 150.775 505.998 151.534 506.023 152.32C506.051 152.99 505.919 153.658 505.639 154.267C505.358 154.877 504.937 155.411 504.41 155.827C503.241 156.797 501.148 157.323 498.343 155.71L494.707 165.729L499.103 167.319L501.23 161.473C503.226 161.597 505.206 161.062 506.868 159.951C508.53 158.841 509.782 157.215 510.431 155.324C512.769 148.824 507.496 145.212 505.006 144.312C503.101 143.564 496.437 141.681 493.678 149.549Z" fill="#EBEBEB"/>
<path d="M498.443 169.35L493.981 167.733L492.472 171.899L496.934 173.516L498.443 169.35Z" fill="#EBEBEB"/>
<path d="M22.2357 200.427L31.5881 196.803C31.5881 196.803 28.5485 188.912 36.6968 185.604C38.2563 184.944 39.982 184.784 41.6361 185.146C43.2903 185.509 44.7913 186.375 45.9323 187.626C46.903 188.667 47.6144 189.921 48.0085 191.289C48.4026 192.656 48.4683 194.097 48.2002 195.494C47.6157 198.744 45.0438 202.508 38.275 203.806L46.4583 225.001L55.8107 221.424L51.0176 209.008C51.0176 209.008 62.7081 200.615 57.2253 186.235C51.9061 172.487 38.2984 174.054 33.0728 176.076C29.0395 177.631 15.6656 183.909 22.2357 200.427Z" fill="#F5F5F5"/>
<path d="M57.6017 225.737L48.1655 229.372L51.5614 238.186L60.9976 234.551L57.6017 225.737Z" fill="#F5F5F5"/>
<path d="M497.339 236.087L490.675 238.647C490.675 238.647 492.826 244.247 487.051 246.585C485.945 247.047 484.724 247.158 483.553 246.903C482.382 246.648 481.318 246.039 480.505 245.159C479.817 244.421 479.313 243.532 479.035 242.562C478.757 241.593 478.711 240.572 478.903 239.582C479.324 237.244 481.148 234.625 485.917 233.737L480.189 218.668L473.596 221.205L476.986 230.008C474.586 231.843 472.856 234.417 472.062 237.331C471.268 240.246 471.453 243.341 472.59 246.141C476.343 255.879 485.952 254.78 489.693 253.342C492.522 252.231 501.992 247.789 497.339 236.087Z" fill="#F5F5F5"/>
<path d="M472.286 218.157L478.973 215.581L476.569 209.341L469.881 211.917L472.286 218.157Z" fill="#F5F5F5"/>
<path d="M516.182 494.584C516.182 494.76 400.622 494.888 258.103 494.888C115.584 494.888 0 494.76 0 494.584C0 494.409 115.537 494.28 258.103 494.28C400.668 494.28 516.182 494.421 516.182 494.584Z" fill="#263238"/>
<path d="M74.1204 464.255C75.2894 459.953 72.4019 455.64 69.2454 452.565C66.089 449.49 62.313 446.661 60.6646 442.535C57.9992 435.848 61.5765 427.197 57.0405 421.62C54.3634 418.347 49.5703 417.248 47.1972 413.741C46.0999 411.808 45.3743 409.687 45.0578 407.486C42.5353 396.38 37.072 386.156 29.2406 377.886C28.7126 387.779 30.8568 397.632 35.4482 406.411C37.2836 409.918 39.5516 413.332 40.1244 417.248C41.1181 423.596 37.5642 430.108 39.1307 436.374C40.9194 443.505 48.9273 448.286 49.3014 455.628C49.6288 461.836 44.2161 467.318 44.6252 473.491C44.9531 476.134 45.9113 478.66 47.4193 480.856C52.2124 488.841 59.2734 494.335 69.9585 494.16L83.0519 494.616L74.1204 464.255Z" fill="#E84855"/>
<g opacity="0.3">
<path d="M74.1204 464.244C75.2894 459.942 72.4019 455.628 69.2454 452.554C66.089 449.479 62.313 446.65 60.6646 442.523C57.9992 435.836 61.5765 427.185 57.0405 421.609C54.3634 418.336 49.5703 417.237 47.1972 413.73C46.0999 411.797 45.3743 409.675 45.0578 407.475C42.5353 396.369 37.072 386.145 29.2406 377.875C28.7126 387.768 30.8568 397.621 35.4482 406.4C37.2836 409.907 39.5516 413.321 40.1244 417.237C41.1181 423.585 37.5642 430.096 39.1307 436.362C40.9194 443.494 48.9273 448.275 49.3014 455.617C49.6288 461.824 44.2161 467.307 44.6252 473.48C44.9531 476.123 45.9113 478.649 47.4193 480.845C52.2124 488.829 59.2734 494.324 69.9585 494.148L83.0519 494.604L74.1204 464.244Z" fill="black"/>
</g>
<path d="M85.6949 494.877C86.8941 495.062 88.1162 495.038 89.3073 494.807C90.7534 494.587 92.1747 494.226 93.5509 493.731C95.4516 493.07 97.2293 492.098 98.8116 490.855C99.7637 490.09 100.507 489.097 100.974 487.968C101.365 486.703 101.57 485.387 101.582 484.063C101.609 482.648 101.714 481.235 101.898 479.831C102.144 478.337 102.685 476.906 103.488 475.623C105.031 472.91 107.603 470.338 108.421 466.656C109.24 462.973 108.678 459.116 108.07 455.188C107.463 451.26 106.901 447.004 108.374 442.889C109.847 438.774 112.653 435.092 114.091 430.486C115.529 425.88 114.851 420.806 115.155 415.861C115.245 413.349 115.824 410.879 116.862 408.589C117.914 406.251 119.387 404.088 120.533 401.657C122.871 396.723 123.268 391.135 123.899 385.653C124.215 382.894 124.519 380.1 124.835 377.294C125.034 374.457 125.523 371.648 126.296 368.912C127.183 366.153 128.229 363.448 129.429 360.81C130.047 359.446 130.555 358.035 130.949 356.59C131.169 355.094 131.309 353.588 131.37 352.078C131.509 349.053 131.392 346.022 131.019 343.017C130.668 340.001 130.119 337.009 129.791 333.981C129.791 333.794 129.791 333.618 129.791 333.455L129.721 332.858L129.195 333.116C126.431 334.534 124.031 336.57 122.181 339.066C120.366 341.51 118.906 344.198 117.844 347.051C115.658 352.674 114.874 358.566 113.775 364.189C112.677 369.812 111.274 375.342 108.398 380.018C106.96 382.356 105.218 384.484 103.722 386.752C102.097 388.965 100.986 391.513 100.472 394.21C99.6884 399.751 102.74 404.615 102.108 409.525C101.824 411.93 101.026 414.246 99.7703 416.317C98.6012 418.409 97.1867 420.35 95.854 422.291C94.5032 424.194 93.3292 426.217 92.3468 428.335C91.4221 430.407 90.8757 432.628 90.7335 434.893C90.4179 439.312 91.0375 443.497 90.7335 447.448C90.3685 451.215 89.2683 454.873 87.4953 458.215C85.9171 461.43 84.1518 464.341 82.6788 467.17C81.9423 468.573 81.2526 469.953 80.6914 471.344C80.1604 472.679 79.7687 474.066 79.5224 475.482C79.1311 477.955 79.0996 480.471 79.4288 482.952C79.7723 486.413 81.0671 489.711 83.1698 492.48C83.4912 492.899 83.8471 493.29 84.2336 493.649C84.4918 493.92 84.7779 494.163 85.087 494.374C85.578 494.736 85.8352 494.9 85.8352 494.9C84.9007 494.161 84.05 493.323 83.2984 492.398C81.2913 489.619 80.0789 486.345 79.7912 482.929C79.4936 480.479 79.5487 477.999 79.9549 475.564C80.2011 474.182 80.5929 472.83 81.124 471.531C81.7163 470.124 82.3836 468.751 83.123 467.416C84.6077 464.61 86.3847 461.711 87.998 458.473C89.824 455.077 90.9603 451.355 91.3414 447.519C91.6921 443.485 91.0842 439.277 91.4116 434.975C91.5622 432.783 92.0963 430.634 92.9898 428.627C93.9783 426.553 95.1521 424.574 96.4969 422.711C97.8296 420.771 99.2442 418.83 100.46 416.691C101.794 414.541 102.648 412.129 102.962 409.618C103.593 404.392 100.565 399.506 101.348 394.35C101.861 391.771 102.935 389.337 104.493 387.219C105.978 384.986 107.731 382.859 109.169 380.462C112.15 375.657 113.588 370.022 114.676 364.376C115.763 358.729 116.569 352.884 118.721 347.366C119.755 344.593 121.176 341.98 122.941 339.604C124.72 337.209 127.029 335.256 129.686 333.899L129.09 333.56C129.09 333.735 129.09 333.911 129.148 334.098C129.476 337.16 130.025 340.153 130.317 343.146C130.687 346.104 130.8 349.088 130.656 352.066C130.597 353.529 130.465 354.988 130.259 356.438C129.881 357.836 129.388 359.201 128.786 360.518C127.58 363.184 126.526 365.916 125.63 368.701C124.85 371.481 124.357 374.332 124.157 377.212C123.853 380.029 123.537 382.824 123.233 385.582C122.602 391.089 122.193 396.583 119.96 401.341C118.791 403.679 117.388 405.912 116.301 408.297C115.231 410.672 114.635 413.234 114.547 415.837C114.255 420.888 114.909 425.833 113.542 430.299C112.174 434.764 109.333 438.482 107.895 442.702C106.457 446.922 106.983 451.388 107.615 455.304C108.246 459.221 108.877 463.079 108.035 466.551C107.194 470.023 104.785 472.618 103.219 475.4C102.393 476.74 101.841 478.23 101.594 479.784C101.417 481.204 101.324 482.633 101.313 484.063C101.315 485.354 101.126 486.638 100.752 487.874C100.319 488.945 99.6237 489.89 98.7298 490.621C97.1899 491.863 95.456 492.843 93.5977 493.521C92.2395 494.044 90.8341 494.436 89.4008 494.69C88.5249 494.849 87.6373 494.935 86.7471 494.947C86.0106 494.877 85.6949 494.877 85.6949 494.877Z" fill="#263238"/>
<path d="M127.058 340.673C126.996 340.799 126.952 340.933 126.929 341.071L126.649 342.24C126.392 343.28 126.076 344.835 125.585 346.776C125.094 348.716 123.89 350.914 122.873 353.615C121.682 356.655 120.644 359.753 119.763 362.897C118.758 366.404 117.881 370.262 116.946 374.424C116.151 378.857 114.742 383.157 112.761 387.202C111.685 389.329 110.423 391.48 109.522 393.842C108.578 396.253 107.946 398.775 107.64 401.347C106.975 406.673 106.031 411.961 104.811 417.188C102.192 427.908 99.6906 438.125 97.411 447.431C95.1313 456.737 92.9803 465.06 91.2033 472.098C89.4264 479.136 88.082 484.747 87.1 488.757C86.644 490.674 86.2816 492.182 86.0244 493.293C85.9192 493.772 85.8257 494.158 85.7555 494.462C85.7426 494.598 85.7426 494.735 85.7555 494.871C85.8235 494.75 85.8746 494.62 85.9075 494.485C85.9894 494.17 86.1063 493.795 86.2466 493.316C86.5388 492.229 86.948 490.721 87.4741 488.815C88.5262 484.841 90.0109 479.194 91.8463 472.238C93.6817 465.282 95.8211 456.865 98.2176 447.618C100.614 438.371 103.046 428.083 105.688 417.351C106.9 412.11 107.821 406.807 108.447 401.464C108.746 398.954 109.358 396.491 110.271 394.134C111.194 391.796 112.375 389.703 113.45 387.552C115.788 383.285 116.712 378.703 117.636 374.576C118.559 370.449 119.377 366.544 120.336 363.061C121.295 359.577 122.3 356.467 123.305 353.778C124.311 351.09 125.421 348.868 125.901 346.858C126.38 344.847 126.602 343.35 126.813 342.275C126.891 341.792 126.961 341.402 127.023 341.106C127.058 340.814 127.081 340.673 127.058 340.673Z" fill="#263238"/>
<path d="M88.006 494.928C96.5517 489.843 99.0067 474.412 95.4411 465.129C91.8755 455.847 85.6328 447.36 84.6742 437.458C83.926 429.848 86.4278 422.038 84.6742 414.603C82.2776 404.561 72.481 396.787 72.5979 386.464C72.6564 380.677 75.9531 375.23 75.6842 369.443C75.3686 362.358 69.9208 356.723 66.5539 350.481C61.3868 340.906 61.0477 329.602 59.2825 318.916C57.5172 308.231 53.4372 296.705 43.9212 291.432C42.5183 300.539 40.1218 306.782 40.87 319.115C41.1505 323.546 46.2944 331.975 46.9958 341.736C47.4166 347.582 47.6972 353.357 48.0596 359.155C48.422 364.954 48.7727 370.565 50.7952 375.849C52.35 379.906 54.8401 383.588 55.9974 387.773C58.1602 395.641 55.3077 404.14 57.0613 412.136C58.546 418.894 63.2222 424.704 64.1808 431.554C65.5135 441.176 59.2942 451.183 62.474 460.36C64.0639 464.919 67.8048 468.543 68.8687 473.278C69.6987 476.925 68.7985 480.795 69.5467 484.454C70.7158 490.369 82.0088 494.975 88.0294 494.589" fill="#E84855"/>
<path d="M46.2854 300.428C46.2694 300.599 46.2694 300.771 46.2854 300.942C46.2854 301.328 46.4023 301.819 46.4725 302.438C46.6712 303.76 46.8933 305.688 47.3375 308.19C47.7818 310.692 49.1145 313.521 50.1433 316.935C51.172 320.348 52.3177 324.253 53.2763 328.625C54.2349 332.997 55.0766 337.872 55.93 343.098C56.7834 348.324 57.7187 354.017 60.314 359.465C61.483 362.189 62.8625 364.924 63.8211 367.847C64.8033 370.838 65.4081 373.941 65.6214 377.082C66.0994 383.747 66.9384 390.382 68.1349 396.956C70.7536 410.447 73.2436 423.295 75.5116 434.997C77.7795 446.699 80.0592 457.139 81.8829 465.977C83.7066 474.815 85.203 481.876 86.2434 486.856L87.4125 492.526C87.5528 493.134 87.658 493.613 87.7515 493.987C87.7831 494.159 87.8301 494.327 87.8918 494.49C87.9125 494.319 87.9125 494.146 87.8918 493.975C87.8216 493.59 87.7398 493.11 87.6346 492.491C87.3774 491.135 87.015 489.217 86.5591 486.786C85.5771 481.794 84.221 474.663 82.4557 465.86C80.6905 457.057 78.5979 446.5 76.2715 434.845C73.9451 423.19 71.5953 410.295 68.9649 396.816C67.7677 390.241 66.9248 383.607 66.4398 376.942C66.2173 373.736 65.5928 370.57 64.581 367.519C63.5405 364.55 62.1728 361.803 60.9686 359.091C58.3967 353.725 57.4615 348.125 56.573 342.923C55.6845 337.72 54.8311 332.834 53.8141 328.438C52.797 324.043 51.6864 320.115 50.5407 316.748C49.3951 313.381 48.1208 310.528 47.6064 308.085C47.092 305.642 46.8465 303.678 46.601 302.38C46.4841 301.772 46.3906 301.281 46.3205 300.895C46.318 300.739 46.3063 300.583 46.2854 300.428V300.428Z" fill="#263238"/>
<path d="M458.524 56.2116H453.848C453.851 56.742 453.748 57.2676 453.545 57.7574C453.341 58.2471 453.041 58.691 452.663 59.0628C452.285 59.4345 451.836 59.7265 451.342 59.9216C450.849 60.1166 450.322 60.2106 449.792 60.1981C449.009 60.2262 448.236 60.0092 447.583 59.5775C446.929 59.1459 446.426 58.5209 446.144 57.7898C445.898 57.1811 445.799 56.5226 445.856 55.8684C445.913 55.2141 446.124 54.5826 446.472 54.0255C447.266 52.7162 448.997 51.5354 452.13 52.0849V41.5635H447.535V47.7127C445.65 48.2677 443.999 49.426 442.835 51.0098C441.672 52.5936 441.06 54.5155 441.094 56.4805C441.094 63.2844 447.196 64.8626 449.815 64.8626C451.814 64.9093 458.618 64.43 458.524 56.2116Z" fill="#E84855"/>
<path d="M447.5 39.4429H452.164V35.0823H447.5V39.4429Z" fill="#E84855"/>
<path d="M484.034 49.9887C484.049 49.7902 484.049 49.5909 484.034 49.3925C484.034 48.9716 484.034 48.3988 484.034 47.6623C484.034 47.2882 484.034 46.8556 483.975 46.388C483.917 45.9204 483.847 45.406 483.765 44.8682C483.683 44.3305 483.601 43.6992 483.508 43.0796L483.017 41.0922C482.148 37.6696 480.727 34.4118 478.808 31.4475C476.022 27.0575 472.267 23.3647 467.83 20.6531C463.394 17.9415 458.395 16.2831 453.218 15.8056C451.663 15.6683 450.1 15.6371 448.541 15.7121C447.758 15.7121 446.951 15.7121 446.203 15.8641L443.795 16.2265C440.491 16.8406 437.293 17.9314 434.302 19.4648C431.18 21.117 428.31 23.2074 425.78 25.6724C423.189 28.2979 421.024 31.3113 419.362 34.604C417.574 37.9985 416.402 41.6837 415.902 45.4878C415.756 46.4516 415.674 47.4241 415.656 48.3988C415.578 49.3748 415.559 50.3547 415.598 51.3331C415.852 57.6044 417.812 63.6875 421.268 68.9273V68.5649C419.643 72.6215 418.041 76.6079 416.474 80.4892L416.194 81.2023L416.93 80.9919L429.673 77.4847L429.369 77.4146C433.661 80.6635 438.66 82.8508 443.959 83.7976C446.417 84.2558 448.922 84.4089 451.417 84.2535C452.621 84.2356 453.821 84.1222 455.006 83.9145L456.748 83.6456C457.321 83.5404 457.917 83.3651 458.432 83.2365C466.284 81.2466 473.172 76.5263 477.861 69.921C479.61 67.4876 481.015 64.8243 482.035 62.0065C482.257 61.3869 482.467 60.8375 482.666 60.2295C482.865 59.6216 482.97 59.0605 483.098 58.5344C483.227 58.0084 483.367 57.4706 483.484 56.9796C483.601 56.4886 483.636 56.0093 483.706 55.5533C483.811 54.6532 483.975 53.8582 484.01 53.2152C484.045 52.5723 484.01 51.9527 484.01 51.4617C484.01 50.9707 484.01 50.6667 484.01 50.3978C484.01 50.129 484.01 50.0354 484.01 50.0354C483.992 50.1556 483.992 50.2777 484.01 50.3978C484.01 50.6667 484.01 51.0174 483.928 51.4617C483.847 51.9059 483.858 52.5255 483.811 53.2036C483.765 53.8816 483.589 54.6766 483.449 55.5417C482.334 62.0119 479.364 68.0191 474.9 72.8338C470.436 77.6484 464.67 81.0633 458.303 82.6636C457.753 82.7922 457.204 82.9559 456.643 83.0611L454.924 83.3183C453.765 83.5118 452.593 83.6173 451.417 83.6339C448.967 83.7631 446.511 83.6022 444.099 83.1546C438.924 82.2023 434.044 80.0524 429.848 76.8768L429.708 76.7599H429.533L416.778 80.2671L417.223 80.7698L422.027 68.8571L422.098 68.6701L421.992 68.4947C419.69 65.0119 418.057 61.1307 417.176 57.0497C416.772 55.1564 416.53 53.2323 416.451 51.298C416.412 50.343 416.431 49.3865 416.51 48.4338C416.517 47.4824 416.595 46.5328 416.743 45.593C417.192 41.8781 418.296 38.2722 420.005 34.943C421.63 31.7251 423.739 28.7759 426.259 26.1985C428.735 23.7785 431.546 21.7272 434.606 20.1077C437.53 18.5868 440.662 17.5037 443.9 16.8928L446.238 16.5304C447.022 16.4135 447.805 16.4252 448.576 16.3668C450.1 16.2943 451.627 16.3216 453.147 16.4486C458.24 16.8944 463.164 18.4947 467.545 21.1281C471.927 23.7614 475.65 27.3585 478.434 31.6463C480.363 34.5589 481.808 37.7646 482.713 41.1389L483.239 43.103C483.344 43.7226 483.437 44.272 483.531 44.8565C483.624 45.4411 483.695 45.9087 483.776 46.3763C483.858 46.8439 483.835 47.2648 483.87 47.6389C483.87 48.3637 483.963 48.9365 483.999 49.3574C483.976 49.5683 483.988 49.7815 484.034 49.9887V49.9887Z" fill="#263238"/>
<path d="M135.44 187.858H202.952C202.952 187.858 202.952 131.171 261.861 130.165C292.455 129.628 308.319 149.677 314.772 165.026C322.254 182.854 319.986 203.172 309.955 219.715C298.51 238.595 273.843 257.568 228.344 249.549L227.912 399.97H294.676V310.795C294.676 310.795 388.305 286.596 388.305 183.369C388.305 84.6427 308.471 63.3193 265.555 61.9398C241.683 61.18 233.032 60.1512 203.502 64.3481C165.87 69.7257 134.645 113.425 135.44 187.858Z" fill="#0471A6"/>
<path d="M295.464 431.314H227.706V494.595H295.464V431.314Z" fill="#0471A6"/>
<path opacity="0.1" d="M295.464 431.314H227.706V494.595H295.464V431.314Z" fill="black"/>
<path opacity="0.1" d="M135.44 187.858H202.952C202.952 187.858 202.952 131.171 261.861 130.165C292.455 129.628 308.319 149.677 314.772 165.026C322.254 182.854 319.986 203.172 309.955 219.715C298.51 238.595 273.843 257.568 228.344 249.549L227.912 399.97H294.676V310.795C294.676 310.795 388.305 286.596 388.305 183.369C388.305 84.6427 308.471 63.3193 265.555 61.9398C241.683 61.18 233.032 60.1512 203.502 64.3481C165.87 69.7257 134.645 113.425 135.44 187.858Z" fill="black"/>
<path d="M107.449 187.856H174.973C174.973 187.856 174.973 131.169 233.882 130.163C264.476 129.626 280.34 149.675 286.781 165.024C294.275 182.852 292.007 203.17 281.976 219.712C270.531 238.593 245.432 255.754 199.933 247.77V399.968H266.697V310.793C266.697 310.793 360.326 286.594 360.326 183.367C360.326 84.6408 271.782 61.7158 233.893 61.7158C204.913 61.7509 106.175 68.7535 107.449 187.856Z" fill="#0471A6"/>
<path opacity="0.3" d="M107.449 187.856H174.973C174.973 187.856 174.973 131.169 233.882 130.163C264.476 129.626 280.34 149.675 286.781 165.024C294.275 182.852 292.007 203.17 281.976 219.712C270.531 238.593 245.432 255.754 199.933 247.77V399.968H266.697V310.793C266.697 310.793 360.326 286.594 360.326 183.367C360.326 84.6408 271.782 61.7158 233.893 61.7158C204.913 61.7509 106.175 68.7535 107.449 187.856Z" fill="black"/>
<path d="M267.511 431.314H199.753V494.595H267.511V431.314Z" fill="#0471A6"/>
<path opacity="0.3" d="M267.511 431.314H199.753V494.595H267.511V431.314Z" fill="black"/>
<path d="M241.509 130.466C241.174 130.494 240.838 130.494 240.503 130.466C239.837 130.466 238.878 130.243 237.627 130.232C234.091 130.058 230.545 130.207 227.036 130.676C221.831 131.335 216.71 132.538 211.756 134.265C208.836 135.286 205.992 136.512 203.246 137.936C200.277 139.419 197.481 141.227 194.91 143.325C192.357 145.442 190.068 147.86 188.095 150.526C186.224 152.991 184.517 155.577 182.986 158.265C180.429 162.845 178.402 167.701 176.942 172.738C175.952 176.138 175.272 179.621 174.908 183.143C174.768 184.382 174.733 185.364 174.697 186.019C174.698 186.356 174.667 186.693 174.604 187.024C174.574 186.69 174.574 186.353 174.604 186.019C174.604 185.352 174.604 184.37 174.709 183.119C174.978 179.559 175.601 176.035 176.568 172.598C177.974 167.502 179.975 162.589 182.53 157.962C184.065 155.243 185.779 152.63 187.662 150.141C189.652 147.431 191.969 144.977 194.56 142.834C197.162 140.707 199.993 138.876 203 137.375C205.764 135.925 208.627 134.675 211.569 133.634C216.568 131.913 221.738 130.737 226.989 130.127C230.522 129.692 234.09 129.61 237.639 129.881C238.604 129.943 239.564 130.06 240.515 130.232C240.851 130.286 241.183 130.364 241.509 130.466Z" fill="#263238"/>
<path d="M343.235 118.434C343.235 118.434 343.154 118.352 343.013 118.176C342.873 118.001 342.663 117.697 342.429 117.358L340.196 114.202C339.717 113.524 339.202 112.74 338.594 111.934L336.49 109.373L334.082 106.416C333.205 105.387 332.176 104.393 331.148 103.306C330.119 102.219 329.067 101.062 327.874 99.951C326.682 98.8404 325.408 97.7064 324.098 96.5373C323.444 95.9528 322.801 95.3683 322.099 94.7487L319.925 93.0302C318.44 91.8611 316.967 90.6921 315.365 89.5231C308.385 84.5285 300.98 80.1551 293.235 76.4531L287.074 73.6708L280.96 71.3327C278.961 70.5026 276.927 69.9181 274.963 69.2635C272.999 68.6088 271.082 67.9424 269.118 67.4865L263.53 66.0252C261.718 65.5459 259.917 65.2536 258.199 64.8561C256.48 64.4587 254.82 64.108 253.195 63.9092L248.519 63.2312C245.562 62.7285 242.849 62.6233 240.488 62.3895C239.319 62.2959 238.15 62.1673 237.179 62.1206L234.397 62.0504L230.539 61.9218H229.534H229.195C229.307 61.9043 229.422 61.9043 229.534 61.9218H230.539H234.397H237.191C238.208 61.9218 239.319 62.0621 240.511 62.144C242.849 62.3427 245.608 62.4245 248.566 62.9038L253.242 63.5351C254.867 63.7222 256.527 64.143 258.257 64.4587C259.988 64.7743 261.765 65.1017 263.623 65.6277L269.235 67.0773C271.175 67.5216 273.093 68.2464 275.08 68.8426C277.067 69.4388 279.09 70.0116 281.089 70.9001L287.238 73.2382L293.434 76.0322C301.219 79.7427 308.653 84.1484 315.646 89.1957C317.259 90.3648 318.732 91.6157 320.217 92.773L322.391 94.3512C323.093 94.9357 323.736 95.5203 324.39 96.1516L328.155 99.6587C329.324 100.828 330.376 101.997 331.416 103.061C332.457 104.124 333.451 105.165 334.327 106.205L336.665 109.186L338.746 111.782C339.343 112.6 339.845 113.395 340.313 114.12C341.225 115.488 341.938 116.563 342.441 117.335L342.99 118.188C343.082 118.259 343.165 118.342 343.235 118.434V118.434Z" fill="#263238"/>
<path d="M336.194 263.413C336.055 263.666 335.886 263.901 335.691 264.114L334.078 266.02C333.412 266.873 332.57 267.89 331.53 269.024C330.489 270.158 329.379 271.491 328.022 272.87C326.666 274.25 325.217 275.793 323.568 277.348C321.92 278.902 320.131 280.539 318.226 282.246C309.868 289.541 300.706 295.86 290.917 301.079C288.649 302.248 286.51 303.417 284.44 304.318C282.371 305.218 280.442 306.141 278.665 306.889C276.888 307.638 275.252 308.257 273.825 308.807C272.399 309.356 271.148 309.8 270.12 310.128L267.781 310.888C267.51 310.995 267.228 311.074 266.94 311.121C267.192 310.977 267.458 310.86 267.735 310.771L270.073 309.906C271.09 309.543 272.317 309.076 273.732 308.491C275.146 307.907 276.783 307.322 278.537 306.492C280.29 305.662 282.231 304.879 284.253 303.862C286.276 302.845 288.439 301.769 290.695 300.588C295.149 298.133 299.954 295.257 304.805 291.937C309.657 288.617 314.017 285.122 317.899 281.825C319.804 280.142 321.628 278.563 323.253 276.974C324.878 275.384 326.397 273.946 327.742 272.566C329.086 271.187 330.267 269.913 331.319 268.79C332.371 267.668 333.236 266.686 333.938 265.868L335.575 264.009C335.765 263.794 335.972 263.594 336.194 263.413V263.413Z" fill="#263238"/>
<path d="M265.513 394.669C265.337 394.669 265.197 375.894 265.197 352.735C265.197 329.577 265.337 310.79 265.513 310.79C265.688 310.79 265.817 329.565 265.817 352.735C265.817 375.906 265.676 394.669 265.513 394.669Z" fill="#263238"/>
<path d="M268.09 490.289C267.915 490.289 267.786 477.114 267.786 460.864C267.786 444.615 267.915 431.428 268.09 431.428C268.265 431.428 268.394 444.603 268.394 460.864C268.394 477.126 268.254 490.289 268.09 490.289Z" fill="#263238"/>
<path d="M334.554 178.899C333.385 181.237 337.745 183.154 340.259 183.914C342.823 184.544 345.477 184.726 348.103 184.452C351.61 184.265 355.199 183.938 358.227 182.207C360.878 180.565 362.998 178.189 364.329 175.368C365.642 172.557 366.679 169.624 367.427 166.612C367.427 166.612 339.803 168.413 334.554 178.899Z" fill="#E84855"/>
<g opacity="0.4">
<path d="M334.553 178.899C333.384 181.237 337.745 183.154 340.258 183.914C342.822 184.543 345.476 184.725 348.102 184.452C351.609 184.264 355.198 183.937 358.226 182.207C360.878 180.564 362.997 178.189 364.329 175.368C365.641 172.556 366.679 169.624 367.427 166.612C367.427 166.612 339.802 168.412 334.553 178.899Z" fill="black"/>
</g>
<path d="M412.556 171.4C417.11 174.63 422.568 176.34 428.151 176.287C430.828 176.436 433.467 175.605 435.575 173.949C436.475 173.119 437.153 172.066 438.077 171.271C438.708 170.734 439.444 170.324 440.041 169.752C440.355 169.481 440.598 169.136 440.747 168.748C440.896 168.361 440.946 167.942 440.894 167.53C440.663 166.515 440.094 165.608 439.281 164.959C436.113 163.158 432.325 163.228 428.677 163.31C425.027 163.468 421.421 164.174 417.981 165.403C415.151 166.361 412.194 167.741 410.756 170.313" fill="#E84855"/>
<g opacity="0.4">
<path d="M440.898 167.538C440.485 166.551 439.758 165.729 438.829 165.199C435.661 163.399 432.329 163.235 428.682 163.317C425.031 163.475 421.426 164.181 417.985 165.41C415.156 166.368 412.198 167.748 410.76 170.32L412.561 171.407C417.115 174.637 422.572 176.347 428.156 176.294C430.832 176.443 433.471 175.612 435.579 173.956C436.479 173.126 437.157 172.073 438.081 171.278C438.712 170.741 439.449 170.332 440.045 169.759C440.36 169.488 440.602 169.143 440.751 168.755C440.9 168.368 440.951 167.949 440.898 167.538V167.538Z" fill="black"/>
</g>
<path d="M358.618 213.368L416.895 214.14C417.014 214.14 417.131 214.111 417.237 214.058C417.343 214.004 417.434 213.927 417.505 213.831C417.575 213.736 417.623 213.625 417.643 213.508C417.663 213.391 417.655 213.271 417.62 213.158L410.781 191.834C410.781 191.834 411.787 181.173 413.178 168.36C415.294 148.895 418.111 124.427 418.146 124.497C414.16 113.321 390.639 111.427 390.639 111.427L363.832 113.017L362.897 111.439L355.181 115.028C353.499 115.811 351.88 116.726 350.342 117.763C345.245 121.165 332.97 128.986 330.725 137.696C325.546 157.862 334.314 180.366 334.314 180.366L339.949 175.959C341.368 174.865 342.86 173.869 344.414 172.978L355.707 203.244C355.035 203.668 354.466 204.236 354.042 204.908C353.617 205.579 353.347 206.337 353.252 207.126C353.159 209.581 354.422 212.527 358.618 213.368" fill="#E84855"/>
<g opacity="0.3">
<path d="M383.627 177.695C385.474 167.758 384.504 157.541 383.51 147.487C380.283 155.67 380.4 165.023 376.975 173.136C376.555 173.993 376.249 174.9 376.063 175.836C375.974 176.306 375.997 176.791 376.131 177.25C376.266 177.709 376.507 178.13 376.835 178.478C377.77 179.332 379.173 178.864 380.412 178.724C381.521 178.512 382.601 178.167 383.627 177.695" fill="black"/>
</g>
<g opacity="0.4">
<path d="M362.138 200.686C366.814 202.311 371.794 199.283 376.739 198.745C380.013 198.394 383.286 199.143 386.536 199.669C393.108 200.732 399.793 200.897 406.41 200.16C407.425 200.104 408.419 199.846 409.332 199.4C409.804 199.078 410.191 198.646 410.458 198.14C410.725 197.635 410.864 197.072 410.864 196.501C399.851 195.332 388.851 194.7 377.838 193.566C375.097 193.099 372.29 193.19 369.585 193.835C366.265 194.864 363.739 197.471 361.401 200.055" fill="black"/>
</g>
<path d="M439.23 163.716C434.472 152.996 417.696 123.349 417.696 123.349L404.708 139.633L407.736 171.607C407.736 171.607 414.598 163.95 433.782 163.798C435.176 163.853 436.54 164.22 437.774 164.872C439.008 165.523 440.081 166.442 440.913 167.562L439.23 163.716Z" fill="#E84855"/>
<path d="M361.235 158.045C360.308 155.772 359.573 153.426 359.037 151.031C358.311 148.698 357.779 146.308 357.447 143.888C358.36 146.164 359.091 148.51 359.633 150.902C360.359 153.236 360.895 155.624 361.235 158.045V158.045Z" fill="#263238"/>
<path d="M403.724 137.453C404.147 137.752 404.538 138.093 404.893 138.47C405.926 139.468 406.894 140.53 407.792 141.65C410.815 145.345 412.94 149.691 414 154.346C414.55 156.919 414.673 159.565 414.362 162.179C414.07 164.575 413.614 166.679 413.31 168.456C413.006 170.233 412.819 171.683 412.726 172.688C412.723 173.211 412.668 173.732 412.562 174.243C412.479 173.721 412.456 173.192 412.492 172.665C412.543 171.232 412.676 169.804 412.889 168.386C413.135 166.598 413.544 164.47 413.813 162.12C414.083 159.566 413.945 156.985 413.404 154.475C412.357 149.906 410.326 145.622 407.453 141.919C405.314 139.043 403.63 137.547 403.724 137.453Z" fill="#263238"/>
<path d="M391.813 210.796C391.407 210.977 390.978 211.103 390.539 211.171C390.04 211.302 389.532 211.4 389.019 211.463C388.423 211.545 387.745 211.673 386.985 211.708C385.204 211.872 383.412 211.872 381.631 211.708C379.452 211.484 377.299 211.054 375.201 210.422C373.114 209.752 371.094 208.887 369.169 207.839C367.608 206.968 366.125 205.962 364.738 204.834C364.13 204.367 363.639 203.876 363.195 203.467C362.812 203.121 362.449 202.754 362.108 202.368C361.783 202.067 361.503 201.72 361.278 201.339C361.359 201.257 362.61 202.66 365.007 204.495C366.407 205.561 367.888 206.514 369.438 207.348C371.341 208.348 373.328 209.181 375.376 209.838C377.438 210.459 379.551 210.897 381.689 211.147C383.436 211.335 385.195 211.39 386.95 211.311C389.954 211.147 391.79 210.703 391.813 210.796Z" fill="#263238"/>
<path d="M409.793 204.148C410.068 204.677 410.223 205.26 410.249 205.855C410.435 207.28 410.328 208.729 409.933 210.111C409.531 211.524 408.717 212.786 407.595 213.735C406.741 214.448 406.087 214.67 406.052 214.611C406.017 214.553 406.566 214.167 407.303 213.442C408.248 212.456 408.935 211.251 409.302 209.935C410.237 206.849 409.57 204.16 409.793 204.148Z" fill="#263238"/>
<path d="M406.626 208.264C406.88 209.466 406.778 210.716 406.334 211.862C405.89 213.008 405.122 214 404.124 214.717C403.996 214.588 405.083 213.431 405.761 211.642C406.439 209.854 406.451 208.275 406.626 208.264Z" fill="#263238"/>
<path d="M396.212 169.798C395.592 170.845 394.897 171.845 394.131 172.791C393.526 173.846 392.843 174.855 392.085 175.807C392.31 174.573 392.84 173.415 393.628 172.44C394.251 171.354 395.14 170.445 396.212 169.798V169.798Z" fill="#263238"/>
<path d="M356.212 141.491C355.322 140.968 354.459 140.398 353.629 139.784C349.471 137.053 344.753 135.291 339.822 134.629C338.79 134.554 337.763 134.417 336.748 134.22C337.783 134.077 338.833 134.077 339.869 134.22C344.934 134.652 349.784 136.459 353.898 139.445C354.76 140.016 355.539 140.705 356.212 141.491Z" fill="#263238"/>
<path d="M417.663 122.944C415.57 124.629 413.616 126.478 411.817 128.474C410.162 130.604 408.68 132.863 407.387 135.231C407.525 134.435 407.798 133.668 408.193 132.963C409.04 131.21 410.1 129.569 411.35 128.076C412.603 126.587 414.041 125.263 415.628 124.137C416.233 123.625 416.921 123.222 417.663 122.944Z" fill="#263238"/>
<path d="M393.619 113.315C393.726 113.484 393.812 113.665 393.876 113.853C394.104 114.383 394.288 114.93 394.426 115.49C394.919 117.573 394.919 119.743 394.426 121.826C393.698 124.936 392.033 127.748 389.656 129.881C386.656 132.423 382.833 133.786 378.901 133.715C374.966 133.729 371.132 132.47 367.97 130.126C365.451 128.203 363.408 125.727 361.996 122.89C361.046 120.99 360.376 118.962 360.009 116.869C359.902 116.306 359.831 115.735 359.799 115.163C359.766 114.961 359.766 114.756 359.799 114.555C359.799 114.555 359.927 115.373 360.255 116.823C360.709 118.856 361.428 120.821 362.394 122.668C363.82 125.42 365.845 127.817 368.321 129.682C371.367 131.938 375.052 133.166 378.842 133.189C382.632 133.259 386.32 131.964 389.235 129.542C391.532 127.487 393.16 124.791 393.911 121.803C394.432 119.785 394.503 117.678 394.122 115.63C393.9 114.087 393.549 113.339 393.619 113.315Z" fill="#263238"/>
<g opacity="0.3">
<path d="M397.72 171.883C397.72 171.299 397.626 170.609 397.112 170.317C396.949 170.235 396.769 170.192 396.586 170.192C396.403 170.192 396.223 170.235 396.06 170.317C395.733 170.494 395.443 170.732 395.206 171.018C393.832 172.449 392.769 174.148 392.085 176.01L397.813 175.508C397.778 174.327 397.755 173.088 397.72 171.883Z" fill="black"/>
</g>
<g opacity="0.3">
<path d="M416.725 159.826C416.149 156.548 414.713 153.482 412.563 150.941C415.042 159.031 414.212 163.602 412.82 169.143L413.124 168.371C414.726 165.133 417.158 163.099 416.725 159.826Z" fill="black"/>
</g>
<path d="M405.299 431.56L401.803 483.992L379.007 483.723L375.418 429.21L405.299 431.56Z" fill="#FFBE9D"/>
<path d="M402.444 477.089V478.609C402.444 478.609 428.163 488.944 428.409 493.807L377.333 493.526L378.128 476.54C385.739 480.106 393.7 480.55 402.444 477.089Z" fill="#E84855"/>
<path d="M383.301 481.99C382.816 482.137 382.402 482.455 382.135 482.886C381.868 483.316 381.767 483.829 381.852 484.329C381.977 484.827 382.29 485.258 382.726 485.531C383.162 485.803 383.687 485.896 384.19 485.79C384.71 485.634 385.154 485.291 385.434 484.826C385.715 484.362 385.813 483.809 385.709 483.276C385.524 482.772 385.15 482.359 384.665 482.125C384.181 481.892 383.624 481.856 383.114 482.026" fill="white"/>
<path d="M377.333 493.533L377.52 489.453L426.433 491.23C426.433 491.23 428.701 492.235 428.432 493.825L377.333 493.533Z" fill="#263238"/>
<path d="M402.623 478.752C402.623 478.998 401.36 479.103 400.132 479.921C398.905 480.739 398.239 481.757 398.016 481.663C397.794 481.57 398.168 480.12 399.677 479.185C401.185 478.249 402.681 478.483 402.623 478.752Z" fill="#263238"/>
<path d="M407.956 480.997C408.015 481.243 406.927 481.652 406.074 482.704C405.221 483.756 404.975 484.867 404.718 484.855C404.461 484.843 404.32 483.429 405.408 482.155C406.495 480.88 407.944 480.822 407.956 480.997Z" fill="#263238"/>
<path d="M410.965 487.427C410.731 487.427 410.392 486.258 411.046 484.867C411.701 483.476 412.858 482.973 412.964 483.172C413.069 483.37 412.344 484.107 411.795 485.241C411.245 486.375 411.222 487.404 410.965 487.427Z" fill="#263238"/>
<path d="M401.142 48.1272C402.463 44.8539 400.861 40.8908 398.021 38.7748C395.027 36.804 391.376 36.094 387.862 36.7992C384.395 37.5261 381.038 38.7053 377.878 40.3063C376.409 38.8244 374.556 37.78 372.528 37.2899C370.499 36.7998 368.374 36.8831 366.39 37.5307C364.406 38.1783 362.642 39.3645 361.293 40.957C359.944 42.5495 359.064 44.4856 358.752 46.549C357.488 46.2309 356.162 46.2629 354.914 46.6416C353.667 47.0204 352.547 47.7316 351.673 48.6989C350.8 49.6662 350.206 50.8532 349.956 52.1324C349.706 53.4116 349.808 54.7347 350.253 55.9599L366.059 61.5128L383.314 91.9081C385.864 94.0837 389.119 95.2573 392.471 95.2098C395.822 95.1623 399.042 93.897 401.53 91.65C404.017 89.4029 405.602 86.3276 405.989 82.9979C406.376 79.6682 405.538 76.3115 403.632 73.554C404.599 72.6942 405.42 71.6836 406.064 70.5613C407.443 69.7459 408.646 68.6645 409.603 67.3801C410.56 66.0956 411.253 64.6337 411.64 63.0793C413.171 56.3106 407.934 48.9222 401.142 48.1272Z" fill="#263238"/>
<path d="M390.672 111.42C389.69 106.475 389.012 103.085 389.024 103.12C389.035 103.155 398.376 99.4956 397.698 86.4841C397.371 80.0076 394.904 69.8018 392.613 61.5249C390.555 54.0663 383.599 45.8479 376.246 48.2211L353.952 59.0933C351.719 59.8181 351.334 61.9224 351.86 64.202V65.3711L360.522 101.214L364.181 117.23C364.961 120.519 366.944 123.396 369.74 125.296C372.535 127.196 375.941 127.98 379.286 127.494C381.112 127.237 382.867 126.61 384.443 125.65C386.018 124.691 387.381 123.419 388.447 121.914C389.513 120.409 390.261 118.701 390.643 116.897C391.026 115.092 391.036 113.228 390.672 111.42V111.42Z" fill="#FFBE9D"/>
<path d="M392.528 70.1942C392.622 70.609 392.553 71.044 392.336 71.4094C392.118 71.7749 391.769 72.0429 391.359 72.1582C391.153 72.2159 390.937 72.2312 390.724 72.2032C390.511 72.1751 390.307 72.1044 390.122 71.9952C389.937 71.886 389.777 71.7405 389.65 71.5676C389.523 71.3947 389.432 71.198 389.384 70.9891C389.29 70.5758 389.359 70.1424 389.577 69.7789C389.795 69.4154 390.144 69.1496 390.553 69.0368C390.758 68.9773 390.974 68.9602 391.187 68.9867C391.399 69.0133 391.604 69.0828 391.789 69.1911C391.974 69.2993 392.135 69.4441 392.262 69.6166C392.389 69.789 392.48 69.9856 392.528 70.1942V70.1942Z" fill="#263238"/>
<path d="M391.514 67.7014C391.351 67.9586 389.936 67.3156 388.206 67.7014C386.476 68.0872 385.377 69.2094 385.143 69.0341C384.909 68.8587 385.143 68.5314 385.622 68.017C386.265 67.3374 387.102 66.8721 388.019 66.6843C388.923 66.4893 389.866 66.5918 390.708 66.9766C391.362 67.2454 391.584 67.5962 391.514 67.7014Z" fill="#263238"/>
<path d="M375.545 74.0281C375.639 74.4414 375.57 74.8748 375.352 75.2383C375.134 75.6019 374.785 75.8676 374.376 75.9804C374.175 76.0391 373.963 76.0573 373.754 76.0338C373.545 76.0102 373.343 75.9455 373.159 75.8433C372.975 75.7411 372.814 75.6034 372.684 75.4384C372.553 75.2733 372.457 75.084 372.401 74.8815C372.307 74.4667 372.376 74.0317 372.593 73.6663C372.811 73.3008 373.16 73.0328 373.57 72.9175C373.772 72.8589 373.985 72.8413 374.194 72.8656C374.404 72.8898 374.606 72.9556 374.79 73.0589C374.974 73.1623 375.136 73.3012 375.265 73.4676C375.395 73.634 375.49 73.8245 375.545 74.0281Z" fill="#263238"/>
<path d="M374.689 71.8107C374.537 72.0679 373.111 71.4132 371.381 71.8107C369.651 72.2081 368.552 73.307 368.318 73.1434C368.084 72.9797 368.318 72.6407 368.797 72.1146C369.443 71.4411 370.279 70.9803 371.194 70.7936C372.097 70.6015 373.038 70.6997 373.883 71.0742C374.502 71.3547 374.771 71.6704 374.689 71.8107Z" fill="#263238"/>
<path d="M383.5 82.796C384.358 82.3232 385.268 81.9543 386.213 81.6971C386.645 81.5568 387.054 81.3815 387.066 81.0658C387.005 80.6009 386.805 80.165 386.493 79.8149L384.471 76.7053C381.642 72.2746 379.491 68.6038 379.666 68.5219C379.841 68.4401 382.285 71.9122 385.114 76.3429L387.089 79.4759C387.478 79.9554 387.688 80.5542 387.686 81.171C387.651 81.3392 387.579 81.4976 387.476 81.635C387.373 81.7724 387.241 81.8854 387.089 81.966C386.861 82.0871 386.617 82.1775 386.365 82.2349C385.44 82.5515 384.476 82.7403 383.5 82.796Z" fill="#263238"/>
<path d="M389.019 103.116C383.106 104.453 376.938 104.121 371.203 102.158C371.203 102.158 377.329 110.154 389.686 106.331L389.019 103.116Z" fill="#EB996E"/>
<path d="M374.983 69.3452C374.866 69.8479 373.077 69.8362 371.043 70.3389C369.009 70.8416 367.396 71.6015 367.068 71.204C366.928 71.0169 367.162 70.5259 367.781 70.0349C368.605 69.3414 369.583 68.8562 370.634 68.6204C371.675 68.3733 372.76 68.3733 373.802 68.6204C374.632 68.7724 375.064 69.1114 374.983 69.3452Z" fill="#263238"/>
<path d="M390.841 62.178C390.56 62.6456 389.064 62.5287 387.334 62.8677C385.604 63.2068 384.236 63.7913 383.827 63.4523C383.64 63.2769 383.827 62.8327 384.329 62.2832C385.101 61.634 386.034 61.2058 387.03 61.044C388.009 60.8468 389.023 60.9195 389.964 61.2545C390.677 61.5818 390.958 61.9442 390.841 62.178Z" fill="#263238"/>
<path d="M359.468 50.716C359.726 51.9824 360.261 53.1763 361.033 54.2129C361.805 55.2495 362.796 56.1033 363.935 56.7137C365.075 57.3241 366.334 57.6761 367.625 57.7447C368.916 57.8133 370.206 57.5969 371.404 57.1107C373.251 56.3625 375.168 54.9596 377.038 55.6377C378.909 56.3157 379.68 58.9812 381.469 59.9749C384.099 61.4479 387.314 58.8993 390.249 59.1565C392.587 59.3553 394.352 61.1439 396.164 62.6637C397.976 64.1834 400.478 65.3291 402.524 64.2302C402.055 62.2779 401.361 60.3869 400.454 58.5954C399.54 56.7918 398.028 55.362 396.176 54.5505C395.147 54.1413 394.036 54.001 393.054 53.4983C390.938 52.4228 389.991 49.9912 388.46 48.1558C387.454 46.9992 386.187 46.0989 384.764 45.5297C383.341 44.9604 381.803 44.7385 380.277 44.8824C377.752 45.1396 375.355 46.4139 372.806 46.3087C370.924 46.2269 369.124 45.3851 367.242 45.4202C363.583 45.4202 360.835 48.6935 358.801 51.7448" fill="#263238"/>
<path d="M371.789 53.4168C370.106 53.2882 366.669 52.9375 365.535 51.745C364.383 50.4565 362.912 49.4932 361.271 48.9516C359.63 48.41 357.875 48.309 356.182 48.6588C354.503 49.1595 353.028 50.1862 351.976 51.5879C350.924 52.9895 350.349 54.692 350.337 56.4446C348.292 56.9438 346.419 57.9861 344.917 59.4615C343.415 60.9368 342.339 62.7905 341.803 64.8267C341.259 66.9583 341.241 69.1901 341.75 71.3304C342.259 73.4706 343.28 75.4551 344.726 77.1134C345.428 77.9916 346.068 78.9173 346.643 79.8841C345.85 80.8674 345.153 81.9244 344.562 83.0405C341.885 88.9559 349.145 91.2238 349.145 91.2238C349.145 95.1986 352.827 95.1752 355.177 95.1635C357.527 95.1518 358.824 101.43 360.66 101.184L358.801 81.813C359.073 81.9188 359.362 81.9743 359.654 81.9767C364.085 82.0585 362.928 73.6647 361.501 71.4552C362.821 69.8119 363.936 68.0139 364.821 66.101C365.624 63.1766 365.68 60.0977 364.985 57.146C366.47 56.959 372.514 53.4635 371.789 53.4168Z" fill="#263238"/>
<path d="M359.381 82.8275C359.23 82.212 358.926 81.6447 358.496 81.1786C358.067 80.7125 357.526 80.3628 356.925 80.162C356.324 79.9613 355.682 79.916 355.059 80.0305C354.435 80.145 353.851 80.4155 353.361 80.8167C352.191 81.8221 351.572 83.5055 352.273 86.3229C354.167 93.8516 361.333 90.4029 361.287 90.1925C361.24 89.9821 360.199 85.9372 359.381 82.8275Z" fill="#FFBE9D"/>
<path d="M358.266 87.9274C358.266 87.9274 358.161 88.056 357.962 88.2079C357.686 88.4199 357.338 88.5163 356.992 88.4768C356.127 88.3833 355.133 87.3078 354.759 85.94C354.581 85.3009 354.545 84.6305 354.654 83.976C354.666 83.7217 354.739 83.4741 354.867 83.2543C354.995 83.0345 355.175 82.8489 355.39 82.7134C355.532 82.6369 355.697 82.6126 355.855 82.6446C356.013 82.6766 356.154 82.763 356.255 82.8888C356.407 83.0641 356.396 83.2278 356.442 83.2395C356.489 83.2512 356.571 83.0641 356.442 82.7719C356.353 82.5985 356.209 82.459 356.033 82.3744C355.786 82.2743 355.509 82.2743 355.262 82.3744C354.968 82.5138 354.714 82.7252 354.524 82.9888C354.334 83.2525 354.214 83.5599 354.175 83.8825C354.023 84.6187 354.051 85.3806 354.256 86.1037C354.387 86.7825 354.715 87.4077 355.2 87.9006C355.684 88.3936 356.304 88.7323 356.98 88.8743C357.2 88.8832 357.42 88.8427 357.622 88.7557C357.824 88.6687 358.004 88.5375 358.149 88.3716C358.301 88.1144 358.301 87.9391 358.266 87.9274Z" fill="#EB996E"/>
<path d="M399.742 72.3086C399.742 72.3086 400.432 71.7825 401.39 70.6134C402.713 68.929 403.525 66.9002 403.728 64.7682C403.883 63.3128 403.74 61.841 403.307 60.4427C402.808 58.8388 401.883 57.4004 400.63 56.2809C399.184 55.018 397.433 54.155 395.551 53.7777C393.668 53.4004 391.72 53.5218 389.898 54.1299C389.548 54.2468 389.22 54.4221 388.893 54.5624C388.566 54.7027 388.274 54.9131 387.97 55.0885L387.502 55.3457V54.8313C387.492 53.9257 387.156 53.0541 386.555 52.3763C385.94 51.7185 385.185 51.2072 384.346 50.8799C382.758 50.2183 380.999 50.087 379.33 50.5058C376.104 51.2423 373.368 52.7153 370.785 53.0193C368.759 53.3714 366.674 52.9545 364.939 51.8502C364.481 51.5352 364.085 51.139 363.77 50.6812C363.583 50.3655 363.49 50.1902 363.513 50.1785C363.937 50.7558 364.454 51.2577 365.045 51.6632C366.751 52.6484 368.756 52.9846 370.691 52.6101C372.037 52.3568 373.353 51.9651 374.619 51.4411C376.105 50.8471 377.628 50.3512 379.178 49.9564C380.043 49.7472 380.932 49.6568 381.82 49.6875C382.758 49.737 383.68 49.9507 384.544 50.3188C385.438 50.7007 386.237 51.2756 386.882 52.0022C387.574 52.7936 387.963 53.804 387.981 54.8547L387.514 54.5975L388.484 54.0363C388.846 53.8961 389.185 53.709 389.559 53.5804C391.479 52.9231 393.538 52.7856 395.528 53.1819C397.517 53.5782 399.367 54.4941 400.888 55.8367C402.202 57.027 403.165 58.5556 403.67 60.2557C404.195 62.0575 404.265 63.9612 403.876 65.797C403.486 67.6328 402.648 69.3436 401.437 70.7771C401.052 71.2165 400.616 71.6089 400.139 71.9461C400.022 72.0826 399.889 72.2043 399.742 72.3086Z" fill="#455A64"/>
<path d="M398.226 45.8767C397.458 45.487 396.64 45.2076 395.794 45.0466C394.828 44.9145 393.844 45.0065 392.918 45.3155C391.72 45.6821 390.679 46.4394 389.96 47.4666L389.668 47.8757L389.493 47.4081C388.882 45.971 387.9 44.7227 386.646 43.7918C385.393 42.861 383.914 42.2812 382.362 42.1123C379.924 42.0206 377.521 42.7176 375.511 44.0997C373.798 45.2161 371.977 46.1562 370.075 46.9054C368.764 47.4015 367.351 47.57 365.96 47.3964C365.589 47.328 365.225 47.2262 364.873 47.0925C364.639 46.9873 364.51 46.9288 364.522 46.9054C364.534 46.882 365.048 47.0574 365.995 47.1509C367.34 47.235 368.686 47.0152 369.935 46.508C371.783 45.7019 373.556 44.7316 375.23 43.6087C376.265 42.9663 377.362 42.4297 378.504 42.0071C379.759 41.5493 381.101 41.3775 382.432 41.5044C384.09 41.6855 385.668 42.3127 386.998 43.3193C388.328 44.326 389.36 45.6744 389.984 47.2211H389.528C390.332 46.1225 391.48 45.3242 392.79 44.9531C393.785 44.6646 394.834 44.6125 395.853 44.8011C396.498 44.9236 397.115 45.1612 397.676 45.5026C397.876 45.6005 398.061 45.7264 398.226 45.8767V45.8767Z" fill="#455A64"/>
<path d="M382.836 86.2711C382.563 86.0428 382.244 85.8748 381.902 85.7781C381.559 85.6814 381.2 85.6582 380.848 85.71C380.436 85.7979 380.048 85.9713 379.707 86.219C379.367 86.4667 379.083 86.7832 378.872 87.1479C378.872 87.1479 378.814 87.2064 378.802 87.2414C378.641 87.5084 378.568 87.8191 378.592 88.1299C378.643 88.4686 378.776 88.7895 378.98 89.0647C379.184 89.3399 379.452 89.5608 379.761 89.7081C380.255 89.9586 380.814 90.0504 381.363 89.9709C381.911 89.8914 382.421 89.6445 382.824 89.2639C383.206 88.8601 383.42 88.3258 383.422 87.7698C383.424 87.2139 383.215 86.6779 382.836 86.2711V86.2711Z" fill="#E84855"/>
<path d="M383.414 89.9021C383.32 89.9021 383.215 89.5514 382.899 89.0721C382.519 88.4295 381.951 87.9191 381.272 87.6096C380.592 87.3002 379.834 87.2068 379.1 87.3419C378.527 87.4237 378.176 87.5874 378.141 87.5056C378.106 87.4237 378.375 87.1432 379.006 86.921C379.833 86.6551 380.728 86.7051 381.52 87.0613C382.319 87.417 382.95 88.0655 383.285 88.8733C383.531 89.4812 383.495 89.8904 383.414 89.9021Z" fill="#263238"/>
<path d="M359.55 91.3488C359.55 91.3488 359.889 91.9333 359.444 92.8218C359.193 93.3535 358.751 93.7709 358.205 93.9909C357.865 94.1127 357.501 94.154 357.142 94.1114C356.783 94.0688 356.438 93.9435 356.136 93.7454C355.828 93.5583 355.568 93.3027 355.375 92.9986C355.183 92.6944 355.063 92.3499 355.025 91.9918C354.99 91.4144 355.16 90.843 355.505 90.3785C356.113 89.6069 356.791 89.5836 356.791 89.6537C356.791 89.7238 356.276 89.9226 355.867 90.624C355.63 91.017 355.531 91.4778 355.586 91.9333C355.63 92.2002 355.731 92.4543 355.882 92.6783C356.034 92.9024 356.232 93.0909 356.463 93.231C356.691 93.377 356.948 93.4732 357.216 93.5135C357.484 93.5538 357.757 93.5372 358.018 93.4648C358.45 93.3103 358.822 93.024 359.082 92.6465C359.538 91.9217 359.456 91.3488 359.55 91.3488Z" fill="#E84855"/>
<path d="M355.618 90.901C355.676 90.901 355.618 91.2985 355.068 91.5557C354.798 91.6679 354.502 91.7004 354.214 91.6495C353.926 91.5986 353.659 91.4664 353.444 91.2685C353.229 91.0706 353.075 90.8152 353 90.5326C352.925 90.25 352.933 89.9519 353.022 89.6735C353.137 89.3574 353.355 89.0895 353.642 88.9136C354.121 88.6214 354.484 88.7383 354.472 88.8084C354.46 88.8786 354.192 88.9604 353.899 89.2527C353.755 89.4323 353.668 89.6504 353.647 89.8797C353.627 90.1089 353.675 90.3391 353.785 90.5413C353.894 90.7435 354.062 90.9088 354.265 91.0165C354.468 91.1241 354.699 91.1694 354.928 91.1465C355.325 91.0647 355.536 90.8543 355.618 90.901Z" fill="#E84855"/>
<path d="M368.459 194.712C368.459 194.712 397.405 196.396 414.52 196.548C427.765 196.676 433.68 193.158 436.322 184.635C438.544 177.492 433.774 163.779 433.774 163.779C424.807 163.779 419.278 165.065 413.514 167.766L415.046 174.032L368.377 178.053L368.459 194.712Z" fill="#FFBE9D"/>
<path d="M424.773 180.736C423.518 179.103 422.051 177.645 420.412 176.398C418.654 175.323 416.759 174.489 414.778 173.92C415.402 173.83 416.038 173.886 416.636 174.084C418.107 174.431 419.502 175.045 420.751 175.896C422.003 176.749 423.085 177.827 423.943 179.076C424.598 180.034 424.843 180.7 424.773 180.736Z" fill="#EB996E"/>
<path d="M357.876 167.734C357.876 167.734 348.922 169.885 342.34 174.28L349.354 193.289C351.692 199.532 358.835 202.641 364.552 199.368C373.355 194.329 376.464 179.646 376.464 179.646L386.132 137.701L370.105 127.659L357.935 167.734" fill="#FFBE9D"/>
<path d="M370.043 127.663L370.697 113.868L367.108 99.8392C366.91 99.0676 366.816 98.0973 367.447 97.6297C367.76 97.3896 368.147 97.2655 368.541 97.2782C368.936 97.291 369.313 97.44 369.61 97.6998C370.58 98.7052 375.257 110.969 375.257 110.969C375.257 110.969 382.353 106.713 383.615 106.503C384.878 106.292 386.456 110.115 386.561 110.407C386.608 111.264 386.608 112.123 386.561 112.979C386.561 112.979 390.945 113.108 391.343 113.704C391.661 114.922 391.83 116.174 391.845 117.433C391.845 117.433 393.704 118.03 393.996 119.432C394.289 120.835 394.897 123.15 393.996 123.664C393.096 124.179 391.273 125.184 391.273 125.184C391.273 125.184 390.536 132.339 390.337 132.993C390.139 133.648 386.035 137.67 386.035 137.67L370.043 127.663Z" fill="#FFBE9D"/>
<path d="M355.127 199.645C355.127 199.645 355.559 199.902 356.471 200.194C357.805 200.613 359.215 200.725 360.598 200.522C362.819 200.205 364.9 199.246 366.584 197.763C368.809 195.744 370.689 193.375 372.148 190.748C373.008 189.205 373.732 187.589 374.311 185.92C374.919 184.084 375.423 182.214 375.819 180.321C376.731 176.381 377.725 172.137 378.777 167.625C380.881 158.611 383.243 148.534 385.791 137.674V137.592H385.85C386.656 136.797 387.463 135.99 388.27 135.148C388.667 134.728 389.064 134.307 389.439 133.874C389.626 133.652 389.824 133.43 389.976 133.208C390.095 132.988 390.163 132.744 390.175 132.495C390.491 130.157 390.736 127.737 390.993 125.293V125.141L391.134 125.071L393.367 123.82C393.53 123.715 393.787 123.598 393.893 123.505C394.004 123.404 394.079 123.268 394.103 123.119C394.157 122.731 394.157 122.338 394.103 121.95C393.99 121.093 393.814 120.245 393.577 119.413C393.179 118.686 392.512 118.144 391.718 117.905L391.519 117.835V117.636C391.519 116.958 391.449 116.257 391.367 115.567C391.336 115.221 391.285 114.878 391.215 114.538C391.188 114.388 391.141 114.243 391.075 114.106C391.075 114.024 391.075 114.106 391.005 114.035C390.941 114.002 390.875 113.975 390.806 113.954C389.4 113.647 387.967 113.487 386.528 113.474H386.224V113.17C386.224 112.446 386.224 111.639 386.224 110.832C386.175 110.557 386.08 110.292 385.943 110.049C385.826 109.768 385.686 109.499 385.546 109.219C385.272 108.677 384.951 108.161 384.587 107.676C384.422 107.45 384.22 107.252 383.991 107.091C383.906 107.02 383.802 106.975 383.692 106.962C383.581 106.95 383.47 106.97 383.371 107.021C382.806 107.238 382.255 107.492 381.723 107.781C379.548 108.95 377.421 110.119 375.34 111.382L375.036 111.569L374.907 111.241C373.808 108.471 372.709 105.735 371.634 103.058C371.096 101.714 370.57 100.369 370.032 99.0482C369.949 98.7522 369.785 98.4856 369.557 98.2789C369.33 98.0721 369.049 97.9336 368.746 97.8791C368.467 97.7864 368.164 97.7914 367.888 97.8934C367.612 97.9954 367.379 98.1882 367.227 98.4403C367.081 98.6911 367.019 98.982 367.051 99.2703C367.051 99.5275 367.215 99.925 367.285 100.241C367.472 100.919 367.647 101.585 367.823 102.251C368.174 103.596 368.513 104.917 368.863 106.226C369.549 108.86 370.223 111.432 370.886 113.942V114.024C370.652 118.825 370.43 123.423 370.219 127.819V127.795L359.569 162.446L356.565 172.09C356.214 173.178 355.945 174.031 355.758 174.627C355.571 175.223 355.454 175.481 355.454 175.481C355.454 175.481 355.513 175.177 355.676 174.604L356.413 172.044C357.091 169.787 358.061 166.526 359.289 162.364C361.814 153.994 365.403 142.046 369.74 127.643V127.702C369.943 123.322 370.149 118.723 370.36 113.907V113.989C369.693 111.475 369.004 108.903 368.314 106.285L367.262 102.31C367.086 101.643 366.911 100.965 366.724 100.299C366.623 99.9491 366.541 99.5939 366.478 99.2352C366.435 98.8294 366.521 98.4204 366.724 98.0662C366.94 97.7015 367.274 97.4212 367.671 97.2712C368.063 97.1564 368.478 97.1434 368.877 97.2334C369.276 97.3234 369.645 97.5134 369.95 97.7856C370.244 98.0609 370.461 98.4071 370.582 98.791L372.183 102.801C373.271 105.49 374.358 108.225 375.468 110.984L375.036 110.832C377.128 109.593 379.233 108.354 381.454 107.196C382.015 106.903 382.593 106.642 383.184 106.413C383.369 106.336 383.57 106.308 383.769 106.331C383.969 106.36 384.16 106.432 384.33 106.542C384.611 106.744 384.86 106.988 385.066 107.267C385.457 107.778 385.798 108.326 386.083 108.903C386.235 109.196 386.376 109.476 386.504 109.768C386.671 110.078 386.781 110.414 386.832 110.762C386.832 111.592 386.832 112.364 386.832 113.1L386.539 112.785C388.042 112.795 389.539 112.967 391.005 113.299C391.106 113.334 391.203 113.377 391.297 113.428C391.426 113.497 391.531 113.603 391.601 113.731C391.692 113.921 391.759 114.121 391.8 114.328C391.87 114.702 391.917 115.052 391.964 115.415C392.034 116.128 392.081 116.829 392.116 117.531L391.905 117.25C392.383 117.391 392.828 117.627 393.212 117.944C393.596 118.262 393.911 118.654 394.138 119.097C394.394 119.986 394.582 120.892 394.699 121.81C394.78 122.278 394.78 122.756 394.699 123.224C394.648 123.508 394.499 123.764 394.278 123.949C394.087 124.077 393.888 124.194 393.682 124.3L391.461 125.457L391.613 125.235C391.344 127.678 391.099 130.075 390.771 132.448L390.701 132.904C390.674 133.088 390.597 133.262 390.479 133.407C390.307 133.662 390.115 133.905 389.906 134.131C389.509 134.576 389.111 135.008 388.737 135.429C387.93 136.271 387.124 137.077 386.306 137.872L386.387 137.732C383.815 148.581 381.431 158.658 379.291 167.671C378.227 172.172 377.21 176.416 376.275 180.344C375.875 182.252 375.36 184.133 374.732 185.979C374.13 187.663 373.387 189.294 372.511 190.854C371.017 193.513 369.093 195.907 366.817 197.938C365.083 199.431 362.949 200.382 360.68 200.674C359.267 200.863 357.83 200.719 356.483 200.253C356.14 200.127 355.808 199.974 355.489 199.797L355.127 199.645Z" fill="#EB996E"/>
<path d="M386.573 113.01C386.573 113.092 386.176 113.139 385.556 113.162C384.769 113.177 383.986 113.271 383.218 113.443C382.477 113.625 381.793 113.991 381.231 114.507C380.81 114.904 380.623 115.243 380.529 115.208C380.436 115.173 380.529 114.752 380.915 114.214C381.459 113.534 382.217 113.056 383.066 112.858C383.884 112.657 384.734 112.617 385.568 112.741C386.199 112.823 386.573 112.928 386.573 113.01Z" fill="#EB996E"/>
<path d="M383.176 113.142C383.024 113.084 383.012 112.721 383.176 112.336C383.339 111.95 383.573 111.681 383.725 111.739C383.877 111.798 383.901 112.16 383.725 112.546C383.55 112.932 383.293 113.201 383.176 113.142Z" fill="#EB996E"/>
<path d="M392.047 117.366C390.912 117.717 389.727 117.879 388.54 117.846C388.166 117.833 387.795 117.911 387.457 118.071C387.12 118.232 386.825 118.471 386.599 118.769C386.295 119.249 386.401 119.646 386.307 119.669C386.214 119.693 385.933 119.284 386.225 118.582C386.386 118.187 386.68 117.861 387.055 117.659C387.488 117.421 387.966 117.278 388.458 117.238C389.652 117.055 390.869 117.099 392.047 117.366V117.366Z" fill="#EB996E"/>
<path d="M391.267 121.588C391.43 121.588 391.524 122.454 391.477 123.517C391.43 124.581 391.255 125.423 391.091 125.423C390.928 125.423 390.823 124.546 390.869 123.482C390.916 122.419 391.091 121.577 391.267 121.588Z" fill="#EB996E"/>
<path d="M396.113 153.073L397.153 149.495C397.201 149.332 397.291 149.183 397.413 149.064C397.535 148.946 397.687 148.861 397.852 148.819C398.017 148.776 398.19 148.777 398.355 148.822C398.519 148.867 398.669 148.954 398.79 149.075L400.158 150.466L401 147.087C401.049 146.892 401.157 146.717 401.31 146.585C401.462 146.454 401.652 146.372 401.852 146.352C402.052 146.331 402.254 146.373 402.43 146.471C402.606 146.569 402.747 146.719 402.835 146.9L404.741 150.898L396.113 153.073Z" fill="white"/>
<path d="M404.764 152.417C403.456 153.049 402.068 153.497 400.637 153.749C399.254 154.201 397.813 154.453 396.359 154.497C399.05 153.416 401.879 152.716 404.764 152.417V152.417Z" fill="white"/>
<path d="M335.245 132.473C335.245 132.473 334.813 132.917 334.205 133.864C333.389 135.212 332.852 136.711 332.627 138.271C332.293 140.594 332.223 142.947 332.416 145.285C332.545 147.939 332.755 150.838 333.083 153.878C333.636 159.069 334.46 164.227 335.549 169.333C335.958 171.297 336.333 172.84 336.59 174.009C336.707 174.5 336.812 174.909 336.894 175.26C336.976 175.61 336.987 175.704 336.987 175.704C336.987 175.704 336.929 175.564 336.847 175.283C336.765 175.003 336.636 174.512 336.508 174.032C336.216 172.945 335.818 171.379 335.339 169.415C334.202 164.311 333.356 159.147 332.802 153.948C332.475 150.909 332.276 147.998 332.159 145.344C331.982 143.004 332.068 140.651 332.416 138.33C332.667 136.749 333.24 135.237 334.1 133.887C334.416 133.366 334.802 132.891 335.245 132.473V132.473Z" fill="white"/>
<path d="M359.858 116.554L359.589 116.694L358.817 117.068C358.151 117.384 357.181 117.852 356.023 118.495C353.006 120.177 350.076 122.011 347.244 123.989C343.9 126.327 340.943 128.455 338.78 129.998L336.22 131.81L335.506 132.289C335.427 132.353 335.341 132.408 335.249 132.453C335.316 132.374 335.395 132.307 335.483 132.254L336.161 131.74L338.675 129.858C340.814 128.28 343.76 126.082 347.103 123.79C349.941 121.804 352.892 119.985 355.941 118.343C357.11 117.723 358.092 117.279 358.782 116.986L359.565 116.659C359.799 116.577 359.799 116.542 359.858 116.554Z" fill="white"/>
<path d="M415.6 124.166C415.527 124.126 415.46 124.075 415.401 124.015L414.875 123.559C414.224 123.009 413.541 122.497 412.83 122.027C410.456 120.514 407.938 119.241 405.313 118.228C402.695 117.191 400.021 116.301 397.305 115.562C396.252 115.27 395.411 115.06 394.814 114.919L394.148 114.744C394.067 114.727 393.988 114.7 393.914 114.662H394.16L394.838 114.791C395.434 114.908 396.287 115.095 397.34 115.364C400.082 116.056 402.777 116.927 405.406 117.971C408.047 118.984 410.568 120.285 412.923 121.852C413.903 122.515 414.802 123.292 415.6 124.166V124.166Z" fill="white"/>
<path d="M360.189 213.401C360.03 213.373 359.877 213.322 359.733 213.249C359.327 213.071 358.936 212.859 358.564 212.618C357.934 212.24 357.385 211.742 356.948 211.153C356.51 210.563 356.194 209.893 356.016 209.181C355.695 207.743 355.855 206.24 356.471 204.902C356.65 204.486 356.877 204.094 357.149 203.733C357.337 203.487 357.465 203.37 357.477 203.382C357.158 203.881 356.873 204.4 356.623 204.937C356.08 206.25 355.953 207.699 356.261 209.087C356.596 210.457 357.429 211.654 358.599 212.442C359.569 213.144 360.212 213.354 360.189 213.401Z" fill="white"/>
<path d="M356.464 200.735C356.712 201.199 356.897 201.694 357.013 202.208C357.196 202.7 357.306 203.216 357.34 203.739C357.075 203.286 356.885 202.793 356.779 202.278C356.588 201.785 356.481 201.263 356.464 200.735Z" fill="white"/>
<path d="M372.271 462.835L407.927 462.66L407.284 339.384L406.945 213.98L358.628 213.361L349.942 229.727C346.388 236.307 344.123 243.505 343.267 250.934C342.682 256.616 346.938 275.087 348.411 279.763L361.703 321.919L372.271 462.835Z" fill="#263238"/>
<path d="M417.405 214.129L456.592 320.945C458.913 327.827 459.684 335.137 458.85 342.353C458.015 349.568 455.595 356.509 451.763 362.68L406.264 451.527L380.685 419.519L418.749 340.023L385.198 285.604L390.844 214.292L406.65 214.035L417.405 214.129Z" fill="#263238"/>
<path d="M403.697 249.926C403.697 249.926 403.697 250.113 403.697 250.476C403.697 250.838 403.756 251.399 403.803 252.089C403.884 253.527 403.99 255.596 404.13 258.273C404.399 263.686 404.773 271.46 405.299 281.058C405.825 290.656 406.269 302.101 406.854 314.844C407.134 321.203 407.438 327.878 407.742 334.799C407.964 338.306 407.871 341.814 407.906 345.321C407.941 348.828 407.906 352.522 407.906 356.193C407.906 385.571 407.999 412.167 408.034 431.445C408.034 441.054 408.034 448.84 408.034 454.253C408.034 456.93 408.034 459.011 408.034 460.46C408.034 461.138 408.034 461.629 408.034 462.074C408.034 462.518 408.034 462.623 408.034 462.623C408.034 462.623 408.034 462.436 408.034 462.074V460.46C408.034 459.011 408.034 456.953 407.964 454.253C407.964 448.84 407.871 441.066 407.801 431.456C407.719 412.179 407.614 385.583 407.497 356.205C407.497 352.534 407.497 348.91 407.497 345.332C407.497 341.755 407.567 338.225 407.345 334.811C407.052 327.902 406.76 321.227 406.491 314.867C405.954 302.148 405.463 290.703 405.065 281.07C404.668 271.437 404.375 263.698 404.153 258.285C404.06 255.62 403.99 253.539 403.943 252.089C403.943 251.399 403.943 250.92 403.943 250.476C403.943 250.031 403.697 249.926 403.697 249.926Z" fill="#455A64"/>
<path d="M402.785 216.236C402.922 216.612 403.005 217.006 403.031 217.405C403.159 218.154 403.3 219.241 403.463 220.597C403.767 223.297 404.095 227.05 404.282 231.2C404.469 235.35 404.48 239.115 404.422 241.839C404.422 243.195 404.34 244.305 404.282 245.065C404.293 245.46 404.246 245.854 404.141 246.234C403.994 244.774 403.943 243.305 403.989 241.839C403.989 239.115 403.861 235.374 403.674 231.224C403.487 227.073 403.229 223.344 403.031 220.702C402.864 219.219 402.782 217.728 402.785 216.236V216.236Z" fill="#455A64"/>
<path d="M394.933 218.661C394.991 218.743 394.325 219.047 394.138 219.994C394.086 220.251 394.1 220.517 394.18 220.766C394.26 221.016 394.402 221.241 394.594 221.42C394.825 221.635 395.114 221.779 395.424 221.835C395.735 221.891 396.056 221.857 396.347 221.736C396.628 221.591 396.862 221.371 397.023 221.101C397.184 220.83 397.266 220.519 397.259 220.204C397.249 219.943 397.171 219.688 397.034 219.465C396.897 219.242 396.705 219.058 396.476 218.93C396.001 218.7 395.47 218.607 394.945 218.661C394.945 218.661 395.062 218.509 395.365 218.416C395.804 218.309 396.266 218.354 396.675 218.544C397.001 218.68 397.283 218.904 397.49 219.191C397.696 219.478 397.819 219.817 397.844 220.169C397.89 220.604 397.799 221.043 397.583 221.424C397.367 221.805 397.037 222.108 396.639 222.291C396.242 222.474 395.797 222.528 395.367 222.446C394.937 222.363 394.544 222.147 394.243 221.829C393.995 221.582 393.819 221.272 393.734 220.932C393.65 220.592 393.66 220.235 393.764 219.9C393.881 219.463 394.145 219.079 394.512 218.813C394.746 218.649 394.921 218.626 394.933 218.661Z" fill="#455A64"/>
<path d="M376.244 216.533C376.416 216.901 376.523 217.297 376.56 217.702C376.748 218.751 376.783 219.822 376.665 220.882C376.497 222.459 376.041 223.992 375.32 225.406C374.45 227.164 373.161 228.681 371.567 229.825C369.973 230.968 368.123 231.703 366.178 231.964C364.622 232.196 363.037 232.137 361.502 231.789C360.464 231.563 359.464 231.189 358.533 230.678C358.181 230.512 357.857 230.291 357.574 230.023C358.866 230.605 360.214 231.055 361.596 231.368C363.258 231.714 364.975 231.711 366.636 231.36C368.298 231.009 369.869 230.317 371.25 229.329C372.63 228.34 373.791 227.076 374.659 225.616C375.527 224.156 376.082 222.532 376.291 220.846C376.428 219.411 376.412 217.965 376.244 216.533Z" fill="#455A64"/>
<path d="M422.094 226.772C421.331 226.86 420.558 226.768 419.838 226.503C418.072 225.947 416.486 224.93 415.243 223.557C413.99 222.19 413.129 220.51 412.753 218.694C412.569 217.953 412.569 217.178 412.753 216.438C412.859 216.438 412.87 217.291 413.221 218.6C413.695 220.292 414.556 221.85 415.737 223.151C416.918 224.452 418.386 225.459 420.025 226.094C421.241 226.573 422.106 226.655 422.094 226.772Z" fill="#455A64"/>
<path d="M436.036 341.932C435.45 342.601 434.749 343.159 433.967 343.581C433.146 344.102 432.251 344.496 431.313 344.75C430.132 345.063 428.887 345.03 427.724 344.656C425.682 343.886 423.932 342.496 422.72 340.682C422.164 340 421.704 339.244 421.353 338.437C421.984 339.039 422.555 339.701 423.059 340.413C424.301 342.059 425.977 343.326 427.899 344.072C428.88 344.334 429.905 344.393 430.91 344.246C431.915 344.1 432.879 343.75 433.744 343.218C434.483 342.746 435.248 342.317 436.036 341.932V341.932Z" fill="#455A64"/>
<path d="M427.079 348.74C425.697 347.309 424.463 345.742 423.396 344.064C422.167 342.501 421.094 340.821 420.193 339.048C421.584 340.474 422.822 342.041 423.887 343.725C425.126 345.278 426.196 346.959 427.079 348.74V348.74Z" fill="#455A64"/>
<path d="M367.186 254.043C367.022 254.102 366.613 253.435 366.251 252.535C365.888 251.635 365.736 250.875 365.888 250.805C366.04 250.735 366.461 251.413 366.812 252.313C367.162 253.213 367.338 254.043 367.186 254.043Z" fill="#FAFAFA"/>
<path d="M389.819 257.296C389.643 257.296 389.515 256.724 389.515 256.011C389.515 255.297 389.643 254.713 389.819 254.713C389.994 254.713 390.123 255.297 390.123 256.011C390.123 256.724 389.982 257.296 389.819 257.296Z" fill="#FAFAFA"/>
<path d="M380.513 269.601C380.349 269.601 380.162 268.9 380.104 268C380.045 267.099 380.104 266.375 380.291 266.363C380.478 266.351 380.653 267.064 380.712 267.965C380.77 268.865 380.677 269.589 380.513 269.601Z" fill="#FAFAFA"/>
<path d="M363.528 278.605C363.387 278.711 362.908 278.278 362.277 277.834C361.645 277.39 361.108 277.051 361.108 276.887C361.108 276.723 361.879 276.817 362.592 277.331C363.306 277.846 363.668 278.605 363.528 278.605Z" fill="#FAFAFA"/>
<path d="M393.481 290.067C393.341 289.973 393.481 289.471 393.878 288.898C394.276 288.325 394.638 287.998 394.779 288.091C394.919 288.185 394.779 288.699 394.381 289.26C393.984 289.821 393.621 290.16 393.481 290.067Z" fill="#FAFAFA"/>
<path d="M374.997 293.3C374.834 293.3 374.693 292.33 374.693 291.149C374.693 289.968 374.834 288.986 374.997 288.986C375.161 288.986 375.301 289.957 375.301 291.149C375.301 292.341 375.126 293.3 374.997 293.3Z" fill="#FAFAFA"/>
<path d="M368.937 306.432C368.843 306.56 368.235 306.292 367.581 305.812C366.926 305.333 366.411 304.842 366.563 304.702C366.715 304.561 367.277 304.842 367.931 305.321C368.586 305.801 369.042 306.292 368.937 306.432Z" fill="#FAFAFA"/>
<path d="M387.665 310.99C387.735 311.142 387.361 311.457 386.823 311.703C386.285 311.948 385.794 312.007 385.724 311.855C385.654 311.703 386.04 311.387 386.578 311.142C387.115 310.896 387.606 310.838 387.665 310.99Z" fill="#FAFAFA"/>
<path d="M375.006 332.378C374.866 332.448 374.258 331.548 373.662 330.356C373.066 329.163 372.703 328.134 372.855 328.018C373.007 327.901 373.615 328.848 374.2 330.04C374.784 331.232 375.112 332.25 375.006 332.378Z" fill="#FAFAFA"/>
<path d="M395.644 330.382C395.492 330.3 395.761 329.517 396.228 328.617C396.696 327.716 397.222 327.062 397.397 327.144C397.573 327.225 397.281 328.009 396.801 328.909C396.322 329.809 395.784 330.464 395.644 330.382Z" fill="#FAFAFA"/>
<path d="M386.581 348.496C386.405 348.496 386.429 347.549 386.241 346.45C386.054 345.351 385.774 344.475 385.938 344.393C386.101 344.311 386.662 345.141 386.849 346.357C387.036 347.573 386.744 348.531 386.581 348.496Z" fill="#FAFAFA"/>
<path d="M376.895 358.839C376.778 358.956 376.193 358.511 375.597 357.857C375.001 357.202 374.615 356.582 374.743 356.465C374.872 356.349 375.445 356.793 376.041 357.447C376.637 358.102 377.023 358.722 376.895 358.839Z" fill="#FAFAFA"/>
<path d="M400.421 362.771C400.305 362.654 400.737 362.022 401.392 361.356C402.046 360.69 402.654 360.257 402.783 360.374C402.911 360.491 402.467 361.134 401.824 361.789C401.181 362.443 400.55 362.887 400.421 362.771Z" fill="#FAFAFA"/>
<path d="M386.898 378.259C386.734 378.259 386.734 377.336 386.898 376.26C387.061 375.185 387.319 374.343 387.494 374.366C387.669 374.39 387.658 375.278 387.494 376.354C387.33 377.429 387.061 378.282 386.898 378.259Z" fill="#FAFAFA"/>
<path d="M377.787 385.767C377.635 385.849 377.12 385.241 376.618 384.411C376.115 383.581 375.858 382.844 375.998 382.762C376.138 382.681 376.653 383.277 377.167 384.107C377.681 384.937 377.927 385.673 377.787 385.767Z" fill="#FAFAFA"/>
<path d="M399.738 395.256C399.843 395.397 399.247 395.993 398.405 396.589C397.564 397.185 396.827 397.559 396.722 397.419C396.617 397.279 397.225 396.683 398.055 396.086C398.885 395.49 399.644 395.128 399.738 395.256Z" fill="#FAFAFA"/>
<path d="M381.445 407.57C381.282 407.512 381.445 406.576 381.597 405.407C381.749 404.238 381.656 403.28 381.831 403.256C382.006 403.233 382.31 404.215 382.193 405.466C382.077 406.717 381.597 407.64 381.445 407.57Z" fill="#FAFAFA"/>
<path d="M388.756 425.249C388.616 425.354 388.125 424.957 387.646 424.36C387.166 423.764 386.897 423.191 387.026 423.086C387.155 422.981 387.646 423.378 388.125 423.975C388.604 424.571 388.885 425.144 388.756 425.249Z" fill="#FAFAFA"/>
<path d="M380.774 437.086C380.633 437.18 379.99 436.49 379.336 435.531C378.681 434.573 378.272 433.731 378.401 433.637C378.529 433.544 379.184 434.234 379.838 435.192C380.493 436.151 380.914 436.993 380.774 437.086Z" fill="#FAFAFA"/>
<path d="M402.746 422.203C402.594 422.145 402.605 421.712 402.746 421.245C402.886 420.777 403.202 420.426 403.365 420.485C403.529 420.543 403.506 420.976 403.365 421.455C403.225 421.934 402.909 422.274 402.746 422.203Z" fill="#FAFAFA"/>
<path d="M393.051 450.42C392.899 450.338 393.191 449.508 393.425 448.468C393.659 447.427 393.741 446.55 393.916 446.539C394.091 446.527 394.267 447.474 394.021 448.596C393.776 449.718 393.191 450.513 393.051 450.42Z" fill="#FAFAFA"/>
<path d="M399.37 269.796C399.218 269.866 398.844 269.398 398.54 268.744C398.236 268.089 398.107 267.504 398.259 267.434C398.411 267.364 398.785 267.832 399.089 268.486C399.393 269.141 399.545 269.726 399.37 269.796Z" fill="#FAFAFA"/>
<path d="M383.176 233.383C383.269 233.523 382.451 234.178 381.574 235.113C380.698 236.048 380.101 236.913 379.949 236.831C379.797 236.75 380.195 235.662 381.118 234.704C382.042 233.745 383.059 233.231 383.176 233.383Z" fill="#FAFAFA"/>
<path d="M397.58 233.017C397.404 233.017 397.135 232.351 396.726 231.556C396.317 230.761 395.943 230.106 396.072 229.989C396.2 229.872 396.832 230.387 397.241 231.275C397.65 232.164 397.732 232.923 397.58 233.017Z" fill="#FAFAFA"/>
<path d="M352.576 244.817C352.424 244.747 352.576 243.976 352.938 243.087C353.3 242.199 353.698 241.509 353.862 241.579C354.025 241.649 353.862 242.409 353.499 243.309C353.137 244.21 352.774 244.876 352.576 244.817Z" fill="#FAFAFA"/>
<path d="M354.046 262.479C353.929 262.607 353.263 262.233 352.55 261.637C351.836 261.041 351.381 260.468 351.451 260.328C351.521 260.187 352.234 260.573 352.947 261.169C353.66 261.766 354.151 262.35 354.046 262.479Z" fill="#FAFAFA"/>
<path d="M383.574 219.358C383.422 219.358 383.095 218.984 382.861 218.388C382.627 217.792 382.557 217.219 382.709 217.219C382.861 217.219 383.188 217.593 383.422 218.189C383.656 218.785 383.726 219.3 383.574 219.358Z" fill="#FAFAFA"/>
<path d="M411.844 227.986C411.681 227.986 411.693 227.25 411.844 226.42C411.996 225.59 412.3 224.935 412.464 224.97C412.628 225.005 412.616 225.718 412.464 226.548C412.312 227.378 412.008 228.021 411.844 227.986Z" fill="#FAFAFA"/>
<path d="M418.499 241.363C418.347 241.293 418.557 240.428 418.978 239.411C419.399 238.394 419.855 237.634 420.007 237.693C420.159 237.751 420.007 238.628 419.539 239.645C419.072 240.662 418.663 241.422 418.499 241.363Z" fill="#FAFAFA"/>
<path d="M413.738 252.137C413.586 252.208 413.024 251.401 412.487 250.337C411.949 249.273 411.645 248.326 411.797 248.256C411.949 248.186 412.498 248.993 413.036 250.057C413.574 251.12 413.89 252.056 413.738 252.137Z" fill="#FAFAFA"/>
<path d="M423.877 262.916C423.725 262.858 423.877 262.18 424.134 261.408C424.391 260.637 424.8 260.052 424.964 260.11C425.128 260.169 424.964 260.847 424.707 261.619C424.45 262.39 424.087 262.975 423.877 262.916Z" fill="#FAFAFA"/>
<path d="M414.811 273.474C414.671 273.567 414.309 273.252 414.016 272.784C413.724 272.316 413.584 271.849 413.736 271.755C413.888 271.662 414.227 271.977 414.531 272.457C414.835 272.936 414.952 273.392 414.811 273.474Z" fill="#FAFAFA"/>
<path d="M416.742 295.261C416.625 295.367 415.888 294.794 415.117 293.952C414.345 293.11 413.819 292.351 413.948 292.234C414.076 292.117 414.801 292.701 415.573 293.543C416.344 294.385 416.87 295.145 416.742 295.261Z" fill="#FAFAFA"/>
<path d="M428.629 282.745C428.5 282.85 427.857 282.265 427.202 281.423C426.548 280.582 426.127 279.834 426.256 279.728C426.384 279.623 427.027 280.219 427.682 281.049C428.336 281.879 428.769 282.651 428.629 282.745Z" fill="#FAFAFA"/>
<path d="M435.144 300.008C434.992 299.938 435.261 299.061 435.74 298.056C436.22 297.05 436.722 296.279 436.909 296.349C437.096 296.419 436.804 297.307 436.325 298.313C435.845 299.318 435.296 300.09 435.144 300.008Z" fill="#FAFAFA"/>
<path d="M421.31 314.224C421.158 314.305 420.62 313.662 419.872 312.973C419.124 312.283 418.434 311.804 418.504 311.628C418.574 311.453 419.463 311.769 420.281 312.528C421.099 313.288 421.45 314.142 421.31 314.224Z" fill="#FAFAFA"/>
<path d="M422.15 328.879C422.15 329.043 421.565 329.183 420.852 329.183C420.139 329.183 419.566 329.043 419.566 328.879C419.566 328.715 420.139 328.575 420.852 328.575C421.565 328.575 422.15 328.715 422.15 328.879Z" fill="#FAFAFA"/>
<path d="M436.393 324.78C436.241 324.698 436.545 323.962 436.767 323.05C436.989 322.138 437.083 321.343 437.258 321.331C437.433 321.319 437.621 322.173 437.363 323.19C437.106 324.207 436.522 324.873 436.393 324.78Z" fill="#FAFAFA"/>
<path d="M450.527 329.702C450.375 329.76 449.942 328.93 449.568 327.866C449.194 326.802 449.019 325.89 449.171 325.844C449.323 325.797 449.767 326.604 450.141 327.667C450.515 328.731 450.691 329.643 450.527 329.702Z" fill="#FAFAFA"/>
<path d="M448.261 349.813C448.121 349.732 448.483 348.75 449.068 347.616C449.652 346.482 450.237 345.628 450.412 345.71C450.588 345.792 450.202 346.774 449.606 347.896C449.009 349.018 448.413 349.919 448.261 349.813Z" fill="#FAFAFA"/>
<path d="M435.357 361.602C435.205 361.66 434.726 360.854 434.282 359.79C433.837 358.726 433.615 357.814 433.779 357.744C433.943 357.674 434.41 358.492 434.843 359.556C435.275 360.62 435.509 361.602 435.357 361.602Z" fill="#FAFAFA"/>
<path d="M421.081 366.167C421.081 366.331 420.59 366.471 419.994 366.471C419.398 366.471 418.918 366.331 418.918 366.167C418.918 366.004 419.409 365.863 419.994 365.863C420.579 365.863 421.081 366.004 421.081 366.167Z" fill="#FAFAFA"/>
<path d="M429.265 384.983C429.114 384.983 428.786 384.34 428.541 383.451C428.295 382.563 428.248 381.791 428.412 381.756C428.576 381.721 428.891 382.399 429.137 383.288C429.382 384.176 429.429 384.889 429.265 384.983Z" fill="#FAFAFA"/>
<path d="M418.911 378.666C418.771 378.585 418.911 378.035 419.297 377.439C419.682 376.843 420.068 376.433 420.208 376.515C420.349 376.597 420.208 377.158 419.823 377.754C419.437 378.351 419.063 378.76 418.911 378.666Z" fill="#FAFAFA"/>
<path d="M418.701 399.367C418.537 399.367 418.304 398.584 418.187 397.567C418.07 396.55 418.105 395.72 418.269 395.696C418.432 395.673 418.666 396.48 418.783 397.497C418.9 398.514 418.865 399.344 418.701 399.367Z" fill="#FAFAFA"/>
</svg>
