<svg width="548" height="574" viewBox="0 0 548 574" fill="none" xmlns="http://www.w3.org/2000/svg">
<path d="M56.318 333.033L39.2889 333.405L30.6445 333.551C27.7501 333.551 24.8427 333.551 21.9483 333.617H21.3772V333.02L21.2993 318.158V317.494H21.9483L39.1331 317.573C44.8701 317.573 50.594 317.719 56.318 317.786H56.6814V318.144C56.6814 320.668 56.5646 323.165 56.5126 325.648L56.318 333.033ZM56.318 333.033L56.1362 325.516C56.1362 323.045 55.9935 320.601 55.9675 318.171L56.318 318.53C50.594 318.596 44.8701 318.742 39.1331 318.742L21.9483 318.835L22.5973 318.171V333.033L22.0132 332.435C24.8427 332.435 27.6722 332.435 30.5147 332.515L39.0552 332.661L56.318 333.033Z" fill="#EBEBEB"/>
<path d="M37.1473 351.733L20.1182 352.105L11.4739 352.251C8.57947 352.251 5.67206 352.251 2.77764 352.318H2.20654V351.733L2.12866 336.871V336.194H2.77764L19.9625 336.274C25.6864 336.274 31.4234 336.42 37.1473 336.486H37.5107V336.845C37.5107 339.368 37.4069 341.865 37.342 344.349L37.1473 351.733ZM37.1473 351.733L36.9656 344.216C36.9007 341.746 36.8228 339.302 36.7969 336.871L37.1473 337.23C31.4234 337.296 25.6864 337.442 19.9625 337.442L2.77764 337.535L3.42661 336.871L3.36171 351.733L2.77764 351.136C5.60716 351.136 8.43669 351.136 11.2792 351.215L19.8197 351.361L37.1473 351.733Z" fill="#EBEBEB"/>
<path d="M184.14 189.806L167.098 190.177L158.454 190.324C155.572 190.39 152.665 190.323 149.77 190.403H149.186V189.806V174.944V174.279H149.848L167.033 174.359C172.757 174.359 178.481 174.519 184.218 174.585H184.568V174.944C184.568 177.467 184.452 179.977 184.4 182.461L184.14 189.806ZM184.14 189.806L183.958 182.301C183.893 179.818 183.803 177.374 183.777 174.944L184.14 175.302C178.403 175.382 172.679 175.515 166.955 175.528L149.77 175.608L150.419 174.944L150.303 189.806L149.731 189.221C152.561 189.221 155.378 189.221 158.22 189.288L166.76 189.434L184.14 189.806Z" fill="#EBEBEB"/>
<path d="M164.969 208.546L147.927 208.918L139.283 209.064C136.388 209.064 133.494 209.064 130.6 209.143H130.016V208.546L129.951 193.684V193.02H130.613L147.797 193.099C153.521 193.099 159.245 193.259 164.982 193.325H165.333V193.684C165.333 196.207 165.216 198.717 165.164 201.188L164.969 208.546ZM164.969 208.546L164.775 201.042C164.775 198.558 164.632 196.114 164.606 193.684L164.969 194.042C159.232 194.122 153.508 194.255 147.784 194.268L130.6 194.348L131.236 193.684L131.171 208.546L130.6 207.961C133.429 207.961 136.246 207.961 139.088 208.028L147.629 208.174L164.969 208.546Z" fill="#EBEBEB"/>
<path d="M145.863 189.806L128.834 190.177L120.19 190.324C117.296 190.39 114.388 190.323 111.494 190.403H110.923V189.806L110.845 174.944V174.279H111.494L128.679 174.359C134.415 174.359 140.139 174.519 145.863 174.585H146.227V174.944C146.227 177.467 146.11 179.977 146.045 182.461L145.863 189.806ZM145.863 189.806L145.682 182.301C145.682 179.818 145.539 177.374 145.513 174.944L145.863 175.302C140.139 175.382 134.415 175.515 128.679 175.528L111.494 175.608L112.143 174.944V189.806L111.559 189.221C114.388 189.221 117.218 189.221 120.06 189.288L128.601 189.434L145.863 189.806Z" fill="#EBEBEB"/>
<path d="M484.355 149.855L467.313 150.227L458.669 150.373C455.787 150.439 452.88 150.373 449.986 150.453H449.402V149.855L449.337 134.993V134.329H449.986L467.17 134.422C472.894 134.422 478.618 134.568 484.355 134.634H484.706V134.993C484.706 137.516 484.589 140.027 484.537 142.51L484.355 149.855ZM484.355 149.855L484.174 142.351C484.109 139.88 484.018 137.423 484.005 134.993L484.355 135.365C478.618 135.365 472.894 135.564 467.17 135.577L449.986 135.657L450.635 134.993L450.557 149.855L449.986 149.27C452.815 149.27 455.645 149.27 458.474 149.337L467.015 149.483L484.355 149.855Z" fill="#EBEBEB"/>
<path d="M544.437 351.733L527.395 352.105L518.751 352.251C515.87 352.251 512.962 352.251 510.068 352.318H509.484V351.733L509.419 336.871V336.194H510.068L527.253 336.274C532.976 336.274 538.713 336.42 544.437 336.486H544.788V336.845C544.788 339.368 544.684 341.865 544.619 344.349L544.437 351.733ZM544.437 351.733L544.256 344.216C544.256 341.746 544.1 339.302 544.087 336.871L544.437 337.23C538.713 337.296 532.976 337.442 527.253 337.442L510.068 337.535L510.717 336.871L510.639 351.733L510.068 351.136C512.897 351.136 515.727 351.136 518.556 351.215L527.097 351.361L544.437 351.733Z" fill="#EBEBEB"/>
<path d="M525.267 15.6057L508.225 15.9643L499.58 16.1237C496.699 16.1237 493.792 16.1237 490.897 16.1237H490.365V15.5393V0.677358V0H491.027L508.212 0.0796907C513.936 0.0796907 519.66 0.225787 525.397 0.292194H525.747V0.650794C525.747 3.16099 525.63 5.67119 525.578 8.15483L525.267 15.6057ZM525.267 15.6057L525.085 8.08842C525.02 5.61806 524.929 3.17427 524.903 0.743764L525.267 1.10236C519.53 1.10236 513.806 1.31487 508.082 1.31487L490.897 1.40784L491.546 0.743764L491.468 15.6057L490.897 15.0081C493.727 15.0081 496.543 15.0081 499.386 15.0745L507.926 15.2339L525.267 15.6057Z" fill="#EBEBEB"/>
<path d="M544.437 34.306L527.395 34.6646L518.751 34.824C515.87 34.824 512.962 34.824 510.068 34.824H509.484V34.306L509.419 19.4441V18.7667H510.068L527.253 18.8464C532.976 18.8464 538.713 18.9925 544.437 19.0589H544.788V19.4175C544.788 21.9277 544.684 24.4379 544.619 26.9216L544.437 34.306ZM544.437 34.306L544.256 26.7887C544.256 24.3184 544.1 21.8746 544.087 19.4441L544.437 19.8027C538.713 19.8027 532.976 20.0152 527.253 20.0152L510.068 20.0949L510.717 19.4441L510.639 34.306L510.068 33.7084C512.897 33.7084 515.727 33.7084 518.556 33.7084L527.097 33.8678L544.437 34.306Z" fill="#EBEBEB"/>
<path d="M56.318 15.6057L39.2889 15.9643L30.6445 16.1237C27.7501 16.1237 24.8427 16.1237 21.9483 16.1237H21.3772V15.5393L21.2993 0.677358V0H21.9483L39.1331 0.0796907C44.8701 0.0796907 50.594 0.225787 56.318 0.292194H56.6814V0.650794C56.6814 3.16099 56.5646 5.67119 56.5126 8.15483L56.318 15.6057ZM56.318 15.6057L56.1362 8.08842C56.1362 5.61806 55.9935 3.17427 55.9675 0.743764L56.318 1.10236C50.594 1.10236 44.8701 1.31487 39.1331 1.31487L21.9483 1.40784L22.5973 0.743764V15.6057L22.0132 15.0081C24.8427 15.0081 27.6722 15.0081 30.5147 15.0745L39.0552 15.2339L56.318 15.6057Z" fill="#EBEBEB"/>
<path d="M105.653 30.0161H27.5813V126.918H105.653V30.0161Z" fill="#DBDBDB"/>
<path d="M96.7361 38.8616H36.4983V118.086H96.7361V38.8616Z" fill="white"/>
<path d="M38.8476 38.8616H36.4983V118.086H38.8476V38.8616Z" fill="#C7C7C7"/>
<path d="M108.002 30.0161H105.653V126.918H108.002V30.0161Z" fill="#C7C7C7"/>
<path d="M67.9735 100.474H82.1731V57.1767H67.9735V100.474Z" fill="#DBDBDB"/>
<path d="M89.0134 71.6535H49.8413V49.075H89.0134V71.6535ZM51.1393 70.3254H87.7154V50.4032H51.1393V70.3254Z" fill="#EBEBEB"/>
<path d="M336.48 83.142H258.408V180.044H336.48V83.142Z" fill="#DBDBDB"/>
<path d="M327.563 91.9875H267.325V171.211H327.563V91.9875Z" fill="white"/>
<path d="M269.675 91.9875H267.325V171.211H269.675V91.9875Z" fill="#C7C7C7"/>
<path d="M338.829 83.142H336.48V180.044H338.829V83.142Z" fill="#C7C7C7"/>
<path d="M301.708 110.303H287.509V153.6H301.708V110.303Z" fill="#DBDBDB"/>
<path d="M319.841 124.779H280.668V102.201H319.841V124.779ZM281.966 123.451H318.543V103.529H281.966V123.451Z" fill="#EBEBEB"/>
<path d="M221.066 56.5791H142.995V153.481H221.066V56.5791Z" fill="#DBDBDB"/>
<path d="M212.15 65.4245H151.912V144.649H212.15V65.4245Z" fill="white"/>
<path d="M154.261 65.4245H151.912V144.649H154.261V65.4245Z" fill="#C7C7C7"/>
<path d="M223.416 56.5791H221.067V153.481H223.416V56.5791Z" fill="#C7C7C7"/>
<path d="M188.358 85.9046H176.197V117.382H188.358V85.9046Z" fill="#EBEBEB"/>
<path d="M201.831 127.396H167.838V104.366H201.831V127.396ZM169.136 126.068H200.533V105.694H169.136V126.068Z" fill="#DBDBDB"/>
<path d="M0 542.097L68.4019 541.765L136.804 541.658L273.608 541.433L410.411 541.658L478.813 541.765L547.228 542.097L478.813 542.415L410.411 542.535L273.608 542.761L136.804 542.535L68.4019 542.415L0 542.097Z" fill="#263238"/>
<path d="M139.607 404.434H84.8599L53.5144 244.565L103.654 221.004L139.607 404.434Z" fill="#37474F"/>
<path d="M287.392 404.434H139.607L103.654 221.004H251.438L287.392 404.434Z" fill="#455A64"/>
<path d="M111.494 318.662H27.5813V494.841H111.494V318.662Z" fill="#37474F"/>
<path d="M327.667 494.841H304.745L270.583 318.662H327.667V494.841Z" fill="#37474F"/>
<path d="M157.597 318.662H111.494V494.841H157.597V318.662Z" fill="#455A64"/>
<path d="M373.77 318.662H327.667V494.841H373.77V318.662Z" fill="#455A64"/>
<path d="M327.667 404.434H157.597V494.841H327.667V404.434Z" fill="#455A64"/>
<path d="M327.667 365.347H157.597V404.793H327.667V365.347Z" fill="#455A64"/>
<path d="M122.799 318.662L140.191 318.344L157.597 318.118H158.09V318.662L158.285 339.275L158.363 359.901C158.363 373.648 158.453 387.394 158.363 401.074C158.272 414.754 158.298 428.567 158.129 442.313C157.96 456.059 157.83 469.805 157.545 483.552C157.259 469.801 157.065 456.055 156.961 442.313C156.805 428.567 156.779 414.82 156.74 401.074C156.701 387.328 156.74 373.594 156.74 359.901L156.818 339.275L157.013 318.662L157.532 319.207L140.126 318.981L122.799 318.662Z" fill="#263238"/>
<path d="M327.667 318.662C328.03 332.462 328.199 346.248 328.342 360.047L328.537 401.433L328.342 442.831L328.121 463.523L327.693 484.216L327.265 463.523L327.031 442.831L326.823 401.433L327.031 360.047C327.148 346.248 327.316 332.462 327.667 318.662Z" fill="#263238"/>
<path d="M327.667 404.434C312.753 404.793 297.814 404.965 282.927 405.112L238.173 405.324L202.35 405.112L179.973 404.859L157.597 404.421L179.973 403.983L202.35 403.73L238.173 403.531L282.927 403.744C297.84 403.89 312.753 404.062 327.667 404.434Z" fill="#263238"/>
<path d="M327.667 365.347C312.753 365.719 297.814 365.891 282.927 366.024L238.173 366.237L202.35 366.037L179.973 365.785L157.597 365.347L179.973 364.909L202.35 364.669L238.173 364.457L282.927 364.669C297.84 364.802 312.753 365.015 327.667 365.347Z" fill="#263238"/>
<path d="M59.4719 494.841L58.3297 509.119L55.6819 542.097H43.5331L40.8853 509.119L39.7561 494.841H59.4719Z" fill="#C7C7C7"/>
<path d="M39.7561 494.841H59.4719L58.3297 509.119H40.8853L39.7561 494.841Z" fill="#A6A6A6"/>
<path d="M144.41 494.841L143.28 509.119L140.62 542.097H128.471L125.823 509.119L124.694 494.841H144.41Z" fill="#C7C7C7"/>
<path d="M124.694 494.841H144.41L143.28 509.119H125.823L124.694 494.841Z" fill="#A6A6A6"/>
<path d="M276.372 494.841L275.23 509.119L272.582 542.097H260.433L257.785 509.119L256.643 494.841H276.372Z" fill="#C7C7C7"/>
<path d="M256.643 494.841H276.372L275.23 509.119H257.785L256.643 494.841Z" fill="#A6A6A6"/>
<path d="M361.323 494.841L360.194 509.119L357.533 542.097H345.384L342.736 509.119L341.607 494.841H361.323Z" fill="#C7C7C7"/>
<path d="M361.323 494.841L360.194 509.119H342.736L341.607 494.841H361.323Z" fill="#A6A6A6"/>
<path d="M386.529 432.299C383.05 431.927 294.816 390.17 292.506 386.504C292.22 386.079 300.735 366.582 300.735 366.582C301.046 326.06 300.125 288.912 300.125 288.912L362.128 317.347L360.83 383.41C360.83 383.41 370.85 395.097 379.001 405.032C384.011 411.128 388.32 416.573 389.138 418.22C391.266 422.59 389.956 432.75 386.529 432.299Z" fill="#DD6A57"/>
<path d="M386.957 433.056C383.401 432.684 293.232 390.064 290.909 386.305C290.623 385.88 294.946 377.778 299.307 365.998C299.878 364.457 299.398 353.978 300.228 343.207L362.011 368.973L360.713 383.171C360.713 383.171 370.966 395.124 379.286 405.231C384.413 411.487 388.826 417.038 389.67 418.712C391.837 423.134 390.5 433.454 386.957 433.056Z" fill="#E84855"/>
<path opacity="0.2" d="M308.211 389.453C308.791 388.277 309.227 387.032 309.509 385.747C310.14 383.173 310.162 380.482 309.574 377.898C308.962 375.296 307.706 372.899 305.926 370.938C304.119 369.029 301.939 367.531 299.528 366.542C299.398 366.542 299.307 366.701 299.45 366.755C303.954 368.667 307.237 373.621 308.185 378.429C308.632 380.809 308.544 383.262 307.925 385.601C307.609 386.748 307.174 387.856 306.627 388.908C306.363 389.427 306.072 389.933 305.758 390.422C305.42 390.914 305.083 391.246 305.174 391.883C305.202 392.029 305.284 392.158 305.402 392.244C305.52 392.331 305.666 392.368 305.81 392.348C306.965 392.242 307.769 390.316 308.211 389.453Z" fill="black"/>
<path opacity="0.2" d="M383.388 412.523C381.533 410.898 379.227 409.908 376.794 409.694C374.263 409.346 371.699 409.324 369.162 409.627C366.664 409.902 364.209 410.495 361.855 411.394C360.711 411.833 359.593 412.338 358.506 412.908C357.368 413.422 356.313 414.112 355.378 414.953C355.347 414.988 355.328 415.033 355.323 415.08C355.318 415.127 355.328 415.174 355.351 415.216C355.374 415.257 355.409 415.289 355.451 415.309C355.493 415.329 355.54 415.334 355.586 415.325C356.615 414.934 357.624 414.491 358.61 413.997C359.739 413.519 360.881 413.08 362.05 412.669C364.327 411.946 366.664 411.439 369.033 411.155C373.728 410.411 378.534 411.172 382.791 413.333C382.896 413.384 383.015 413.396 383.129 413.368C383.242 413.339 383.342 413.272 383.412 413.177C383.482 413.081 383.518 412.964 383.514 412.845C383.509 412.726 383.465 412.612 383.388 412.523Z" fill="black"/>
<path opacity="0.2" d="M358.883 378.004C344.125 372.027 306.303 356.621 302.162 354.815C302.02 354.815 301.955 354.974 302.084 355.04C316.362 362.146 354.366 377.26 358.675 378.628C358.753 378.645 358.834 378.632 358.903 378.592C358.972 378.552 359.024 378.487 359.05 378.41C359.075 378.334 359.072 378.25 359.042 378.175C359.011 378.1 358.954 378.039 358.883 378.004Z" fill="black"/>
<path opacity="0.2" d="M304.564 352.743C304.642 352.681 304.708 352.604 304.758 352.517L304.875 352.198L305.096 351.6C305.251 351.175 305.394 350.75 305.511 350.272C305.758 349.422 305.965 348.572 306.147 347.709C306.147 347.589 305.978 347.536 305.939 347.709C305.68 348.532 305.381 349.356 305.07 350.166L304.615 351.361L304.382 351.986C304.281 352.177 304.227 352.392 304.226 352.61C304.231 352.647 304.246 352.682 304.269 352.711C304.292 352.741 304.323 352.763 304.357 352.777C304.391 352.791 304.428 352.794 304.465 352.788C304.501 352.782 304.535 352.767 304.564 352.743Z" fill="black"/>
<path opacity="0.2" d="M309.95 355.08C310.031 355.019 310.094 354.936 310.132 354.841C310.183 354.743 310.226 354.641 310.262 354.536L310.482 353.938C310.638 353.513 310.781 353.088 310.898 352.61C311.144 351.76 311.352 350.91 311.534 350.046C311.534 349.927 311.365 349.86 311.326 349.98C311.066 350.817 310.755 351.627 310.443 352.45C310.3 352.849 310.158 353.247 310.002 353.646L309.768 354.27C309.667 354.462 309.614 354.676 309.613 354.894C309.614 354.934 309.625 354.973 309.645 355.007C309.665 355.041 309.694 355.069 309.729 355.087C309.763 355.106 309.801 355.116 309.84 355.114C309.879 355.113 309.917 355.101 309.95 355.08Z" fill="black"/>
<path opacity="0.2" d="M315.246 357.418C315.327 357.354 315.394 357.272 315.44 357.179C315.489 357.075 315.532 356.968 315.57 356.86L315.791 356.262C315.947 355.837 316.089 355.412 316.206 354.934C316.453 354.097 316.66 353.234 316.842 352.384C316.842 352.264 316.673 352.198 316.634 352.384C316.375 353.207 316.063 354.031 315.752 354.841L315.311 356.036C315.233 356.249 315.155 356.461 315.064 356.674C314.971 356.868 314.922 357.082 314.921 357.298C314.929 357.332 314.946 357.363 314.969 357.389C314.991 357.415 315.02 357.435 315.052 357.446C315.084 357.458 315.119 357.462 315.152 357.457C315.186 357.452 315.218 357.438 315.246 357.418Z" fill="black"/>
<path opacity="0.2" d="M320.593 359.702C320.674 359.643 320.741 359.566 320.788 359.476C320.836 359.373 320.88 359.266 320.918 359.158C320.982 358.958 321.06 358.759 321.138 358.56C321.281 358.135 321.437 357.71 321.554 357.232C321.8 356.382 321.995 355.532 322.189 354.668C322.189 354.549 322.021 354.496 321.982 354.668C321.709 355.492 321.411 356.315 321.099 357.126L320.658 358.321C320.58 358.533 320.502 358.746 320.411 358.945C320.321 359.14 320.272 359.353 320.269 359.569C320.271 359.606 320.284 359.642 320.306 359.672C320.327 359.702 320.357 359.725 320.39 359.739C320.424 359.753 320.461 359.757 320.497 359.75C320.533 359.744 320.566 359.727 320.593 359.702Z" fill="black"/>
<path opacity="0.2" d="M325.941 362.08C326.022 362.021 326.089 361.944 326.135 361.854C326.135 361.748 326.213 361.641 326.265 361.535C326.317 361.429 326.408 361.137 326.486 360.937C326.629 360.512 326.771 360.087 326.901 359.609C327.148 358.759 327.342 357.909 327.537 357.046C327.537 356.926 327.368 356.86 327.33 357.046C327.057 357.883 326.758 358.706 326.447 359.516C326.291 359.915 326.148 360.313 326.006 360.712C325.863 361.11 325.85 361.123 325.759 361.336C325.666 361.53 325.617 361.744 325.616 361.96C325.621 361.996 325.635 362.03 325.658 362.058C325.68 362.086 325.71 362.108 325.743 362.12C325.777 362.133 325.813 362.135 325.847 362.128C325.882 362.121 325.915 362.104 325.941 362.08Z" fill="black"/>
<path opacity="0.2" d="M331.288 364.417C331.37 364.353 331.437 364.272 331.483 364.178C331.528 364.078 331.567 363.976 331.6 363.872C331.678 363.673 331.756 363.461 331.82 363.262C331.976 362.836 332.119 362.394 332.249 361.933C332.495 361.083 332.69 360.22 332.885 359.37C332.885 359.251 332.716 359.184 332.677 359.304C332.405 360.14 332.106 360.951 331.794 361.761C331.639 362.159 331.496 362.558 331.353 362.956L331.107 363.594C331.014 363.788 330.965 364.001 330.964 364.218C330.959 364.258 330.966 364.299 330.984 364.336C331.001 364.373 331.029 364.403 331.063 364.424C331.097 364.446 331.137 364.456 331.177 364.455C331.217 364.453 331.255 364.44 331.288 364.417Z" fill="black"/>
<path opacity="0.2" d="M336.636 366.755C336.715 366.688 336.781 366.607 336.83 366.516C336.875 366.412 336.914 366.305 336.947 366.197C337.025 365.998 337.103 365.798 337.168 365.599C337.324 365.174 337.466 364.749 337.596 364.271C337.83 363.434 338.038 362.571 338.232 361.708C338.232 361.588 338.064 361.535 338.025 361.708C337.752 362.531 337.453 363.355 337.142 364.165C336.986 364.563 336.843 364.962 336.701 365.36L336.454 365.998C336.363 366.188 336.314 366.397 336.311 366.608C336.316 366.645 336.33 366.679 336.351 366.708C336.373 366.737 336.401 366.76 336.433 366.775C336.466 366.789 336.502 366.795 336.537 366.792C336.573 366.788 336.607 366.775 336.636 366.755Z" fill="black"/>
<path opacity="0.2" d="M341.983 369.079C342.064 369.02 342.131 368.943 342.178 368.853C342.223 368.749 342.262 368.643 342.295 368.534C342.373 368.335 342.45 368.136 342.515 367.937C342.671 367.512 342.814 367.087 342.944 366.609C343.177 365.759 343.385 364.908 343.58 364.045C343.58 363.926 343.411 363.873 343.372 363.979C343.099 364.816 342.801 365.639 342.489 366.449C342.334 366.848 342.191 367.246 342.048 367.644C341.905 368.043 341.879 368.056 341.802 368.269C341.704 368.462 341.651 368.676 341.646 368.893C341.642 368.935 341.65 368.977 341.669 369.014C341.688 369.051 341.718 369.081 341.754 369.101C341.79 369.121 341.831 369.129 341.872 369.125C341.913 369.121 341.951 369.105 341.983 369.079Z" fill="black"/>
<path opacity="0.2" d="M347.331 371.416C347.409 371.349 347.475 371.268 347.526 371.177L347.642 370.872C347.72 370.673 347.798 370.473 347.863 370.274C348.019 369.836 348.162 369.411 348.291 368.946C348.525 368.096 348.733 367.246 348.927 366.383C348.927 366.263 348.759 366.197 348.72 366.316C348.447 367.153 348.149 367.963 347.837 368.787C347.681 369.172 347.539 369.57 347.396 369.969C347.253 370.367 347.227 370.394 347.149 370.606C347.048 370.798 346.994 371.012 346.993 371.23C346.994 371.27 347.006 371.309 347.026 371.343C347.046 371.377 347.075 371.405 347.109 371.424C347.144 371.443 347.182 371.452 347.221 371.451C347.26 371.449 347.298 371.437 347.331 371.416Z" fill="black"/>
<path opacity="0.2" d="M352.678 373.754C352.754 373.684 352.819 373.603 352.873 373.515L352.99 373.196C353.068 372.997 353.146 372.798 353.21 372.598C353.366 372.173 353.509 371.748 353.639 371.27C353.872 370.434 354.08 369.57 354.262 368.707C354.254 368.687 354.241 368.669 354.224 368.657C354.206 368.644 354.186 368.638 354.164 368.638C354.143 368.638 354.123 368.644 354.105 368.657C354.088 368.669 354.074 368.687 354.067 368.707C353.795 369.53 353.496 370.354 353.184 371.164L352.73 372.359L352.497 372.997C352.397 373.185 352.344 373.394 352.341 373.608C352.348 373.644 352.363 373.678 352.386 373.707C352.409 373.736 352.438 373.759 352.471 373.773C352.505 373.787 352.541 373.793 352.577 373.79C352.613 373.787 352.648 373.774 352.678 373.754Z" fill="black"/>
<path opacity="0.2" d="M357.974 376.078C358.052 376.016 358.118 375.939 358.169 375.852L358.285 375.534C358.363 375.334 358.441 375.135 358.506 374.936C358.662 374.511 358.805 374.086 358.934 373.608C359.168 372.758 359.376 371.908 359.557 371.044C359.55 371.024 359.537 371.007 359.519 370.994C359.502 370.982 359.481 370.975 359.46 370.975C359.439 370.975 359.418 370.982 359.401 370.994C359.383 371.007 359.37 371.024 359.363 371.044C359.09 371.868 358.792 372.691 358.48 373.502L358.026 374.697L357.792 375.321C357.691 375.513 357.638 375.727 357.636 375.945C357.642 375.983 357.657 376.018 357.68 376.047C357.703 376.076 357.733 376.099 357.767 376.112C357.802 376.126 357.839 376.13 357.875 376.124C357.912 376.118 357.946 376.102 357.974 376.078Z" fill="black"/>
<path d="M299.255 343.406L364.308 364.762C364.308 364.762 363.322 278.871 361.621 249.333C360.323 226.356 333.326 211.561 309.612 226.237C277.917 245.853 263.444 256.784 248.31 267.635L245.442 264.979L205.335 264.169C205.335 264.169 202 312.712 254.021 328.849C272.816 334.68 298.152 314.24 298.152 314.944C298.268 317.401 299.255 343.406 299.255 343.406Z" fill="#263238"/>
<path d="M298.437 315.249C298.437 310.773 298.982 306.257 299.242 301.782C299.501 297.306 299.735 293.135 300.008 288.806C300.553 280.066 300.968 271.301 301.617 262.575C301.98 257.674 302.5 252.786 302.993 247.899C302.993 247.779 302.824 247.739 302.811 247.899C302.084 252.388 301.422 256.89 300.825 261.406C300.825 260.569 300.825 259.732 300.76 258.896C300.644 256.625 300.488 254.367 300.345 252.096C300.339 252.081 300.329 252.069 300.316 252.061C300.304 252.052 300.289 252.048 300.274 252.048C300.258 252.048 300.244 252.052 300.231 252.061C300.218 252.069 300.208 252.081 300.202 252.096C300.28 254.327 300.358 256.558 300.475 258.736C300.475 259.852 300.644 260.981 300.721 262.097C299.003 274.725 298.053 287.452 297.879 300.201C297.879 305.222 298.229 310.229 298.19 315.249C298.19 315.435 298.437 315.408 298.437 315.249Z" fill="#37474F"/>
<path d="M305.939 333.139C305.264 327.056 305.083 309.578 304.927 303.495C304.628 291.196 304.849 278.898 305.381 266.612C305.693 259.666 306.173 252.746 306.679 245.814C306.679 245.814 306.614 245.747 306.614 245.814C305.047 257.97 304.081 270.2 303.72 282.457C303.291 294.729 304.524 328.942 305.693 333.179C305.745 333.259 305.965 333.245 305.939 333.139Z" fill="#37474F"/>
<path d="M298.788 251.339C288.949 258.218 279.033 264.965 269.181 271.819C264.197 275.281 259.226 278.756 254.268 282.245C251.932 283.891 249.621 285.578 247.259 287.172C245.135 288.732 242.626 289.652 240.016 289.828C237.017 289.769 234.032 289.382 231.113 288.673C227.738 288.062 224.35 287.531 220.989 286.853C220.846 286.853 220.807 287.066 220.989 287.106C223.974 287.717 226.946 288.434 229.918 289.124C232.614 289.827 235.343 290.386 238.096 290.798C240.538 291.142 243.026 290.774 245.273 289.735C247.676 288.437 249.968 286.936 252.126 285.246C262.095 278.11 272.046 270.929 281.979 263.704C287.612 259.6 293.232 255.456 298.853 251.392C298.853 251.365 298.814 251.312 298.788 251.339Z" fill="#37474F"/>
<path d="M302.162 334.016C306.056 335.185 309.95 336.752 313.844 338.133L325.525 342.264C333.313 345 360.168 353.579 362.348 353.898C362.491 353.898 362.543 353.699 362.426 353.632C360.674 352.676 343.294 346.62 339.374 345.305C331.587 342.649 323.617 340.338 315.726 337.894C313.467 337.19 311.209 336.566 308.938 335.862C306.666 335.158 304.395 334.534 302.175 333.803C302.148 333.801 302.121 333.811 302.1 333.83C302.079 333.848 302.067 333.875 302.065 333.903C302.063 333.931 302.072 333.959 302.091 333.98C302.109 334.001 302.135 334.014 302.162 334.016Z" fill="#37474F"/>
<path d="M288.183 573.029C284.614 573.029 190.837 539.374 188.176 535.841C187.852 535.443 190.772 526.743 194.666 514.816C196.964 507.804 200.39 499.29 204.141 490.631C214.135 467.587 226.531 443.429 226.531 443.429L287.444 468.013L265.08 511.111L257.422 525.88C257.422 525.88 268.727 536.757 277.956 546.041C283.641 551.752 288.547 556.852 289.533 558.446C292.116 562.696 291.779 573.082 288.183 573.029Z" fill="#DD6A57"/>
<path d="M288.183 573.029C284.614 573.029 190.837 539.374 188.176 535.841C187.852 535.443 190.772 526.743 194.666 514.816C196.964 507.804 200.39 499.29 204.141 490.631L263.315 514.538L257.435 525.88C257.435 525.88 268.74 536.757 277.969 546.041C283.654 551.752 288.56 556.852 289.546 558.446C292.116 562.696 291.779 573.082 288.183 573.029Z" fill="#E84855"/>
<path opacity="0.2" d="M205.738 537.315C206.226 536.088 206.562 534.803 206.737 533.49C207.13 530.886 206.917 528.224 206.114 525.721C205.271 523.166 203.795 520.878 201.831 519.08C199.851 517.356 197.538 516.079 195.043 515.334C194.913 515.334 194.848 515.507 195.043 515.547C199.702 517.021 203.479 521.617 204.829 526.318C205.499 528.645 205.641 531.098 205.244 533.49C205.042 534.653 204.724 535.793 204.297 536.89C204.087 537.443 203.84 537.98 203.557 538.497C203.285 539.015 202.973 539.387 203.129 539.998C203.168 540.142 203.261 540.263 203.387 540.338C203.513 540.412 203.663 540.433 203.804 540.397C204.816 540.211 205.387 538.205 205.738 537.315Z" fill="black"/>
<path opacity="0.2" d="M282.693 552.948C280.693 551.515 278.307 550.754 275.866 550.769C273.313 550.675 270.758 550.903 268.26 551.447C265.801 551.961 263.415 552.791 261.16 553.917C260.065 554.47 258.999 555.082 257.967 555.75C256.878 556.377 255.885 557.164 255.021 558.087C254.988 558.126 254.969 558.174 254.967 558.224C254.964 558.275 254.978 558.324 255.007 558.366C255.035 558.407 255.076 558.437 255.124 558.452C255.171 558.466 255.221 558.464 255.267 558.446C256.267 558.034 257.188 557.317 258.149 556.799C259.224 556.2 260.329 555.66 261.459 555.179C263.656 554.238 265.932 553.504 268.26 552.987C272.867 551.79 277.723 552.082 282.161 553.824C282.274 553.883 282.404 553.895 282.526 553.861C282.648 553.826 282.752 553.745 282.819 553.635C282.886 553.525 282.91 553.394 282.887 553.266C282.863 553.139 282.794 553.025 282.693 552.948Z" fill="black"/>
<path opacity="0.2" d="M258.253 523.29C243.495 517.353 205.634 502.04 201.493 500.207C201.364 500.14 201.299 500.366 201.428 500.433C215.706 507.512 253.749 522.559 258.045 523.927C258.128 523.956 258.218 523.949 258.296 523.909C258.374 523.869 258.433 523.8 258.46 523.715C258.488 523.63 258.481 523.538 258.442 523.458C258.403 523.379 258.335 523.318 258.253 523.29Z" fill="black"/>
<path opacity="0.2" d="M203.895 498.135C203.973 498.068 204.039 497.987 204.089 497.896L204.206 497.577C204.284 497.378 204.362 497.179 204.427 496.979C204.583 496.554 204.725 496.129 204.842 495.651C205.089 494.815 205.296 493.951 205.478 493.088C205.478 492.968 205.309 492.915 205.27 493.088C205.011 493.911 204.712 494.735 204.401 495.545L203.947 496.74L203.713 497.378C203.612 497.57 203.558 497.784 203.557 498.002C203.566 498.037 203.582 498.07 203.606 498.097C203.629 498.124 203.659 498.145 203.692 498.158C203.725 498.172 203.761 498.176 203.796 498.172C203.831 498.168 203.865 498.155 203.895 498.135Z" fill="black"/>
<path opacity="0.2" d="M209.242 500.486C209.324 500.422 209.391 500.341 209.437 500.247C209.484 500.144 209.523 500.037 209.554 499.928C209.632 499.729 209.709 499.53 209.774 499.33C209.93 498.905 210.073 498.48 210.203 498.002C210.436 497.165 210.644 496.302 210.826 495.439C210.826 495.319 210.657 495.266 210.618 495.439C210.358 496.262 210.06 497.086 209.748 497.896C209.593 498.294 209.45 498.693 209.307 499.091L209.06 499.729C208.967 499.923 208.919 500.137 208.918 500.353C208.924 500.388 208.939 500.421 208.962 500.448C208.984 500.476 209.012 500.497 209.045 500.51C209.077 500.523 209.112 500.528 209.146 500.524C209.181 500.52 209.214 500.506 209.242 500.486Z" fill="black"/>
<path opacity="0.2" d="M214.59 502.783C214.671 502.72 214.738 502.638 214.784 502.544C214.833 502.445 214.876 502.343 214.914 502.239L215.122 501.628C215.278 501.203 215.42 500.778 215.55 500.3C215.784 499.463 215.991 498.6 216.173 497.737C216.166 497.716 216.152 497.699 216.135 497.686C216.118 497.674 216.097 497.667 216.076 497.667C216.055 497.667 216.034 497.674 216.016 497.686C215.999 497.699 215.986 497.716 215.978 497.737C215.706 498.56 215.407 499.383 215.096 500.194C214.94 500.592 214.797 500.99 214.655 501.389C214.512 501.787 214.499 501.814 214.408 502.026C214.315 502.221 214.266 502.434 214.265 502.651C214.272 502.686 214.287 502.718 214.309 502.746C214.331 502.773 214.36 502.795 214.392 502.808C214.424 502.821 214.459 502.826 214.494 502.821C214.528 502.817 214.561 502.804 214.59 502.783Z" fill="black"/>
<path opacity="0.2" d="M219.95 505.108C220.028 505.044 220.091 504.962 220.132 504.869C220.181 504.769 220.224 504.667 220.262 504.563C220.34 504.364 220.404 504.165 220.482 503.952C220.625 503.527 220.768 503.102 220.898 502.624C221.144 501.774 221.339 500.911 221.534 500.061C221.534 499.928 221.365 499.875 221.326 499.994C221.053 500.818 220.755 501.641 220.443 502.451C220.288 502.85 220.145 503.248 220.002 503.647C219.859 504.045 219.846 504.072 219.755 504.284C219.662 504.479 219.614 504.692 219.613 504.908C219.611 504.949 219.621 504.99 219.64 505.026C219.66 505.062 219.688 505.091 219.723 505.112C219.758 505.132 219.797 505.143 219.837 505.142C219.877 505.141 219.916 505.129 219.95 505.108Z" fill="black"/>
<path opacity="0.2" d="M225.298 507.432C225.379 507.368 225.446 507.286 225.493 507.193L225.609 506.887L225.83 506.29C225.986 505.851 226.129 505.426 226.245 504.962C226.492 504.112 226.687 503.248 226.881 502.398C226.881 502.279 226.713 502.212 226.674 502.332C226.401 503.169 226.103 503.979 225.791 504.802C225.648 505.187 225.506 505.586 225.35 505.984L225.116 506.622C225.015 506.814 224.962 507.028 224.96 507.246C224.961 507.286 224.973 507.325 224.993 507.359C225.013 507.393 225.042 507.42 225.076 507.439C225.111 507.458 225.149 507.467 225.188 507.466C225.227 507.465 225.265 507.453 225.298 507.432Z" fill="black"/>
<path opacity="0.2" d="M230.645 509.783C230.727 509.719 230.793 509.637 230.84 509.544L230.957 509.238C231.035 509.039 231.113 508.84 231.177 508.641C231.333 508.216 231.476 507.777 231.593 507.312C231.839 506.462 232.047 505.599 232.229 504.749C232.229 504.63 232.06 504.563 232.021 504.683C231.762 505.519 231.45 506.33 231.152 507.153C230.996 507.538 230.853 507.95 230.697 508.348L230.464 508.973C230.362 509.164 230.309 509.379 230.308 509.597C230.309 509.637 230.32 509.675 230.34 509.709C230.361 509.743 230.39 509.771 230.424 509.79C230.458 509.809 230.497 509.818 230.536 509.817C230.574 509.816 230.612 509.804 230.645 509.783Z" fill="black"/>
<path opacity="0.2" d="M235.967 512.08C236.052 512.02 236.119 511.938 236.162 511.841C236.208 511.743 236.247 511.641 236.278 511.536C236.356 511.337 236.434 511.137 236.499 510.938C236.655 510.513 236.798 510.075 236.927 509.61C237.161 508.76 237.369 507.897 237.55 507.047C237.55 506.927 237.382 506.861 237.343 506.98C237.083 507.817 236.785 508.627 236.473 509.451C236.317 509.849 236.175 510.248 236.032 510.646C235.941 510.845 235.863 511.058 235.785 511.27C235.689 511.463 235.64 511.678 235.642 511.895C235.634 511.936 235.638 511.979 235.656 512.018C235.673 512.057 235.701 512.089 235.738 512.11C235.774 512.131 235.816 512.139 235.857 512.134C235.898 512.128 235.937 512.11 235.967 512.08Z" fill="black"/>
<path opacity="0.2" d="M241.34 514.405C241.422 514.346 241.488 514.269 241.535 514.179C241.535 514.073 241.613 513.966 241.665 513.86L241.873 513.262C242.028 512.837 242.171 512.412 242.301 511.934C242.535 511.084 242.742 510.234 242.924 509.371C242.924 509.251 242.768 509.185 242.729 509.305C242.457 510.141 242.158 510.952 241.847 511.775C241.691 512.173 241.548 512.572 241.405 512.97C241.327 513.17 241.237 513.382 241.159 513.595C241.066 513.789 241.017 514.002 241.016 514.219C241.007 514.26 241.012 514.304 241.029 514.342C241.046 514.381 241.075 514.413 241.111 514.434C241.148 514.455 241.189 514.463 241.231 514.458C241.272 514.453 241.31 514.434 241.34 514.405Z" fill="black"/>
<path opacity="0.2" d="M246.701 516.729C246.775 516.666 246.837 516.59 246.883 516.503C246.932 516.399 246.975 516.293 247.013 516.184C247.077 515.985 247.155 515.786 247.233 515.587C247.376 515.162 247.519 514.737 247.649 514.259C247.895 513.409 248.09 512.559 248.272 511.695C248.272 511.576 248.116 511.509 248.077 511.629C247.804 512.466 247.506 513.276 247.194 514.099C247.038 514.498 246.896 514.896 246.753 515.295C246.61 515.693 246.597 515.706 246.506 515.919C246.413 516.113 246.365 516.327 246.364 516.543C246.36 516.585 246.368 516.627 246.387 516.664C246.406 516.701 246.436 516.731 246.472 516.751C246.508 516.771 246.549 516.779 246.59 516.775C246.63 516.771 246.669 516.755 246.701 516.729Z" fill="black"/>
<path opacity="0.2" d="M252.048 519.08C252.127 519.018 252.193 518.941 252.243 518.854L252.36 518.535L252.581 517.938C252.736 517.513 252.879 517.088 252.996 516.609C253.243 515.759 253.437 514.909 253.632 514.046C253.632 513.927 253.463 513.86 253.424 513.98C253.152 514.816 252.853 515.627 252.542 516.45L252.1 517.645L251.867 518.27C251.766 518.461 251.712 518.676 251.711 518.894C251.707 518.936 251.715 518.978 251.734 519.015C251.754 519.052 251.783 519.082 251.819 519.102C251.855 519.122 251.896 519.13 251.937 519.126C251.978 519.122 252.017 519.106 252.048 519.08Z" fill="black"/>
<path opacity="0.2" d="M257.396 521.378C257.474 521.315 257.54 521.239 257.591 521.152L257.708 520.833C257.785 520.634 257.863 520.435 257.928 520.235C258.084 519.81 258.227 519.385 258.344 518.907C258.59 518.057 258.798 517.207 258.98 516.344C258.98 516.224 258.811 516.158 258.772 516.277C258.499 517.114 258.201 517.938 257.902 518.748L257.448 519.943L257.214 520.567C257.113 520.759 257.06 520.974 257.059 521.192C257.055 521.233 257.063 521.275 257.082 521.312C257.101 521.349 257.131 521.38 257.167 521.4C257.203 521.419 257.244 521.428 257.285 521.424C257.326 521.42 257.364 521.404 257.396 521.378Z" fill="black"/>
<path d="M271.725 512.439L203.181 484.548C203.181 484.548 245.572 387.859 244.715 385.973C241.639 379.452 181.349 365.944 163.918 338.611C145.461 309.671 173.873 263.491 173.873 263.491L232.735 264.886C232.735 264.886 227.634 300.148 229.802 302.95C231.229 304.81 308.976 336.353 318.464 356.727C332.924 387.819 271.725 512.439 271.725 512.439Z" fill="#263238"/>
<path d="M321.93 367.538C321.46 364.297 320.473 361.156 319.01 358.241C317.341 355.109 315.204 352.263 312.676 349.807C307.321 344.666 301.507 340.05 295.309 336.021C289.023 331.747 282.525 327.811 275.84 324.227C269.052 320.588 262.12 317.241 255.073 314.04C248.025 310.84 241.016 307.971 233.968 304.982L230.632 303.575C234.747 302.857 238.848 302.061 242.95 301.277C242.991 301.266 243.028 301.241 243.054 301.206C243.08 301.171 243.095 301.128 243.095 301.084C243.095 301.04 243.08 300.998 243.054 300.963C243.028 300.928 242.991 300.903 242.95 300.892C234.978 300.702 227.046 302.086 219.587 304.969C219.47 304.969 219.496 305.208 219.587 305.195C223.104 304.797 226.583 304.252 230.061 303.654C236.408 306.536 242.716 309.498 249.037 312.46C255.864 315.661 262.653 318.955 269.298 322.554C282.459 329.673 295.387 337.496 306.939 347.204C312.13 351.614 316.881 356.714 318.919 363.461C320.814 369.73 320.372 376.463 319.204 382.825C317.717 389.935 315.84 396.955 313.584 403.85C311.196 411.721 308.695 419.553 306.082 427.345C303.486 435.128 288.677 475.158 287.69 476.765C287.547 477.004 287.911 477.243 288.079 477.031C289.248 475.503 311.91 417.769 314.311 409.787C316.53 402.429 318.815 395.044 320.489 387.527C322.008 381.046 322.929 374.192 321.93 367.538Z" fill="#37474F"/>
<path d="M255.099 379.08C253.176 378.067 251.169 377.232 249.102 376.583L242.34 373.927L228.971 368.614C220.418 365.24 211.812 361.973 203.311 358.454C188.825 352.437 173.458 343.844 167.747 327.999C166.41 324.333 165.788 320.435 165.917 316.524C166.193 311.767 166.848 307.041 167.877 302.393C169.709 292.971 172.265 283.711 175.521 274.701C176.313 272.496 177.196 270.318 178.117 268.14C178.122 268.113 178.117 268.086 178.105 268.063C178.093 268.039 178.073 268.021 178.049 268.01C178.025 267.999 177.998 267.997 177.973 268.004C177.948 268.01 177.926 268.026 177.91 268.047C174.273 276.738 171.266 285.692 168.915 294.835C167.76 299.391 166.773 304.013 165.982 308.661C165.101 312.897 164.851 317.245 165.242 321.558C167.15 337.256 179.999 348.307 193.044 354.947C201.065 359.025 209.58 362.079 217.951 365.347L244.313 375.64L250.906 378.23C252.685 378.92 256.02 379.558 255.903 382.095C255.788 383.097 255.484 384.066 255.008 384.95C254.502 386.119 253.982 387.288 253.476 388.443L250.478 395.243C246.593 404.098 242.729 412.925 238.887 421.727C231.1 439.524 229.996 442.06 222.339 459.898C221.391 462.116 220.431 464.334 219.483 466.538C219.483 466.658 219.6 466.737 219.652 466.631C227.517 448.887 229.075 446.563 236.914 428.806C240.86 419.863 244.754 410.911 248.596 401.95L254.333 388.669C255.326 386.804 256.109 384.83 256.669 382.785C256.819 382.077 256.748 381.339 256.466 380.674C256.184 380.01 255.706 379.452 255.099 379.08Z" fill="#37474F"/>
<path d="M273.14 495.957C269.454 494.15 265.807 492.265 262.043 490.644C258.279 489.024 254.476 487.443 250.673 485.916C243.101 482.879 235.487 479.984 227.829 477.23C223.507 475.676 219.133 474.242 214.849 472.621C214.732 472.621 214.694 472.807 214.849 472.847C222.637 475.742 230.204 479.103 237.849 482.277C245.494 485.451 252.788 488.559 260.303 491.574C264.535 493.274 268.831 494.748 273.088 496.342C273.192 496.408 273.322 496.05 273.14 495.957Z" fill="#37474F"/>
<path d="M179.909 304.81C183.433 303.965 186.901 302.892 190.292 301.596C193.109 300.546 195.99 299.484 198.08 297.12C202.052 292.511 202.675 285.751 202.532 279.854C202.532 279.708 202.752 279.694 202.765 279.854C203.207 286.189 204.375 293.321 199.923 298.594C197.648 301.018 194.713 302.684 191.499 303.375C187.74 304.334 183.896 304.899 180.025 305.062C179.993 305.078 179.955 305.08 179.921 305.067C179.887 305.055 179.859 305.029 179.844 304.996C179.828 304.962 179.826 304.924 179.839 304.889C179.851 304.854 179.876 304.826 179.909 304.81Z" fill="#37474F"/>
<path d="M273.348 226.21L262.731 226.874C259.38 220.857 257.942 213.922 258.616 207.032C258.733 205.464 255.436 214.615 257.318 227.219C246.104 227.923 230.853 228.866 217.536 229.57C217.082 224.258 216.433 219.344 216.433 219.344C216.132 222.852 215.533 226.327 214.642 229.73C212.812 229.836 211.033 229.916 209.32 229.995C209.119 222.441 208.512 214.903 207.503 207.417C206.826 215.351 204.879 223.118 201.74 230.407C193.277 230.752 187.709 230.832 188.047 230.407C200.299 214.894 190.643 206.607 193.771 193.219C197.561 177.201 210.826 174.173 209.995 162.286C209.346 152.604 207.529 135.073 219.353 130.862C222.472 127.498 226.49 125.148 230.906 124.107C235.322 123.065 239.94 123.378 244.183 125.005C263.354 131.646 256.955 161.861 258.46 167.878C260.602 176.497 264.756 179.406 268.13 189.128C271.505 198.85 267.351 205.85 267.092 212.663C266.832 219.476 275.464 226.104 273.348 226.21Z" fill="#263238"/>
<path d="M187.618 228.216C189.274 225.529 190.554 222.619 191.421 219.569C192.278 216.581 191.746 213.579 191.045 210.471C190.258 207.336 189.625 204.162 189.15 200.962C188.679 197.619 188.873 194.212 189.721 190.948C190.633 187.685 192.268 184.681 194.498 182.169C196.658 179.759 199.011 177.537 201.532 175.528C203.972 173.616 206.154 171.383 208.022 168.887C209.808 166.296 210.872 163.257 211.098 160.095C211.334 163.38 210.597 166.661 208.983 169.511C207.279 172.294 205.179 174.8 202.752 176.949C200.454 179.019 198.286 181.237 196.263 183.59C194.342 185.911 192.934 188.629 192.135 191.559C191.402 194.521 191.213 197.597 191.577 200.63C191.863 203.711 192.538 206.806 193.057 210.007C193.347 211.633 193.512 213.281 193.55 214.934C193.542 216.631 193.238 218.313 192.654 219.901C191.473 222.957 189.767 225.773 187.618 228.216Z" fill="#263238"/>
<path d="M255.293 135.67C256.75 139.373 257.757 143.245 258.291 147.199C258.914 151.183 259.356 155.048 259.745 158.966L260.368 164.81C260.549 166.701 260.91 168.569 261.445 170.388C262.691 173.973 264.56 177.298 266.962 180.203C268.169 181.806 269.266 183.492 270.246 185.25C271.22 187.06 271.995 188.976 272.556 190.961C273.053 192.937 273.404 194.948 273.607 196.978C273.819 199.015 273.784 201.072 273.503 203.1C273.231 205.132 272.751 207.085 272.348 208.957C271.943 210.839 271.717 212.756 271.673 214.682C271.684 216.608 272.144 218.504 273.015 220.211C273.887 221.918 275.144 223.388 276.683 224.497C274.936 223.521 273.454 222.115 272.37 220.406C271.287 218.697 270.637 216.739 270.479 214.708C270.369 212.694 270.46 210.674 270.752 208.678C271.011 206.686 271.427 204.774 271.569 202.888C271.8 199.089 271.361 195.278 270.272 191.638C269.717 189.85 268.986 188.123 268.091 186.485C267.148 184.828 266.094 183.239 264.937 181.73C263.744 180.133 262.63 178.476 261.601 176.763C260.551 174.987 259.726 173.082 259.148 171.092C258.631 169.115 258.305 167.091 258.175 165.049C257.993 163.07 257.889 161.064 257.785 159.125C257.552 155.141 257.383 151.263 257.058 147.358C256.865 143.41 256.273 139.494 255.293 135.67Z" fill="#263238"/>
<path d="M220.469 130.398C223.325 127.741 223.675 118.019 219.405 113.61C213.538 107.54 200.909 114.327 203.44 123.584C205.971 132.841 218.263 132.483 220.469 130.398Z" fill="#263238"/>
<path d="M207.295 113.49C209.596 111.974 212.226 111.062 214.953 110.834C216.231 110.731 217.509 111.035 218.612 111.703C219.716 112.37 220.591 113.37 221.118 114.566C221.721 115.788 222.157 117.088 222.416 118.431C222.714 119.768 222.858 121.137 222.845 122.508C222.85 125.319 222.032 128.067 220.495 130.397C222.518 128.296 223.73 125.518 223.909 122.575C224.02 121.101 223.941 119.618 223.675 118.165C223.444 116.701 223.007 115.278 222.377 113.942C221.704 112.54 220.644 111.372 219.327 110.582C217.982 109.853 216.449 109.57 214.94 109.771C212.078 110.174 209.407 111.473 207.295 113.49Z" fill="#263238"/>
<path d="M230.697 201.321C236.824 226.834 252.762 259.175 265.184 263.451C273.607 266.36 303.486 244.326 314.674 237.207C325.863 230.088 300.76 202.011 294.349 206.553C284.406 213.593 270.986 223.926 268.481 223.102C265.339 222.08 260.693 214.522 242.028 193.166C234.15 184.121 228.088 190.456 230.697 201.321Z" fill="#DD6A57"/>
<path d="M306.381 195.742C311.663 193.843 317.569 191.213 323.423 191.333C329.276 191.452 334.157 199.302 334.157 201.626C334.157 203.95 331.937 218.042 326.083 218.042C320.23 218.042 323.76 207.178 323.488 205.929C323.215 204.681 323.046 203.087 321.93 203.206C320.814 203.326 301.474 212.716 301.474 212.716L306.381 195.742Z" fill="#DD6A57"/>
<path d="M306.757 196.579C307.094 196.579 322.8 190.231 328.666 190.35C334.533 190.47 339.387 198.319 339.387 200.643C339.387 202.967 337.181 217.059 331.314 217.059C325.447 217.059 328.991 206.195 328.718 204.946C328.446 203.698 328.277 202.117 327.174 202.29C326.07 202.463 306.705 211.813 306.705 211.813L306.757 196.579Z" fill="#DD6A57"/>
<path d="M329.328 216.262C328.704 215.189 328.368 213.965 328.355 212.716C328.229 211.438 328.299 210.147 328.563 208.891C328.889 207.811 329.128 206.705 329.276 205.584C329.268 204.473 328.987 203.381 328.459 202.41C328.004 201.573 327.161 201.865 326.408 202.131C325.314 202.551 324.247 203.043 323.215 203.605C322.099 204.176 320.983 204.76 319.879 205.358C318.704 205.914 317.567 206.553 316.479 207.271C316.401 207.271 316.479 207.47 316.544 207.43C317.557 207.042 318.549 206.598 319.516 206.102C320.632 205.571 321.748 205.039 322.878 204.535C324.007 204.03 324.954 203.512 326.006 203.06C326.477 202.78 327.006 202.617 327.55 202.582C328.004 202.689 328.225 203.817 328.316 204.176C328.557 205.253 328.49 206.378 328.121 207.417C327.808 208.49 327.604 209.594 327.511 210.711C327.405 211.758 327.488 212.816 327.758 213.832C328.118 214.745 328.584 215.61 329.147 216.408C329.225 216.528 329.419 216.408 329.328 216.262Z" fill="#263238"/>
<path d="M288.157 212.278C288.157 212.278 304.408 197.124 307.795 194.122C314.571 188.079 343.152 176.139 347.136 175.701C351.121 175.262 352.562 183.67 333.157 192.302C322.943 196.885 321.125 202.928 321.32 206.195C321.515 209.462 324.604 215.704 330.068 215.492C335.533 215.279 339.063 207.191 344.073 206.288C349.083 205.385 345.773 214.788 342.243 220.22C338.529 225.474 333.434 229.541 327.55 231.948C322.839 233.754 308.224 240.195 308.224 240.195L288.157 212.278Z" fill="#DD6A57"/>
<path d="M336.83 211.667C334.78 213.287 332.456 215.399 329.744 215.505C327.031 215.611 325.136 213.752 323.838 211.428C322.413 209.133 321.902 206.367 322.41 203.698C323.04 201.287 324.338 199.115 326.148 197.442C328.359 195.407 330.846 193.711 333.534 192.409C333.65 192.409 333.534 192.17 333.43 192.223C330.912 193.378 323.111 196.645 321.541 203.698C321.047 206.425 321.59 209.243 323.059 211.574C324.279 213.792 326.031 215.943 328.679 216.156C331.898 216.422 334.676 213.739 336.999 211.747C337.103 211.654 336.947 211.574 336.83 211.667Z" fill="#263238"/>
<path d="M243.936 245.867L265.184 214.456C258.813 207.12 252.017 200.183 244.832 193.684C232.683 182.673 225.259 186.299 230.022 208.161C232.888 221.341 237.573 234.037 243.936 245.867Z" fill="#E84855"/>
<path d="M235.954 208.572L234.059 211.175L231.048 212.211L232.891 214.854L232.917 218.108L235.954 217.139L238.978 218.108L239.004 214.854L240.847 212.211L237.836 211.175L235.954 208.572Z" fill="white"/>
<path d="M251.841 200.324L250.4 200.816L252.23 203.459L252.269 206.7L255.306 205.73L258.032 206.607L251.841 200.324Z" fill="white"/>
<path d="M232.904 187.787V188.942L235.863 187.999C234.908 187.687 233.893 187.614 232.904 187.787Z" fill="white"/>
<path d="M246.364 230.075L248.207 232.718L248.246 235.985L251.27 235.002H251.296L254.904 229.637L253.165 229.052L251.27 226.436L249.375 229.052L246.364 230.075Z" fill="white"/>
<path opacity="0.1" d="M230.035 208.214C232.898 221.376 237.579 234.055 243.936 245.867L260.628 221.176C253.671 211.574 237.174 193.551 233.371 187.72C228.789 188.145 227.076 194.706 230.035 208.214Z" fill="black"/>
<path d="M260.706 211.268C258.863 213.42 257.331 215.851 255.683 218.148C254.034 220.446 252.529 222.531 251.023 224.789C247.908 229.437 244.88 234.148 241.938 238.92C241.938 239 242.015 239.106 242.08 239.027C245.325 234.538 248.514 230.013 251.646 225.453C253.204 223.182 254.696 220.871 256.189 218.56C257.682 216.249 259.46 213.885 260.823 211.401C260.888 211.295 260.771 211.202 260.706 211.268Z" fill="#263238"/>
<path d="M254.424 281.036C254.424 281.036 168.759 277.795 166.008 276.135C166.008 276.135 180.739 235.507 198.041 204.229C216.576 170.747 233.786 182.846 239.575 189.42C246.441 197.217 258.396 224.603 258.876 229.65C259.668 238.004 251.815 246.265 251.815 246.265L254.424 281.036Z" fill="#E84855"/>
<path d="M214.382 193.405L212.487 196.008L209.476 197.044L211.319 199.7L211.345 202.941L214.382 201.971L217.406 202.941L217.432 199.7L219.275 197.044L216.264 196.008L214.382 193.405Z" fill="white"/>
<path d="M192.797 240.063L190.902 242.679L187.891 243.715L189.734 246.358L189.773 249.612L192.797 248.629L195.821 249.612L195.86 246.358L197.703 243.715L194.692 242.679L192.797 240.063Z" fill="white"/>
<path d="M234.864 242.679L232.969 245.296L229.958 246.331L231.801 248.975L231.827 252.228L234.864 251.246L237.888 252.228L237.927 248.975L239.77 246.331L236.759 245.296L234.864 242.679Z" fill="white"/>
<path d="M188.644 276.029L190.123 278.141L196.743 278.499L198.456 276.029L195.458 275.006L193.55 272.35L191.655 275.006L188.644 276.029Z" fill="white"/>
<path d="M192.096 215.505L192.356 215.864V219.104L195.393 218.122L198.417 219.104V215.864L200.273 213.207L197.249 212.158L195.367 209.502L194.445 210.83C193.654 212.411 192.875 213.951 192.096 215.505Z" fill="white"/>
<path d="M214.382 255.443L212.487 258.059L209.476 259.082L211.319 261.738L211.345 264.979L214.382 264.009L217.406 264.979L217.432 261.738L219.275 259.082L216.264 258.059L214.382 255.443Z" fill="white"/>
<path d="M170.187 265.165L172.965 264.261L176.002 265.244V261.99L177.845 259.334L174.834 258.311L173.536 256.598C172.368 259.759 171.173 262.628 170.187 265.165Z" fill="white"/>
<path d="M247.895 262.309L249.725 264.952L249.764 268.193L252.801 267.21L253.398 267.422L252.749 258.71L250.893 261.26L247.895 262.309Z" fill="white"/>
<path d="M235.954 208.572L234.059 211.175L231.048 212.211L232.891 214.854L232.917 218.108L235.954 217.139L238.978 218.108L239.004 214.854L240.847 212.211L237.836 211.175L235.954 208.572Z" fill="white"/>
<path d="M231.19 183.218L232.891 185.702V188.942L235.928 187.959L238.952 188.942V188.77C236.754 186.406 234.115 184.518 231.19 183.218Z" fill="white"/>
<path d="M215.654 223.979L213.759 226.582L210.748 227.618L212.591 230.261L212.617 233.515L215.654 232.545L218.678 233.515L218.717 230.261L220.56 227.618L217.549 226.582L215.654 223.979Z" fill="white"/>
<path d="M228.179 277.503L229.931 280.04C232.086 280.133 234.163 280.226 236.136 280.292V280.146L237.966 277.49L234.967 276.454L233.072 273.798L231.177 276.454L228.179 277.503Z" fill="white"/>
<path d="M251.27 226.436L249.375 229.039L246.364 230.075L248.207 232.731L248.246 235.972L251.27 235.002L254.307 235.972L254.333 232.731L256.176 230.075L253.165 229.039L251.27 226.436Z" fill="white"/>
<path d="M225.025 242.56C228.662 242.924 232.267 243.563 235.811 244.472C237.563 244.95 239.277 245.508 241.003 246.106C241.86 246.398 242.716 246.664 243.599 246.929C244.5 247.228 245.432 247.415 246.377 247.487C246.394 247.487 246.41 247.494 246.422 247.506C246.435 247.519 246.441 247.536 246.441 247.553C246.441 247.571 246.435 247.588 246.422 247.6C246.41 247.613 246.394 247.62 246.377 247.62C245.485 247.664 244.591 247.642 243.703 247.553C242.828 247.437 241.961 247.264 241.107 247.035C239.316 246.571 237.563 246.013 235.785 245.535C232.19 244.552 228.608 243.582 224.96 242.878C224.818 242.825 224.857 242.546 225.025 242.56Z" fill="#263238"/>
<path d="M216.017 245.774C219.037 245.479 222.07 245.359 225.103 245.415C226.609 245.415 228.101 245.561 229.607 245.734C230.321 245.8 231.035 245.893 231.748 245.999C232.462 246.106 233.306 246.318 234.085 246.424C234.102 246.424 234.118 246.431 234.131 246.444C234.143 246.456 234.15 246.473 234.15 246.491C234.15 246.508 234.143 246.525 234.131 246.538C234.118 246.55 234.102 246.557 234.085 246.557C233.345 246.478 232.579 246.557 231.839 246.557L229.581 246.478L225.077 246.318C222.079 246.185 219.08 246.092 216.082 246.066C216.063 246.07 216.044 246.071 216.025 246.067C216.006 246.064 215.988 246.057 215.972 246.047C215.955 246.036 215.941 246.022 215.93 246.006C215.919 245.99 215.911 245.972 215.907 245.953C215.903 245.934 215.902 245.914 215.905 245.895C215.909 245.875 215.916 245.857 215.926 245.84C215.936 245.823 215.949 245.809 215.965 245.797C215.981 245.786 215.999 245.778 216.017 245.774Z" fill="#263238"/>
<path d="M221.248 189.261C221.534 190.881 228.413 201.613 235.525 201.666C237.836 201.666 238.472 188.716 238.472 188.716L238.731 187.773L242.366 174.492L227.517 163.535L225.363 162.087C225.363 162.087 224.61 165.766 223.701 170.375C223.701 170.587 223.61 170.8 223.571 171.026C223.532 171.251 223.455 171.53 223.416 171.769C223.273 172.46 223.13 173.164 223 173.868C222.87 174.572 222.806 174.917 222.715 175.475C222.624 176.033 222.533 176.59 222.429 177.148C221.767 181.154 221.372 185.201 221.248 189.261Z" fill="#DD6A57"/>
<path d="M223.714 170.428C224.841 174.261 226.769 177.798 229.364 180.793C231.96 183.788 235.16 186.17 238.745 187.773L242.379 174.492L227.53 163.535L225.376 162.087C225.376 162.087 224.623 165.793 223.714 170.428Z" fill="#263238"/>
<path d="M263.496 154.902C263.769 179.021 249.673 181.916 244.585 181.969C239.978 181.969 224.259 181.584 221.547 157.625C218.834 133.665 229.711 125.895 240.263 125.204C250.815 124.514 263.224 130.769 263.496 154.902Z" fill="#DD6A57"/>
<path d="M222.274 162.831C223.797 162.008 225.087 160.795 226.015 159.31C226.943 157.824 227.479 156.118 227.569 154.357C231.721 152.32 235.269 149.189 237.849 145.286C237.706 145.791 236.655 149.51 236.071 151.382C251.27 147.929 255.618 135.776 255.618 135.776C258.636 138.425 261.028 141.74 262.614 145.472C262.614 145.472 262.406 135.856 257.422 129.601C251.244 121.924 231.229 120.49 222.377 131.088C212.708 142.51 222.274 162.831 222.274 162.831Z" fill="#263238"/>
<path d="M247.649 148.381C245.228 149.855 242.602 150.943 239.861 151.608C239.861 151.608 239.861 151.608 239.861 151.608C244.122 150.261 247.93 147.722 250.854 144.277C252.096 142.804 253.156 141.18 254.008 139.442C254.997 137.569 255.619 135.516 255.839 133.399C255.839 133.367 255.851 133.337 255.873 133.315C255.895 133.292 255.924 133.28 255.955 133.28C255.986 133.28 256.016 133.292 256.038 133.315C256.06 133.337 256.072 133.367 256.072 133.399C256.079 135.509 255.741 137.606 255.073 139.602C254.319 141.558 253.224 143.358 251.841 144.914C250.599 146.278 249.175 147.454 247.61 148.407" fill="#263238"/>
<path d="M225.311 159.431C225.311 159.431 220.729 151.462 217.263 153.135C213.798 154.809 216.861 165.939 220.651 167.745C221.123 168.009 221.643 168.173 222.178 168.227C222.714 168.28 223.255 168.222 223.768 168.055C224.281 167.889 224.756 167.618 225.164 167.259C225.572 166.9 225.904 166.46 226.141 165.965L225.311 159.431Z" fill="#DD6A57"/>
<path d="M218.224 156.323V156.429C220.82 157.757 222.118 160.493 222.948 163.269C222.811 162.975 222.614 162.716 222.369 162.508C222.124 162.3 221.838 162.149 221.531 162.066C221.223 161.982 220.902 161.969 220.588 162.025C220.275 162.081 219.978 162.207 219.717 162.393C219.639 162.393 219.717 162.565 219.781 162.552C220.27 162.439 220.78 162.481 221.244 162.673C221.708 162.866 222.104 163.199 222.377 163.628C222.831 164.365 223.209 165.149 223.507 165.965C223.61 166.218 224.065 166.125 224 165.819C224 165.819 224 165.819 224 165.753C224.285 162.18 221.949 156.974 218.224 156.323Z" fill="#263238"/>
<path d="M258.837 150.001C258.294 149.919 257.756 149.804 257.227 149.656C256.642 149.608 256.088 149.371 255.644 148.978C255.53 148.826 255.469 148.639 255.469 148.447C255.469 148.255 255.53 148.068 255.644 147.916C255.914 147.65 256.25 147.462 256.615 147.374C256.98 147.285 257.362 147.298 257.72 147.411C258.479 147.53 259.169 147.932 259.654 148.54C259.76 148.683 259.821 148.855 259.832 149.034C259.843 149.212 259.803 149.39 259.716 149.546C259.629 149.701 259.499 149.827 259.343 149.908C259.187 149.989 259.011 150.021 258.837 150.001Z" fill="#263238"/>
<path d="M241.678 149.948C242.221 149.861 242.758 149.742 243.287 149.589C243.872 149.552 244.429 149.319 244.871 148.925C244.987 148.773 245.049 148.586 245.049 148.394C245.049 148.201 244.987 148.014 244.871 147.863C244.601 147.595 244.266 147.407 243.9 147.318C243.535 147.23 243.153 147.243 242.794 147.358C242.033 147.471 241.339 147.868 240.847 148.474C240.743 148.619 240.682 148.792 240.673 148.972C240.663 149.153 240.705 149.332 240.793 149.488C240.881 149.644 241.011 149.771 241.168 149.853C241.326 149.934 241.503 149.967 241.678 149.948Z" fill="#263238"/>
<path d="M245.455 155.938C245.455 155.938 245.338 156.031 245.338 156.097C245.429 157.757 245.26 159.67 243.793 160.268V160.361C245.598 160.055 245.805 157.505 245.455 155.938Z" fill="#263238"/>
<path d="M243.975 154.238C241.379 154.092 241.263 159.471 243.69 159.55C246.117 159.63 246.169 154.357 243.975 154.238Z" fill="#263238"/>
<path d="M242.937 154.503C242.469 154.809 242.015 155.327 241.457 155.38C240.899 155.433 240.341 154.862 239.939 154.317C239.939 154.251 239.848 154.317 239.848 154.317C239.848 155.353 240.185 156.416 241.262 156.589C242.34 156.761 242.963 155.845 243.222 154.809C243.274 154.676 243.118 154.384 242.937 154.503Z" fill="#263238"/>
<path d="M255.293 155.739C255.293 155.739 255.41 155.832 255.41 155.898C255.319 157.558 255.488 159.471 256.942 160.068V160.161C255.138 159.856 254.943 157.306 255.293 155.739Z" fill="#263238"/>
<path d="M256.734 154.038C259.33 153.906 259.434 159.271 257.007 159.351C254.58 159.431 254.593 154.158 256.734 154.038Z" fill="#263238"/>
<path d="M257.876 154.384C258.305 154.663 258.72 155.167 259.174 155.194C259.628 155.221 260.174 154.636 260.472 154.078C260.472 154.012 260.55 154.078 260.563 154.078C260.563 155.101 260.277 156.177 259.265 156.389C258.253 156.602 257.733 155.712 257.487 154.689C257.578 154.557 257.72 154.264 257.876 154.384Z" fill="#263238"/>
<path d="M245.844 169.604C246.208 170.016 246.558 170.574 247.142 170.667C247.75 170.688 248.356 170.579 248.92 170.348C248.92 170.348 249.024 170.348 248.985 170.441C248.733 170.753 248.404 170.989 248.031 171.124C247.659 171.26 247.257 171.29 246.87 171.211C246.545 171.103 246.258 170.899 246.046 170.625C245.833 170.351 245.705 170.019 245.676 169.671C245.67 169.649 245.672 169.625 245.682 169.604C245.692 169.584 245.71 169.568 245.731 169.56C245.752 169.551 245.775 169.551 245.796 169.56C245.817 169.568 245.834 169.584 245.844 169.604Z" fill="#263238"/>
<path d="M252.671 163.614C252.671 163.614 252.996 166.098 252.983 167.28C252.983 167.386 252.71 167.44 252.321 167.453C251.339 167.636 250.326 167.536 249.396 167.166C248.466 166.795 247.654 166.168 247.051 165.354C246.96 165.235 247.116 165.115 247.22 165.195C248.674 166.221 250.413 166.738 252.178 166.669C252.269 166.35 251.49 162.432 251.672 162.419C252.56 162.502 253.433 162.708 254.268 163.03C253.736 157.837 252.399 152.764 251.945 147.57C251.944 147.534 251.956 147.498 251.978 147.469C252.001 147.44 252.032 147.42 252.067 147.412C252.102 147.404 252.139 147.409 252.171 147.426C252.203 147.443 252.229 147.47 252.243 147.504C253.849 152.892 254.919 158.432 255.436 164.039C255.436 164.704 253.126 163.814 252.671 163.614Z" fill="#263238"/>
<path d="M252.152 166.895C251.523 167.864 250.66 168.651 249.647 169.179C249.086 169.453 248.454 169.536 247.843 169.418C246.545 169.153 246.402 167.931 246.545 166.868C246.637 166.301 246.798 165.748 247.025 165.222C248.516 166.325 250.313 166.911 252.152 166.895Z" fill="#263238"/>
<path d="M249.647 169.179C249.086 169.453 248.454 169.536 247.843 169.418C246.545 169.153 246.402 167.931 246.545 166.868C247.241 166.839 247.926 167.052 248.489 167.471C249.053 167.891 249.461 168.493 249.647 169.179Z" fill="#FF9BBC"/>
<path d="M206.309 208.293C210.631 234.312 230.282 286.256 241.353 290.824C257.032 297.293 307.302 280.425 318.27 272.23C322.631 268.95 302.811 236.198 297.191 237.699C277.852 242.639 257.72 246.664 256.072 245.8C256.072 245.8 235.785 217.285 223.844 200.643C208.866 179.539 204.362 196.619 206.309 208.293Z" fill="#DD6A57"/>
<path d="M318.27 272.217C320.749 271.301 337.869 258.59 342.931 252.627C348.392 246.444 352.832 239.392 356.079 231.748C361.154 219.649 363.542 210.79 362.322 206.832C360.907 202.224 360.505 201.52 348.668 221.548C341.97 232.917 335.584 234.192 330.055 234.086C316.435 233.823 302.952 236.911 290.74 243.091C290.74 243.091 308.652 275.697 318.27 272.217Z" fill="#DD6A57"/>
<path d="M373.199 194.162L340.257 230.022C339.787 230.51 339.192 230.853 338.539 231.011C337.887 231.168 337.205 231.134 336.571 230.912L316.44 222C316.193 221.899 315.976 221.735 315.811 221.522C315.646 221.309 315.538 221.055 315.499 220.786C315.459 220.517 315.49 220.243 315.586 219.989C315.683 219.736 315.843 219.514 316.05 219.344L348.979 183.484C349.453 182.996 350.051 182.655 350.705 182.498C351.358 182.34 352.042 182.374 352.678 182.594L372.823 191.466C373.077 191.564 373.301 191.73 373.471 191.947C373.641 192.164 373.752 192.424 373.79 192.7C373.828 192.975 373.794 193.256 373.69 193.514C373.586 193.771 373.416 193.995 373.199 194.162Z" fill="#37474F"/>
<path d="M370.953 190.682L350.796 181.81C350.161 181.59 349.478 181.557 348.826 181.717C348.174 181.877 347.579 182.222 347.11 182.713L314.181 218.573C313.974 218.743 313.814 218.966 313.717 219.219C313.62 219.472 313.59 219.747 313.63 220.016C313.669 220.285 313.777 220.538 313.942 220.751C314.107 220.964 314.324 221.129 314.571 221.23L334.715 230.102C335.352 230.323 336.037 230.356 336.692 230.196C337.346 230.036 337.943 229.69 338.414 229.198L371.343 193.338C371.55 193.168 371.71 192.946 371.807 192.692C371.904 192.439 371.934 192.165 371.895 191.896C371.855 191.627 371.747 191.373 371.582 191.16C371.417 190.947 371.2 190.783 370.953 190.682ZM338.154 227.512C337.728 227.974 337.182 228.303 336.581 228.463C335.979 228.623 335.346 228.606 334.754 228.415L316.725 220.446C315.713 220.008 315.596 218.879 316.466 217.936L347.136 184.599C348.901 182.673 349.81 182.939 350.822 183.391L354.431 184.984C354.638 185.064 354.625 185.356 354.431 185.609L354.327 185.715C353.782 186.313 354.158 186.485 354.625 186.684L362.971 190.363C363.187 190.521 363.455 190.586 363.717 190.544C363.979 190.502 364.215 190.356 364.373 190.138L364.464 190.031C364.559 189.908 364.686 189.815 364.831 189.763C364.976 189.711 365.132 189.703 365.281 189.739L368.89 191.32C369.902 191.771 370.486 192.382 368.89 194.135L338.154 227.512Z" fill="#263238"/>
<path d="M360.57 188.371L358.285 187.375C358.269 187.366 358.256 187.352 358.246 187.336C358.237 187.32 358.232 187.301 358.232 187.282C358.232 187.263 358.237 187.244 358.246 187.228C358.256 187.212 358.269 187.198 358.285 187.189C358.32 187.156 358.361 187.133 358.407 187.121C358.452 187.109 358.5 187.11 358.545 187.123L360.817 188.132C360.833 188.141 360.846 188.155 360.856 188.171C360.865 188.187 360.87 188.206 360.87 188.225C360.87 188.244 360.865 188.263 360.856 188.279C360.846 188.295 360.833 188.309 360.817 188.318C360.786 188.352 360.745 188.375 360.701 188.384C360.657 188.394 360.611 188.389 360.57 188.371Z" fill="white"/>
<path d="M368.864 194.162L338.193 227.512C337.767 227.974 337.221 228.303 336.62 228.463C336.018 228.623 335.385 228.606 334.793 228.415L316.764 220.446C315.752 220.008 315.635 218.879 316.505 217.936L347.175 184.599C348.94 182.673 349.849 182.939 350.861 183.391L354.47 184.984C354.677 185.064 354.664 185.356 354.47 185.609L354.366 185.715C353.821 186.312 354.197 186.485 354.664 186.684L363.01 190.363C363.226 190.521 363.494 190.586 363.756 190.544C364.018 190.502 364.254 190.356 364.412 190.138L364.503 190.031C364.598 189.908 364.725 189.815 364.87 189.763C365.015 189.711 365.171 189.703 365.32 189.739L368.929 191.32C369.902 191.798 370.486 192.356 368.864 194.162Z" fill="white"/>
<path d="M368.864 194.162L366.579 196.659L344.891 187.109L347.175 184.626C348.94 182.7 349.849 182.966 350.861 183.417L354.469 185.011C354.677 185.091 354.664 185.383 354.469 185.635L354.366 185.741C353.82 186.339 354.197 186.512 354.664 186.711L363.01 190.39C363.226 190.548 363.494 190.613 363.756 190.57C364.018 190.528 364.254 190.382 364.412 190.164L364.516 190.058C364.607 189.934 364.732 189.841 364.875 189.789C365.018 189.737 365.173 189.729 365.32 189.766L368.929 191.346C369.902 191.798 370.486 192.356 368.864 194.162Z" fill="#E84855"/>
<path d="M348.2 186.87L348.045 186.06L349.161 185.834L349.174 185.967L348.252 186.153L348.382 186.817L348.2 186.87Z" fill="white"/>
<path d="M366.813 194.029C366.777 194.049 366.737 194.059 366.696 194.059C366.655 194.059 366.615 194.049 366.579 194.029C366.566 194.019 366.555 194.006 366.548 193.991C366.54 193.976 366.536 193.96 366.536 193.943C366.536 193.926 366.54 193.909 366.548 193.894C366.555 193.879 366.566 193.866 366.579 193.856C366.616 193.838 366.656 193.828 366.696 193.828C366.737 193.828 366.777 193.838 366.813 193.856C366.826 193.866 366.837 193.879 366.845 193.894C366.852 193.909 366.856 193.926 366.856 193.943C366.856 193.96 366.852 193.976 366.845 193.991C366.837 194.006 366.826 194.019 366.813 194.029Z" fill="white"/>
<path d="M366.45 194.414C366.416 194.433 366.378 194.443 366.339 194.443C366.301 194.443 366.263 194.433 366.229 194.414C366.215 194.404 366.205 194.391 366.197 194.376C366.19 194.361 366.186 194.345 366.186 194.328C366.186 194.311 366.19 194.294 366.197 194.279C366.205 194.264 366.215 194.251 366.229 194.242C366.263 194.223 366.301 194.213 366.339 194.213C366.378 194.213 366.416 194.223 366.45 194.242C366.466 194.248 366.481 194.26 366.491 194.276C366.501 194.291 366.507 194.309 366.507 194.328C366.507 194.346 366.501 194.365 366.491 194.38C366.481 194.395 366.466 194.407 366.45 194.414Z" fill="white"/>
<path d="M366.099 194.799C366.065 194.818 366.027 194.828 365.989 194.828C365.95 194.828 365.912 194.818 365.879 194.799C365.865 194.791 365.854 194.779 365.846 194.765C365.839 194.751 365.834 194.736 365.834 194.72C365.834 194.704 365.839 194.688 365.846 194.674C365.854 194.66 365.865 194.648 365.879 194.64C365.912 194.619 365.95 194.607 365.989 194.607C366.028 194.607 366.066 194.619 366.099 194.64C366.11 194.65 366.119 194.662 366.125 194.676C366.131 194.69 366.134 194.705 366.134 194.72C366.134 194.735 366.131 194.75 366.125 194.763C366.119 194.777 366.11 194.789 366.099 194.799Z" fill="white"/>
<path d="M353.159 185.476H353.055C353.046 185.415 353.02 185.358 352.981 185.311C352.942 185.264 352.891 185.229 352.834 185.21C352.692 185.156 352.535 185.156 352.393 185.21V185.13H352.626H352.795H352.873L352.964 185.21C352.968 185.237 352.968 185.263 352.964 185.29C352.973 185.316 352.973 185.344 352.964 185.37L353.159 185.476Z" fill="white"/>
<path d="M352.406 185.356V185.277C352.508 185.25 352.615 185.25 352.717 185.277C352.778 185.29 352.833 185.321 352.877 185.366C352.92 185.411 352.951 185.467 352.964 185.529H352.86C352.852 185.49 352.835 185.454 352.81 185.424C352.785 185.394 352.753 185.371 352.717 185.356C352.616 185.323 352.507 185.323 352.406 185.356Z" fill="white"/>
<path d="M352.782 185.569H352.678C352.674 185.548 352.664 185.529 352.651 185.513C352.637 185.496 352.62 185.484 352.601 185.476C352.55 185.462 352.496 185.462 352.445 185.476V185.409C352.588 185.383 352.782 185.449 352.782 185.569Z" fill="white"/>
<path d="M352.562 185.609C352.532 185.62 352.5 185.62 352.471 185.609C352.471 185.609 352.471 185.609 352.471 185.542C352.485 185.534 352.5 185.53 352.516 185.53C352.532 185.53 352.548 185.534 352.562 185.542C352.562 185.542 352.587 185.582 352.562 185.609Z" fill="white"/>
<path d="M349.667 184.068C349.706 184.043 349.751 184.03 349.797 184.03C349.843 184.03 349.888 184.043 349.927 184.068C349.94 184.079 349.951 184.093 349.959 184.109C349.966 184.125 349.97 184.143 349.97 184.161C349.97 184.179 349.966 184.196 349.959 184.212C349.951 184.229 349.94 184.243 349.927 184.254C349.887 184.276 349.842 184.288 349.797 184.288C349.752 184.288 349.707 184.276 349.667 184.254C349.654 184.243 349.643 184.229 349.635 184.212C349.628 184.196 349.624 184.179 349.624 184.161C349.624 184.143 349.628 184.125 349.635 184.109C349.643 184.093 349.654 184.079 349.667 184.068Z" fill="white"/>
<path d="M350.186 184.267C350.225 184.242 350.27 184.229 350.316 184.229C350.362 184.229 350.407 184.242 350.446 184.267C350.462 184.276 350.476 184.29 350.485 184.306C350.495 184.323 350.499 184.341 350.499 184.36C350.499 184.379 350.495 184.398 350.485 184.414C350.476 184.43 350.462 184.444 350.446 184.453C350.415 184.486 350.375 184.51 350.332 184.521C350.288 184.533 350.242 184.532 350.199 184.519C350.07 184.387 350.057 184.387 350.186 184.267Z" fill="white"/>
<path d="M350.576 184.466C350.615 184.442 350.66 184.429 350.705 184.429C350.751 184.429 350.796 184.442 350.835 184.466C350.852 184.476 350.865 184.489 350.874 184.505C350.884 184.522 350.889 184.54 350.889 184.559C350.889 184.578 350.884 184.597 350.874 184.613C350.865 184.63 350.852 184.643 350.835 184.652C350.797 184.679 350.752 184.693 350.705 184.693C350.659 184.693 350.614 184.679 350.576 184.652C350.524 184.626 350.511 184.546 350.576 184.466Z" fill="white"/>
<path d="M351.03 184.666C351.069 184.641 351.114 184.628 351.16 184.628C351.206 184.628 351.251 184.641 351.29 184.666C351.306 184.675 351.319 184.688 351.329 184.705C351.338 184.721 351.343 184.74 351.343 184.759C351.343 184.778 351.338 184.796 351.329 184.813C351.319 184.829 351.306 184.842 351.29 184.852C351.251 184.876 351.206 184.889 351.16 184.889C351.114 184.889 351.069 184.876 351.03 184.852C350.978 184.825 350.965 184.745 351.03 184.666Z" fill="white"/>
<path d="M351.484 184.865C351.523 184.84 351.568 184.827 351.614 184.827C351.66 184.827 351.705 184.84 351.744 184.865C351.76 184.874 351.774 184.887 351.783 184.904C351.793 184.92 351.798 184.939 351.798 184.958C351.798 184.977 351.793 184.995 351.783 185.012C351.774 185.028 351.76 185.042 351.744 185.051C351.705 185.075 351.66 185.089 351.614 185.089C351.568 185.089 351.523 185.075 351.484 185.051C351.484 185.024 351.484 184.944 351.484 184.865Z" fill="white"/>
<path d="M368.137 192.9L366.398 192.143L367.254 191.2L368.994 191.97L368.137 192.9Z" fill="white"/>
<path d="M368.111 192.024L367.345 191.692L367.06 191.997L367.825 192.329L368.111 192.024Z" fill="white"/>
<path d="M368.267 192.488L368.163 192.435L368.396 192.183L368.5 192.236L368.267 192.488Z" fill="white"/>
<path d="M320.113 219.091L319.944 219.012L319.347 219.662L319.036 219.529L319.347 219.197L318.802 218.958L318.49 219.29L318.179 219.158L318.789 218.507L318.62 218.427L319.97 218.095L320.113 219.091Z" fill="#EBEBEB"/>
<path d="M337.103 225.944L335.312 225.148L335.506 224.922L337.311 225.719L337.103 225.944Z" fill="#EBEBEB"/>
<path d="M336.597 226.489L334.806 225.692L335.013 225.48L336.805 226.263L336.597 226.489Z" fill="#EBEBEB"/>
<path d="M336.09 227.033L334.299 226.25L334.507 226.024L336.298 226.808L336.09 227.033Z" fill="#EBEBEB"/>
<path d="M328.251 222.531L327.316 222.783L327.226 222.079L327.394 222.053L327.459 222.624L328.225 222.425L328.251 222.531Z" fill="#EBEBEB"/>
<path d="M327.381 223.979C327.131 223.98 326.883 223.925 326.655 223.819C326.459 223.741 326.285 223.616 326.147 223.454C326.009 223.292 325.912 223.099 325.863 222.89C325.817 222.652 325.829 222.405 325.9 222.173C325.97 221.942 326.096 221.731 326.265 221.562C326.556 221.258 326.927 221.047 327.332 220.955C327.738 220.863 328.161 220.894 328.55 221.044C328.744 221.124 328.917 221.253 329.053 221.417C329.188 221.581 329.283 221.777 329.328 221.987C329.374 222.211 329.363 222.445 329.295 222.663C329.226 222.882 329.104 223.079 328.939 223.235C328.742 223.46 328.502 223.642 328.234 223.769C327.967 223.897 327.677 223.968 327.381 223.979ZM327.888 222.279C327.633 222.272 327.386 222.367 327.2 222.544C327.33 222.61 327.477 222.632 327.619 222.605C327.762 222.579 327.892 222.506 327.991 222.398C328.024 222.371 328.046 222.334 328.056 222.292L327.888 222.279Z" fill="#EBEBEB"/>
<path d="M355.196 189.46C355.333 189.325 355.503 189.23 355.689 189.188C355.875 189.146 356.068 189.157 356.248 189.221C356.364 189.273 356.456 189.368 356.507 189.487C356.511 189.5 356.512 189.514 356.51 189.527C356.508 189.541 356.503 189.554 356.496 189.565C356.489 189.577 356.479 189.586 356.467 189.593C356.456 189.601 356.443 189.605 356.429 189.606C356.41 189.625 356.385 189.635 356.358 189.635C356.332 189.635 356.306 189.625 356.287 189.606C356.271 189.564 356.247 189.525 356.215 189.493C356.184 189.461 356.146 189.436 356.105 189.42C355.978 189.38 355.842 189.38 355.716 189.42C355.59 189.444 355.476 189.509 355.391 189.606C355.348 189.639 355.314 189.683 355.294 189.734C355.274 189.785 355.268 189.84 355.278 189.894C355.287 189.949 355.311 189.999 355.348 190.039C355.384 190.08 355.43 190.11 355.482 190.124C355.588 190.152 355.7 190.152 355.806 190.124H355.91C355.91 190.124 355.91 190.217 355.793 190.231C355.64 190.27 355.48 190.27 355.326 190.231C355.254 190.203 355.189 190.157 355.14 190.096C355.09 190.035 355.057 189.962 355.044 189.884C355.031 189.806 355.038 189.725 355.065 189.651C355.092 189.577 355.137 189.511 355.196 189.46Z" fill="white"/>
<path d="M356.092 190.443L356.845 189.633C356.868 189.617 356.895 189.609 356.923 189.609C356.95 189.609 356.977 189.617 357 189.633C357 189.633 357.065 189.699 357 189.752L356.702 190.084L357.117 190.257L357.416 189.925C357.439 189.91 357.466 189.901 357.494 189.901C357.521 189.901 357.548 189.91 357.572 189.925V190.031L356.819 190.842C356.796 190.859 356.769 190.868 356.741 190.868C356.713 190.868 356.685 190.859 356.663 190.842C356.663 190.842 356.663 190.775 356.663 190.722L356.962 190.403L356.546 190.217L356.248 190.549C356.224 190.562 356.197 190.569 356.17 190.569C356.143 190.569 356.116 190.562 356.092 190.549C356.084 190.543 356.077 190.535 356.073 190.526C356.068 190.517 356.066 190.507 356.066 190.496C356.066 190.486 356.068 190.476 356.073 190.467C356.077 190.457 356.084 190.449 356.092 190.443Z" fill="white"/>
<path d="M357.831 191.027L357.442 190.868L357.208 191.001C357.208 191.001 357.104 191.001 357.078 191.001C357.052 191.001 357.078 191.001 357.078 191.001C357.078 191.001 357.078 190.908 357.078 190.881L358.169 190.217C358.169 190.217 358.273 190.217 358.299 190.217V190.297L357.909 191.266C357.887 191.278 357.863 191.284 357.838 191.284C357.813 191.284 357.788 191.278 357.766 191.266C357.757 191.253 357.752 191.237 357.752 191.22C357.752 191.203 357.757 191.187 357.766 191.173L357.831 191.027ZM357.909 190.855L358.052 190.496L357.65 190.735L357.909 190.855Z" fill="white"/>
<path d="M359.35 190.841L359.103 190.735L358.428 191.466C358.404 191.478 358.377 191.484 358.35 191.484C358.323 191.484 358.297 191.478 358.272 191.466C358.262 191.46 358.252 191.452 358.246 191.441C358.239 191.431 358.236 191.418 358.236 191.406C358.236 191.393 358.239 191.381 358.246 191.371C358.252 191.36 358.262 191.352 358.272 191.346L358.947 190.616L358.701 190.509C358.692 190.502 358.686 190.493 358.681 190.482C358.677 190.472 358.674 190.461 358.674 190.45C358.674 190.438 358.677 190.427 358.681 190.417C358.686 190.407 358.692 190.397 358.701 190.39C358.726 190.375 358.756 190.367 358.785 190.367C358.815 190.367 358.844 190.375 358.87 190.39L359.544 190.695C359.544 190.695 359.544 190.762 359.544 190.802C359.523 190.833 359.491 190.854 359.455 190.862C359.419 190.869 359.381 190.862 359.35 190.841Z" fill="white"/>
<path d="M334.455 202.078L349.966 208.904L353.833 204.694L338.323 197.867L334.455 202.078Z" fill="#455A64"/>
<path d="M351.406 209.529L349.966 208.904L351.147 207.603L351.406 209.529Z" fill="#455A64"/>
<path d="M352.198 205.106L338.466 199.076L338.544 198.996L352.276 205.026L352.198 205.106Z" fill="white"/>
<path d="M348.953 204.296L338.076 199.501L338.141 199.421L349.031 204.216L348.953 204.296Z" fill="white"/>
<path d="M349.875 205.903L337.285 200.364L337.35 200.285L349.953 205.823L349.875 205.903Z" fill="white"/>
<path d="M350.615 206.832L336.882 200.789L336.96 200.71L350.693 206.753L350.615 206.832Z" fill="white"/>
<path d="M350.212 207.271L336.48 201.228L336.558 201.148L350.29 207.191L350.212 207.271Z" fill="white"/>
<path d="M346.02 206.022L336.091 201.653L336.155 201.573L346.085 205.943L346.02 206.022Z" fill="white"/>
<path d="M325.331 211.999L340.841 218.826L344.696 214.615L329.185 207.802L325.331 211.999Z" fill="#455A64"/>
<path d="M342.269 219.463L340.841 218.826L342.022 217.537L342.269 219.463Z" fill="#455A64"/>
<path d="M343.074 215.04L329.341 208.997L329.419 208.918L343.139 214.961L343.074 215.04Z" fill="white"/>
<path d="M339.829 214.217L328.939 209.422L329.017 209.343L339.894 214.137L339.829 214.217Z" fill="white"/>
<path d="M340.75 215.837L328.147 210.286L328.225 210.206L340.828 215.758L340.75 215.837Z" fill="white"/>
<path d="M341.49 216.767L327.758 210.724L327.823 210.644L341.555 216.687L341.49 216.767Z" fill="white"/>
<path d="M341.088 217.192L327.355 211.149L327.433 211.069L341.166 217.112L341.088 217.192Z" fill="white"/>
<path d="M336.882 215.957L326.953 211.587L327.031 211.507L336.96 215.877L336.882 215.957Z" fill="white"/>
<path d="M359.103 201.161L343.593 194.334L346.864 190.788L362.361 197.615L359.103 201.161Z" fill="#E84855"/>
<path d="M342.165 193.697L343.593 194.335L344.787 193.046L342.165 193.697Z" fill="#E84855"/>
<path d="M358.519 196.951L347.084 191.917L347.162 191.838L358.597 196.871L358.519 196.951Z" fill="white"/>
<path d="M360.427 198.399L346.695 192.356L346.76 192.276L360.492 198.319L360.427 198.399Z" fill="white"/>
<path d="M360.025 198.824L346.292 192.781L346.37 192.701L360.103 198.744L360.025 198.824Z" fill="white"/>
<path d="M358.545 198.784L345.903 193.219L345.968 193.139L358.61 198.704L358.545 198.784Z" fill="white"/>
<path d="M359.233 199.687L345.501 193.644L345.579 193.564L359.311 199.607L359.233 199.687Z" fill="white"/>
<path d="M355.248 198.545L345.098 194.082L345.176 194.003L355.326 198.465L355.248 198.545Z" fill="white"/>
<path d="M356.157 204.362L340.646 197.535L343.074 194.906L358.571 201.732L356.157 204.362Z" fill="#E84855"/>
<path d="M339.219 196.911L340.647 197.535L341.841 196.247L339.219 196.911Z" fill="#E84855"/>
<path d="M357.001 202.064L343.294 196.048L343.372 195.955L357.078 201.985L357.001 202.064Z" fill="white"/>
<path d="M354.184 201.44L342.905 196.473L342.97 196.393L354.262 201.36L354.184 201.44Z" fill="white"/>
<path d="M354.924 202.37L342.502 196.898L342.58 196.818L354.989 202.29L354.924 202.37Z" fill="white"/>
<path d="M351.679 201.546L342.113 197.336L342.178 197.256L351.757 201.467L351.679 201.546Z" fill="white"/>
<path d="M347.045 214.27L331.535 207.443L334.949 203.738L350.459 210.564L347.045 214.27Z" fill="#DBDBDB"/>
<path d="M330.094 206.806L331.535 207.443L332.729 206.155L330.094 206.806Z" fill="#DBDBDB"/>
<path d="M346.967 211.853L334.001 206.155L334.066 206.075L347.045 211.773L346.967 211.853Z" fill="white"/>
<path d="M345.514 211.826L333.599 206.58L333.677 206.5L345.592 211.747L345.514 211.826Z" fill="white"/>
<path d="M347.006 210.657L334.793 205.292L334.871 205.212L347.084 210.578L347.006 210.657Z" fill="white"/>
<path d="M348.746 210.817L335.182 204.853L335.26 204.774L348.824 210.737L348.746 210.817Z" fill="white"/>
<path d="M345.54 212.437L333.209 207.018L333.274 206.939L345.618 212.357L345.54 212.437Z" fill="white"/>
<path d="M338.427 223.633L322.917 216.807L325.759 213.725L341.27 220.552L338.427 223.633Z" fill="#E84855"/>
<path d="M321.476 216.183L322.917 216.807L324.098 215.518L321.476 216.183Z" fill="#E84855"/>
<path d="M339.738 220.871L326.019 214.828L326.083 214.748L339.816 220.791L339.738 220.871Z" fill="white"/>
<path d="M339.348 221.309L325.616 215.266L325.694 215.186L339.413 221.229L339.348 221.309Z" fill="white"/>
<path d="M337.856 221.256L325.214 215.691L325.292 215.611L337.934 221.176L337.856 221.256Z" fill="white"/>
<path d="M338.557 222.172L324.824 216.129L324.889 216.05L338.622 222.093L338.557 222.172Z" fill="white"/>
<path d="M334.572 221.017L324.422 216.554L324.5 216.475L334.65 220.937L334.572 221.017Z" fill="white"/>
<path d="M332.807 233.993C327.083 234.086 345.669 222.212 345.955 215.558C346.241 208.904 339.894 210.989 334.897 214.748C317.543 227.804 304.447 227.166 295.647 239.638C286.846 252.109 332.807 233.993 332.807 233.993Z" fill="#DD6A57"/>
<path d="M321.333 223.155C317.128 225.294 312.961 227.472 308.899 229.796C306.865 230.945 304.905 232.228 303.032 233.634C301.146 235.012 299.331 236.488 297.594 238.057L297.477 238.15H297.347C293.7 239.093 290.065 240.076 286.405 240.913C282.745 241.749 279.085 242.613 275.412 243.423C271.738 244.233 268.039 244.897 264.327 245.495C262.467 245.814 260.59 246.026 258.707 246.132C258.227 246.165 257.746 246.165 257.266 246.132C256.775 246.078 256.317 245.853 255.968 245.495C255.299 244.806 254.735 244.018 254.294 243.157C254.8 243.961 255.411 244.689 256.111 245.322C256.799 246.013 257.772 245.814 258.707 245.747C260.55 245.548 262.393 245.149 264.223 244.804C267.896 244.074 271.544 243.171 275.204 242.32C278.864 241.47 282.498 240.594 286.146 239.664L297.074 237.008L296.828 237.141C298.621 235.562 300.497 234.086 302.448 232.718C304.404 231.371 306.442 230.151 308.548 229.066C310.625 227.95 312.736 226.91 314.882 225.944C316.998 224.988 319.152 224.032 321.333 223.155Z" fill="#263238"/>
<path d="M212.253 247.939L238.809 221.07C233.867 212.673 228.436 204.588 222.546 196.858C212.591 183.736 204.647 185.901 205.387 208.28C205.824 221.766 208.136 235.12 212.253 247.939Z" fill="#E84855"/>
<path d="M216.264 196.008L219.275 197.044L217.445 199.7V202.941L214.421 201.971L211.306 202.981V199.74L209.463 197.084L212.474 196.048L214.369 193.392L216.264 196.008ZM231.048 212.278L232.891 214.934V218.175L235.928 217.192L236.538 217.404C235.591 215.864 234.358 213.885 232.878 211.64L231.048 212.278ZM215.654 224.045L213.759 226.701L210.748 227.737L212.591 230.394V233.648L215.628 232.678L218.652 233.648V230.394L220.495 227.737L217.484 226.701L215.654 224.045Z" fill="white"/>
<path d="M234.98 217.099C232.787 218.865 230.84 220.964 228.802 222.903C226.764 224.842 224.908 226.622 223.039 228.534C219.119 232.501 215.295 236.556 211.565 240.7C211.565 240.78 211.565 240.899 211.682 240.833C215.68 237.052 219.63 233.209 223.533 229.305C225.466 227.366 227.426 225.387 229.243 223.394C231.061 221.402 233.306 219.41 235.097 217.232C235.149 217.152 235.058 217.033 234.98 217.099Z" fill="#263238"/>
<path d="M237.265 217.471C236.564 216.276 235.824 215.107 235.071 213.951L234.604 213.234C233.996 211.605 233.307 210.009 232.54 208.453C232.54 208.453 232.423 208.453 232.449 208.453C232.878 209.714 233.397 210.95 233.929 212.172C232.761 210.405 231.554 208.652 230.23 207.018C230.23 207.018 230.113 207.018 230.139 207.085C231.502 209.502 233.02 211.826 234.461 214.19C235.162 215.346 238.718 220.897 238.68 220.964C238.402 221.244 238.146 221.546 237.914 221.867C237.81 222.08 237.914 222 237.992 221.947L239.29 220.911C239.29 220.911 237.823 218.494 237.265 217.471Z" fill="#263238"/>
<path d="M215.563 244.592C214.551 245.787 213.474 246.942 212.435 248.111L212.176 248.403L212.02 248.018C211.085 245.581 210.279 243.093 209.606 240.567C208.931 238.044 208.308 235.52 207.802 232.944C207.295 230.367 206.854 227.804 206.581 225.201C206.309 222.597 206.062 220.008 205.971 217.391L207.269 225.094C207.737 227.658 208.191 230.208 208.723 232.758C209.255 235.308 209.813 237.831 210.449 240.342C211.085 242.852 211.747 245.389 212.5 247.846L212.098 247.753C213.24 246.703 214.382 245.614 215.563 244.592Z" fill="#263238"/>
<path d="M204.375 222.305C205.024 223.349 205.605 224.436 206.114 225.559C206.374 226.117 206.633 226.662 206.854 227.233C207.074 227.804 207.321 228.375 207.503 228.973C206.702 228.03 206.037 226.974 205.53 225.838C204.998 224.716 204.61 223.529 204.375 222.305Z" fill="#263238"/>
<path d="M485.446 441.436C486.019 426.543 485.82 411.629 484.849 396.757C482.697 366.081 478.122 335.634 471.168 305.713C467.352 288.859 462.654 272.297 457.76 255.748C457.605 255.257 456.826 255.389 456.969 255.907C472.103 314.24 484.524 374.431 483.667 435.061C483.434 452.022 481.513 468.69 479.929 485.531C479.929 485.982 480.617 486.155 480.721 485.69C483.875 471.267 484.861 456.179 485.446 441.436Z" fill="#E84855"/>
<path d="M456.968 255.907C456.968 255.907 434.034 315.475 439.174 329.474C444.314 343.472 454.892 346.421 454.892 346.421C454.892 346.421 440.861 366.914 450.66 386.146C460.46 405.377 482.253 404.461 483.693 426.256C483.693 426.295 484.913 335.158 456.968 255.907Z" fill="#E84855"/>
<path d="M481.201 388.656C481.24 388.558 481.24 388.448 481.201 388.35C477.982 347.855 470.96 307.479 458.967 268.538C458.967 268.419 458.747 268.458 458.773 268.538C463.316 285.963 467.33 303.477 470.818 321.08C467.738 318.095 463.976 315.949 459.876 314.837C459.798 314.837 459.759 314.93 459.876 314.957C464.12 316.83 468.183 319.008 471.181 322.687C471.856 326.14 472.505 329.593 473.128 333.046C467.936 327.189 460.901 324.28 453.789 321.518C453.768 321.518 453.748 321.526 453.734 321.541C453.719 321.556 453.711 321.576 453.711 321.598C453.711 321.619 453.719 321.639 453.734 321.654C453.748 321.669 453.768 321.677 453.789 321.677C461.187 324.759 468.572 328.743 473.582 335.264C475.313 345.154 476.849 355.076 478.19 365.028C474.456 361.047 469.664 358.272 464.406 357.046C464.237 357.046 464.146 357.245 464.315 357.298C469.69 358.877 474.501 362.02 478.164 366.343L478.255 366.409C478.709 369.916 479.15 373.409 479.553 376.928C476.685 374.443 473.447 372.443 469.961 371.005C469.87 371.005 469.818 371.111 469.961 371.151C473.511 372.727 476.762 374.93 479.566 377.659C479.608 377.671 479.653 377.671 479.696 377.659C480.072 380.992 480.448 384.299 480.786 387.673C475.617 381.281 468.906 376.382 461.317 373.462C461.174 373.395 461.096 373.634 461.239 373.701C468.726 377.114 475.292 382.338 480.371 388.921C480.421 389 480.496 389.059 480.583 389.088C480.671 389.117 480.765 389.114 480.851 389.081C481.344 394.207 481.777 399.338 482.149 404.474C482.149 404.554 482.266 404.554 482.253 404.474C481.976 399.197 481.625 393.924 481.201 388.656Z" fill="#263238"/>
<path d="M462.783 308.967C458.633 306.317 453.886 304.804 448.999 304.571C448.882 304.571 448.882 304.73 448.999 304.743C453.718 305.643 458.3 307.174 462.628 309.299C462.669 309.313 462.715 309.31 462.755 309.293C462.795 309.275 462.828 309.243 462.847 309.202C462.866 309.162 462.87 309.116 462.858 309.072C462.846 309.029 462.82 308.992 462.783 308.967Z" fill="#263238"/>
<path d="M465.561 372.014C462.355 370.148 458.831 368.922 455.178 368.401C455.061 368.401 455.048 368.574 455.178 368.601C458.737 369.331 462.179 370.565 465.405 372.266C465.574 372.346 465.704 372.107 465.561 372.014Z" fill="#263238"/>
<path d="M545.735 330.483C536.038 337.346 527.134 345.313 519.192 354.23C510.999 363.662 504.674 374.632 500.567 386.531C491.857 411.337 487.174 437.435 486.705 463.789C486.408 478.384 487.78 492.964 490.793 507.233C490.814 507.34 490.875 507.435 490.964 507.496C491.053 507.557 491.162 507.579 491.267 507.558C491.372 507.537 491.464 507.474 491.524 507.383C491.584 507.292 491.606 507.181 491.585 507.073C487.848 481.892 487.988 456.267 492 431.13C495.894 406.493 502.124 379.691 517.44 359.662C525.773 348.758 536.156 340.178 546.436 331.32C546.981 330.815 546.28 330.045 545.735 330.483Z" fill="#E84855"/>
<path d="M490.079 446.032C495.6 436.895 502.09 428.409 509.432 420.731C520.905 408.99 530.562 400.649 532.055 392.839C533.547 385.03 520.555 379.359 520.555 379.359C520.555 379.359 536.442 382.267 540.777 375.454C545.112 368.641 547.267 329.155 547.267 329.155C547.267 329.155 518.387 350.246 504.941 379.824C491.494 409.401 490.079 446.032 490.079 446.032Z" fill="#E84855"/>
<path d="M537.234 339.302C525.072 351.508 512.845 364.537 505.694 380.567C503.251 386.114 501.119 391.799 499.308 397.594C498.931 398.763 498.555 399.919 498.217 401.101C498.177 401.154 498.154 401.219 498.153 401.286C494.753 413.281 492.014 425.462 489.949 437.771C489.949 437.85 490.053 437.89 490.066 437.771C491.364 431.608 492.662 425.392 494.22 419.177C494.275 419.189 494.333 419.189 494.388 419.177C496.8 418.121 499.357 417.458 501.968 417.211C502.137 417.211 502.124 416.879 501.968 416.892C499.419 417.017 496.896 417.486 494.466 418.287C495.868 412.695 497.387 407.117 499.1 401.632C504.713 400.237 510.458 399.466 516.233 399.334C516.233 399.334 516.298 399.241 516.233 399.241C510.57 398.964 504.896 399.455 499.36 400.702C499.658 399.759 499.957 398.816 500.268 397.886C504.019 396.963 507.826 396.302 511.664 395.908C511.742 395.908 511.729 395.775 511.664 395.775C507.907 395.852 504.167 396.32 500.502 397.169C502.072 392.414 503.773 387.713 505.694 383.144C507.258 379.408 509.08 375.791 511.145 372.32C514.185 371.546 517.272 370.983 520.386 370.633C520.477 370.633 520.464 370.473 520.386 370.473C517.477 370.246 514.551 370.543 511.742 371.35C513.261 368.84 514.857 366.37 516.557 363.992C523.047 362.531 529.537 361.163 536.221 362.438C536.338 362.438 536.377 362.266 536.221 362.226C529.913 360.539 523.657 361.508 517.375 362.784C518.063 361.854 518.764 360.937 519.478 360.021C523.398 358.781 527.472 358.123 531.575 358.069C531.592 358.069 531.608 358.062 531.621 358.049C531.633 358.037 531.64 358.02 531.64 358.002C531.64 357.985 531.633 357.968 531.621 357.955C531.608 357.943 531.592 357.936 531.575 357.936C527.781 357.576 523.955 357.923 520.283 358.958C525.643 352.145 531.562 345.757 537.402 339.435C537.727 339.182 537.519 339.01 537.234 339.302Z" fill="#263238"/>
<path d="M536.909 366.21C535.005 365.932 533.077 365.865 531.159 366.011C530.926 366.011 530.952 366.423 531.159 366.436C533.054 366.436 534.962 366.343 536.857 366.436C536.883 366.436 536.909 366.426 536.929 366.41C536.949 366.393 536.963 366.37 536.969 366.344C536.975 366.318 536.973 366.291 536.962 366.266C536.951 366.242 536.932 366.222 536.909 366.21Z" fill="#263238"/>
<path d="M516.116 404.527C513.067 404.599 510.054 405.215 507.212 406.347C507.147 406.347 507.212 406.493 507.212 406.479C510.146 405.762 513.118 405.47 516.09 404.965C516.139 404.957 516.183 404.931 516.216 404.893C516.249 404.855 516.269 404.807 516.272 404.757C516.275 404.706 516.261 404.656 516.233 404.614C516.205 404.573 516.164 404.542 516.116 404.527Z" fill="#263238"/>
<path d="M509.834 391.285C508.567 391.275 507.302 391.39 506.057 391.631C505.927 391.631 505.94 391.87 506.057 391.87C507.323 391.934 508.593 391.872 509.847 391.684C509.899 391.682 509.947 391.66 509.983 391.621C510.018 391.582 510.037 391.531 510.035 391.478C510.033 391.425 510.011 391.375 509.974 391.339C509.936 391.303 509.886 391.284 509.834 391.285Z" fill="#263238"/>
<path d="M405.414 372.346C414.811 375.605 423.816 379.945 432.256 385.282C441.013 390.984 448.607 398.367 454.619 407.024C467.273 425.04 476.959 445.054 483.291 466.273C486.823 478.015 489.001 490.139 489.781 502.398C489.789 502.49 489.762 502.581 489.705 502.652C489.648 502.723 489.565 502.768 489.476 502.777C489.386 502.786 489.297 502.758 489.228 502.699C489.158 502.641 489.114 502.556 489.106 502.465C486.449 481.197 480.549 460.488 471.622 441.091C462.861 422.085 451.803 401.858 434.891 389.293C425.688 382.44 415.33 377.964 405.038 373.223C404.493 372.984 404.882 372.16 405.414 372.346Z" fill="#E84855"/>
<path d="M476.555 452.672C470.025 446.57 462.856 441.225 455.177 436.735C443.249 429.948 433.541 425.485 430.581 419.562C427.622 413.638 436.837 405.935 436.837 405.935C436.837 405.935 424.65 412.044 419.601 407.555C414.552 403.066 403.921 371.655 403.921 371.655C403.921 371.655 432.061 381.895 449.635 402.641C467.209 423.387 476.555 452.672 476.555 452.672Z" fill="#E84855"/>
<path d="M453.192 423.799C450.431 423.606 447.661 423.953 445.028 424.821C444.95 424.821 444.963 424.954 445.028 424.941C447.72 424.479 450.438 424.195 453.166 424.091C453.204 424.094 453.241 424.082 453.27 424.057C453.3 424.032 453.318 423.997 453.321 423.958C453.325 423.919 453.313 423.881 453.289 423.851C453.264 423.821 453.229 423.802 453.192 423.799Z" fill="#263238"/>
<path d="M428.647 390.861C427.389 390.757 426.122 390.833 424.883 391.086C424.741 391.086 424.779 391.325 424.883 391.312C426.181 391.179 427.349 391.219 428.582 391.179C428.603 391.184 428.624 391.184 428.645 391.18C428.665 391.176 428.685 391.168 428.702 391.156C428.72 391.144 428.735 391.129 428.746 391.112C428.758 391.094 428.766 391.074 428.771 391.053C428.775 391.032 428.775 391.011 428.771 390.99C428.767 390.969 428.759 390.949 428.748 390.931C428.737 390.913 428.722 390.897 428.705 390.885C428.687 390.873 428.668 390.865 428.647 390.861Z" fill="#263238"/>
<path d="M512.845 542.097H449.337L458.383 474.202L460.707 456.803H501.475L503.799 474.202L512.845 542.097Z" fill="#455A64"/>
<path d="M503.799 474.202H458.383L460.707 456.803H501.475L503.799 474.202Z" fill="#263238"/>
<path d="M507.316 450.76H454.879V465.502H507.316V450.76Z" fill="#455A64"/>
<path d="M502.786 87.0999H315.804V4.1571H502.786V87.0999Z" fill="#455A64"/>
<path d="M320.801 111.564V87.0999H345.695L320.801 111.564Z" fill="#455A64"/>
<path d="M488.003 18.4879H330.587V20.0683H488.003V18.4879Z" fill="white"/>
<path d="M440.563 27.0013H330.587V28.5817H440.563V27.0013Z" fill="white"/>
<path d="M469.208 44.0281H330.587V45.6086H469.208V44.0281Z" fill="white"/>
<path d="M488.003 52.5415H330.587V54.122H488.003V52.5415Z" fill="white"/>
<path d="M488.003 61.0549H330.587V62.6354H488.003V61.0549Z" fill="white"/>
<path d="M424.689 69.5684H330.587V71.1488H424.689V69.5684Z" fill="white"/>
<path d="M491.572 83.5139L490.352 80.9373L490.936 80.6451L491.754 82.385L495.271 78.7857L495.738 79.2506L491.572 83.5139Z" fill="#E84855"/>
<path d="M494.272 83.5139L493.052 80.9373L493.636 80.6451L494.466 82.385L497.984 78.7857L498.438 79.2506L494.272 83.5139Z" fill="#E84855"/>
<path d="M455.58 159.311H365.567V103.104H455.58V159.311Z" fill="#E84855"/>
<path d="M394.226 159.311H370.318V184.772L394.226 159.311Z" fill="#E84855"/>
<path d="M428.063 131.261C428.063 131.996 428.276 132.715 428.676 133.327C429.075 133.938 429.643 134.415 430.307 134.697C430.971 134.978 431.702 135.052 432.406 134.908C433.111 134.765 433.759 134.411 434.267 133.89C434.776 133.37 435.122 132.708 435.262 131.986C435.402 131.265 435.33 130.517 435.055 129.838C434.78 129.158 434.314 128.577 433.717 128.169C433.119 127.76 432.416 127.542 431.697 127.542C430.735 127.546 429.812 127.938 429.131 128.635C428.451 129.332 428.067 130.276 428.063 131.261Z" fill="white"/>
<path d="M406.946 131.261C406.946 131.996 407.159 132.715 407.558 133.327C407.957 133.938 408.525 134.415 409.189 134.697C409.853 134.978 410.584 135.052 411.289 134.908C411.994 134.765 412.641 134.411 413.15 133.89C413.658 133.37 414.004 132.708 414.144 131.986C414.284 131.265 414.212 130.517 413.937 129.838C413.662 129.158 413.197 128.577 412.599 128.169C412.001 127.76 411.299 127.542 410.58 127.542C409.616 127.542 408.692 127.934 408.01 128.631C407.328 129.329 406.946 130.275 406.946 131.261Z" fill="white"/>
<path d="M385.867 131.261C385.867 131.996 386.08 132.715 386.479 133.327C386.879 133.938 387.446 134.415 388.11 134.697C388.775 134.978 389.505 135.052 390.21 134.908C390.915 134.765 391.563 134.411 392.071 133.89C392.579 133.37 392.925 132.708 393.066 131.986C393.206 131.265 393.134 130.517 392.859 129.838C392.584 129.158 392.118 128.577 391.52 128.169C390.923 127.76 390.22 127.542 389.501 127.542C388.538 127.546 387.616 127.938 386.935 128.635C386.254 129.332 385.87 130.276 385.867 131.261Z" fill="white"/>
<path d="M503.786 195.291H402.221V268.445H503.786V195.291Z" fill="#EBEBEB"/>
<path d="M402.221 225.108V200.643H377.326L402.221 225.108Z" fill="#EBEBEB"/>
<path d="M460.502 255.704C473.366 251.472 480.442 237.371 476.307 224.208C472.172 211.044 458.391 203.803 445.527 208.035C432.663 212.266 425.587 226.367 429.722 239.531C433.857 252.694 447.638 259.935 460.502 255.704Z" fill="#E84855"/>
<path opacity="0.1" d="M452.724 256.904C448.881 256.86 445.101 255.891 441.692 254.074C438.282 252.258 435.339 249.645 433.1 246.448C430.861 243.252 429.389 239.56 428.803 235.673C428.217 231.785 428.534 227.812 429.729 224.073C430.923 220.335 432.961 216.936 435.678 214.154C438.394 211.371 441.713 209.282 445.365 208.056C449.017 206.83 452.9 206.501 456.7 207.096C460.5 207.691 464.109 209.193 467.235 211.481C463.287 208.827 458.587 207.593 453.878 207.974C449.168 208.356 444.716 210.33 441.225 213.587C437.733 216.843 435.401 221.196 434.594 225.959C433.788 230.723 434.554 235.625 436.772 239.894C438.989 244.162 442.533 247.554 446.843 249.534C451.152 251.514 455.984 251.969 460.575 250.829C465.165 249.688 469.255 247.016 472.198 243.234C475.14 239.453 476.769 234.776 476.827 229.942C476.861 226.806 476.236 223.699 474.997 220.831C476.834 224.673 477.679 228.932 477.452 233.203C477.225 237.473 475.934 241.614 473.701 245.229C471.469 248.845 468.369 251.816 464.697 253.86C461.026 255.903 456.904 256.951 452.724 256.904Z" fill="black"/>
<path d="M458.266 225.905C458.251 227.002 457.904 228.067 457.273 228.955C456.642 229.842 455.757 230.507 454.742 230.86C453.726 231.212 452.629 231.234 451.6 230.922C450.572 230.61 449.663 229.98 448.999 229.119C448.259 228.17 447.869 226.985 447.896 225.772L458.266 225.905Z" fill="#263238"/>
<path d="M457.085 229.225C456.591 229.837 455.969 230.327 455.265 230.661C454.561 230.994 453.793 231.162 453.017 231.152C452.242 231.142 451.478 230.954 450.783 230.602C450.087 230.25 449.478 229.743 448.999 229.119C450.134 228.139 451.576 227.61 453.061 227.63C454.546 227.649 455.975 228.216 457.085 229.225Z" fill="#FF99BA"/>
<path d="M436.954 227.007C438.097 228.748 439.693 230.128 441.562 230.991C443.329 229.92 444.764 228.359 445.702 226.489C446.65 224.205 445.832 221.827 444.106 221.402C441.627 220.791 441.237 225.174 441.237 225.174C441.237 225.174 440.381 220.871 437.979 221.761C436.305 222.398 435.76 224.842 436.954 227.007Z" fill="#FF99BA"/>
<path d="M469.169 227.419C467.986 229.133 466.359 230.476 464.471 231.297C462.734 230.177 461.339 228.58 460.447 226.688C459.552 224.377 460.447 222.026 462.16 221.641C464.652 221.097 464.938 225.48 464.938 225.48C464.938 225.48 465.898 221.203 468.274 222.159C469.935 222.823 470.428 225.28 469.169 227.419Z" fill="#FF99BA"/>
<path d="M492.208 264.833L490.988 262.256L491.572 261.964L492.39 263.704L495.907 260.104L496.374 260.569L492.208 264.833Z" fill="#E84855"/>
<path d="M494.921 264.833L493.688 262.256L494.272 261.964L495.102 263.704L498.62 260.104L499.074 260.569L494.921 264.833Z" fill="#E84855"/>
</svg>
