<svg width="48" height="48" viewBox="0 0 48 48" fill="none" xmlns="http://www.w3.org/2000/svg">
<path d="M8.23131 37.7026H14.0577V23.5769L5.72461 17.3779V35.2297C5.72461 36.5847 6.84246 37.7026 8.23131 37.7026Z" fill="#0471A6"/>
<path d="M33.9756 37.7026H39.802C41.1908 37.7026 42.3087 36.5847 42.3087 35.1959V17.3779L34.0095 23.6108V37.7026H33.9756Z" fill="#0471A6"/>
<path d="M33.9756 12.8052V23.6111L42.2748 17.3782V14.0585C42.2748 10.9759 38.7519 9.21448 36.279 11.0776L33.9756 12.8052Z" fill="#0471A6"/>
<path fill-rule="evenodd" clip-rule="evenodd" d="M14.0244 23.5772V12.8052L23.9835 20.2914L33.9426 12.8052V23.6111L24.0174 31.0635L14.0244 23.5772Z" fill="#0471A6"/>
<path d="M5.72461 14.0243V17.344L14.0238 23.5769V12.8048L11.6865 11.0434C9.24755 9.21414 5.72461 10.9756 5.72461 14.0243Z" fill="#0471A6"/>
</svg>
