<svg width="56" height="33" viewBox="0 0 56 33" fill="none" xmlns="http://www.w3.org/2000/svg">
<path d="M7.88465 21.5921C7.73906 21.5921 7.59553 21.5577 7.46584 21.4915L0.495998 17.9014C0.281108 17.7908 0.118734 17.5997 0.0443684 17.3697C-0.0299976 17.1398 -0.0103084 16.8897 0.0991326 16.6742L8.287 0.501504C8.34136 0.394116 8.41638 0.298516 8.50776 0.220185C8.59914 0.141854 8.70509 0.0823341 8.81953 0.0450384C8.93396 0.00774273 9.05464 -0.0065946 9.17463 0.00284829C9.29461 0.0122912 9.41156 0.0453281 9.51875 0.100066L16.1493 3.48348C16.3622 3.59181 16.5243 3.77913 16.6008 4.00538C16.6774 4.23164 16.6624 4.47887 16.559 4.6942L8.70947 21.0699C8.65642 21.1801 8.58195 21.2785 8.49041 21.3595C8.39888 21.4406 8.29211 21.5025 8.17636 21.5418C8.08239 21.5739 7.98393 21.5908 7.88465 21.5921ZM2.14107 16.6907L7.46675 19.434L14.5244 4.71157L9.50412 2.15115L2.14107 16.6907Z" fill="white"/>
<path d="M17.3584 8.86678C17.2011 8.86673 17.0465 8.8261 16.9094 8.74881L14.2521 7.25188C14.1474 7.19298 14.0554 7.11404 13.9813 7.01957C13.9071 6.9251 13.8523 6.81696 13.8199 6.7013C13.7876 6.58565 13.7783 6.46476 13.7927 6.34553C13.8071 6.2263 13.8448 6.11107 13.9037 6.00641C13.9626 5.90176 14.0415 5.80973 14.136 5.73558C14.2305 5.66144 14.3386 5.60662 14.4543 5.57427C14.5699 5.54192 14.6908 5.53266 14.81 5.54703C14.9293 5.5614 15.0445 5.59911 15.1491 5.65802L17.3438 6.89342C18.2006 6.37402 20.0551 5.25566 21.242 4.58538C23.1797 3.48805 24.5441 3.63894 26.1105 5.12307C26.282 5.29087 26.3807 5.51936 26.3852 5.75924C26.3898 5.99913 26.2999 6.23121 26.1349 6.40542C25.97 6.57964 25.7431 6.68203 25.5033 6.69053C25.2636 6.69902 25.03 6.61293 24.8532 6.45083C23.8802 5.52908 23.3736 5.48153 22.1419 6.1765C20.6166 7.03882 17.865 8.71589 17.8367 8.73693C17.6923 8.8234 17.5268 8.86834 17.3584 8.86678Z" fill="white"/>
<path d="M41.4143 24.7771C40.748 24.7942 40.0907 24.6206 39.5196 24.2769C38.6783 23.7154 34.9767 20.0851 34.2433 19.3636C34.0816 19.1915 33.9928 18.9635 33.9954 18.7274C33.998 18.4913 34.0918 18.2654 34.2573 18.0969C34.4227 17.9284 34.6469 17.8304 34.8829 17.8234C35.1189 17.8165 35.3485 17.9011 35.5235 18.0596C37.1695 19.6846 39.9933 22.3959 40.5319 22.7553C40.8791 22.9157 41.263 22.9796 41.6434 22.9403C42.0238 22.9011 42.3866 22.7601 42.6936 22.5321C42.8374 22.4074 42.9521 22.2527 43.0295 22.0788C43.107 21.905 43.1453 21.7162 43.1418 21.5259C43.1383 21.3356 43.0931 21.1484 43.0093 20.9775C42.9256 20.8066 42.8053 20.6562 42.6571 20.5368C41.7225 19.4852 37.8398 15.7498 36.9875 14.9304C34.0137 13.8404 31.1299 12.5189 28.3626 10.9782L27.4006 11.6073C27.1846 12.6099 26.6084 13.4985 25.7811 14.1047C25.4907 14.3334 25.1536 14.4956 24.7937 14.5796C24.4337 14.6637 24.0597 14.6676 23.698 14.5912C23.2592 14.5365 22.8366 14.3908 22.4572 14.1634C22.0779 13.936 21.7502 13.632 21.4951 13.2707C21.0089 12.2317 20.9543 11.0423 21.3433 9.96319C22.1234 6.8413 23.3889 6.03751 25.1401 4.92555L25.5251 4.67957C27.4545 3.44051 29.1106 2.78028 30.9285 3.5987C32.0587 4.10805 36.0704 5.66168 37.2098 6.10244L41.0284 4.85057C41.2572 4.781 41.5041 4.8038 41.7163 4.91408C41.9284 5.02435 42.0889 5.21334 42.1634 5.44053C42.2379 5.66773 42.2205 5.91507 42.1148 6.12955C42.0091 6.34404 41.8237 6.50861 41.5981 6.588L37.4695 7.94137C37.2695 8.00659 37.0533 8.00142 36.8568 7.92674C36.6401 7.84261 31.5393 5.88023 30.1814 5.26755C29.3666 4.90178 28.5061 4.93927 26.5163 6.21765L26.1231 6.46912C24.5256 7.48323 23.7236 7.99349 23.1201 10.4067C22.811 11.643 22.9537 12.1441 23.0661 12.327C23.2106 12.5684 23.5453 12.6663 24.0784 12.7998C24.1929 12.8191 24.3102 12.8126 24.4218 12.781C24.5335 12.7494 24.6367 12.6933 24.724 12.6169C24.9819 12.4226 25.1974 12.1775 25.357 11.8968C25.5166 11.6161 25.6171 11.3056 25.6522 10.9846C25.6641 10.8468 25.7072 10.7134 25.7782 10.5946C25.8491 10.4758 25.9461 10.3747 26.0618 10.2988L27.8221 9.14751C27.9609 9.05728 28.1215 9.00638 28.2869 9.00027C28.4523 8.99415 28.6162 9.03303 28.7613 9.11276C28.8234 9.1466 34.9886 12.5181 37.6889 13.2277C37.839 13.2678 37.9767 13.3448 38.0894 13.4518C38.287 13.6411 42.936 18.0925 44.0278 19.3243C44.3303 19.6171 44.5702 19.9684 44.733 20.3567C44.8957 20.7451 44.9778 21.1624 44.9744 21.5835C44.971 22.0045 44.8821 22.4205 44.7131 22.8061C44.5441 23.1918 44.2985 23.5391 43.9912 23.827C43.2876 24.4653 42.3639 24.8059 41.4143 24.7771Z" fill="white"/>
<path d="M43.3437 20.8441C43.1342 20.8439 42.9311 20.7718 42.7683 20.6398C42.6056 20.5078 42.4931 20.3239 42.4497 20.1189C42.4064 19.9139 42.4347 19.7003 42.53 19.5137C42.6253 19.3271 42.7819 19.1789 42.9734 19.0938L46.1812 17.6728C46.2915 17.6207 46.411 17.5913 46.5329 17.5861C46.6547 17.5809 46.7763 17.6001 46.8906 17.6427C47.0049 17.6852 47.1095 17.7502 47.1983 17.8337C47.2871 17.9173 47.3583 18.0178 47.4077 18.1292C47.4571 18.2407 47.4837 18.361 47.486 18.4829C47.4882 18.6048 47.466 18.7259 47.4208 18.8392C47.3755 18.9524 47.3081 19.0554 47.2224 19.1422C47.1367 19.2289 47.0346 19.2977 46.9219 19.3444L43.7132 20.7691C43.5966 20.8195 43.4707 20.845 43.3437 20.8441Z" fill="white"/>
<path d="M47.5386 21.5921C47.3563 21.592 47.1783 21.5375 47.0272 21.4355C46.8762 21.3335 46.7591 21.1887 46.6909 21.0197L39.7887 3.8959C39.7426 3.7817 39.72 3.65936 39.7223 3.53622C39.7246 3.41308 39.7518 3.29167 39.8022 3.17929C39.8526 3.0669 39.9251 2.96585 40.0155 2.8822C40.1059 2.79856 40.2123 2.73403 40.3282 2.6925L47.7041 0.0534333C47.9272 -0.0263806 48.1726 -0.0164552 48.3886 0.0811182C48.6046 0.178692 48.7742 0.356292 48.8618 0.576491L55.6286 17.5612C55.6729 17.6735 55.6945 17.7935 55.6922 17.9142C55.6899 18.0348 55.6637 18.1539 55.6151 18.2644C55.5666 18.3749 55.4967 18.4747 55.4094 18.5581C55.3221 18.6414 55.2191 18.7066 55.1065 18.75L47.866 21.5281C47.7617 21.5693 47.6507 21.591 47.5386 21.5921ZM41.838 4.09342L48.0479 19.4989L53.5839 17.3774L47.4892 2.07251L41.838 4.09342ZM37.2951 27.5506C36.5412 27.5732 35.8051 27.3199 35.2248 26.8382C34.0003 25.75 30.8528 22.6044 30.7193 22.4709C30.5528 22.2984 30.4606 22.0674 30.4627 21.8276C30.4648 21.5879 30.5609 21.3585 30.7305 21.189C30.9 21.0194 31.1294 20.9233 31.3691 20.9212C31.6089 20.9191 31.8399 21.0113 32.0124 21.1779C32.0444 21.2099 35.2559 24.4195 36.4391 25.4757C36.6844 25.6251 36.9621 25.7131 37.2487 25.7322C37.5353 25.7513 37.8222 25.701 38.0851 25.5854C38.5145 25.439 38.8955 25.1774 39.1864 24.8293C39.4773 24.4811 39.667 24.0598 39.7348 23.6112C39.7552 23.4928 39.7987 23.3797 39.8629 23.2781C39.927 23.1766 40.0105 23.0887 40.1087 23.0195C40.2068 22.9502 40.3176 22.901 40.4347 22.8746C40.5519 22.8481 40.6731 22.845 40.7914 22.8654C40.9098 22.8859 41.0229 22.9294 41.1244 22.9935C41.226 23.0577 41.3139 23.1412 41.3831 23.2393C41.4524 23.3374 41.5016 23.4482 41.528 23.5654C41.5545 23.6825 41.5576 23.8037 41.5371 23.9221C41.4128 24.6903 41.0828 25.4105 40.5821 26.0062C40.0813 26.6019 39.4286 27.0509 38.6932 27.3055C38.2442 27.4649 37.7716 27.5477 37.2951 27.5506Z" fill="white"/>
<path d="M33.0393 29.7671C32.287 29.7992 31.5519 29.5368 30.99 29.0356L27.7419 25.7875L29.0359 24.4936L32.284 27.7417C32.4849 27.8545 32.7074 27.9239 32.9369 27.9454C33.1664 27.9668 33.3979 27.9398 33.6163 27.866C34.0358 27.763 34.4199 27.5492 34.7284 27.247C35.0369 26.9447 35.2586 26.5651 35.3702 26.1478C35.404 26.0314 35.4606 25.9229 35.5368 25.8286C35.6129 25.7342 35.707 25.656 35.8137 25.5984C35.9203 25.5408 36.0373 25.5049 36.158 25.493C36.2786 25.481 36.4004 25.4931 36.5163 25.5286C36.6322 25.5641 36.7398 25.6223 36.833 25.6999C36.9262 25.7774 37.0031 25.8726 37.0591 25.9801C37.1152 26.0876 37.1493 26.2051 37.1595 26.3259C37.1697 26.4467 37.1558 26.5683 37.1186 26.6837C36.8642 27.5699 36.3291 28.3495 35.5936 28.9056C34.8582 29.4616 33.9622 29.7639 33.0402 29.7671H33.0393Z" fill="white"/>
<path d="M29.5535 32.2096C28.806 32.2255 28.0749 31.9887 27.4787 31.5375C26.6549 30.878 25.8273 30.2232 24.996 29.5733C24.8994 29.5001 24.8183 29.4084 24.7574 29.3036C24.6965 29.1987 24.6571 29.0829 24.6415 28.9627C24.6258 28.8425 24.6342 28.7204 24.6661 28.6034C24.6981 28.4865 24.753 28.3771 24.8276 28.2816C24.9022 28.186 24.9951 28.1063 25.1008 28.047C25.2065 27.9877 25.3229 27.95 25.4433 27.936C25.5638 27.9221 25.6857 27.9323 25.8022 27.966C25.9186 27.9996 26.0272 28.0561 26.1216 28.1321C26.1216 28.1321 27.2638 29.0237 28.6217 30.1101C28.911 30.2823 29.2401 30.3764 29.5767 30.3833C29.9133 30.3902 30.2459 30.3096 30.542 30.1494C30.8068 30.0356 31.0308 29.8442 31.1846 29.6004C31.3384 29.3567 31.4147 29.0721 31.4034 28.7841C31.396 28.5417 31.4853 28.3063 31.6514 28.1297C31.8176 27.9531 32.0471 27.8497 32.2895 27.8423C32.5312 27.838 32.765 27.9284 32.941 28.0941C33.117 28.2598 33.2212 28.4878 33.2314 28.7293C33.253 29.3662 33.087 29.9955 32.754 30.539C32.4211 31.0824 31.9359 31.5161 31.3586 31.7862C30.7974 32.064 30.1798 32.2089 29.5535 32.2096Z" fill="white"/>
<path d="M22.7003 31.7862C22.4031 31.7852 22.109 31.7261 21.8344 31.6125C21.0887 31.2466 20.474 30.6597 20.0741 29.9318C19.4251 30.0577 18.7526 29.9566 18.1693 29.6455C17.68 29.3248 17.2594 28.91 16.9319 28.4252C16.6045 27.9405 16.3767 27.3954 16.2618 26.8218C16.2136 26.5882 16.2586 26.345 16.3871 26.1442C17.1305 24.9847 18.2516 23.1823 18.419 22.8065C18.5695 22.5066 18.7831 22.2429 19.0451 22.0333C19.3071 21.8237 19.6113 21.6732 19.9369 21.5921C20.3798 21.476 20.843 21.4605 21.2927 21.5465C21.7423 21.6326 22.167 21.8181 22.5357 22.0895C22.9443 22.36 23.2725 22.7357 23.4855 23.1769C23.6986 23.6182 23.7887 24.1087 23.7465 24.5969C24.1814 24.6157 24.6073 24.7275 24.9954 24.9248C25.3834 25.1222 25.7246 25.4004 25.996 25.7409C26.2596 26.1528 26.4278 26.6183 26.4884 27.1036C26.549 27.5888 26.5004 28.0814 26.3462 28.5455C25.8666 29.8841 24.8818 30.9818 23.6029 31.6033C23.3173 31.7241 23.0104 31.7863 22.7003 31.7862ZM21.614 28.9323C21.9011 29.4178 22.4141 30.1146 22.8942 29.9144C23.6913 29.4993 24.3049 28.8018 24.6152 27.9584C24.6762 27.7718 24.6996 27.5748 24.6839 27.3791C24.6682 27.1833 24.6138 26.9926 24.5237 26.8181C24.3846 26.6819 24.2195 26.575 24.0382 26.504C23.8569 26.433 23.6631 26.3992 23.4685 26.4048L21.614 28.9323ZM18.1474 26.7833C18.2929 27.2914 18.6082 27.7343 19.0408 28.038C19.1758 28.1073 19.3236 28.1481 19.4751 28.158C19.6266 28.1679 19.7784 28.1467 19.9214 28.0956L21.8737 24.7487C21.9513 24.5419 21.9563 24.3148 21.8878 24.1048C21.8194 23.8948 21.6815 23.7142 21.4969 23.5929C21.3565 23.4822 21.1945 23.4021 21.0212 23.3579C20.848 23.3136 20.6674 23.3061 20.4911 23.3359C20.3354 23.3616 20.1933 23.44 20.0887 23.5581C19.8473 24.0931 18.686 25.9366 18.1474 26.7833Z" fill="white"/>
<path d="M15.7113 28.2117C15.4946 28.2123 15.279 28.1815 15.0712 28.1203C13.5048 27.6493 12.8912 25.6211 12.8262 25.3916C12.7934 25.2751 12.7841 25.1534 12.7987 25.0333C12.8133 24.9132 12.8515 24.7972 12.9113 24.692C13.6885 23.3419 14.5482 22.0409 15.4854 20.7965C15.9559 20.1844 16.6377 19.7697 17.3975 19.6332C18.1574 19.4968 18.9408 19.6484 19.5949 20.0586C20.4581 20.6575 21.0909 21.9606 20.032 23.6633C19.9687 23.7654 19.8858 23.854 19.7883 23.924C19.6907 23.9941 19.5802 24.0442 19.4633 24.0716C19.3463 24.099 19.2251 24.1031 19.1065 24.0836C18.988 24.0642 18.8744 24.0215 18.7724 23.9582C18.6703 23.8949 18.5817 23.812 18.5116 23.7144C18.4416 23.6168 18.3914 23.5064 18.364 23.3895C18.3367 23.2725 18.3326 23.1513 18.352 23.0327C18.3715 22.9142 18.4141 22.8006 18.4775 22.6986C18.7125 22.3191 18.9164 21.8152 18.5515 21.5619C18.2849 21.4163 17.9747 21.3714 17.6777 21.4355C17.3807 21.4997 17.1167 21.6685 16.9339 21.9112C16.1306 22.9786 15.3872 24.0899 14.7072 25.2398C14.9075 25.718 15.2486 26.2658 15.597 26.3691C15.9052 26.4606 16.3285 26.1442 16.5581 25.9485C16.7417 25.7899 16.9807 25.7107 17.2227 25.7283C17.4647 25.746 17.6897 25.8591 17.8483 26.0427C18.0069 26.2262 18.0861 26.4653 18.0685 26.7073C18.0508 26.9493 17.9377 27.1743 17.7541 27.3329C17.2043 27.867 16.4771 28.1798 15.7113 28.2117Z" fill="white"/>
<path d="M13.7042 26.0546C13.6037 26.0544 13.5039 26.0378 13.4089 26.0052C13.2543 25.953 9.60938 24.6792 9.60938 21.8244C9.60928 21.7285 9.62409 21.6331 9.65327 21.5418C9.98414 20.6312 10.4373 19.7699 11.0002 18.9814C11.4192 18.4808 11.9978 18.1398 12.6387 18.0159C13.2796 17.892 13.9436 17.9927 14.519 18.301C15.0606 18.541 15.4925 18.9754 15.7295 19.5183C15.9666 20.0612 15.9914 20.6733 15.7992 21.2336C15.2012 23.1594 14.5876 25.3605 14.5812 25.3834C14.5275 25.5756 14.4123 25.745 14.2533 25.8657C14.0943 25.9864 13.9002 26.0518 13.7006 26.0518L13.7042 26.0546ZM11.4456 21.9661C11.537 22.822 12.413 23.4731 13.1153 23.8636C13.354 23.0296 13.7079 21.8161 14.0554 20.6941C14.0873 20.6228 14.1036 20.5456 14.1032 20.4675C14.1029 20.3894 14.0858 20.3123 14.0533 20.2413C14.0208 20.1703 13.9734 20.1071 13.9145 20.0559C13.8556 20.0047 13.7864 19.9666 13.7115 19.9443C13.5226 19.8377 13.3063 19.7895 13.09 19.8058C12.8737 19.8221 12.6671 19.9021 12.4963 20.0357C12.0723 20.6362 11.7197 21.284 11.4456 21.9661Z" fill="white"/>
<path d="M11.2748 21.1614C11.0907 21.1612 10.911 21.1054 10.7591 21.0014L8.3605 19.3554C8.16029 19.2184 8.02272 19.0074 7.97805 18.769C7.93337 18.5305 7.98526 18.2841 8.12228 18.0839C8.25931 17.8837 8.47026 17.7461 8.70871 17.7014C8.94717 17.6567 9.19361 17.7086 9.39381 17.8457L11.7924 19.4916C11.9539 19.6019 12.0759 19.761 12.1403 19.9457C12.2048 20.1304 12.2083 20.3309 12.1504 20.5177C12.0925 20.7045 11.9762 20.8679 11.8186 20.9837C11.661 21.0996 11.4704 21.1619 11.2748 21.1614Z" fill="white"/>
</svg>
