<svg width="24" height="24" viewBox="0 0 24 24" fill="none" xmlns="http://www.w3.org/2000/svg">
<path d="M12 0C9.62663 0 7.30655 0.703788 5.33316 2.02236C3.35977 3.34094 1.8217 5.21509 0.913451 7.4078C0.00519951 9.60051 -0.232441 12.0133 0.230582 14.3411C0.693604 16.6689 1.83649 18.8071 3.51472 20.4853C5.19295 22.1635 7.33115 23.3064 9.65892 23.7694C11.9867 24.2324 14.3995 23.9948 16.5922 23.0866C18.7849 22.1783 20.6591 20.6402 21.9776 18.6668C23.2962 16.6935 24 14.3734 24 12C24 8.8174 22.7357 5.76515 20.4853 3.51472C18.2348 1.26428 15.1826 0 12 0ZM13.6 17.6C13.6 18.0243 13.4314 18.4313 13.1314 18.7314C12.8313 19.0314 12.4243 19.2 12 19.2C11.5757 19.2 11.1687 19.0314 10.8686 18.7314C10.5686 18.4313 10.4 18.0243 10.4 17.6V12C10.4 11.5757 10.5686 11.1687 10.8686 10.8686C11.1687 10.5686 11.5757 10.4 12 10.4C12.4243 10.4 12.8313 10.5686 13.1314 10.8686C13.4314 11.1687 13.6 11.5757 13.6 12V17.6ZM12 8.952C11.6535 8.952 11.3148 8.84925 11.0266 8.65673C10.7385 8.46422 10.514 8.1906 10.3814 7.87046C10.2488 7.55032 10.2141 7.19806 10.2817 6.8582C10.3493 6.51835 10.5161 6.20617 10.7612 5.96115C11.0062 5.71613 11.3183 5.54926 11.6582 5.48166C11.9981 5.41406 12.3503 5.44876 12.6705 5.58136C12.9906 5.71397 13.2642 5.93853 13.4567 6.22664C13.6493 6.51476 13.752 6.85349 13.752 7.2C13.752 7.43008 13.7067 7.6579 13.6186 7.87046C13.5306 8.08302 13.4015 8.27616 13.2389 8.43885C13.0762 8.60154 12.883 8.73059 12.6705 8.81864C12.4579 8.90668 12.2301 8.952 12 8.952Z" fill="#FAFAFA"/>
</svg>
