<svg width="48" height="48" viewBox="0 0 48 48" fill="none" xmlns="http://www.w3.org/2000/svg">
<g clip-path="url(#clip0_280_1741)">
<path d="M0.740234 24.0006C0.740234 11.1568 11.1559 0.741211 23.9996 0.741211C36.8434 0.741211 47.259 11.1568 47.259 24.0006C47.259 36.8443 36.8434 47.26 23.9996 47.26C11.1559 47.26 0.740234 36.8443 0.740234 24.0006Z" fill="#527FA2"/>
<path d="M40.4441 7.55664C49.5285 16.641 49.5285 31.3691 40.4441 40.4441C31.3598 49.5285 16.6316 49.5285 7.55664 40.4441L40.4441 7.55664Z" fill="#467593"/>
<path d="M47.1562 26.1565L34.3781 13.3784L33.525 14.2222L31.8656 12.5628L30.3281 14.1003L28.9313 12.7034L23.4469 18.1878L17.6063 12.3472L17.0344 12.919L17.4469 13.3315L17.1937 13.5847L16.0031 12.394L15.4125 12.9847L15.9656 13.5378L15.4313 14.0722L14.4 13.0409L13.1625 14.2784L14.2875 15.4034L13.1625 16.5284L13.5563 16.9222L13.1625 17.3159L14.1 18.2534L12.1875 20.1472L16.8375 24.7972L15.8625 25.7722L18.9281 28.8378L13.2469 34.519L25.9031 47.1753C37.1437 46.2659 46.125 37.3597 47.1562 26.1565Z" fill="#0471A6"/>
<path d="M35.9441 20.8599H29.166C31.8098 25.2192 28.7816 30.9567 23.316 30.4224C19.9785 30.0942 16.9223 26.5036 18.2723 22.4255C18.3566 22.163 18.5348 21.8817 18.6754 21.6099C18.8066 21.3474 19.0316 21.0474 18.966 20.8599H12.2441V32.0442C12.4691 34.2286 14.1941 35.9536 16.416 36.1599H31.8285C34.0598 35.9349 35.7191 34.0786 35.9441 32.1005V20.8599Z" fill="white"/>
<path d="M23.4844 19.763C22.575 19.8755 22.0875 20.0724 21.6281 20.3442C20.5875 20.9724 19.6031 22.1349 19.425 23.7005C19.0688 26.8599 21.3844 29.0349 24.0563 29.0349C26.1844 29.0349 28.7719 27.5161 28.7531 24.338C28.7344 21.4505 26.4281 19.4067 23.4844 19.763ZM27.4875 25.2661C27.1031 26.8692 25.3219 28.0786 23.4938 27.8161C21.7406 27.5724 19.8563 25.388 20.8875 22.9505C21.2719 22.0505 22.125 21.0474 23.8969 20.9255C26.0719 20.7661 28.1063 22.7161 27.4875 25.2661Z" fill="white"/>
<path d="M34.6122 13.6784C33.9747 13.0409 32.9247 12.4503 31.7715 12.3472H18.5622V18.3753H17.5778V12.3472H16.9684V18.3753H15.984V12.4034C15.7684 12.4409 15.5528 12.5065 15.3465 12.5722V18.3753H14.3622V13.0409C14.0528 13.2378 13.7715 13.4534 13.5465 13.6784C12.234 14.9909 12.1309 17.2409 12.2153 20.1097H19.5747C19.8747 20.044 20.2309 19.669 20.5028 19.4722C21.4965 18.7409 22.7715 18.3472 24.0653 18.3284H24.1028C25.3965 18.3378 26.6715 18.7409 27.6653 19.4722C27.9372 19.669 28.2934 20.044 28.5934 20.1097H35.9528C35.9809 17.2128 35.9247 14.9815 34.6122 13.6784ZM33.5997 17.5878C33.5997 17.9253 33.3278 18.1972 32.9903 18.1972H30.4403C30.1028 18.1972 29.8309 17.9253 29.8309 17.5878V15.0378C29.8309 14.7003 30.1028 14.4284 30.4403 14.4284H32.9903C33.3278 14.4284 33.5997 14.7003 33.5997 15.0378V17.5878Z" fill="white"/>
</g>
<defs>
<clipPath id="clip0_280_1741">
<rect width="48" height="48" fill="white" transform="translate(0 0.000488281)"/>
</clipPath>
</defs>
</svg>
