<svg width="22" height="31" viewBox="0 0 22 31" fill="none" xmlns="http://www.w3.org/2000/svg">
<path d="M5.42849 2.15051C8.69834 0.250579 12.7175 0.283786 15.9567 2.23749C19.164 4.23099 21.1134 7.7888 21.0953 11.616C21.0205 15.4181 18.9303 18.9921 16.3175 21.7549C14.8095 23.3567 13.1225 24.7732 11.291 25.9753C11.1024 26.0843 10.8958 26.1573 10.6813 26.1907C10.475 26.1819 10.274 26.1209 10.0966 26.0133C7.30044 24.2071 4.84738 21.9015 2.8554 19.2075C1.18857 16.9587 0.241594 14.2419 0.143066 11.4259L0.150529 11.0162C0.286623 7.34052 2.27541 3.98258 5.42849 2.15051ZM11.9771 8.28357C10.6478 7.71854 9.11524 8.02552 8.09497 9.06116C7.0747 10.0968 6.76797 11.6568 7.31801 13.0128C7.86804 14.3688 9.16633 15.2533 10.6067 15.2533C11.5503 15.2601 12.4574 14.8821 13.1258 14.2037C13.7942 13.5252 14.1684 12.6025 14.1651 11.6413C14.1701 10.1742 13.3063 8.84859 11.9771 8.28357Z" fill="white"/>
<path d="M10.6185 30.6797C14.7512 30.6797 18.1015 30.0097 18.1015 29.1831C18.1015 28.3566 14.7512 27.6865 10.6185 27.6865C6.48575 27.6865 3.1355 28.3566 3.1355 29.1831C3.1355 30.0097 6.48575 30.6797 10.6185 30.6797Z" fill="#84CBFF"/>
</svg>
