<svg width="30" height="40" viewBox="0 0 30 40" fill="none" xmlns="http://www.w3.org/2000/svg">
<path d="M14.6174 9.24512C13.5535 9.24512 12.5135 9.5606 11.6289 10.1517C10.7443 10.7427 10.0549 11.5828 9.64775 12.5657C9.24061 13.5486 9.13409 14.6302 9.34164 15.6737C9.5492 16.7171 10.0615 17.6756 10.8138 18.4279C11.5661 19.1801 12.5245 19.6925 13.568 19.9C14.6114 20.1076 15.693 20.001 16.6759 19.5939C17.6588 19.1868 18.4989 18.4973 19.09 17.6127C19.6811 16.7281 19.9965 15.6881 19.9965 14.6242C19.9949 13.1981 19.4277 11.8308 18.4192 10.8224C17.4108 9.81399 16.0435 9.24674 14.6174 9.24512ZM14.6174 17.3138C14.0855 17.3138 13.5655 17.1561 13.1232 16.8605C12.6809 16.565 12.3361 16.1449 12.1326 15.6535C11.929 15.162 11.8757 14.6213 11.9795 14.0995C12.0833 13.5778 12.3395 13.0986 12.7156 12.7224C13.0917 12.3463 13.571 12.0901 14.0927 11.9864C14.6144 11.8826 15.1552 11.9358 15.6467 12.1394C16.1381 12.343 16.5582 12.6877 16.8537 13.13C17.1492 13.5723 17.307 14.0923 17.307 14.6242C17.3061 15.3373 17.0225 16.0209 16.5183 16.5251C16.0141 17.0294 15.3305 17.313 14.6174 17.3138Z" fill="black"/>
<path d="M24.9531 4.2802C22.3974 1.72515 18.9859 0.207347 15.3769 0.0197276C11.7679 -0.167892 8.21738 0.987973 5.41052 3.26424C2.60366 5.5405 0.739462 8.7758 0.177721 12.3457C-0.38402 15.9156 0.396517 19.5671 2.36869 22.5954L12.5308 38.1959C12.7569 38.5431 13.0661 38.8283 13.4304 39.0257C13.7946 39.2231 14.2024 39.3265 14.6167 39.3265C15.031 39.3265 15.4387 39.2231 15.803 39.0257C16.1672 38.8283 16.4764 38.5431 16.7025 38.1959L26.865 22.5954C28.6949 19.7862 29.5036 16.4334 29.1556 13.0989C28.8075 9.76439 27.3238 6.65087 24.9531 4.2802ZM24.6115 21.1273L14.6167 36.4704L4.62187 21.1273C1.56249 16.4307 2.21866 10.1455 6.18207 6.18197C7.28971 5.0743 8.60468 4.19564 10.0519 3.59617C11.4991 2.9967 13.0502 2.68816 14.6167 2.68816C16.1832 2.68816 17.7343 2.9967 19.1815 3.59617C20.6287 4.19564 21.9437 5.0743 23.0513 6.18197C27.0147 10.1455 27.6708 16.4307 24.6115 21.1273Z" fill="black"/>
</svg>
