<svg width="339" height="299" viewBox="0 0 339 299" fill="none" xmlns="http://www.w3.org/2000/svg">
<path d="M169.5 298.381C263.112 298.381 339 293.783 339 288.111C339 282.439 263.112 277.841 169.5 277.841C75.8877 277.841 0 282.439 0 288.111C0 293.783 75.8877 298.381 169.5 298.381Z" fill="#F5F5F5"/>
<path d="M112.317 288.11H84.7709C83.7322 288.11 82.7361 287.682 82.0016 286.92C81.2671 286.158 80.8545 285.124 80.8545 284.046V234.23H116.234V284.055C116.231 285.131 115.818 286.163 115.083 286.923C114.349 287.683 113.354 288.11 112.317 288.11Z" fill="#11496A"/>
<path opacity="0.2" d="M116.234 234.23H80.8635V255.85L116.234 247.893V234.23Z" fill="black"/>
<path d="M131.453 168.873C131.453 155.158 136.703 142.005 146.048 132.307C155.393 122.609 168.067 117.161 181.283 117.161C194.499 117.161 207.173 122.609 216.518 132.307C225.863 142.005 231.113 155.158 231.113 168.873V234.194H131.453V168.873Z" fill="#11496A"/>
<path opacity="0.3" d="M131.453 168.873C131.453 155.158 136.703 142.005 146.048 132.307C155.393 122.609 168.067 117.161 181.283 117.161C194.499 117.161 207.173 122.609 216.518 132.307C225.863 142.005 231.113 155.158 231.113 168.873V234.194H131.453V168.873Z" fill="black"/>
<path d="M14.1433 168.865V227.789C14.1433 228.636 14.3041 229.474 14.6166 230.256C14.9291 231.038 15.3871 231.749 15.9644 232.347C16.5416 232.945 17.2269 233.42 17.981 233.743C18.735 234.066 19.5431 234.232 20.3589 234.231H131.453V168.865C131.453 155.15 136.703 141.996 146.048 132.299C155.393 122.601 168.067 117.152 181.283 117.152H63.9731C50.7574 117.152 38.083 122.601 28.7381 132.299C19.3932 141.996 14.1433 155.15 14.1433 168.865Z" fill="#11496A"/>
<path opacity="0.2" d="M14.1523 214.942L131.462 214.942V196.798H14.1523V214.942Z" fill="black"/>
<path opacity="0.2" d="M14.1523 191.164L131.462 191.164V173.019H14.1523V191.164Z" fill="black"/>
<path d="M138.806 113.976H124.53V114.885H138.806V113.976Z" fill="#11496A"/>
<path d="M117.047 113.976H109.372V114.885H117.047V113.976Z" fill="#11496A"/>
<path d="M71.5178 185.866V112.38C71.518 112.087 71.4565 111.797 71.3377 111.531C71.219 111.266 71.0458 111.03 70.8302 110.841C70.6146 110.652 70.3619 110.514 70.0896 110.436C69.8173 110.359 69.532 110.344 69.2536 110.393L44.5398 114.612V125.253H63.4314V185.702C61.5237 186.612 59.9697 188.166 59.0234 190.111C58.0772 192.056 57.7947 194.276 58.2221 196.409C58.6496 198.542 59.7617 200.462 61.3766 201.854C62.9915 203.246 65.0138 204.028 67.1127 204.073C69.2117 204.118 71.2631 203.422 72.9318 202.1C74.6004 200.778 75.7875 198.907 76.299 196.794C76.8105 194.681 76.6161 192.451 75.7476 190.467C74.8792 188.484 73.388 186.865 71.5178 185.875V185.866Z" fill="#263238"/>
<path d="M138.543 241.624H266.387C267.32 241.627 268.216 241.247 268.881 240.567C269.546 239.888 269.925 238.964 269.937 237.995C269.937 237.018 269.563 236.082 268.897 235.391C268.231 234.7 267.329 234.312 266.387 234.312H131.453C131.465 236.256 132.217 238.115 133.545 239.485C134.874 240.855 136.67 241.624 138.543 241.624Z" fill="#11496A"/>
<path opacity="0.2" d="M138.543 241.624H190.786C191.719 241.627 192.615 241.247 193.28 240.567C193.944 239.888 194.324 238.964 194.335 237.995C194.335 237.018 193.961 236.082 193.296 235.391C192.63 234.7 191.727 234.312 190.786 234.312H131.453C131.465 236.256 132.217 238.115 133.545 239.485C134.874 240.855 136.67 241.624 138.543 241.624Z" fill="black"/>
<path d="M260.838 280.072L253.443 280.136L251.423 262.363L258.828 262.299L260.838 280.072Z" fill="#D78A7F"/>
<path opacity="0.2" d="M251.423 262.372L252.463 271.535L259.868 271.462L258.828 262.308L251.423 262.372Z" fill="black"/>
<path d="M320.948 261.229L314.584 265.148L304.225 250.841L310.589 246.922L320.948 261.229Z" fill="#D78A7F"/>
<path opacity="0.2" d="M304.234 250.841L309.567 258.217L315.94 254.298L310.599 246.922L304.234 250.841Z" fill="black"/>
<path d="M253.425 279.246L261.511 279.174C261.66 279.175 261.806 279.226 261.925 279.319C262.045 279.412 262.132 279.542 262.175 279.691L264.134 286.504C264.184 286.662 264.197 286.83 264.172 286.995C264.147 287.159 264.084 287.315 263.989 287.449C263.894 287.583 263.769 287.692 263.626 287.766C263.482 287.84 263.324 287.877 263.163 287.874C260.243 287.874 256.021 287.711 252.349 287.747C248.066 287.747 246.16 288.065 241.133 288.11C238.091 288.11 237.024 284.953 238.275 284.653C243.966 283.293 246.912 283.111 251.685 279.863C252.196 279.488 252.8 279.274 253.425 279.246Z" fill="#263238"/>
<path d="M250.372 280.635C251.17 280.62 251.964 280.519 252.742 280.336C252.777 280.33 252.81 280.311 252.833 280.283C252.857 280.255 252.871 280.219 252.873 280.182C252.876 280.145 252.869 280.108 252.852 280.075C252.835 280.043 252.808 280.017 252.776 280C252.427 279.819 249.28 278.276 248.467 278.821C248.388 278.873 248.324 278.946 248.281 279.032C248.238 279.118 248.218 279.214 248.222 279.311C248.213 279.484 248.243 279.656 248.312 279.814C248.38 279.972 248.484 280.111 248.615 280.218C249.142 280.551 249.759 280.697 250.372 280.635ZM252.121 280.091C250.521 280.381 249.306 280.318 248.816 279.91C248.731 279.838 248.663 279.746 248.617 279.642C248.572 279.538 248.55 279.425 248.554 279.311C248.551 279.276 248.556 279.241 248.57 279.209C248.584 279.177 248.605 279.15 248.633 279.129C249.114 278.821 250.871 279.474 252.138 280.073L252.121 280.091Z" fill="#135176"/>
<path d="M252.708 280.327C252.743 280.335 252.779 280.335 252.813 280.327C252.839 280.308 252.859 280.281 252.87 280.25C252.88 280.22 252.882 280.186 252.875 280.154C252.875 280.009 252.298 276.706 250.532 276.915C250.068 276.969 249.937 277.205 249.911 277.405C249.789 278.312 251.659 279.928 252.639 280.345L252.708 280.327ZM250.68 277.232C251.738 277.232 252.271 279.047 252.429 279.81C251.458 279.238 250.156 277.931 250.226 277.423C250.226 277.423 250.226 277.269 250.54 277.232H250.68Z" fill="#135176"/>
<path d="M264.16 68.0066C263.189 73.8401 261.957 79.4377 260.462 85.0898C259.716 87.9083 258.891 90.7176 257.988 93.518C257.516 94.9242 257.07 96.3213 256.537 97.7185C256.283 98.417 256.03 99.1156 255.741 99.8142L255.33 100.867L255.12 101.384L255.007 101.665L254.849 102.019C254.132 103.623 253.253 105.143 252.227 106.555C251.353 107.834 250.4 109.013 249.464 110.184C247.594 112.47 245.644 114.593 243.668 116.68C239.723 120.793 235.573 124.69 231.237 128.356L227.294 124.282C230.66 119.846 234.052 115.364 237.33 110.928C238.965 108.714 240.556 106.464 242.042 104.241C242.785 103.135 243.494 102.019 244.114 100.93C244.676 100.003 245.156 99.0254 245.548 98.0088C245.6 97.8999 245.723 97.4644 245.819 97.1741L246.116 96.2125C246.326 95.5865 246.51 94.9332 246.693 94.28C247.069 92.9827 247.419 91.6581 247.777 90.3427C248.459 87.6845 249.097 84.9991 249.718 82.2955C250.924 76.8521 252.087 71.3543 253.136 65.9653L264.16 68.0066Z" fill="#D78A7F"/>
<path d="M266.774 69.0685C266.328 77.8324 262.237 90.1344 262.237 90.1344L250.75 85.5983L246.021 83.7838C246.644 77.9815 247.971 72.2842 249.972 66.8276C253.469 57.4831 261.573 55.206 265.708 62.0828C266.669 63.6342 266.923 66.1563 266.774 69.0685Z" fill="#135176"/>
<path opacity="0.2" d="M266.773 69.0679C266.327 77.8317 262.236 90.1338 262.236 90.1338L250.749 85.5977C251.432 82.5057 252.326 79.4679 253.424 76.5072C256.291 68.7231 262.411 65.8472 266.773 69.0679Z" fill="black"/>
<path d="M229.156 123.42L221.358 124.745L221.297 132.683C221.297 132.683 228.78 131.595 231.709 127.875L229.156 123.42Z" fill="#D78A7F"/>
<path d="M214.138 129.345L214.304 134.561L221.298 132.683L221.35 124.745L214.138 129.345Z" fill="#D78A7F"/>
<path d="M258.564 124.745C258.564 124.745 247.453 166.722 244.507 190.22C241.447 214.661 248.668 267.071 248.668 267.071L262.035 266.772C262.035 266.772 263.04 213.345 267.411 189.313C272.202 163.121 281.329 124.237 281.329 124.237L258.564 124.745Z" fill="#263238"/>
<path d="M263.679 267.399L247.961 267.725L246.807 262.309L263.478 262.264L263.679 267.399Z" fill="#135176"/>
<path opacity="0.4" d="M263.679 267.399L247.961 267.725L246.807 262.309L263.478 262.264L263.679 267.399Z" fill="white"/>
<path d="M314.138 264.386L321.087 260.104C321.222 260.014 321.383 259.975 321.542 259.993C321.701 260.011 321.849 260.086 321.962 260.203L326.953 265.066C327.075 265.177 327.168 265.315 327.227 265.471C327.286 265.627 327.307 265.795 327.29 265.962C327.273 266.128 327.218 266.288 327.129 266.427C327.04 266.566 326.92 266.682 326.779 266.763C324.243 268.269 320.528 270.392 317.372 272.288C313.692 274.565 312.127 275.799 307.852 278.457C305.229 280.072 302.773 277.885 303.708 276.969C307.966 272.814 310.422 271.117 312.975 265.828C313.221 265.242 313.624 264.741 314.138 264.386Z" fill="#263238"/>
<path d="M312.163 267.162C312.842 266.729 313.48 266.231 314.069 265.674C314.095 265.647 314.112 265.613 314.12 265.576C314.128 265.539 314.125 265.501 314.113 265.465C314.099 265.429 314.075 265.399 314.043 265.38C314.012 265.36 313.975 265.352 313.938 265.356C313.545 265.356 310.109 265.665 309.646 266.59C309.596 266.673 309.57 266.769 309.57 266.867C309.57 266.965 309.596 267.06 309.646 267.143C309.722 267.291 309.831 267.417 309.963 267.513C310.095 267.609 310.247 267.672 310.406 267.697C311.032 267.723 311.65 267.535 312.163 267.162ZM313.431 265.764C312.19 266.853 311.106 267.434 310.485 267.334C310.377 267.317 310.274 267.275 310.185 267.211C310.096 267.146 310.022 267.061 309.969 266.962C309.95 266.931 309.941 266.895 309.941 266.858C309.941 266.821 309.95 266.785 309.969 266.753C310.249 266.263 312.041 265.91 313.431 265.764Z" fill="#135176"/>
<path d="M314.042 265.692C314.072 265.668 314.096 265.637 314.112 265.601C314.129 265.574 314.138 265.543 314.138 265.51C314.138 265.478 314.129 265.446 314.112 265.42C314.024 265.311 311.935 262.698 310.519 263.841C310.143 264.131 310.143 264.413 310.213 264.594C310.528 265.401 312.975 265.846 313.998 265.719L314.042 265.692ZM310.79 264.077C311.708 263.523 313.036 264.794 313.579 265.374C312.451 265.374 310.702 264.939 310.51 264.467C310.51 264.467 310.458 264.331 310.694 264.149L310.79 264.077Z" fill="#135176"/>
<path d="M272.386 124.437C272.386 124.437 272.386 165.679 273.427 189.349C274.493 213.971 304.129 256.339 304.129 256.339L315.537 249.081C315.537 249.081 295.518 208.764 295.824 184.314C296.156 157.65 298.149 123.838 298.149 123.838L272.386 124.437Z" fill="#263238"/>
<path d="M317.006 249.072L304.373 257.073L301.218 253.816L315.117 244.2L317.006 249.072Z" fill="#135176"/>
<path opacity="0.4" d="M317.006 249.072L304.373 257.073L301.218 253.816L315.117 244.2L317.006 249.072Z" fill="white"/>
<path d="M257.647 58.3626C257.647 58.3626 249.386 81.751 258.565 124.754L298.149 123.847C298.289 117.541 293.839 86.8678 299.093 57.0289C294.687 56.2637 290.236 55.8 285.77 55.6409C280.162 55.422 274.545 55.5462 268.951 56.0128C265.13 56.4894 261.35 57.275 257.647 58.3626Z" fill="#135176"/>
<path d="M283.733 35.981C282.789 41.6149 281.941 51.9392 285.805 55.6044C285.805 55.6044 284.441 61.3653 274.388 61.5558C266.354 61.7101 268.985 55.9763 268.985 55.9763C274.991 54.3433 274.737 49.6983 273.592 45.3617L283.733 35.981Z" fill="#D78A7F"/>
<path opacity="0.2" d="M279.599 39.8008L273.602 45.3531C273.881 46.3616 274.074 47.3938 274.179 48.4376C276.478 48.0475 279.599 45.344 279.791 42.8309C279.906 41.8172 279.84 40.7902 279.599 39.8008Z" fill="black"/>
<path opacity="0.2" d="M290.264 71.9077L296.864 76.8431C296.576 82.0959 296.488 87.2037 296.532 91.9938C292.484 87.7661 290.22 79.9912 290.264 71.9077Z" fill="black"/>
<path d="M284.363 52.8013C284.363 52.8013 282.466 57.537 273.61 61.5651C275.035 62.1589 276.324 63.0547 277.396 64.1951C278.468 65.3355 279.298 66.6954 279.835 68.1879C279.835 68.1879 286.278 61.8373 288 55.4867L284.363 52.8013Z" fill="white"/>
<path d="M266.992 66.4734C266.992 66.4734 269.702 62.3909 273.61 61.5653C272.237 59.8234 270.821 55.9586 272.132 54.126C270.981 54.4412 269.864 54.8822 268.802 55.4415C268.802 55.4415 263.487 58.7529 266.992 66.4734Z" fill="white"/>
<path d="M266.214 19.8504C262.604 21.4562 260.812 31.5446 265.515 33.7401C270.218 35.9356 273.051 16.8203 266.214 19.8504Z" fill="#263238"/>
<path d="M284.206 27.5172C283.909 35.1379 284.11 39.6106 280.491 43.5933C275.044 49.5901 265.926 46.315 264.02 38.7578C262.272 31.9535 263.076 20.6131 270.184 17.456C271.748 16.7451 273.463 16.4613 275.163 16.6315C276.863 16.8018 278.493 17.4203 279.898 18.4285C281.303 19.4367 282.437 20.8009 283.191 22.3917C283.945 23.9824 284.294 25.7468 284.206 27.5172Z" fill="#D78A7F"/>
<path d="M273.129 29.8848C273.129 30.5017 272.841 31.0097 272.447 31.0188C272.054 31.0279 271.731 30.5289 271.722 29.912C271.713 29.2951 272.01 28.787 272.404 28.778C272.797 28.7689 273.121 29.2588 273.129 29.8848Z" fill="#263238"/>
<path d="M266.38 30.0303C266.38 30.6472 266.091 31.1553 265.698 31.1643C265.304 31.1734 264.981 30.6835 264.972 30.0575C264.963 29.4315 265.261 28.9325 265.654 28.9235C266.047 28.9144 266.371 29.4134 266.38 30.0303Z" fill="#263238"/>
<path d="M268.54 30.2935C267.865 32.2026 266.942 34.0067 265.795 35.6552C266.208 35.948 266.678 36.1436 267.172 36.2282C267.666 36.3128 268.171 36.2844 268.653 36.1451L268.54 30.2935Z" fill="#D78A7F"/>
<path d="M270.428 37.8145C271.231 37.8213 272.024 37.627 272.739 37.2478C273.454 36.8686 274.071 36.3159 274.536 35.6365C274.549 35.6165 274.557 35.5941 274.561 35.5706C274.564 35.5471 274.563 35.5231 274.557 35.5001C274.552 35.4771 274.541 35.4556 274.527 35.4369C274.513 35.4182 274.495 35.4028 274.475 35.3915C274.437 35.3673 274.391 35.3594 274.347 35.3696C274.303 35.3797 274.264 35.4071 274.239 35.446C273.799 36.068 273.223 36.5737 272.56 36.9221C271.896 37.2705 271.162 37.4519 270.419 37.4515C270.396 37.4526 270.373 37.4585 270.353 37.4687C270.332 37.4789 270.313 37.4933 270.298 37.511C270.282 37.5287 270.27 37.5494 270.263 37.5719C270.255 37.5944 270.251 37.6182 270.253 37.642C270.255 37.6886 270.274 37.7324 270.307 37.7645C270.339 37.7966 270.383 37.8145 270.428 37.8145Z" fill="#263238"/>
<path d="M275.114 27.5804C275.193 27.5778 275.27 27.5492 275.332 27.4987C275.404 27.4383 275.449 27.351 275.459 27.2559C275.469 27.1607 275.442 27.0654 275.385 26.9907C275.049 26.5291 274.613 26.1575 274.111 25.9066C273.609 25.6557 273.057 25.5328 272.5 25.5482C272.407 25.5566 272.321 25.6029 272.262 25.6769C272.202 25.7509 272.173 25.8466 272.181 25.9428C272.189 26.039 272.234 26.128 272.305 26.1901C272.376 26.2522 272.468 26.2824 272.561 26.2739C273.001 26.2697 273.436 26.3725 273.831 26.5742C274.225 26.7759 274.569 27.0708 274.834 27.4352C274.866 27.4808 274.908 27.5178 274.957 27.543C275.006 27.5683 275.059 27.5811 275.114 27.5804Z" fill="#263238"/>
<path d="M263.373 27.6895C263.44 27.6887 263.505 27.6688 263.562 27.632C263.619 27.5952 263.666 27.5429 263.696 27.4807C263.868 27.0555 264.137 26.6799 264.48 26.386C264.822 26.0921 265.228 25.8885 265.663 25.7928C265.755 25.7772 265.838 25.7248 265.893 25.6468C265.949 25.5688 265.973 25.4715 265.96 25.3754C265.943 25.2808 265.892 25.1963 265.818 25.1391C265.743 25.0818 265.65 25.056 265.558 25.0669C265.014 25.1882 264.506 25.4425 264.076 25.8086C263.645 26.1748 263.305 26.6423 263.084 27.1722C263.064 27.2149 263.052 27.2615 263.049 27.3092C263.046 27.3568 263.053 27.4045 263.068 27.4494C263.084 27.4944 263.108 27.5356 263.139 27.5706C263.17 27.6056 263.208 27.6337 263.25 27.6531C263.288 27.6733 263.33 27.6857 263.373 27.6895Z" fill="#263238"/>
<path d="M300.361 62.4448C302.013 64.9125 303.464 67.3257 304.959 69.8115C306.454 72.2974 307.835 74.8013 309.208 77.3416C311.991 82.4864 314.467 87.8037 316.621 93.2635C316.901 93.9439 317.146 94.6697 317.399 95.3773L317.784 96.4479L317.976 96.9922L318.204 97.7361C318.761 99.6915 318.962 101.737 318.798 103.769C318.452 107.32 317.312 110.737 315.467 113.749C313.862 116.438 311.951 118.917 309.776 121.134C308.736 122.222 307.634 123.229 306.515 124.2C305.382 125.171 304.2 126.08 302.975 126.922L299.417 122.495C300.195 121.587 301.078 120.462 301.865 119.419C302.651 118.376 303.421 117.26 304.146 116.171C305.561 114.079 306.776 111.849 307.774 109.512C308.644 107.567 309.1 105.451 309.112 103.307C309.081 102.488 308.915 101.681 308.622 100.921L307.923 99.3057C307.652 98.7069 307.407 98.099 307.11 97.4912C304.854 92.6375 302.249 87.811 299.513 83.039C296.777 78.2669 293.909 73.4768 291.068 68.8952L300.361 62.4448Z" fill="#D78A7F"/>
<path d="M299.092 57.0472C306.007 58.5986 315.956 80.735 315.956 80.735L297.431 90.1158C294.137 84.8867 291.399 79.3017 289.266 73.459C286.04 64.1055 291.688 55.3779 299.092 57.0472Z" fill="#135176"/>
<path d="M292.511 113.976L311.123 171.032C311.846 173.271 311.686 175.716 310.679 177.834C309.672 179.952 307.899 181.57 305.746 182.336L180.639 226.355C178.479 227.107 176.12 226.94 174.078 225.891C172.037 224.842 170.479 222.996 169.746 220.758L151.143 163.72C150.784 162.639 150.636 161.495 150.706 160.354C150.806 158.581 151.413 156.88 152.448 155.466C153.483 154.053 154.9 152.991 156.519 152.416L281.653 108.397C283.274 107.831 285.02 107.779 286.669 108.248C288.318 108.716 289.795 109.684 290.911 111.028C291.627 111.891 292.17 112.894 292.511 113.976Z" fill="#135176"/>
<path opacity="0.8" d="M292.511 113.976L311.123 171.032C311.846 173.271 311.686 175.716 310.679 177.834C309.672 179.952 307.899 181.57 305.746 182.336L180.639 226.355C178.479 227.107 176.12 226.94 174.078 225.891C172.037 224.842 170.479 222.996 169.746 220.758L151.143 163.72C150.784 162.639 150.636 161.495 150.706 160.354C150.806 158.581 151.413 156.88 152.448 155.466C153.483 154.053 154.9 152.991 156.519 152.416L281.653 108.397C283.274 107.831 285.02 107.779 286.669 108.248C288.318 108.716 289.795 109.684 290.911 111.028C291.627 111.891 292.17 112.894 292.511 113.976Z" fill="white"/>
<path opacity="0.6" d="M290.875 111.028L239.114 159.066C236.512 161.478 233.467 163.321 230.162 164.482C226.857 165.643 223.36 166.1 219.881 165.825L150.661 160.382C150.762 158.609 151.368 156.908 152.404 155.494C153.439 154.08 154.856 153.018 156.475 152.443L281.609 108.424C283.228 107.853 284.974 107.796 286.625 108.26C288.275 108.724 289.755 109.687 290.875 111.028Z" fill="#135176"/>
<path d="M301.288 121.434L293.333 121.488L298.237 129.825C298.237 129.825 303.902 128.401 304.426 125.444L301.288 121.434Z" fill="#D78A7F"/>
<path d="M288.358 126.378L292.72 133.082L298.237 129.825L293.332 121.488L288.358 126.378Z" fill="#D78A7F"/>
<path d="M289.215 21.4114C290.963 26.383 285.674 37.8958 282.597 37.6781C279.52 37.4603 278.681 25.4939 280.429 22.5182C278.768 23.3166 262.945 23.3438 263.023 21.611C263.426 15.3148 274.187 13.0286 285.989 16.1676C289.057 16.0133 290.203 16.8843 289.215 21.4114Z" fill="#263238"/>
<path d="M287.685 35.8176C287.217 36.6337 286.597 37.3451 285.862 37.9104C285.127 38.4758 284.29 38.8838 283.402 39.1109C281.024 39.7096 279.905 37.4869 280.657 35.2007C281.312 33.1413 283.34 30.3561 285.701 30.7734C288.061 31.1907 288.839 33.7945 287.685 35.8176Z" fill="#D78A7F"/>
<path d="M253.59 18.4443L289.904 22.799C290.087 22.8195 290.271 22.7643 290.415 22.6454C290.559 22.5265 290.652 22.3535 290.674 22.1639C290.694 21.9755 290.642 21.7864 290.529 21.6372C290.416 21.488 290.252 21.3905 290.071 21.3656L253.747 17.0199C253.566 16.9993 253.383 17.0533 253.24 17.1703C253.096 17.2873 253.002 17.458 252.978 17.6459C252.958 17.8358 253.011 18.026 253.126 18.1755C253.24 18.3249 253.407 18.4215 253.59 18.4443Z" fill="#135176"/>
<path d="M290.675 22.1279L291.305 16.503C291.298 15.888 291.07 15.2978 290.666 14.848C290.261 14.3982 289.71 14.1214 289.119 14.0717L266.818 9.69881C265.166 9.3722 263.645 10.3339 263.653 11.6947V18.8981L290.675 22.1279Z" fill="#135176"/>
<path d="M265.733 17.2375L275.175 18.3716L275.498 15.5138L265.742 14.3525L265.733 17.2375Z" fill="white"/>
</svg>
