<svg width="22" height="20" viewBox="0 0 22 20" fill="none" xmlns="http://www.w3.org/2000/svg">
<path d="M21.0954 14.4618C21.0954 17.3846 18.7488 19.7523 15.8259 19.7627H15.8154H5.43354C2.52116 19.7627 0.143066 17.4056 0.143066 14.4827V14.4723C0.143066 14.4723 0.149352 9.8355 0.157733 7.5035C0.158781 7.0656 0.661638 6.82046 1.00421 7.09284C3.49335 9.0676 7.94469 12.6683 8.00021 12.7154C8.74402 13.3115 9.68688 13.6478 10.6507 13.6478C11.6145 13.6478 12.5574 13.3115 13.3012 12.7039C13.3567 12.6672 17.7085 9.17446 20.2354 7.16722C20.579 6.89379 21.0839 7.13893 21.085 7.57579C21.0954 9.88998 21.0954 14.4618 21.0954 14.4618Z" fill="#84CBFF"/>
<path d="M20.5464 3.70465C19.6391 1.99494 17.854 0.90332 15.8886 0.90332H5.4334C3.46806 0.90332 1.68292 1.99494 0.775683 3.70465C0.572445 4.08703 0.668826 4.5637 1.00721 4.83399L8.78578 11.0558C9.33054 11.4958 9.99054 11.7147 10.6505 11.7147C10.6547 11.7147 10.6579 11.7147 10.661 11.7147C10.6642 11.7147 10.6683 11.7147 10.6715 11.7147C11.3315 11.7147 11.9915 11.4958 12.5363 11.0558L20.3148 4.83399C20.6532 4.5637 20.7496 4.08703 20.5464 3.70465Z" fill="white"/>
</svg>
