<svg width="154" height="153" viewBox="0 0 154 153" fill="none" xmlns="http://www.w3.org/2000/svg">
<g clip-path="url(#clip0_264_2786)">
<path d="M35.1498 87.1586L32.0847 88.8483C30.2457 89.8622 28.3437 89.312 27.3299 87.473L25.6402 84.4079C24.6263 82.5688 25.1765 80.6669 27.0155 79.653L30.0806 77.9633L35.1498 87.1586Z" fill="#607D95"/>
<path d="M75.8212 124.686L69.691 128.066L48.0388 96.0396L57.2341 90.9704L75.8212 124.686Z" fill="#8A6845"/>
<path d="M48.0388 96.0396L50.8799 100.468L52.719 99.4544C54.558 98.4405 56.46 98.9907 57.4738 100.83L71.8365 126.883L75.8212 124.686L57.2341 90.9704L48.0388 96.0396Z" fill="#745539"/>
<path d="M83.5625 44.4832C86.9341 42.6244 91.2134 43.8623 93.0722 47.2339L99.8311 59.4943C101.69 62.8659 100.452 67.1452 97.0804 69.0039" fill="#607D95"/>
<path d="M102.464 86.0191C100.625 87.0329 98.7229 86.4828 97.7091 84.6437L70.6734 35.6022C69.6595 33.7631 70.2097 31.8612 72.0487 30.8474C73.8878 29.8335 75.7897 30.3837 76.8036 32.2227L103.839 81.2643C104.853 83.1033 104.303 85.0052 102.464 86.0191Z" fill="#F8B545"/>
<path d="M99.0844 79.8888C97.2454 80.9026 95.3434 80.3525 94.3296 78.5134L97.7091 84.6436C98.7229 86.4827 100.625 87.0328 102.464 86.019C104.303 85.0051 104.853 83.1032 103.839 81.2642L100.46 75.134C101.474 76.973 100.923 78.875 99.0844 79.8888Z" fill="#EA9F32"/>
<path d="M55.9766 59.6905L46.7814 64.7597L60.2992 89.2805L69.4945 84.2113L96.0194 81.5785L72.3631 38.6671L55.9766 59.6905Z" fill="#FECB5B"/>
<path d="M65.121 80.6275L63.8949 81.3034C62.9754 81.8103 62.0244 81.5353 61.5175 80.6157L51.3791 62.2252L46.7815 64.7598L60.2993 89.2805L69.4946 84.2113L96.0195 81.5785L93.4849 76.9809L69.137 79.2129C67.742 79.5822 66.347 79.9516 65.121 80.6275Z" fill="#F8B545"/>
<path d="M60.2993 89.2806L44.9738 97.7292C43.1348 98.7431 41.2328 98.1929 40.219 96.3539L30.0806 77.9633C29.0668 76.1242 29.6169 74.2223 31.456 73.2085L46.7814 64.7598L60.2993 89.2806Z" fill="#8A6845"/>
<path d="M47.0369 90.597C45.1978 91.6108 43.2959 91.0607 42.282 89.2216L32.9885 72.3636L31.456 73.2085C29.6169 74.2223 29.0668 76.1242 30.0806 77.9633L40.219 96.3539C41.2328 98.1929 43.1348 98.7431 44.9738 97.7292L60.2993 89.2806L57.7647 84.6829L47.0369 90.597Z" fill="#745539"/>
<path d="M115.687 44.7583L103.427 51.5172C102.507 52.0242 101.556 51.7491 101.049 50.8295C100.543 49.91 100.818 48.9591 101.737 48.4521L113.998 41.6932C114.917 41.1863 115.868 41.4614 116.375 42.3809C116.882 43.3004 116.607 44.2514 115.687 44.7583ZM100.322 44.4361C99.7095 44.774 98.9275 44.8055 98.283 44.3614C97.4696 43.6109 97.4382 42.8289 98.0197 41.7089L103.686 34.5885C104.437 33.775 105.219 33.7436 106.339 34.3252C107.152 35.0757 107.184 35.8577 106.602 36.9777L100.936 44.0981L100.322 44.4361ZM116.803 56.9322L116.19 57.2702L107.144 58.2604C106.056 58.4608 105.242 57.7103 105.042 56.6218C104.842 55.5333 105.592 54.7199 106.681 54.5194L115.727 53.5292C116.815 53.3288 117.628 54.0793 117.829 55.1678C117.86 55.9498 117.416 56.5943 116.803 56.9322ZM76.6662 126.219L70.536 129.599C69.6165 130.105 68.6656 129.83 68.1586 128.911L46.5065 96.8846C46.3375 96.5781 45.9996 95.965 46.1371 95.4895C46.2746 95.0141 46.4122 94.5386 47.0252 94.2006L56.2205 89.1314C57.14 88.6245 58.091 88.8996 58.5979 89.8191L77.1849 123.535C77.8608 124.761 77.5858 125.712 76.6662 126.219ZM70.3789 125.689L73.444 123.999L56.5466 93.3479L50.4165 96.7274L70.3789 125.689ZM42.125 85.3119L35.9948 88.6913C35.0753 89.1982 34.1243 88.9232 33.6174 88.0036C33.1105 87.0841 33.3855 86.1331 34.3051 85.6262L40.4352 82.2468C41.3548 81.7398 42.3057 82.0149 42.8127 82.9344C43.3196 83.854 43.0445 84.8049 42.125 85.3119ZM45.5044 91.4421L39.3742 94.8215C38.4547 95.3284 37.5038 95.0534 36.9968 94.1338C36.4899 93.2143 36.765 92.2633 37.6845 91.7564L43.8147 88.377C44.7342 87.87 45.6852 88.1451 46.1921 89.0646C46.699 89.9842 46.424 90.9351 45.5044 91.4421ZM38.7455 79.1817L32.6153 82.5611C31.6958 83.0681 30.7448 82.793 30.2379 81.8735C29.731 80.9539 30.0061 80.003 30.9256 79.496L37.0558 76.1166C37.9753 75.6097 38.9263 75.8847 39.4332 76.8043C39.9401 77.7238 39.665 78.6748 38.7455 79.1817Z" fill="#004463"/>
<path d="M61.1441 90.8131L45.8186 99.2617C43.3665 100.614 40.0381 99.6508 38.6863 97.1987L28.548 78.8081C27.1962 76.3561 28.1589 73.0277 30.611 71.6759L45.9365 63.2272C46.856 62.7203 47.807 62.9954 48.3139 63.9149L61.8317 88.4357C62.3387 89.3552 62.0636 90.3062 61.1441 90.8131ZM32.3007 74.741C31.3812 75.2479 31.1061 76.1989 31.613 77.1184L41.7514 95.509C42.2584 96.4285 43.2093 96.7036 44.1289 96.1966L57.9218 88.5929L46.0937 67.1372L32.3007 74.741ZM103.309 87.5515C100.857 88.9033 97.5283 87.9405 96.1765 85.4885L69.1408 36.4469C67.789 33.9949 68.7518 30.6665 71.2039 29.3147C73.6559 27.9629 76.9843 28.9257 78.3361 31.3778L105.372 80.4193C106.724 82.8714 106.067 86.0308 103.309 87.5515ZM72.8936 32.3798C71.9741 32.8867 71.699 33.8377 72.2059 34.7572L99.2416 83.7987C99.7485 84.7183 100.7 84.9933 101.619 84.4864C102.539 83.9795 102.814 83.0285 102.307 82.109L75.271 33.0675C74.7641 32.148 73.8131 31.8729 72.8936 32.3798Z" fill="#004463"/>
<path d="M96.8641 83.1109L96.2511 83.4489L70.0327 85.9127L61.144 90.8129C60.2244 91.3199 59.2735 91.0448 58.7665 90.1253L45.2487 65.6045C44.7418 64.685 45.0168 63.734 45.9364 63.2271L54.8251 58.3269L70.9051 37.4724C71.3492 36.828 71.8246 36.9655 72.4377 36.6276C72.9131 36.7651 73.3886 36.9026 73.7266 37.5157L97.3828 80.427C97.7208 81.04 97.5832 81.5155 97.4457 81.991C97.4771 82.773 97.1706 82.9419 96.8641 83.1109ZM60.9868 86.903L69.2625 82.3407L93.1349 79.9712L72.1822 41.964L57.4344 60.885L49.1586 65.4473L60.9868 86.903ZM35.9945 88.691L32.9294 90.3807C30.4773 91.7325 27.1489 90.7697 25.7971 88.3176L24.1074 85.2525C22.7556 82.8005 23.7184 79.4721 26.1704 78.1203L29.2355 76.4306C30.1551 75.9237 31.106 76.1987 31.6129 77.1183L36.6821 86.3135C37.1891 87.2331 36.914 88.184 35.9945 88.691ZM27.8602 81.1854C26.9406 81.6923 26.6656 82.6433 27.1725 83.5628L28.8622 86.6279C29.3691 87.5474 30.3201 87.8225 31.2396 87.3156L32.7722 86.4707L29.3927 80.3405L27.8602 81.1854ZM97.9251 70.5362C97.0056 71.0431 96.0546 70.768 95.5477 69.8485C95.0408 68.929 95.3158 67.978 96.2354 67.4711C98.6874 66.1193 99.6502 62.7909 98.2984 60.3388L91.5395 48.0785C90.1877 45.6264 86.8593 44.6636 84.4072 46.0154C83.4877 46.5223 82.5367 46.2473 82.0298 45.3277C81.5229 44.4082 81.798 43.4572 82.7175 42.9503C87.0086 40.5847 92.239 42.0976 94.6046 46.3887L101.364 58.6491C103.729 62.9402 102.216 68.1705 97.9251 70.5362Z" fill="#004463"/>
</g>
<defs>
<clipPath id="clip0_264_2786">
<rect width="112" height="112" fill="white" transform="translate(0.922852 54.0713) rotate(-28.8672)"/>
</clipPath>
</defs>
</svg>
