<svg width="24" height="16" viewBox="0 0 24 16" fill="none" xmlns="http://www.w3.org/2000/svg">
<path d="M1.33333 9.33329C2.06971 9.33329 2.66667 8.73634 2.66667 7.99996C2.66667 7.26358 2.06971 6.66663 1.33333 6.66663C0.596954 6.66663 0 7.26358 0 7.99996C0 8.73634 0.596954 9.33329 1.33333 9.33329Z" fill="white"/>
<path d="M22.7473 6.66663H6.58732C5.89512 6.66663 5.33398 7.22776 5.33398 7.91996V8.07996C5.33398 8.77216 5.89512 9.33329 6.58732 9.33329H22.7473C23.4395 9.33329 24.0007 8.77216 24.0007 8.07996V7.91996C24.0007 7.22776 23.4395 6.66663 22.7473 6.66663Z" fill="white"/>
<path d="M22.7467 13.3334H1.25333C0.561136 13.3334 0 13.8945 0 14.5867V14.7467C0 15.4389 0.561136 16 1.25333 16H22.7467C23.4389 16 24 15.4389 24 14.7467V14.5867C24 13.8945 23.4389 13.3334 22.7467 13.3334Z" fill="white"/>
<path d="M22.7467 0H1.25333C0.561136 0 0 0.561137 0 1.25333V1.41333C0 2.10553 0.561136 2.66667 1.25333 2.66667H22.7467C23.4389 2.66667 24 2.10553 24 1.41333V1.25333C24 0.561137 23.4389 0 22.7467 0Z" fill="white"/>
</svg>
