<svg width="24" height="24" viewBox="0 0 24 24" fill="none" xmlns="http://www.w3.org/2000/svg">
<path d="M11.6464 6.72063L12 7.07418L12.3536 6.72063L17.5044 1.56978C17.5044 1.56976 17.5044 1.56974 17.5045 1.56972C18.1577 0.916668 19.0436 0.549803 19.9674 0.549803C20.8911 0.549803 21.7769 0.916648 22.4302 1.56967C23.0833 2.22296 23.4502 3.10889 23.4502 4.03263C23.4502 4.95638 23.0833 5.84231 22.4302 6.4956L22.4302 6.49561L17.2813 11.6465L16.9279 12L17.2813 12.3535L22.4302 17.5044L22.4302 17.5044C23.0833 18.1577 23.4502 19.0436 23.4502 19.9674C23.4502 20.8911 23.0833 21.777 22.4302 22.4303L22.4298 22.4307C21.7509 23.1114 20.8603 23.451 19.9674 23.451C19.0745 23.451 18.1838 23.1114 17.5049 22.4307L17.5045 22.4303L12.3536 17.2794L12 16.9258L11.6464 17.2794L6.49554 22.4303L6.49549 22.4302L6.48945 22.4365C6.16809 22.7692 5.78369 23.0346 5.35867 23.2172C4.93364 23.3997 4.47651 23.4958 4.01395 23.4999C3.55139 23.5039 3.09266 23.4157 2.66453 23.2406C2.2364 23.0654 1.84744 22.8067 1.52035 22.4797C1.19325 22.1526 0.93458 21.7636 0.759418 21.3355C0.584255 20.9073 0.496112 20.4486 0.500132 19.986C0.504151 19.5235 0.600253 19.0664 0.782829 18.6413C0.965406 18.2163 1.2308 17.8319 1.56353 17.5105L1.56358 17.5106L1.56979 17.5044L6.7187 12.3535L7.07205 12L6.7187 11.6465L1.56979 6.49561L1.56985 6.49556L1.56353 6.48945C1.2308 6.16809 0.965406 5.78369 0.782829 5.35867C0.600253 4.93364 0.504151 4.47651 0.500132 4.01395C0.496112 3.55139 0.584255 3.09266 0.759418 2.66453C0.93458 2.2364 1.19325 1.84744 1.52035 1.52035C1.84744 1.19325 2.2364 0.93458 2.66453 0.759418C3.09266 0.584255 3.55139 0.496112 4.01395 0.500132C4.47651 0.504151 4.93364 0.600253 5.35867 0.782829C5.78369 0.965406 6.16809 1.2308 6.48945 1.56353L6.4894 1.56358L6.49554 1.56972L11.6464 6.72063Z" stroke="#035A85"/>
</svg>
