<svg width="1440" height="1184" viewBox="0 0 1440 1184" fill="none" xmlns="http://www.w3.org/2000/svg">
<g opacity="0.2">
<path opacity="0.05" d="M1390.56 644.768L160.872 -128L-374 974.439L1390.56 644.768Z" stroke="url(#paint0_linear_450_1282)" stroke-opacity="0.8" stroke-width="2.39543"/>
<path opacity="0.08" d="M1378.38 620.439L114.318 -94.6931L-303.074 989.798L1378.38 620.439Z" stroke="url(#paint1_linear_450_1282)" stroke-opacity="0.8" stroke-width="2.39543"/>
<path opacity="0.11" d="M1363.69 597.122L72.717 -60.564L-232.095 1002.3L1363.69 597.122Z" stroke="url(#paint2_linear_450_1282)" stroke-opacity="0.8" stroke-width="2.39543"/>
<path opacity="0.13" d="M1346.66 574.898L36.0885 -25.8005L-161.413 1011.98L1346.66 574.898Z" stroke="url(#paint3_linear_450_1282)" stroke-opacity="0.8" stroke-width="2.39543"/>
<path opacity="0.16" d="M1327.46 553.834L4.43613 9.40181L-91.3599 1018.91L1327.46 553.834Z" stroke="url(#paint4_linear_450_1282)" stroke-opacity="0.8" stroke-width="2.39543"/>
<path opacity="0.19" d="M1306.26 533.994L-22.2608 44.8532V1023.13L1306.26 533.994Z" stroke="url(#paint5_linear_450_1282)" stroke-opacity="0.8" stroke-width="2.39543"/>
<path opacity="0.22" d="M1283.24 515.435L-44.0467 80.3661L45.5689 1024.74L1283.24 515.435Z" stroke="url(#paint6_linear_450_1282)" stroke-opacity="0.8" stroke-width="2.39543"/>
<path opacity="0.25" d="M1258.58 498.204L-60.986 115.754L111.828 1023.82L1258.58 498.204Z" stroke="url(#paint7_linear_450_1282)" stroke-opacity="0.8" stroke-width="2.39543"/>
<path opacity="0.27" d="M1232.48 482.344L-73.1688 150.837L176.223 1020.45L1232.48 482.344Z" stroke="url(#paint8_linear_450_1282)" stroke-opacity="0.8" stroke-width="2.39543"/>
<path opacity="0.3" d="M1205.11 467.89L-80.7035 185.439L238.478 1014.76L1205.11 467.89Z" stroke="url(#paint9_linear_450_1282)" stroke-opacity="0.8" stroke-width="2.39543"/>
<path opacity="0.33" d="M1176.69 454.87L-83.715 219.391L298.337 1006.85L1176.69 454.87Z" stroke="url(#paint10_linear_450_1282)" stroke-opacity="0.8" stroke-width="2.39543"/>
<path opacity="0.36" d="M1147.4 443.302L-82.3512 252.525L355.553 996.845L1147.4 443.302Z" stroke="url(#paint11_linear_450_1282)" stroke-opacity="0.8" stroke-width="2.39543"/>
<path opacity="0.39" d="M1117.44 433.201L-76.7804 284.688L409.899 984.888L1117.44 433.201Z" stroke="url(#paint12_linear_450_1282)" stroke-opacity="0.8" stroke-width="2.39543"/>
<path opacity="0.41" d="M1087.01 424.571L-67.1841 315.726L461.166 971.109L1087.01 424.571Z" stroke="url(#paint13_linear_450_1282)" stroke-opacity="0.8" stroke-width="2.39543"/>
<path opacity="0.44" d="M1056.3 417.41L-53.7646 345.499L509.162 955.658L1056.3 417.41Z" stroke="url(#paint14_linear_450_1282)" stroke-opacity="0.8" stroke-width="2.39543"/>
<path opacity="0.47" d="M1025.51 411.71L-36.7375 373.874L553.716 938.685L1025.51 411.71Z" stroke="url(#paint15_linear_450_1282)" stroke-opacity="0.8" stroke-width="2.39543"/>
<path opacity="0.5" d="M994.827 407.452L-16.3321 400.726L594.678 920.348L994.827 407.452Z" stroke="url(#paint16_linear_450_1282)" stroke-opacity="0.8" stroke-width="2.39543"/>
<path opacity="0.53" d="M964.439 404.615L7.20751 425.94L631.915 900.808L964.439 404.615Z" stroke="url(#paint17_linear_450_1282)" stroke-opacity="0.8" stroke-width="2.39543"/>
<path opacity="0.55" d="M934.528 403.168L33.6242 449.411L665.318 880.229L934.528 403.168Z" stroke="url(#paint18_linear_450_1282)" stroke-opacity="0.8" stroke-width="2.39543"/>
<path opacity="0.58" d="M905.276 403.074L62.652 471.046L694.797 858.781L905.276 403.074Z" stroke="url(#paint19_linear_450_1282)" stroke-opacity="0.8" stroke-width="2.39543"/>
<path opacity="0.61" d="M876.852 404.291L94.0138 490.759L720.284 836.634L876.852 404.291Z" stroke="url(#paint20_linear_450_1282)" stroke-opacity="0.8" stroke-width="2.39543"/>
<path opacity="0.64" d="M849.422 406.767L127.423 508.479L741.732 813.958L849.422 406.767Z" stroke="url(#paint21_linear_450_1282)" stroke-opacity="0.8" stroke-width="2.39543"/>
<path opacity="0.66" d="M823.147 410.45L162.588 524.145L759.117 790.928L823.147 410.45Z" stroke="url(#paint22_linear_450_1282)" stroke-opacity="0.8" stroke-width="2.39543"/>
<path opacity="0.69" d="M798.177 415.278L199.211 537.708L772.435 767.716L798.177 415.278Z" stroke="url(#paint23_linear_450_1282)" stroke-opacity="0.8" stroke-width="2.39543"/>
<path opacity="0.72" d="M774.655 421.18L236.99 549.124L781.706 744.488L774.655 421.18Z" stroke="url(#paint24_linear_450_1282)" stroke-opacity="0.8" stroke-width="2.39543"/>
<path opacity="0.75" d="M752.71 428.092L275.616 558.373L786.964 721.42L752.71 428.092Z" stroke="url(#paint25_linear_450_1282)" stroke-opacity="0.8" stroke-width="2.39543"/>
<path opacity="0.78" d="M732.471 435.933L314.786 565.436L788.274 698.675L732.471 435.933Z" stroke="url(#paint26_linear_450_1282)" stroke-opacity="0.8" stroke-width="2.39543"/>
<path opacity="0.8" d="M714.048 444.624L354.19 570.311L785.715 676.418L714.048 444.624Z" stroke="url(#paint27_linear_450_1282)" stroke-opacity="0.8" stroke-width="2.39543"/>
<path opacity="0.83" d="M697.546 454.081L393.523 573.008L779.389 654.811L697.546 454.081Z" stroke="url(#paint28_linear_450_1282)" stroke-opacity="0.8" stroke-width="2.39543"/>
<path opacity="0.86" d="M683.054 464.214L432.481 573.544L769.414 634.005L683.054 464.214Z" stroke="url(#paint29_linear_450_1282)" stroke-opacity="0.8" stroke-width="2.39543"/>
<path opacity="0.89" d="M670.654 474.936L470.763 571.954L755.93 614.154L670.654 474.936Z" stroke="url(#paint30_linear_450_1282)" stroke-opacity="0.8" stroke-width="2.39543"/>
<path opacity="0.92" d="M660.414 486.149L508.076 568.279L739.096 595.399L660.414 486.149Z" stroke="url(#paint31_linear_450_1282)" stroke-opacity="0.8" stroke-width="2.39543"/>
<path opacity="0.94" d="M652.393 497.762L544.132 562.578L719.088 577.881L652.393 497.762Z" stroke="url(#paint32_linear_450_1282)" stroke-opacity="0.8" stroke-width="2.39543"/>
<path opacity="0.97" d="M646.629 509.673L578.649 554.91L696.093 561.727L646.629 509.673Z" stroke="url(#paint33_linear_450_1282)" stroke-opacity="0.8" stroke-width="2.39543"/>
<path d="M643.16 521.783L611.36 545.353L670.325 547.06L643.16 521.783Z" stroke="url(#paint34_linear_450_1282)" stroke-opacity="0.8" stroke-width="2.39543"/>
</g>
<defs>
<linearGradient id="paint0_linear_450_1282" x1="1390.56" y1="644.768" x2="91.6911" y2="14.5911" gradientUnits="userSpaceOnUse">
<stop stop-color="#1F89DB"/>
<stop offset="1" stop-color="#03FFE0"/>
</linearGradient>
<linearGradient id="paint1_linear_450_1282" x1="1378.38" y1="620.439" x2="37.6769" y2="104.44" gradientUnits="userSpaceOnUse">
<stop stop-color="#1F89DB"/>
<stop offset="1" stop-color="#03FFE0"/>
</linearGradient>
<linearGradient id="paint2_linear_450_1282" x1="1363.69" y1="597.122" x2="-3.45569" y2="205.045" gradientUnits="userSpaceOnUse">
<stop stop-color="#1F89DB"/>
<stop offset="1" stop-color="#03FFE0"/>
</linearGradient>
<linearGradient id="paint3_linear_450_1282" x1="1346.66" y1="574.898" x2="-28.4276" y2="313.203" gradientUnits="userSpaceOnUse">
<stop stop-color="#1F89DB"/>
<stop offset="1" stop-color="#03FFE0"/>
</linearGradient>
<linearGradient id="paint4_linear_450_1282" x1="1327.46" y1="553.834" x2="-34.9588" y2="424.549" gradientUnits="userSpaceOnUse">
<stop stop-color="#1F89DB"/>
<stop offset="1" stop-color="#03FFE0"/>
</linearGradient>
<linearGradient id="paint5_linear_450_1282" x1="1306.26" y1="533.994" x2="-22.2609" y2="533.994" gradientUnits="userSpaceOnUse">
<stop stop-color="#1F89DB"/>
<stop offset="1" stop-color="#03FFE0"/>
</linearGradient>
<linearGradient id="paint6_linear_450_1282" x1="1283.24" y1="515.435" x2="8.71561" y2="636.379" gradientUnits="userSpaceOnUse">
<stop stop-color="#1F89DB"/>
<stop offset="1" stop-color="#03FFE0"/>
</linearGradient>
<linearGradient id="paint7_linear_450_1282" x1="1258.58" y1="498.204" x2="55.3762" y2="727.187" gradientUnits="userSpaceOnUse">
<stop stop-color="#1F89DB"/>
<stop offset="1" stop-color="#03FFE0"/>
</linearGradient>
<linearGradient id="paint8_linear_450_1282" x1="1232.48" y1="482.344" x2="113.9" y2="803.134" gradientUnits="userSpaceOnUse">
<stop stop-color="#1F89DB"/>
<stop offset="1" stop-color="#03FFE0"/>
</linearGradient>
<linearGradient id="paint9_linear_450_1282" x1="1205.11" y1="467.89" x2="179.87" y2="862.478" gradientUnits="userSpaceOnUse">
<stop stop-color="#1F89DB"/>
<stop offset="1" stop-color="#03FFE0"/>
</linearGradient>
<linearGradient id="paint10_linear_450_1282" x1="1176.69" y1="454.87" x2="248.922" y2="904.997" gradientUnits="userSpaceOnUse">
<stop stop-color="#1F89DB"/>
<stop offset="1" stop-color="#03FFE0"/>
</linearGradient>
<linearGradient id="paint11_linear_450_1282" x1="1147.4" y1="443.302" x2="317.233" y2="931.712" gradientUnits="userSpaceOnUse">
<stop stop-color="#1F89DB"/>
<stop offset="1" stop-color="#03FFE0"/>
</linearGradient>
<linearGradient id="paint12_linear_450_1282" x1="1117.44" y1="433.201" x2="381.825" y2="944.497" gradientUnits="userSpaceOnUse">
<stop stop-color="#1F89DB"/>
<stop offset="1" stop-color="#03FFE0"/>
</linearGradient>
<linearGradient id="paint13_linear_450_1282" x1="1087.01" y1="424.571" x2="440.644" y2="945.652" gradientUnits="userSpaceOnUse">
<stop stop-color="#1F89DB"/>
<stop offset="1" stop-color="#03FFE0"/>
</linearGradient>
<linearGradient id="paint14_linear_450_1282" x1="1056.3" y1="417.41" x2="492.486" y2="937.582" gradientUnits="userSpaceOnUse">
<stop stop-color="#1F89DB"/>
<stop offset="1" stop-color="#03FFE0"/>
</linearGradient>
<linearGradient id="paint15_linear_450_1282" x1="1025.51" y1="411.71" x2="536.852" y2="922.554" gradientUnits="userSpaceOnUse">
<stop stop-color="#1F89DB"/>
<stop offset="1" stop-color="#03FFE0"/>
</linearGradient>
<linearGradient id="paint16_linear_450_1282" x1="994.827" y1="407.452" x2="573.767" y2="902.565" gradientUnits="userSpaceOnUse">
<stop stop-color="#1F89DB"/>
<stop offset="1" stop-color="#03FFE0"/>
</linearGradient>
<linearGradient id="paint17_linear_450_1282" x1="964.439" y1="404.615" x2="603.614" y2="879.295" gradientUnits="userSpaceOnUse">
<stop stop-color="#1F89DB"/>
<stop offset="1" stop-color="#03FFE0"/>
</linearGradient>
<linearGradient id="paint18_linear_450_1282" x1="934.528" y1="403.168" x2="626.995" y2="854.093" gradientUnits="userSpaceOnUse">
<stop stop-color="#1F89DB"/>
<stop offset="1" stop-color="#03FFE0"/>
</linearGradient>
<linearGradient id="paint19_linear_450_1282" x1="905.276" y1="403.074" x2="644.633" y2="828.013" gradientUnits="userSpaceOnUse">
<stop stop-color="#1F89DB"/>
<stop offset="1" stop-color="#03FFE0"/>
</linearGradient>
<linearGradient id="paint20_linear_450_1282" x1="876.852" y1="404.291" x2="657.292" y2="801.845" gradientUnits="userSpaceOnUse">
<stop stop-color="#1F89DB"/>
<stop offset="1" stop-color="#03FFE0"/>
</linearGradient>
<linearGradient id="paint21_linear_450_1282" x1="849.422" y1="406.767" x2="665.731" y2="776.165" gradientUnits="userSpaceOnUse">
<stop stop-color="#1F89DB"/>
<stop offset="1" stop-color="#03FFE0"/>
</linearGradient>
<linearGradient id="paint22_linear_450_1282" x1="823.147" y1="410.45" x2="670.677" y2="751.375" gradientUnits="userSpaceOnUse">
<stop stop-color="#1F89DB"/>
<stop offset="1" stop-color="#03FFE0"/>
</linearGradient>
<linearGradient id="paint23_linear_450_1282" x1="798.177" y1="415.278" x2="672.801" y2="727.737" gradientUnits="userSpaceOnUse">
<stop stop-color="#1F89DB"/>
<stop offset="1" stop-color="#03FFE0"/>
</linearGradient>
<linearGradient id="paint24_linear_450_1282" x1="774.655" y1="421.18" x2="672.719" y2="705.399" gradientUnits="userSpaceOnUse">
<stop stop-color="#1F89DB"/>
<stop offset="1" stop-color="#03FFE0"/>
</linearGradient>
<linearGradient id="paint25_linear_450_1282" x1="752.71" y1="428.092" x2="670.973" y2="684.435" gradientUnits="userSpaceOnUse">
<stop stop-color="#1F89DB"/>
<stop offset="1" stop-color="#03FFE0"/>
</linearGradient>
<linearGradient id="paint26_linear_450_1282" x1="732.471" y1="435.933" x2="668.055" y2="664.845" gradientUnits="userSpaceOnUse">
<stop stop-color="#1F89DB"/>
<stop offset="1" stop-color="#03FFE0"/>
</linearGradient>
<linearGradient id="paint27_linear_450_1282" x1="714.048" y1="444.624" x2="664.387" y2="646.585" gradientUnits="userSpaceOnUse">
<stop stop-color="#1F89DB"/>
<stop offset="1" stop-color="#03FFE0"/>
</linearGradient>
<linearGradient id="paint28_linear_450_1282" x1="697.546" y1="454.081" x2="660.342" y2="629.573" gradientUnits="userSpaceOnUse">
<stop stop-color="#1F89DB"/>
<stop offset="1" stop-color="#03FFE0"/>
</linearGradient>
<linearGradient id="paint29_linear_450_1282" x1="683.054" y1="464.214" x2="656.231" y2="613.694" gradientUnits="userSpaceOnUse">
<stop stop-color="#1F89DB"/>
<stop offset="1" stop-color="#03FFE0"/>
</linearGradient>
<linearGradient id="paint30_linear_450_1282" x1="670.654" y1="474.936" x2="652.321" y2="598.822" gradientUnits="userSpaceOnUse">
<stop stop-color="#1F89DB"/>
<stop offset="1" stop-color="#03FFE0"/>
</linearGradient>
<linearGradient id="paint31_linear_450_1282" x1="660.414" y1="486.149" x2="648.833" y2="584.803" gradientUnits="userSpaceOnUse">
<stop stop-color="#1F89DB"/>
<stop offset="1" stop-color="#03FFE0"/>
</linearGradient>
<linearGradient id="paint32_linear_450_1282" x1="652.393" y1="497.762" x2="645.944" y2="571.483" gradientUnits="userSpaceOnUse">
<stop stop-color="#1F89DB"/>
<stop offset="1" stop-color="#03FFE0"/>
</linearGradient>
<linearGradient id="paint33_linear_450_1282" x1="646.629" y1="509.673" x2="643.784" y2="558.691" gradientUnits="userSpaceOnUse">
<stop stop-color="#1F89DB"/>
<stop offset="1" stop-color="#03FFE0"/>
</linearGradient>
<linearGradient id="paint34_linear_450_1282" x1="643.16" y1="521.783" x2="642.452" y2="546.253" gradientUnits="userSpaceOnUse">
<stop stop-color="#1F89DB"/>
<stop offset="1" stop-color="#03FFE0"/>
</linearGradient>
</defs>
</svg>
