<svg width="22" height="22" viewBox="0 0 22 22" fill="none" xmlns="http://www.w3.org/2000/svg">
<path d="M13.153 3.80005C12.6542 3.70792 12.1961 4.0262 12.1012 4.51306C12.0062 4.99991 12.3255 5.47525 12.8107 5.57053C14.2715 5.85531 15.3995 6.98607 15.6854 8.45187V8.45292C15.7667 8.87486 16.1382 9.18163 16.566 9.18163C16.6234 9.18163 16.6808 9.17639 16.7392 9.16592C17.2244 9.06855 17.5437 8.59426 17.4487 8.10636C17.022 5.91708 15.3368 4.22618 13.153 3.80005Z" fill="#0093FF"/>
<path d="M13.0864 0.150886C12.8527 0.117382 12.6179 0.186484 12.4311 0.335158C12.2391 0.485926 12.1192 0.703702 12.0931 0.947653C12.0378 1.44079 12.3936 1.88681 12.8861 1.9423C16.2824 2.32132 18.9223 4.96708 19.3042 8.37402C19.3553 8.83051 19.7382 9.17497 20.1953 9.17497C20.2297 9.17497 20.2631 9.17288 20.2975 9.16869C20.5365 9.14252 20.7493 9.02421 20.8996 8.83575C21.0488 8.64729 21.1166 8.41276 21.0895 8.17299C20.6137 3.92218 17.3238 0.623083 13.0864 0.150886Z" fill="#0093FF"/>
<path fill-rule="evenodd" clip-rule="evenodd" d="M9.60579 11.6372C13.7852 15.8155 14.7334 10.9817 17.3944 13.6409C19.9599 16.2057 21.4344 16.7195 18.184 19.969C17.7768 20.2962 15.19 24.2327 6.09893 15.1442C-2.99326 6.05457 0.940993 3.46507 1.26828 3.05804C4.52658 -0.200471 5.03158 1.28261 7.59705 3.84737C10.2581 6.5077 5.42635 7.45894 9.60579 11.6372Z" fill="white"/>
</svg>
