<svg width="64" height="64" viewBox="0 0 64 64" fill="none" xmlns="http://www.w3.org/2000/svg">
<circle cx="32" cy="32" r="32" fill="url(#paint0_linear_265_3307)"/>
<path d="M30.6 31.1992C31 31.5408 31.4 31.7117 32 31.7117C32.6 31.7117 33 31.5408 33.4 31.1992L39.4 26.0747C40.2 25.3914 40.2 24.3665 39.4 23.6833C38.6 23 37.4 23 36.6 23.6833L32 27.4412L27.4 23.5125C26.6 22.8292 25.4 22.8292 24.6 23.5125C23.8 24.1957 23.8 25.2206 24.6 25.9039L30.6 31.1992ZM36.6 32.9074L32 36.8362L27.4 32.9074C26.6 32.2241 25.4 32.2241 24.6 32.9074C23.8 33.5906 23.8 34.6155 24.6 35.2988L30.6 40.4233C31 40.765 31.4 40.9358 32 40.9358C32.6 40.9358 33 40.765 33.4 40.4233L39.4 35.2988C40.2 34.6155 40.2 33.5906 39.4 32.9074C38.6 32.3949 37.4 32.3949 36.6 32.9074Z" fill="white"/>
<defs>
<linearGradient id="paint0_linear_265_3307" x1="-1.79439" y1="-7.73954" x2="87.9613" y2="42.1281" gradientUnits="userSpaceOnUse">
<stop offset="0.385417" stop-color="#76B9DA"/>
<stop offset="1" stop-color="#2E7093"/>
</linearGradient>
</defs>
</svg>
