<svg width="558" height="515" viewBox="0 0 558 515" fill="none" xmlns="http://www.w3.org/2000/svg">
<path d="M193.093 54.7L198.916 56.0349L215.871 42.2008L218.68 31.2791C218.68 31.2791 227.799 32.8203 223.066 46.9578C218.334 61.0953 220.411 57.6974 220.411 57.6974C220.411 57.6974 239.483 62.0661 240.637 64.0077C241.509 65.4033 237.443 83.424 235.148 93.2293C233.993 98.1561 229.658 101.979 224.554 102.039C223.838 102.051 223.123 101.982 222.425 101.833C217.667 100.741 194.286 91.5061 194.286 91.5061L184.244 89.2125L193.093 54.7Z" fill="#EBEBEB"/>
<path d="M177.228 47.88L171.175 86.3243L181.127 88.6057L190.567 51.7269L177.228 47.88Z" fill="#EBEBEB"/>
<path d="M264.005 22.1898L267.852 20.9763L272.2 7.38487L269.635 0.225109C269.635 0.225109 275.381 -2.00777 278.074 7.59117C280.767 17.1901 280.639 14.5689 280.639 14.5689C280.639 14.5689 293.105 10.6007 294.516 11.2924C295.529 11.7899 300.095 23.4276 302.506 29.7015C303.135 31.2073 303.215 32.8684 302.734 34.4222C302.254 35.976 301.239 37.3338 299.851 38.2811C299.453 38.5342 299.022 38.7381 298.569 38.8878C295.452 39.8829 278.728 42.6133 278.728 42.6133L272.123 44.737L264.005 22.1898Z" fill="#E0E0E0"/>
<path d="M252.423 23.7309L263.607 47.5402L270.109 45.4408L261.44 21.3767L252.423 23.7309Z" fill="#E0E0E0"/>
<path d="M386.141 452.649L365.107 509.733H375.624L412.432 452.649H386.141Z" fill="#EBEBEB"/>
<path d="M506.801 452.649L527.835 509.733H517.318L480.509 452.649H506.801Z" fill="#EBEBEB"/>
<path d="M556.833 295.074H388.77V454.093H556.833V295.074Z" fill="#EBEBEB"/>
<path d="M504.185 295.074H336.122V454.093H504.185V295.074Z" fill="#F5F5F5"/>
<path d="M492.629 443.875H347.703V306.748H492.629V443.875ZM348.985 442.662H491.346V307.961H348.985V442.662Z" fill="#E0E0E0"/>
<path d="M349.139 349.901C372.905 350.556 396.786 349.901 420.564 349.973C444.342 350.046 468.197 350.313 491.988 349.973C492.076 349.973 492.161 349.94 492.224 349.881C492.286 349.822 492.321 349.742 492.321 349.658C492.321 349.574 492.286 349.494 492.224 349.435C492.161 349.376 492.076 349.342 491.988 349.342C468.197 348.966 444.368 349.342 420.564 349.342C396.76 349.342 372.905 348.772 349.139 349.427C349.07 349.441 349.008 349.477 348.963 349.529C348.918 349.581 348.894 349.646 348.894 349.713C348.894 349.779 348.918 349.844 348.963 349.896C349.008 349.948 349.07 349.984 349.139 349.998V349.901Z" fill="#E0E0E0"/>
<path d="M424.232 329.611C424.232 330.376 423.992 331.125 423.542 331.761C423.093 332.398 422.454 332.894 421.706 333.187C420.959 333.48 420.136 333.557 419.342 333.407C418.549 333.258 417.82 332.889 417.248 332.348C416.675 331.807 416.286 331.117 416.128 330.366C415.97 329.615 416.051 328.837 416.361 328.129C416.67 327.422 417.195 326.817 417.868 326.392C418.54 325.967 419.331 325.74 420.141 325.74C421.226 325.74 422.266 326.147 423.034 326.873C423.801 327.599 424.232 328.584 424.232 329.611Z" fill="#EBEBEB"/>
<path d="M365.312 391.719C365.312 392.484 365.072 393.233 364.622 393.869C364.173 394.506 363.534 395.002 362.786 395.295C362.039 395.588 361.216 395.665 360.423 395.515C359.629 395.366 358.9 394.997 358.328 394.456C357.756 393.914 357.366 393.225 357.208 392.474C357.05 391.723 357.131 390.944 357.441 390.237C357.75 389.53 358.275 388.925 358.948 388.5C359.621 388.074 360.411 387.847 361.221 387.847C362.306 387.847 363.346 388.255 364.114 388.981C364.881 389.707 365.312 390.692 365.312 391.719Z" fill="#EBEBEB"/>
<path d="M497.015 253.79L514.586 296.299L503.672 296.251L494.912 270.124L497.015 253.79Z" fill="#E0E0E0"/>
<path d="M437.044 214.508L431.016 295.96L493.335 297.197L500.35 214.508H437.044Z" fill="#EBEBEB"/>
<path d="M443.277 221.061L438.25 288.873L484.588 290.924L491.065 220.661L443.277 221.061Z" fill="#FAFAFA"/>
<path d="M453.448 230.648L449.69 278.315H475.251L479.765 230.648H453.448Z" fill="#E0E0E0"/>
<path d="M120.002 12.3481H9.93457V120.91H120.002V12.3481Z" fill="#E0E0E0"/>
<path d="M112.55 12.3481H2.48315V120.91H112.55V12.3481Z" fill="#EBEBEB"/>
<path d="M97.7625 26.9468H17.2834V106.323H97.7625V26.9468Z" fill="#FAFAFA"/>
<path d="M17.2836 106.845C16.6934 107.644 16.0187 108.384 15.2701 109.053C13.9875 110.267 12.1663 112.063 10.1399 113.908C8.11353 115.752 6.29233 117.487 4.89437 118.689C4.19446 119.377 3.42561 119.998 2.59863 120.545C3.1971 119.757 3.88523 119.032 4.65069 118.385C5.93322 117.111 7.75442 115.364 9.78082 113.531C11.8072 111.699 13.6284 109.891 15.0392 108.75C15.7196 108.047 16.4714 107.409 17.2836 106.845V106.845Z" fill="#E0E0E0"/>
<path d="M97.7498 106.626C98.5762 107.188 99.3411 107.826 100.033 108.532C101.315 109.745 103.213 111.468 105.163 113.386C107.112 115.303 108.933 117.026 110.203 118.349C110.938 119.004 111.596 119.732 112.165 120.521C111.342 119.966 110.581 119.331 109.895 118.628C108.613 117.415 106.715 115.691 104.765 113.774C102.816 111.857 100.918 110.134 99.712 108.811C98.9882 108.141 98.3313 107.41 97.7498 106.626V106.626Z" fill="#E0E0E0"/>
<path d="M97.5317 27.1531C98.1328 26.3735 98.8113 25.6501 99.5581 24.993C100.841 23.7795 102.662 21.9835 104.688 20.1389C106.715 18.2944 108.536 16.5712 109.934 15.3698C110.64 14.6844 111.408 14.059 112.23 13.501C111.638 14.2695 110.963 14.9772 110.216 15.6125C108.933 16.8867 107.112 18.622 105.086 20.4666C103.059 22.3111 101.238 24.1071 99.8275 25.2478C99.1378 25.9601 98.368 26.599 97.5317 27.1531V27.1531Z" fill="#E0E0E0"/>
<path d="M17.0656 27.3473C16.2391 26.7862 15.4743 26.1479 14.7827 25.4421C13.5001 24.2286 11.602 22.5175 9.65254 20.588C7.70309 18.6585 5.88189 16.9474 4.61218 15.6247C3.87826 14.9643 3.22048 14.2321 2.6499 13.4404C3.46546 14.0052 4.22526 14.6389 4.91999 15.3335C6.20252 16.547 8.10067 18.2823 10.0501 20.1875C11.9996 22.0928 13.8336 23.8281 15.1033 25.163C15.8337 25.8265 16.4912 26.5583 17.0656 27.3473V27.3473Z" fill="#E0E0E0"/>
<path d="M97.5318 106.323C97.5318 106.323 97.5318 106.19 97.5318 105.935C97.5318 105.68 97.5318 105.304 97.5318 104.83C97.5318 103.848 97.5318 102.403 97.5318 100.547C97.5318 96.797 97.5318 91.324 97.4548 84.3827C97.4548 70.4757 97.3779 50.6711 97.3266 26.9468L97.5831 27.1895H17.3349L17.6299 26.9104C17.6299 56.0349 17.6299 83.3026 17.6299 106.287L17.3734 106.032L75.4978 106.165H91.8117H96.121H97.2368H97.6216H96.0954H91.8245H75.5748L17.2836 106.626H17.0271V106.384C17.0271 83.3997 17.0271 56.1441 17.0271 27.0075V26.6556H17.3349H97.5831H97.8524V26.9104C97.8524 50.6954 97.7498 70.5971 97.7113 84.504C97.7113 91.4211 97.7113 96.8698 97.7113 100.62C97.7113 102.452 97.7113 103.872 97.7113 104.843C97.7113 105.316 97.7113 105.668 97.7113 105.923C97.7113 106.177 97.5318 106.323 97.5318 106.323Z" fill="#E0E0E0"/>
<path d="M38.5223 60.1002C38.5223 60.1002 36.7908 79.7592 59.2865 79.7592C59.2865 69.2744 50.142 60.9861 38.5223 60.1002Z" fill="#EBEBEB"/>
<path d="M79.6788 60.1123C79.6788 60.1123 58.9146 58.4862 58.9146 79.7713C70.0598 79.7713 78.7425 71.1189 79.6788 60.1123Z" fill="#EBEBEB"/>
<path d="M58.2991 49.3605C58.2991 49.3605 41.3312 63.7771 59.2226 79.6984C67.4949 71.4344 66.8408 58.3284 58.2991 49.3605Z" fill="#E0E0E0"/>
<path d="M558 512.136C558 512.318 433.209 512.451 279.305 512.451C125.401 512.451 0.597656 512.318 0.597656 512.136C0.597656 511.954 125.35 511.82 279.305 511.82C433.261 511.82 558 511.942 558 512.136Z" fill="#263238"/>
<path d="M375.931 135.399L387.243 116.529C380.228 105.78 377.716 92.9371 380.2 80.5246C382.685 68.1122 389.986 57.0279 400.67 49.4505C411.353 41.8731 424.645 38.3507 437.934 39.5756C451.222 40.8005 463.546 46.6842 472.483 56.0701C481.42 65.456 486.323 77.6652 486.228 90.298C486.134 102.931 481.049 115.073 471.974 124.339C462.898 133.605 450.487 139.323 437.182 140.37C423.876 141.418 410.638 137.718 400.069 129.999V129.999L375.931 135.399Z" fill="#FAFAFA"/>
<path d="M375.931 135.399L400.03 129.877L399.94 130.12L399.171 129.174L400.171 129.902C403.552 132.352 407.224 134.421 411.111 136.066C415.738 137.996 420.63 139.296 425.642 139.925C428.417 140.285 431.219 140.411 434.017 140.302C435.454 140.217 436.929 140.18 438.403 140.059L442.867 139.404C456.147 136.904 467.925 129.72 475.815 119.308C480.194 113.548 483.225 106.969 484.703 100.013C486.218 92.6599 485.999 85.0811 484.062 77.8175C482.079 70.2214 478.21 63.1824 472.775 57.2848L470.621 55.0519C469.915 54.2874 469.069 53.6685 468.299 52.9768C467.541 52.2828 466.744 51.6266 465.914 51.0109L463.349 49.2149C462.532 48.6165 461.675 48.0692 460.784 47.5766L458.103 46.0355L455.256 44.737C454.34 44.2831 453.398 43.878 452.434 43.5235C444.928 40.7133 436.85 39.5355 428.797 40.0771C421.18 40.5661 413.771 42.6378 407.097 46.1447C400.875 49.4008 395.407 53.8036 391.014 59.0929C386.987 63.9228 383.919 69.4035 381.959 75.2691C380.312 80.5502 379.521 86.0369 379.612 91.5424C379.747 96.327 380.611 101.068 382.177 105.619C383.473 109.409 385.233 113.042 387.423 116.444V116.517V116.602L375.97 135.387L387.153 116.444V116.602C384.921 113.172 383.122 109.506 381.792 105.68C380.223 101.096 379.36 96.3226 379.227 91.506C379.11 85.9499 379.889 80.4093 381.536 75.075C385.682 62.5415 394.747 51.9881 406.866 45.5865C413.623 42.0368 421.124 39.9403 428.836 39.4461C436.983 38.8884 445.159 40.0747 452.755 42.9167C453.736 43.2612 454.691 43.6666 455.615 44.1302L458.449 45.4287L461.156 46.982C462.075 47.5009 462.958 48.0765 463.798 48.7052L466.363 50.5134C467.202 51.1413 468.007 51.8096 468.774 52.5157C469.593 53.1735 470.376 53.8701 471.121 54.6029L473.301 56.8722C478.811 62.8352 482.733 69.9585 484.741 77.6476C486.707 84.9985 486.922 92.6709 485.37 100.11C483.884 107.142 480.822 113.792 476.392 119.611C468.403 130.13 456.479 137.377 443.046 139.877L438.532 140.52C437.044 140.641 435.556 140.666 434.107 140.751C431.283 140.852 428.454 140.718 425.655 140.35C420.604 139.691 415.678 138.359 411.021 136.394C407.116 134.719 403.432 132.618 400.043 130.132L400.287 129.914L400.44 130.108H400.197L375.931 135.399Z" fill="#263238"/>
<path d="M409.56 88.5451C409.56 82.9871 414.138 78.8369 420.384 78.8369C426.63 78.8369 431.196 82.9265 431.196 88.5451C431.196 94.1637 426.592 98.2532 420.384 98.2532C414.177 98.2532 409.56 94.103 409.56 88.5451ZM426.566 88.5451C426.538 87.3913 426.151 86.2711 425.453 85.3246C424.755 84.3782 423.778 83.6478 422.643 83.2249C421.508 82.8021 420.266 82.7056 419.074 82.9476C417.881 83.1896 416.791 83.7593 415.939 84.5853C415.087 85.4113 414.512 86.4568 414.286 87.5907C414.06 88.7247 414.192 89.8967 414.667 90.9597C415.141 92.0228 415.937 92.9296 416.954 93.5664C417.971 94.2033 419.165 94.5419 420.384 94.5399C421.218 94.5661 422.049 94.4282 422.824 94.1347C423.599 93.8413 424.301 93.3988 424.886 92.8352C425.471 92.2717 425.925 91.5994 426.221 90.8609C426.517 90.1224 426.648 89.3338 426.604 88.5451H426.566Z" fill="#263238"/>
<path d="M441.841 90.5596L439.186 93.1687V97.9014H434.646V79.201H439.186V87.9384L447.946 79.201H453.076L444.893 87.5379L453.563 97.9014H448.228L441.841 90.5596Z" fill="#263238"/>
<path d="M339.11 165.276C335.737 173.224 335.84 189.655 341.445 196.366C344.369 199.873 348.345 202.676 350.422 206.693C353.141 211.96 351.974 218.513 348.563 223.403C345.151 228.294 339.777 231.716 334.121 234.119C327.824 236.813 320.116 238.293 314.242 234.847C309.753 232.226 307.38 227.311 305.944 222.505C301.917 209.06 303.379 194.594 307.56 181.149C311.741 167.703 318.551 155.167 325.285 142.765" fill="#263238"/>
<path d="M357.81 276.713L387.872 259.348C387.872 259.348 365.043 217.736 361.606 216.232C358.169 214.727 312.087 208.307 312.087 208.307C298.069 229.156 280.524 224.01 262.838 210.103C261.26 210.407 233.429 216.401 226.157 217.299C218.885 218.197 197.942 249.773 197.942 249.773L221.694 289.079L223.49 329.805C223.49 329.805 224.772 358.771 219.758 373.722L345.805 377.593C344.427 371.382 343.459 365.096 342.906 358.771C342.432 353.711 340.983 348.663 342.073 342.158C345.523 321.504 357.81 276.713 357.81 276.713Z" fill="#135176"/>
<path d="M212.704 229.604C214.602 235.599 230.659 244.482 236.302 241.157C238.085 240.101 239.624 238.524 241.689 238.148C244.254 237.662 246.729 239.215 249.23 240.004C255.104 241.837 262.633 239.786 266.865 244.045C268.956 246.145 270.277 249.712 273.278 249.627C274.357 249.458 275.415 249.181 276.433 248.802C279.831 248.001 283.128 250.465 286.629 250.695C288.464 250.711 290.288 250.42 292.016 249.834L317.153 242.868C318.974 242.358 321.001 241.655 321.783 240.028C318.771 240.924 315.523 240.795 312.6 239.664C311.045 238.852 309.408 238.189 307.714 237.686C303.276 236.825 299.236 240.113 294.824 241.145C290.182 242.176 285.398 240.538 280.947 238.912L258.157 230.624C251.872 228.342 245.434 225.964 240.445 221.704C238.854 220.357 232.891 223.197 231.031 222.226C228.868 220.842 226.803 219.326 224.849 217.688C224.464 217.421 221.002 220.369 219.475 221.923C217.949 223.476 212.704 229.604 212.704 229.604Z" fill="#FAFAFA"/>
<path d="M223.554 329.805C229.146 327.572 238.739 324.053 244.703 322.997C249.095 322.091 253.614 321.878 258.08 322.366C260.298 322.669 262.594 323.239 264.749 322.633C266.903 322.026 268.353 320.545 270.251 319.66C275.702 317.123 282.217 320.278 288.206 319.538C289.721 319.441 291.143 318.814 292.195 317.779C292.691 317.246 292.958 316.557 292.944 315.847C292.93 315.137 292.635 314.458 292.118 313.944C291.408 313.471 290.562 313.217 289.694 313.216C286.823 313.03 283.941 313.062 281.075 313.313L276.445 313.592C274.525 313.81 272.579 313.728 270.687 313.349C268.88 312.735 267.126 311.989 265.441 311.116C259.259 308.544 252.167 309.697 245.485 310.582C242.172 311.197 238.768 311.23 235.443 310.68C234.337 310.334 233.183 310.146 232.018 310.121C230.056 310.231 228.402 311.602 226.465 311.905C224.528 312.209 224.413 308.702 222.617 308.265L223.554 329.805Z" fill="#FAFAFA"/>
<path d="M346.202 275.233C345.516 275.657 344.756 275.965 343.958 276.143C340.328 276.616 338.097 270.573 334.621 271.677C333.339 272.102 332.402 273.57 330.979 273.728C329.555 273.886 328.247 272.369 326.785 271.75C324.22 270.658 321.321 272.624 318.474 272.842C315.268 273.073 311.523 271.18 309.124 273.218C308.188 274.007 307.649 275.33 306.431 275.645C305.213 275.961 304.174 275.172 303.032 274.844C299.544 273.861 296.35 277.041 292.772 277.623C288.694 278.291 283.794 275.682 280.729 278.266C279.626 279.177 278.959 280.694 277.548 281.045C276.138 281.397 274.881 280.633 273.521 280.621C270.392 280.621 267.519 284.528 264.877 282.926C265.1 283.617 265.541 284.226 266.143 284.671C266.744 285.117 267.475 285.376 268.237 285.414C269.756 285.473 271.278 285.351 272.765 285.05C281.627 284.019 290.63 289.479 299.223 287.186C301.596 286.555 303.815 285.341 306.264 285.171C310.856 284.856 315.011 288.229 319.603 288.072C323.181 287.938 326.503 285.645 330.068 286.057C333.634 286.47 336.378 289.492 339.713 290.984C343.702 292.78 348.37 292.258 352.756 291.7L354.039 291.421C356.103 286.082 357.577 280.555 358.438 274.929C356.51 274.09 354.404 273.68 352.283 273.733C350.161 273.785 348.081 274.299 346.202 275.233V275.233Z" fill="#FAFAFA"/>
<path d="M335.878 347.862C334.135 348.041 332.478 348.675 331.094 349.694C329.712 350.72 328.004 351.276 326.246 351.272C323.091 350.956 320.27 347.291 317.512 348.772C316.822 349.273 316.174 349.825 315.576 350.422C313.652 351.915 310.587 351.502 308.753 353.092C307.804 353.905 307.291 355.191 306.123 355.713C303.93 356.684 301.853 354.281 299.634 353.347C296.171 351.879 292.234 354.16 288.437 354.087C286.513 354.087 284.474 353.42 282.73 354.172C281.829 354.683 280.972 355.259 280.165 355.895C277.266 357.728 273.368 356.878 270.123 355.653C266.878 354.427 263.492 352.886 260.068 353.529C259.119 353.711 258.041 354.269 258.067 355.191C258.094 355.547 258.228 355.888 258.452 356.174C260.478 359.33 264.351 360.956 268.109 361.987C272.226 363.116 276.574 363.771 280.242 365.883C282.563 367.205 285 369.183 287.616 368.504C289.694 367.97 290.964 365.931 292.965 365.203C295.786 364.171 299.134 366.04 301.942 364.936C302.879 364.572 303.661 363.892 304.61 363.565C307.085 362.715 309.843 364.426 312.408 363.88C313.282 363.551 314.195 363.323 315.127 363.201C317.576 363.201 319.167 366.392 321.539 366.089C323.027 365.895 324.04 364.402 325.528 364.147C327.49 363.795 329.709 365.676 331.3 364.536C331.659 364.281 331.941 363.868 332.403 363.832C332.864 363.795 333.416 364.426 333.788 364.912C335.519 367.072 340.803 365.676 343.471 364.693L341.739 350.131C341.829 348.287 337.635 347.862 335.878 347.862Z" fill="#FAFAFA"/>
<g opacity="0.3">
<path d="M227.812 230.114C225.426 237.249 224.49 245.065 226.863 252.2C228.125 255.452 229.594 258.63 231.262 261.714C236.462 272.525 238.669 284.41 237.675 296.251C237.58 296.66 237.634 297.088 237.828 297.464C238.329 298.253 239.598 297.962 240.483 297.586L246.165 295.159C248.627 297.052 248.999 300.801 251.718 302.33C254.437 303.859 258.221 302.148 260.94 300.28C266.903 296.142 272.559 291.336 276.022 285.147C278.214 280.812 279.838 276.239 280.857 271.531C281.922 267.418 282.999 263.304 283.666 259.117C286.267 242.517 282.461 225.587 272.944 211.426" fill="black"/>
</g>
<path d="M348.255 236.473C348.377 236.669 348.468 236.882 348.524 237.104C348.704 237.601 348.934 238.208 349.204 238.961C349.781 240.66 350.576 242.989 351.551 245.817C352.525 248.644 353.68 252.2 354.962 256.011C356.407 260.175 357.488 264.445 358.194 268.777C358.743 273.151 358.514 277.581 357.515 281.883C356.719 285.383 355.639 288.819 354.283 292.161C353.154 295.013 352.128 297.282 351.41 298.848C351.068 299.56 350.785 300.154 350.563 300.632C350.477 300.847 350.36 301.051 350.217 301.238C350.256 301.011 350.33 300.791 350.435 300.583L351.166 298.751C351.82 297.161 352.769 294.867 353.846 292.016C355.121 288.674 356.146 285.251 356.912 281.774C357.856 277.526 358.064 273.161 357.527 268.85C356.831 264.554 355.776 260.318 354.372 256.18C353.09 252.346 352.038 248.899 351.102 245.95C350.166 243.002 349.486 240.757 348.96 239.033L348.396 237.14C348.316 236.925 348.268 236.701 348.255 236.473V236.473Z" fill="#263238"/>
<g opacity="0.3">
<path d="M359.348 272.393C361.155 266.532 360.935 260.277 358.72 254.542C356.513 248.849 353.515 243.458 349.806 238.512C351.576 249.992 357.13 260.792 358.233 272.357" fill="black"/>
</g>
<g opacity="0.3">
<path d="M256.951 345.92C262.37 339.059 269.639 333.702 277.998 330.412C286.326 327.148 295.085 324.972 304.033 323.943C307.56 323.458 311.395 323.118 314.486 324.805C317.577 326.492 319.039 331.067 316.345 333.3C314.863 334.28 313.087 334.782 311.279 334.732C298.941 335.581 285.911 335.618 275.24 341.564C271.021 343.906 267.276 347.134 262.62 348.554C260.504 349.197 257.374 348.833 257.156 346.745" fill="black"/>
</g>
<path d="M319.847 322.378C319.599 322.404 319.35 322.404 319.103 322.378H316.974H315.422L313.601 322.487C312.318 322.584 310.792 322.633 309.15 322.863L306.585 323.167C305.687 323.288 304.777 323.47 303.815 323.628C301.891 323.919 299.877 324.417 297.748 324.841C293.169 326.012 288.682 327.484 284.32 329.246C279.969 331.046 275.742 333.1 271.662 335.399C269.789 336.479 268.006 337.498 266.416 338.554C264.826 339.61 263.312 340.556 261.966 341.479C260.619 342.401 259.401 343.275 258.4 344.027C257.4 344.779 256.464 345.459 255.758 346.017L254.091 347.231C253.904 347.388 253.697 347.522 253.475 347.631C253.633 347.45 253.809 347.283 254.001 347.134L255.579 345.775C256.271 345.18 257.131 344.476 258.144 343.699C259.157 342.923 260.311 341.988 261.658 341.066C263.005 340.144 264.441 339.076 266.07 338.057C267.699 337.037 269.456 335.945 271.315 334.841C275.402 332.499 279.648 330.415 284.025 328.603C288.417 326.824 292.945 325.359 297.569 324.222C299.724 323.761 301.75 323.264 303.687 323.009C304.661 322.863 305.585 322.681 306.482 322.572L309.048 322.317C310.702 322.111 312.203 322.087 313.524 322.026C314.191 322.026 314.806 321.965 315.37 321.965H316.922L319.064 322.038C319.343 322.109 319.608 322.224 319.847 322.378Z" fill="#263238"/>
<g opacity="0.3">
<path d="M215.82 257.746C212.55 262.03 212.178 267.806 213.524 272.927C214.871 278.048 217.731 282.635 220.578 287.222C220.963 282.673 220.591 278.095 219.475 273.655C218.129 268.34 215.717 263.17 215.73 257.697" fill="black"/>
</g>
<path d="M307.175 93.666C307.252 89.7949 311.921 87.0523 315.961 87.7076C320.001 88.3629 323.156 91.4574 325.041 94.8917C326.926 98.3259 327.837 102.173 329.26 105.813C333.108 115.521 340.662 123.883 343.368 133.979C345.121 141.147 344.883 148.622 342.676 155.677C340.482 162.684 337.457 169.433 333.66 175.797C331.291 179.618 329.295 183.635 327.696 187.799C326.092 191.998 325.943 196.572 327.273 200.856C327.561 201.397 327.625 202.02 327.452 202.604C327.055 203.429 325.81 203.465 324.887 203.235C320.18 202.094 316.922 197.713 316.114 193.175C315.307 188.636 316.538 184 318.256 179.692C319.975 175.384 322.181 171.198 323.451 166.817C326.221 157.109 324.297 146.818 323.81 136.758C323.54 131.091 323.733 125.363 322.527 119.769C321.322 114.174 318.538 108.677 313.549 105.51C311.613 104.296 309.381 103.398 307.752 101.869C306.124 100.34 305.303 97.61 306.778 95.8868" fill="#263238"/>
<path d="M311.395 206.22C311.395 206.22 311.254 200.346 311.254 200.407C311.254 200.468 329.632 197.094 332.877 174.244C334.493 162.885 333.429 144.33 332.043 129.186C330.761 115.546 320.809 98.9933 306.457 100.753L261.812 112.5C257.464 113.034 256.028 116.565 256.22 120.727L255.899 122.681L259.619 187.835L260.901 198.757C261.555 211.147 272.931 224.241 286.962 224.58C300.506 225.211 311.574 219.933 311.395 206.22Z" fill="#FFBE9D"/>
<path d="M323.835 143.881C323.86 144.643 323.569 145.384 323.026 145.946C322.482 146.508 321.728 146.847 320.924 146.891C320.532 146.929 320.136 146.893 319.76 146.784C319.383 146.676 319.033 146.497 318.731 146.258C318.428 146.02 318.179 145.726 317.999 145.395C317.818 145.064 317.709 144.702 317.679 144.33C317.654 143.571 317.943 142.832 318.484 142.27C319.025 141.708 319.776 141.368 320.577 141.321C320.97 141.283 321.366 141.319 321.744 141.427C322.121 141.536 322.472 141.714 322.775 141.953C323.079 142.191 323.329 142.485 323.511 142.816C323.693 143.147 323.803 143.509 323.835 143.881Z" fill="#263238"/>
<path d="M327.85 139.561C327.478 139.95 325.105 138.348 321.783 138.445C318.461 138.542 316.063 140.156 315.704 139.78C315.512 139.61 315.883 138.918 316.986 138.154C318.403 137.185 320.1 136.651 321.847 136.625C323.571 136.578 325.265 137.054 326.682 137.984C327.721 138.7 328.093 139.392 327.85 139.561Z" fill="#263238"/>
<path d="M295.594 145.459C295.222 145.847 292.836 144.246 289.515 144.355C286.193 144.464 283.807 146.054 283.435 145.678C283.256 145.52 283.628 144.816 284.718 144.064C286.134 143.092 287.83 142.554 289.579 142.522C291.308 142.482 293.005 142.962 294.427 143.894C295.414 144.585 295.786 145.265 295.594 145.459Z" fill="#263238"/>
<path d="M308.034 163.286C308.034 163.104 310.074 162.715 313.408 162.242C314.255 162.133 315.05 161.963 315.178 161.405C315.23 160.573 315.011 159.747 314.55 159.038L311.895 152.971C308.201 144.342 305.482 137.195 305.867 137.11C306.252 137.025 309.535 143.845 313.229 152.473C314.084 154.601 314.939 156.623 315.794 158.541C316.353 159.493 316.54 160.602 316.32 161.672C316.201 161.958 316.016 162.215 315.779 162.425C315.541 162.635 315.257 162.792 314.947 162.885C314.48 163.014 313.997 163.088 313.511 163.103C310.138 163.395 308.047 163.455 308.034 163.286Z" fill="#263238"/>
<path d="M311.254 200.407C299.929 200.822 288.705 198.256 278.831 192.993C278.831 192.993 287.36 208.89 311.395 206.22L311.254 200.407Z" fill="#EB996E"/>
<path d="M295.466 137.486C295.094 138.324 291.81 137.729 287.886 137.935C283.961 138.142 280.755 138.979 280.293 138.178C280.088 137.802 280.678 137.025 282.012 136.273C283.762 135.349 285.717 134.83 287.719 134.756C289.725 134.638 291.731 134.979 293.567 135.751C294.965 136.382 295.632 137.086 295.466 137.486Z" fill="#263238"/>
<path d="M327.401 129.865C326.734 130.594 324.002 129.865 320.757 129.962C317.512 130.06 314.755 130.569 314.101 129.841C313.819 129.477 314.229 128.761 315.383 128.057C317.022 127.198 318.864 126.747 320.738 126.747C322.611 126.747 324.454 127.198 326.092 128.057C327.298 128.785 327.696 129.513 327.401 129.865Z" fill="#263238"/>
<path d="M305.559 169.875C305.061 169.282 304.433 168.799 303.717 168.459C303.002 168.12 302.217 167.932 301.417 167.909C300.508 167.936 299.616 168.142 298.796 168.514C297.977 168.886 297.249 169.416 296.658 170.069L296.569 170.142L296.402 170.312C295.939 170.778 295.651 171.375 295.581 172.011C295.571 172.724 295.746 173.429 296.09 174.064C296.434 174.698 296.938 175.243 297.556 175.651C298.512 176.34 299.669 176.733 300.869 176.777C302.07 176.82 303.255 176.512 304.264 175.894C305.245 175.232 305.924 174.243 306.165 173.126C306.405 172.009 306.189 170.847 305.559 169.875V169.875Z" fill="#EB996E"/>
<path d="M296.941 166.829C297.133 166.829 297.287 167.557 297.813 168.589C298.488 169.912 299.547 171.027 300.865 171.805C302.211 172.537 303.752 172.886 305.303 172.812C306.508 172.812 307.265 172.545 307.355 172.715C307.445 172.885 306.752 173.37 305.418 173.661C303.634 174.009 301.778 173.715 300.211 172.836C298.647 171.954 297.492 170.545 296.979 168.892C296.607 167.642 296.787 166.829 296.941 166.829Z" fill="#263238"/>
<path d="M311.946 101.129C311.814 102.273 311.978 103.43 312.425 104.5C312.872 105.57 313.588 106.521 314.511 107.27C316.384 108.743 318.408 110.035 320.552 111.129C326.965 114.915 330.132 123.191 333.134 129.756C338.418 120.23 330.299 107.913 323.579 100.45C322.431 99.058 321.012 97.8879 319.398 97.0032C318.583 96.5681 317.675 96.3146 316.741 96.262C315.808 96.2094 314.874 96.3592 314.011 96.6999" fill="#263238"/>
<path d="M333.198 177.108C333.267 176.818 333.362 176.534 333.48 176.258L334.403 173.904C335.134 171.829 336.212 168.831 337.173 165.033C339.681 155.102 340.277 144.825 338.931 134.695C338.257 129.138 336.862 123.68 334.775 118.446C333.085 114.168 330.337 110.335 326.759 107.27C324.325 105.225 321.437 103.723 318.307 102.877C316.089 102.331 314.793 102.331 314.793 102.258C315.104 102.226 315.418 102.226 315.729 102.258C316.619 102.322 317.503 102.451 318.371 102.646C321.586 103.406 324.565 104.874 327.067 106.93C330.752 110.008 333.594 113.884 335.352 118.228C337.498 123.5 338.924 129.009 339.597 134.622C340.95 144.802 340.285 155.132 337.635 165.082C336.812 168.084 335.814 171.042 334.647 173.94C334.211 174.947 333.852 175.736 333.608 176.258C333.504 176.554 333.367 176.839 333.198 177.108V177.108Z" fill="#455A64"/>
<path d="M335.365 193.49C335.312 193.408 335.273 193.317 335.25 193.223L334.968 192.41C334.667 191.363 334.482 190.289 334.416 189.206C334.326 185.178 335.319 181.195 337.302 177.629C339.572 173.006 343.714 168.37 347.69 162.922C349.803 160.101 351.495 157.018 352.718 153.759C353.926 150.239 354.388 146.528 354.077 142.838C353.781 139.138 352.704 135.531 350.91 132.232C349.152 129.189 346.998 126.368 344.497 123.834C339.803 118.98 335.083 114.83 331.992 110.667C329.409 107.484 327.589 103.807 326.657 99.8914C326.324 98.4579 326.224 96.9846 326.362 95.5227C326.425 96.9743 326.609 98.4188 326.913 99.8428C327.927 103.691 329.789 107.293 332.377 110.413C335.481 114.49 340.188 118.519 344.959 123.446C347.497 126.006 349.682 128.86 351.461 131.94C353.295 135.312 354.398 138.996 354.706 142.777C355.021 146.557 354.546 150.359 353.308 153.966C352.061 157.274 350.335 160.403 348.178 163.261C344.138 168.734 339.995 173.309 337.699 177.824C335.701 181.311 334.656 185.215 334.66 189.182C334.736 190.637 334.973 192.081 335.365 193.49V193.49Z" fill="#263238"/>
<path d="M308.073 89.1881C303.956 86.4334 298.646 85.8024 293.606 85.8752C280.011 86.0572 266.211 90.972 257.118 100.535C249.423 108.592 238.124 124.101 235.982 134.731C230.762 160.64 248.063 167.897 233.968 208.344C231.403 215.625 228.222 222.76 226.658 230.284C226.095 232.969 225.832 235.702 225.875 238.439C224.221 243.172 225.234 248.632 227.273 253.341C229.672 258.874 233.327 263.85 235.623 269.42C237.918 274.99 242.972 284.128 239.598 289.188C244.357 287.975 244.523 283.278 248.294 280.281C249.408 284.303 249.373 288.533 248.191 292.537C254.105 292.147 259.719 289.93 264.172 286.227C272.97 278.946 275.715 267.114 277.087 256.096C280.037 232.007 277.151 208.902 270.405 185.505L270.315 185.614C265.403 170.652 256.105 156.842 264.454 153.541C278.998 147.801 265.737 141.758 271.251 127.293C272.983 122.778 274.907 117.997 278.947 115.157C283.795 111.735 290.348 111.917 296.389 111.602C302.43 111.286 309.279 109.782 312.113 104.733L312.485 101.712C314.652 97.3794 312.19 91.9549 308.073 89.1881Z" fill="#263238"/>
<path d="M242.484 184.971C242.885 184.678 243.243 184.335 243.548 183.952C244.282 182.753 244.567 181.355 244.356 179.984C243.946 176.404 242.035 171.489 239.534 165.421C238.121 162.134 237.035 158.73 236.289 155.252C235.343 150.991 235.755 146.56 237.472 142.521C239.189 138.481 242.134 135.014 245.934 132.559C250.038 129.768 255.617 129.344 259.042 125.557C262.466 121.771 264.172 117.233 265.659 112.84C266.379 110.642 267.236 108.486 268.224 106.384C269.22 104.379 270.423 102.473 271.816 100.692C274.394 97.4018 277.595 94.5917 281.255 92.404C282.901 91.3712 284.687 90.5547 286.565 89.9769C288.309 89.4768 290.132 89.2714 291.951 89.3702C295.045 89.6111 298.076 90.3242 300.929 91.4817C303.494 92.4647 305.598 93.3263 307.342 94.2C308.667 94.8453 309.82 95.7664 310.715 96.894C311.019 97.2911 311.248 97.7343 311.395 98.2046C311.154 97.7862 310.888 97.3811 310.599 96.9911C309.682 95.9173 308.526 95.0473 307.213 94.4427C305.521 93.6175 303.366 92.7802 300.801 91.8336C297.976 90.7396 294.984 90.0801 291.939 89.8799C290.173 89.7893 288.405 89.9989 286.719 90.4988C284.909 91.0717 283.185 91.863 281.588 92.853C276.047 96.2064 271.629 100.984 268.853 106.626C267.867 108.709 267.01 110.844 266.288 113.022C264.774 117.402 263.197 122.22 259.542 125.97C257.723 127.78 255.483 129.163 253.001 130.011C250.657 130.786 248.416 131.812 246.319 133.069C242.443 135.587 239.472 139.164 237.803 143.323C236.328 147.11 235.978 151.206 236.79 155.167C237.513 158.621 238.569 162.004 239.945 165.276C242.381 171.343 244.241 176.307 244.575 179.972C244.768 181.388 244.427 182.823 243.613 184.025C243.381 184.317 243.104 184.575 242.792 184.789L242.484 184.971Z" fill="#455A64"/>
<path d="M263.723 155.543C263.351 150.689 257.708 147.583 253.321 150.095C250.91 151.478 249.115 154.196 249.474 159.342C250.384 173.042 264.736 169.353 264.736 168.953C264.736 168.552 264.095 161.235 263.723 155.543Z" fill="#FFBE9D"/>
<path d="M259.875 164.026C259.875 164.026 259.631 164.208 259.221 164.414C258.637 164.692 257.962 164.749 257.336 164.572C255.771 164.123 254.335 161.902 254.104 159.439C253.985 158.267 254.148 157.085 254.578 155.98C254.684 155.543 254.902 155.137 255.213 154.798C255.524 154.46 255.918 154.199 256.361 154.039C256.644 153.949 256.952 153.956 257.23 154.058C257.509 154.159 257.741 154.35 257.887 154.597C258.105 154.973 258.028 155.252 258.118 155.276C258.208 155.301 258.413 155.022 258.259 154.463C258.155 154.129 257.934 153.837 257.631 153.638C257.21 153.379 256.7 153.284 256.207 153.371C255.621 153.519 255.085 153.806 254.649 154.205C254.214 154.605 253.893 155.103 253.719 155.653C253.177 156.875 252.961 158.204 253.091 159.524C253.373 162.278 255.04 164.778 257.169 165.227C257.565 165.309 257.975 165.307 258.369 165.221C258.764 165.135 259.134 164.967 259.452 164.73C259.875 164.366 259.939 164.05 259.875 164.026Z" fill="#EB996E"/>
<path d="M265.416 173.37C265.416 173.37 265.519 173.637 265.416 174.122C265.21 174.809 264.756 175.406 264.133 175.809C263.659 176.104 263.119 176.289 262.555 176.35C261.992 176.411 261.421 176.346 260.889 176.161C260.238 175.938 259.646 175.585 259.153 175.127C258.659 174.668 258.276 174.115 258.029 173.503C257.598 172.411 257.49 171.229 257.716 170.083C257.942 168.937 258.493 167.871 259.311 166.999C259.619 166.619 260.005 166.303 260.446 166.069C260.887 165.836 261.373 165.69 261.876 165.64C261.04 166.057 260.292 166.616 259.67 167.29C259.042 168.045 258.604 168.924 258.388 169.863C258.128 170.996 258.222 172.177 258.657 173.261C258.864 173.794 259.188 174.279 259.609 174.685C260.029 175.091 260.535 175.408 261.094 175.615C261.542 175.787 262.025 175.86 262.508 175.828C262.99 175.796 263.458 175.661 263.877 175.433C264.441 175.103 264.887 174.621 265.159 174.049C265.326 173.637 265.352 173.37 265.416 173.37Z" fill="white"/>
<path d="M309.125 103.216C308.189 102.314 307.163 101.502 306.059 100.789C302.9 99.0199 299.213 98.2862 295.568 98.7022C293.062 98.9374 290.627 99.6297 288.399 100.741C285.863 102.055 283.564 103.743 281.589 105.741C279.402 107.974 277.464 110.414 275.804 113.022C274.047 115.704 272.444 118.616 270.79 121.601C269.232 124.532 267.519 127.388 265.659 130.157C263.892 132.736 261.828 135.121 259.503 137.268C257.297 139.319 255.091 141.151 253.206 143.02C251.41 144.693 249.865 146.592 248.615 148.663C246.766 151.67 246.111 155.203 246.768 158.626C247.094 159.857 247.631 161.03 248.358 162.096C248.125 161.848 247.911 161.584 247.717 161.308C247.176 160.499 246.774 159.614 246.524 158.686C245.737 155.198 246.33 151.558 248.191 148.456C249.437 146.329 250.991 144.376 252.808 142.656C254.694 140.751 256.887 138.906 259.067 136.855C261.348 134.723 263.378 132.363 265.121 129.817C266.955 127.171 268.596 124.283 270.251 121.322C271.905 118.361 273.509 115.412 275.304 112.706C276.99 110.09 278.963 107.649 281.191 105.425C283.221 103.391 285.586 101.682 288.194 100.365C290.492 99.2481 292.995 98.5601 295.568 98.3381C299.305 97.953 303.07 98.7741 306.252 100.668C307.087 101.205 307.849 101.837 308.522 102.549C308.739 102.758 308.94 102.981 309.125 103.216V103.216Z" fill="#455A64"/>
<path d="M199.994 251.557L202.687 239.252L177.909 228.561L177.267 230.563C173.727 241.715 156.08 295.462 155.002 299.479C151.027 314.393 151.912 343.906 158.196 349.427C163.224 353.844 172.881 357.097 179.268 356.429C185.655 355.762 203.264 334.319 203.264 334.319L219.411 285.366L199.994 251.557Z" fill="#FFBE9D"/>
<path d="M201.084 244.24C201.08 244.558 201.041 244.875 200.968 245.186C200.84 245.866 200.686 246.764 200.481 247.904C200.032 250.331 199.378 253.693 198.596 257.843C197.813 261.993 196.864 267.042 196.031 272.624C195.123 278.655 194.626 284.735 194.543 290.827C194.485 296.931 195.213 303.019 196.71 308.956C198.108 314.405 199.391 319.429 199.276 323.761C199.296 327.162 198.377 330.509 196.608 333.47C195.973 334.562 195.13 335.533 194.12 336.333C197.383 332.873 199.066 328.332 198.801 323.701C198.878 319.453 197.518 314.502 196.12 309.041C194.588 303.063 193.838 296.929 193.889 290.778C193.964 284.648 194.483 278.529 195.441 272.466C196.274 266.872 197.262 261.872 198.121 257.685C198.981 253.499 199.712 250.186 200.212 247.783C200.468 246.654 200.673 245.769 200.815 245.089C200.888 244.801 200.978 244.518 201.084 244.24V244.24Z" fill="#EB996E"/>
<path d="M226.696 218.901L221.899 213.877V207.907L216.923 201.135L206.996 202.64L203.957 202.883L206.009 189.146C207.147 185.632 208.642 182.23 210.472 178.989C214.012 172.29 208.317 169.22 208.317 169.22L197.672 186.84L194.132 198.551L192.619 189C192.619 189 194.415 179.705 194.158 174.923C193.902 170.142 188.836 170.834 188.836 170.834L184.783 191.864V202.385L181.256 196.172C181.256 196.172 180.499 190.905 179.973 186.124C179.447 181.343 175.433 182.775 175.433 182.775V198.32L179.973 212.664C179.973 212.664 176.985 231.17 176.485 231.886L199.865 247.395C199.865 247.395 204.996 243.754 205.983 243.499C206.971 243.244 219.629 234.41 219.629 234.41L228.466 225.564C228.466 225.564 229.979 224.617 229.979 223.658C229.979 222.7 226.696 218.901 226.696 218.901ZM214.576 224.641L209.523 222.481L206.74 216.025L208.805 212.494L209.523 211.28L210.446 210.674L213.819 211.28C213.819 211.28 215.333 215.831 215.102 217.979C214.871 220.127 217.885 222.287 217.885 222.287L214.576 224.641Z" fill="#FFBE9D"/>
<path d="M210.446 210.637C210.446 210.71 209.985 210.758 209.292 210.552C208.387 210.256 207.587 209.727 206.984 209.023C206.369 208.333 205.977 207.491 205.855 206.596C205.778 205.917 205.855 205.492 205.983 205.504C206.192 206.654 206.714 207.733 207.496 208.635C208.278 209.537 209.295 210.231 210.446 210.649V210.637Z" fill="#EB996E"/>
<path d="M223.451 223.027C223.358 220.701 223.469 218.371 223.785 216.062C224.173 217.192 224.292 218.39 224.131 219.569C224.188 220.756 223.955 221.939 223.451 223.027V223.027Z" fill="#EB996E"/>
<path d="M215.653 232.068C215.653 232.068 215.012 231.68 214.294 230.757C213.309 229.525 212.851 227.987 213.011 226.449C213.087 225.979 213.301 225.537 213.627 225.175C213.922 224.872 214.23 224.593 214.525 224.338C215.048 223.905 215.596 223.5 216.166 223.124C217.141 222.469 217.834 222.178 217.885 222.275C217.441 222.71 216.965 223.116 216.461 223.488C216.013 223.852 215.5 224.289 214.948 224.799C214.679 225.054 214.397 225.333 214.127 225.624C213.885 225.903 213.726 226.238 213.666 226.595C213.563 227.343 213.647 228.103 213.909 228.816C214.099 229.424 214.371 230.008 214.717 230.551C215.281 231.449 215.743 232.007 215.653 232.068Z" fill="#EB996E"/>
<path d="M221.912 213.271C221.999 215.051 221.403 216.801 220.232 218.197C219.787 218.781 219.197 219.253 218.513 219.569C217.927 219.807 217.276 219.862 216.654 219.726C215.564 219.472 215.281 218.768 215.371 218.756C215.461 218.743 215.846 219.192 216.744 219.29C217.264 219.348 217.79 219.26 218.257 219.035C218.833 218.742 219.329 218.326 219.706 217.821C220.627 216.391 221.367 214.864 221.912 213.271V213.271Z" fill="#EB996E"/>
<path d="M215.102 217.603C214.948 217.603 214.576 215.491 213.819 212.906C213.525 211.787 213.303 210.653 213.152 209.509C213.063 208.623 213.152 208.064 213.152 208.064C213.152 208.064 213.358 208.586 213.563 209.436C213.858 210.649 214.127 211.656 214.409 212.761C215.23 215.358 215.32 217.603 215.102 217.603Z" fill="#EB996E"/>
<path d="M223.451 224.459C221.4 224.307 219.427 223.645 217.731 222.542C217.023 222.147 216.39 221.643 215.859 221.049C215.441 220.539 215.152 219.945 215.012 219.314C214.821 218.752 214.853 218.144 215.102 217.603C215.217 217.603 215.102 218.258 215.461 219.205C215.919 220.405 216.834 221.4 218.026 221.996C220.861 223.67 223.516 224.253 223.451 224.459Z" fill="#EB996E"/>
<path d="M202.623 229.774C201.096 227.358 199.213 225.16 197.031 223.246C194.691 221.49 192.1 220.056 189.336 218.986C190.225 219.043 191.095 219.257 191.901 219.617C195.95 221.134 199.342 223.895 201.533 227.457C202.051 228.156 202.421 228.943 202.623 229.774V229.774Z" fill="#EB996E"/>
<path d="M194.158 207.458C194.158 207.64 192.311 207.785 190.169 208.501C188.028 209.217 186.476 210.152 186.322 210.006C187.337 209.056 188.565 208.334 189.915 207.893C191.264 207.452 192.701 207.303 194.12 207.458H194.158Z" fill="#EB996E"/>
<path d="M234.763 473.959C234.763 473.959 159.825 493.581 156.824 494.588C152.309 496.093 153.066 511.748 160.094 511.505C163.416 511.384 217.641 513.41 224.503 513.01C231.364 512.609 249.794 505.729 249.794 505.729L234.763 473.959Z" fill="#455A64"/>
<path d="M203.546 501.02C203.161 501.02 202.661 497.319 200.237 493.411C197.813 489.504 194.71 487.174 194.94 486.883C195.171 486.591 198.788 488.606 201.353 492.817C203.918 497.028 203.854 501.02 203.546 501.02Z" fill="#263238"/>
<path d="M211.357 497.659C210.985 497.659 210.228 494.37 208.24 490.669C206.252 486.968 203.88 484.371 204.149 484.128C204.418 483.885 207.291 486.215 209.356 490.135C211.421 494.054 211.677 497.634 211.357 497.659Z" fill="#263238"/>
<path d="M218.68 495.802C218.308 495.802 218.59 492.234 216.936 488.315C215.282 484.395 212.588 481.944 212.845 481.677C213.101 481.41 216.359 483.606 218.103 487.878C219.847 492.149 218.988 495.899 218.68 495.802Z" fill="#263238"/>
<path d="M217.359 486.64C217.218 486.64 216.551 484.698 216.551 481.373C216.561 479.422 216.815 477.479 217.308 475.585C217.599 474.466 217.972 473.367 218.424 472.296C218.657 471.627 219.072 471.028 219.629 470.561C220.002 470.288 220.465 470.151 220.935 470.173C221.406 470.195 221.852 470.376 222.194 470.682C222.78 471.208 223.137 471.922 223.195 472.684C223.272 473.305 223.306 473.929 223.297 474.553C223.273 475.722 223.118 476.886 222.835 478.024C222.337 479.925 221.56 481.751 220.527 483.448C218.783 486.324 217.269 487.793 217.154 487.72C217.038 487.647 218.244 485.948 219.719 483.06C220.59 481.384 221.249 479.616 221.681 477.793C221.919 476.728 222.04 475.642 222.04 474.553C222.04 473.461 222.04 472.126 221.348 471.568C221.224 471.438 221.053 471.358 220.869 471.345C220.685 471.331 220.503 471.385 220.36 471.495C219.984 471.829 219.702 472.246 219.539 472.709C219.091 473.729 218.71 474.775 218.398 475.84C217.876 477.649 217.545 479.502 217.41 481.373C217.218 484.613 217.551 486.616 217.359 486.64Z" fill="#263238"/>
<path d="M217.449 485.924C217.449 485.79 219.219 485.208 222.284 485.184C224.074 485.181 225.858 485.389 227.594 485.802C228.664 486.019 229.696 486.379 230.659 486.87C231.277 487.161 231.777 487.635 232.083 488.22C232.388 488.806 232.483 489.47 232.352 490.111C232.182 490.72 231.843 491.276 231.369 491.72C230.896 492.164 230.305 492.48 229.659 492.635C228.551 492.896 227.393 492.896 226.286 492.635C224.513 492.214 222.856 491.441 221.425 490.365C220.062 489.497 218.88 488.398 217.936 487.125C218.077 486.967 219.488 488.132 221.925 489.674C223.316 490.578 224.88 491.217 226.529 491.555C227.443 491.767 228.398 491.767 229.312 491.555C229.743 491.449 230.138 491.239 230.457 490.945C230.777 490.652 231.01 490.285 231.134 489.88C231.208 489.48 231.138 489.068 230.936 488.709C230.734 488.351 230.41 488.066 230.018 487.902C229.162 487.454 228.248 487.116 227.299 486.895C225.648 486.458 223.955 486.178 222.246 486.057C219.321 485.827 217.475 486.118 217.449 485.924Z" fill="#263238"/>
<path d="M192.029 501.772C191.657 501.772 192.029 498.702 190.554 495.377C189.079 492.052 186.707 490.098 186.886 489.819C187.066 489.54 190.144 491.215 191.708 494.928C193.273 498.642 192.337 501.894 192.029 501.772Z" fill="#263238"/>
<path d="M244.318 505.049C243.397 505.563 242.426 505.994 241.42 506.335C238.703 507.325 235.918 508.136 233.083 508.762C225.914 510.473 215.692 511.444 204.47 511.335C193.248 511.226 183.116 510.728 175.779 510.449L167.097 510.012C166.028 510.015 164.961 509.909 163.916 509.697C164.972 509.541 166.043 509.493 167.11 509.551H175.805L204.47 510.085C214.013 510.339 223.558 509.627 232.942 507.961C240.047 506.566 244.228 504.818 244.318 505.049Z" fill="#263238"/>
<path d="M246.537 506.663C246.434 506.821 244.382 505.692 240.919 504.236C236.503 502.256 231.589 501.487 226.735 502.015C221.091 502.828 217.09 506.42 214.486 508.908C211.883 511.396 210.318 513.204 210.164 513.082C211.154 511.34 212.388 509.731 213.832 508.301C215.299 506.657 216.965 505.183 218.796 503.908C221.064 502.31 223.702 501.245 226.491 500.802C231.578 500.216 236.732 501.14 241.24 503.447C243.174 504.248 244.961 505.334 246.537 506.663V506.663Z" fill="#263238"/>
<path d="M171.38 509.721C171.252 509.636 171.893 508.702 172.483 507.051C173.25 504.909 173.44 502.619 173.035 500.389C172.58 498.156 171.534 496.068 169.995 494.321C168.828 492.974 167.879 492.307 167.969 492.186C168.059 492.064 169.149 492.562 170.534 493.86C172.339 495.591 173.549 497.797 174.007 500.19C174.464 502.582 174.148 505.05 173.099 507.27C172.317 508.981 171.444 509.794 171.38 509.721Z" fill="#263238"/>
<path d="M227.465 373.807L213.999 405.152C213.999 405.152 147.076 381.986 107.908 388.733C93.0174 391.306 77.1268 423.282 98.7759 443.815C119.951 463.85 157.773 492.174 228.851 501.336C230.62 501.566 259.721 507.476 257.926 507.27C256.13 507.063 298.723 513.446 298.723 513.446L308.727 477.684L388.129 489.504C434.89 486.482 457.77 439.167 429.619 423.974C403.352 409.763 353.949 408.635 353.949 408.635L341.829 377.338L227.465 373.807Z" fill="#263238"/>
<path d="M300.301 514.781C300.519 513.568 301.07 510.316 302.237 503.641C302.866 500.001 303.648 495.717 304.648 490.717C305.149 488.218 305.713 485.548 306.38 482.745C306.713 481.337 307.085 479.905 307.521 478.437C307.739 477.708 307.97 476.968 308.252 476.228C308.506 475.427 308.915 474.679 309.458 474.019L309.573 474.565C292.682 468.898 271.572 461.399 249.063 452.419C235.238 446.849 222.13 441.23 210.69 435.369C205.208 432.666 199.948 429.579 194.953 426.134C190.285 422.87 186.129 419.617 182.231 416.778C174.535 411.013 167.507 407.288 162.274 405.71C161.129 405.315 159.96 404.987 158.773 404.727C157.93 404.5 157.074 404.321 156.208 404.193L154.579 403.914C154.391 403.893 154.206 403.852 154.028 403.793C154.215 403.774 154.404 403.774 154.592 403.793L156.234 403.987C157.124 404.084 158.007 404.238 158.876 404.448C160.074 404.683 161.256 404.987 162.415 405.358C165.613 406.338 168.691 407.635 171.598 409.23C175.444 411.34 179.133 413.696 182.641 416.28C186.565 419.096 190.747 422.348 195.466 425.551C200.452 428.948 205.695 431.994 211.152 434.665C222.63 440.466 235.674 446.06 249.487 451.654C271.969 460.622 293.093 468.17 309.894 473.934L310.356 474.092L310.009 474.468C309.552 475.061 309.201 475.721 308.971 476.422C308.688 477.138 308.458 477.866 308.24 478.582C307.791 480.026 307.419 481.458 307.072 482.854C306.38 485.645 305.79 488.302 305.277 490.79C304.225 495.778 303.392 500.122 302.712 503.678C302.032 507.233 301.429 509.964 301.096 511.893C300.891 512.84 300.737 513.556 300.608 514.041C300.528 514.296 300.425 514.543 300.301 514.781V514.781Z" fill="#455A64"/>
<path d="M414.164 428.209C414.019 428.225 413.873 428.225 413.728 428.209L412.445 428.015C411.355 427.881 409.778 427.493 407.7 427.311C401.868 426.586 395.976 426.387 390.104 426.716C381.395 427.243 372.763 428.593 364.338 430.745C359.579 431.959 354.629 433.366 349.563 435.029C344.497 436.691 339.303 438.597 334.044 440.599C328.87 442.534 323.581 444.183 318.205 445.538C313.075 446.897 307.945 447.965 303.084 448.839C293.375 450.635 284.551 451.739 277.138 452.588C269.725 453.438 263.71 454.02 259.555 454.421L254.771 454.87L253.488 454.967C253.206 454.967 253.065 454.967 253.065 454.967C253.198 454.925 253.336 454.896 253.475 454.882L254.758 454.712L259.516 454.117L277.061 452.03C284.461 451.096 293.272 449.943 302.93 448.111C307.765 447.213 312.818 446.133 317.987 444.773C323.328 443.419 328.582 441.774 333.724 439.846C339.008 437.856 344.202 435.939 349.293 434.276C354.385 432.614 359.361 431.218 364.145 430.017C372.627 427.891 381.317 426.593 390.078 426.146C395.984 425.858 401.906 426.143 407.751 426.995C409.829 427.238 411.394 427.675 412.484 427.857L413.766 428.124C413.902 428.135 414.036 428.164 414.164 428.209V428.209Z" fill="#455A64"/>
<path d="M291.939 415.382C291.939 415.916 288.386 416.765 282.435 417.287C266.892 418.485 251.25 416.9 236.328 412.615C230.646 410.916 227.35 409.351 227.478 408.841C227.863 407.713 241.907 411.268 259.606 412.991C277.305 414.714 291.81 414.205 291.939 415.382Z" fill="#263238"/>
<path d="M354.642 409.096C353.808 409.388 352.95 409.611 352.077 409.763C351.217 409.933 350.191 410.176 349.011 410.516C347.831 410.856 346.446 411.183 345.01 411.729C341.562 412.819 338.179 414.087 334.878 415.528C331.158 417.19 327.183 419.168 323.091 421.486C316.173 425.478 309.536 429.892 303.225 434.701C300.801 436.534 298.851 438.05 297.518 439.118C296.851 439.699 296.134 440.227 295.376 440.696C295.962 440.039 296.605 439.43 297.3 438.876C298.582 437.747 300.455 436.157 302.853 434.264C309.08 429.302 315.7 424.799 322.655 420.794C326.503 418.617 330.472 416.636 334.544 414.86C337.881 413.446 341.308 412.23 344.805 411.22C346.292 410.758 347.665 410.443 348.883 410.164C349.906 409.904 350.942 409.694 351.987 409.533C352.859 409.323 353.746 409.177 354.642 409.096V409.096Z" fill="#455A64"/>
<path d="M280.255 440.648C278.64 440.411 277.062 439.983 275.561 439.373C271.886 438.046 268.297 436.514 264.813 434.786L254.412 429.629C252.931 428.992 251.5 428.258 250.128 427.432C251.702 427.836 253.225 428.401 254.668 429.119C257.413 430.333 261.081 432.092 265.198 434.07C269.315 436.048 273.021 437.711 275.779 438.852C277.303 439.375 278.797 439.975 280.255 440.648V440.648Z" fill="#455A64"/>
<path d="M287.488 375.651C287.616 375.651 287.398 378.54 287.142 383.187C286.885 387.835 286.667 394.255 286.783 401.39C286.898 408.526 287.334 414.897 287.745 419.52C288.155 424.144 288.463 427.008 288.335 427.032C288.125 426.391 287.983 425.733 287.911 425.066C287.681 423.78 287.424 421.923 287.142 419.605C286.578 414.982 286.052 408.538 285.936 401.402C285.821 394.267 286.129 387.811 286.539 383.2C286.744 380.87 286.95 379.001 287.129 377.714C287.174 377.017 287.295 376.326 287.488 375.651V375.651Z" fill="#455A64"/>
<path d="M294.94 387.957C294.94 388.029 294.658 388.211 294.247 388.66C293.674 389.315 293.31 390.111 293.196 390.954C293.101 391.557 293.144 392.172 293.321 392.758C293.498 393.344 293.805 393.887 294.222 394.352C294.793 394.833 295.492 395.158 296.244 395.294C296.995 395.429 297.772 395.369 298.49 395.12C299.208 394.871 299.842 394.442 300.323 393.88C300.805 393.317 301.116 392.641 301.224 391.925C301.219 391.314 301.077 390.712 300.807 390.158C300.537 389.603 300.146 389.11 299.659 388.709C298.994 388.139 298.171 387.76 297.287 387.617C296.658 387.532 296.286 387.617 296.274 387.52C296.261 387.423 296.62 387.313 297.312 387.301C298.309 387.34 299.267 387.68 300.044 388.272C300.637 388.702 301.121 389.252 301.461 389.882C301.8 390.512 301.987 391.206 302.007 391.913C301.919 392.79 301.572 393.627 301.005 394.326C300.438 395.026 299.674 395.559 298.8 395.866C297.927 396.173 296.98 396.24 296.068 396.06C295.156 395.88 294.316 395.461 293.644 394.849C293.166 394.3 292.824 393.656 292.644 392.965C292.464 392.274 292.451 391.553 292.606 390.857C292.78 389.925 293.271 389.073 294.004 388.43C294.259 388.188 294.585 388.024 294.94 387.957Z" fill="#455A64"/>
<path d="M309.189 476.75C309.189 476.75 385.243 487.671 388.321 488.339C392.938 489.31 394.144 504.77 387.205 505.328C383.935 505.583 330.902 513.604 324.117 513.968C317.333 514.332 296.081 509.114 296.081 509.114L309.189 476.75Z" fill="#455A64"/>
<path d="M343.24 499.806C343.625 499.806 343.65 496.069 345.536 491.955C347.421 487.841 350.204 485.208 349.935 484.965C349.665 484.722 346.369 487.077 344.394 491.494C342.419 495.911 342.906 499.903 343.24 499.806Z" fill="#263238"/>
<path d="M335.122 497.38C335.494 497.38 335.827 494.018 337.328 490.159C338.828 486.3 340.816 483.497 340.521 483.291C340.226 483.084 337.699 485.718 336.16 489.759C334.621 493.8 334.814 497.44 335.122 497.38Z" fill="#263238"/>
<path d="M327.696 496.409C328.067 496.348 327.336 492.902 328.491 488.861C329.645 484.82 331.966 482.114 331.671 481.895C331.376 481.677 328.465 484.164 327.285 488.557C326.105 492.95 327.413 496.542 327.696 496.409Z" fill="#263238"/>
<path d="M327.85 487.271C327.991 487.271 328.388 485.269 327.991 481.992C327.728 480.08 327.233 478.203 326.516 476.398C326.096 475.329 325.595 474.291 325.015 473.291C324.705 472.657 324.223 472.113 323.617 471.714C323.209 471.479 322.724 471.392 322.253 471.468C321.782 471.543 321.356 471.777 321.052 472.126C320.549 472.71 320.288 473.448 320.321 474.201C320.328 474.822 320.376 475.442 320.462 476.058C320.622 477.203 320.919 478.326 321.347 479.407C322.079 481.216 323.067 482.923 324.284 484.48C325.302 485.971 326.607 487.268 328.132 488.302C328.286 488.169 326.849 486.688 325.015 484.007C323.95 482.461 323.089 480.798 322.45 479.055C322.087 478.034 321.834 476.981 321.693 475.912C321.591 474.832 321.411 473.485 322.001 472.915C322.105 472.773 322.263 472.674 322.442 472.638C322.62 472.602 322.807 472.631 322.963 472.721C323.382 473.012 323.713 473.401 323.925 473.849C324.495 474.799 324.996 475.784 325.426 476.798C326.17 478.516 326.729 480.301 327.093 482.126C327.747 485.244 327.657 487.259 327.85 487.271Z" fill="#263238"/>
<path d="M327.683 486.567C327.683 486.434 325.849 486.057 322.848 486.385C321.091 486.584 319.367 486.992 317.717 487.599C316.695 487.934 315.728 488.404 314.845 488.994C314.269 489.345 313.831 489.866 313.599 490.475C313.367 491.085 313.354 491.75 313.562 492.368C313.808 492.947 314.211 493.455 314.732 493.838C315.252 494.222 315.871 494.468 316.525 494.552C317.645 494.684 318.782 494.551 319.834 494.164C321.524 493.552 323.058 492.609 324.335 491.397C325.565 490.394 326.587 489.185 327.349 487.829C327.195 487.696 325.951 489.043 323.745 490.778C322.491 491.819 321.037 492.622 319.462 493.144C318.586 493.437 317.65 493.529 316.73 493.411C316.291 493.361 315.874 493.2 315.522 492.946C315.171 492.692 314.897 492.355 314.729 491.967C314.608 491.582 314.625 491.169 314.778 490.793C314.932 490.418 315.212 490.101 315.576 489.892C316.371 489.365 317.233 488.933 318.141 488.606C319.707 487.99 321.336 487.527 323.002 487.222C325.836 486.688 327.67 486.761 327.683 486.567Z" fill="#263238"/>
<path d="M354.629 499.309C354.988 499.224 354.244 496.287 355.283 492.865C356.322 489.443 358.463 487.247 358.194 487.004C357.925 486.761 355.167 488.727 354.077 492.55C352.987 496.372 354.346 499.467 354.629 499.309Z" fill="#263238"/>
<path d="M303.661 508.301C304.628 508.716 305.638 509.033 306.675 509.248C309.467 509.919 312.303 510.413 315.165 510.728C324.633 511.589 334.175 511.365 343.586 510.061C354.603 508.69 364.491 507.088 371.661 506.008L380.138 504.612C381.185 504.488 382.217 504.264 383.217 503.945C382.16 503.911 381.102 503.984 380.061 504.163L371.533 505.182L343.432 508.896C334.091 510.176 324.633 510.513 315.216 509.903C308.047 509.357 303.725 508.119 303.661 508.301Z" fill="#263238"/>
<path d="M301.686 510.17C301.814 510.328 303.687 508.957 306.906 507.185C310.999 504.753 315.732 503.458 320.565 503.447C326.208 503.629 330.582 506.712 333.454 508.872C334.953 510.184 336.542 511.401 338.213 512.512C337.026 510.922 335.62 509.49 334.032 508.253C332.375 506.809 330.55 505.547 328.594 504.491C326.155 503.164 323.414 502.415 320.603 502.307C315.551 502.306 310.623 503.786 306.496 506.542C304.705 507.51 303.083 508.734 301.686 510.17V510.17Z" fill="#263238"/>
<path d="M352.756 296.032C352.461 297.804 351.474 345.787 354.501 350.143C359.259 357.06 374.598 369.438 384.14 366.052C399.62 360.555 403.122 329.574 402.839 335.326L390.591 237.432H367.005L365.043 272.539L358.169 276.519C357.701 280.602 356.82 284.633 355.54 288.557L352.756 296.032Z" fill="#FFBE9D"/>
<path d="M367.005 237.432C367.005 237.432 357.591 228.622 357.591 226.668C357.591 224.714 353.911 223.622 353.911 223.622L347.934 220.806C347.934 220.806 344.086 217.324 344.958 215.37C345.454 214.237 346.365 213.31 347.524 212.761C347.524 212.761 347.819 207.98 351.576 206.693C351.576 206.693 348.049 203.053 351.576 200.395C355.103 197.738 355.95 198.866 355.95 198.866C355.95 198.866 355.565 196.039 357.63 195.832C359.695 195.626 374.47 192.131 374.47 192.131C376.586 193.137 378.566 194.379 380.369 195.832C382.203 197.568 383.127 198.648 383.127 198.648C384.747 196.696 385.993 194.49 386.808 192.131C387.718 188.867 389.103 179.086 399.441 179.523V181.95C397.408 184.848 396.001 188.098 395.298 191.512C393.926 197.58 391.45 211.062 391.45 211.062L390.681 237.492L367.005 237.432Z" fill="#FFBE9D"/>
<path d="M357.925 335.084C357.829 334.762 357.76 334.433 357.72 334.101C357.617 333.445 357.425 332.499 357.322 331.249C356.944 327.737 356.888 324.2 357.155 320.679C357.564 315.46 358.305 310.269 359.374 305.134C360.49 299.333 362.003 292.999 363.132 286.3C365.338 272.866 365.62 260.525 365.979 251.618C366.146 247.213 366.287 243.621 366.377 241.072L366.531 238.196C366.529 237.862 366.564 237.529 366.633 237.201C366.653 237.537 366.653 237.873 366.633 238.208C366.633 238.924 366.633 239.871 366.633 241.072C366.633 243.633 366.531 247.225 366.454 251.63C366.367 263.263 365.468 274.877 363.761 286.397C362.619 293.132 361.08 299.455 359.913 305.243C358.822 310.35 358.038 315.512 357.566 320.703C357.276 324.205 357.276 327.723 357.566 331.225C357.63 332.438 357.784 333.433 357.848 334.089C357.905 334.417 357.931 334.75 357.925 335.084V335.084Z" fill="#EB996E"/>
<path d="M374.38 197.422C374.38 197.507 373.354 197.483 371.712 197.689C370.071 197.895 367.788 198.114 365.3 198.332C362.239 198.717 359.153 198.892 356.065 198.854C359.068 198.273 362.111 197.904 365.171 197.75C367.737 197.531 369.981 197.373 371.584 197.288C372.514 197.125 373.472 197.17 374.38 197.422V197.422Z" fill="#EB996E"/>
<path d="M370.045 207.858C369.155 207.912 368.261 207.884 367.377 207.773C365.748 207.676 363.53 207.64 360.965 207.579C358.819 207.563 356.677 207.413 354.552 207.13C353.667 207.057 352.801 206.848 351.987 206.511C352.875 206.495 353.764 206.552 354.642 206.681C356.27 206.815 358.489 206.9 361.054 206.948C363.619 206.997 365.851 207.118 367.467 207.324C368.349 207.381 369.218 207.561 370.045 207.858V207.858Z" fill="#EB996E"/>
<path d="M366.646 216.292C365.73 216.296 364.817 216.194 363.927 215.989C362.26 215.722 359.977 215.309 357.45 214.775C354.924 214.241 352.654 213.804 351.038 213.428C350.133 213.284 349.25 213.035 348.408 212.688C349.329 212.683 350.246 212.785 351.14 212.991C352.795 213.258 355.09 213.671 357.553 214.205C360.015 214.739 362.337 215.176 363.966 215.564C364.888 215.701 365.788 215.945 366.646 216.292V216.292Z" fill="#EB996E"/>
</svg>
