<svg width="48" height="48" viewBox="0 0 48 48" fill="none" xmlns="http://www.w3.org/2000/svg">
<g clip-path="url(#clip0_280_1738)">
<path d="M23.9998 48.0001C37.2545 48.0001 47.9996 37.255 47.9996 24.0003C47.9996 10.7456 37.2545 0.000488281 23.9998 0.000488281C10.7451 0.000488281 0 10.7456 0 24.0003C0 37.255 10.7451 48.0001 23.9998 48.0001Z" fill="#0471A6"/>
<path d="M38.7006 17.2482C37.6536 17.7121 36.5429 18.0163 35.4056 18.1505C36.6037 17.434 37.5004 16.3062 37.9284 14.9774C36.8024 15.6456 35.5703 16.1162 34.2856 16.3691C33.7487 15.7965 33.0999 15.3403 32.3794 15.0288C31.6589 14.7173 30.8821 14.5571 30.0972 14.5581C26.9296 14.5581 24.3606 17.1272 24.3606 20.2947C24.3606 20.7444 24.4115 21.182 24.5099 21.6021C19.7423 21.363 15.515 19.0793 12.6854 15.6076C12.1752 16.4831 11.907 17.4786 11.9085 18.4919C11.9085 20.4817 12.922 22.2383 14.4604 23.2668C13.5494 23.2387 12.6584 22.9924 11.8623 22.5485L11.8619 22.6212C11.8619 25.4008 13.8401 27.7191 16.4639 28.2458C15.9715 28.3801 15.4633 28.4478 14.9528 28.4473C14.5824 28.4473 14.2234 28.4117 13.8735 28.345C14.6033 30.6236 16.7215 32.2822 19.2323 32.3289C17.2001 33.9238 14.6904 34.7888 12.107 34.7845C11.6449 34.7845 11.1872 34.7576 10.7393 34.7041C13.3618 36.3902 16.4145 37.2851 19.5322 37.2817C30.0839 37.2817 35.8544 28.5405 35.8544 20.9591C35.8544 20.7106 35.8488 20.4629 35.8377 20.2173C36.9612 19.406 37.9308 18.4006 38.7006 17.2482Z" fill="white"/>
</g>
<defs>
<clipPath id="clip0_280_1738">
<rect width="48" height="48" fill="white" transform="translate(0 0.000488281)"/>
</clipPath>
</defs>
</svg>
