<svg width="22" height="16" viewBox="0 0 22 16" fill="none" xmlns="http://www.w3.org/2000/svg">
<path d="M8.15642 5.99083L6.66757 6.01491C7.33138 3.98679 7.91044 3.01129 9.87587 2.1547C10.2039 2.01168 10.385 1.65718 10.309 1.30751C10.2331 0.958519 9.92139 0.711602 9.56398 0.717382C9.56323 0.717394 9.56323 0.717394 9.56248 0.717406C5.43447 0.791516 3.08997 2.4849 1.47396 6.55744C0.957804 7.83675 0.707357 9.20103 0.730167 10.6115C0.765247 12.7807 1.44051 13.9513 2.46603 15.4898C2.60718 15.7022 2.84729 15.828 3.10211 15.8238L8.31408 15.7396C9.55464 15.7195 10.5475 14.694 10.5274 13.4535L10.4425 8.20415C10.4224 6.96359 9.39698 5.97077 8.15642 5.99083ZM19.405 5.80892L17.9161 5.833C18.5799 3.80487 19.159 2.82938 21.1244 1.97279C21.4524 1.82977 21.6335 1.47527 21.5575 1.1256C21.4816 0.776607 21.1699 0.52969 20.8125 0.53547C20.8118 0.535482 20.8118 0.535482 20.811 0.535494C16.683 0.609603 14.3385 2.30299 12.7225 6.37552C12.2063 7.65484 11.9559 9.01911 11.9787 10.4296C12.0138 12.5988 12.689 13.7694 13.7146 15.3079C13.8557 15.5202 14.0958 15.6461 14.3506 15.6419L19.5626 15.5576C20.8032 15.5376 21.796 14.5121 21.7759 13.2716L21.691 8.02224C21.671 6.78168 20.6455 5.78886 19.405 5.80892Z" fill="black"/>
</svg>
