<svg width="48" height="48" viewBox="0 0 48 48" fill="none" xmlns="http://www.w3.org/2000/svg">
<g clip-path="url(#clip0_280_1748)">
<path d="M41.0063 6.97567C36.9079 2.89397 31.4591 0.434235 25.6744 0.0545181C19.8898 -0.325199 14.1637 1.40098 9.56243 4.91162C4.96114 8.42226 1.7983 13.4781 0.662879 19.1375C-0.472547 24.797 0.496837 30.6745 3.39052 35.6754L0 48.0003L12.6696 44.6931C16.1738 46.5928 20.1003 47.5882 24.0904 47.5885H24.1005C28.8267 47.5881 33.4467 46.1927 37.3766 43.5789C41.3064 40.965 44.3695 37.25 46.1789 32.9033C47.9883 28.5567 48.4626 23.7736 47.5419 19.1586C46.6212 14.5437 44.3469 10.3041 41.0063 6.97567ZM24.1005 43.5714H24.0928C20.5355 43.5716 17.0435 42.6196 13.9825 40.8152L13.2569 40.387L5.73765 42.3493L7.74486 35.0533L7.27186 34.3054C4.9308 30.5916 3.89583 26.2087 4.32965 21.8455C4.76347 17.4823 6.64148 13.3863 9.66845 10.2015C12.6954 7.0167 16.6997 4.92361 21.0518 4.25131C25.4039 3.579 29.8571 4.36559 33.7112 6.48742C37.5653 8.60925 40.6018 11.946 42.3435 15.9731C44.0851 20.0003 44.433 24.4894 43.3325 28.7348C42.2321 32.9802 39.7456 36.7412 36.2641 39.4265C32.7825 42.1118 28.5033 43.5692 24.0991 43.5694L24.1005 43.5714Z" fill="#E0E0E0"/>
<path d="M1.09668 46.6331L4.33242 34.8692C1.82574 30.5392 0.824008 25.5069 1.48255 20.5525C2.14108 15.5981 4.4231 10.9983 7.97477 7.46642C11.5265 3.93452 16.1494 1.6678 21.1268 1.01768C26.1042 0.367564 31.158 1.37038 35.5046 3.87064C39.8513 6.37091 43.2479 10.2289 45.168 14.8466C47.088 19.4642 47.4241 24.5835 46.1243 29.4106C44.8244 34.2378 41.9611 38.5032 37.9784 41.5455C33.9957 44.5878 29.116 46.2371 24.096 46.2375H24.0858C20.2789 46.2368 16.5328 45.2871 13.1891 43.4751L1.09861 46.6311L1.09668 46.6331Z" fill="#0471A6"/>
<path fill-rule="evenodd" clip-rule="evenodd" d="M18.195 13.6868C17.7529 12.7081 17.2871 12.6884 16.8667 12.6716C16.5224 12.6568 16.1285 12.6577 15.7356 12.6577C15.4364 12.6656 15.1421 12.735 14.8712 12.8615C14.6003 12.9881 14.3586 13.1691 14.1613 13.3931C13.4938 14.0223 12.9653 14.783 12.6095 15.6268C12.2537 16.4706 12.0784 17.3789 12.0948 18.2939C12.0948 21.1854 14.2105 23.9795 14.5056 24.3716C14.8007 24.7638 18.5894 30.8867 24.5894 33.242C29.5758 35.1995 30.5908 34.8102 31.6732 34.7123C32.7556 34.6144 35.1654 33.291 35.6577 31.9187C36.15 30.5464 36.1495 29.3704 36.002 29.1246C35.8544 28.8788 35.461 28.7329 34.8704 28.4387C34.2797 28.1444 31.3781 26.7227 30.8367 26.5268C30.2952 26.331 29.9018 26.2331 29.5083 26.8216C29.1149 27.41 27.9842 28.7324 27.6395 29.1256C27.2947 29.5187 26.9505 29.5672 26.3603 29.2734C24.6201 28.5827 23.0139 27.5959 21.6135 26.3569C20.3229 25.1695 19.2162 23.7981 18.3295 22.2875C17.9853 21.7 18.2924 21.3812 18.5889 21.0875C18.8541 20.8244 19.1791 20.4016 19.4747 20.0584C19.7169 19.7613 19.9155 19.4314 20.0643 19.0787C20.143 18.9166 20.1797 18.7376 20.1713 18.5578C20.1629 18.378 20.1096 18.2032 20.0161 18.0491C19.8671 17.7548 18.7196 14.8489 18.195 13.6868Z" fill="white"/>
<path d="M40.8111 6.8999C36.7608 2.86227 31.3741 0.42827 25.6547 0.0513854C19.9353 -0.325499 14.2733 1.38044 9.72369 4.85136C5.17408 8.32227 2.04712 13.3214 0.925438 18.9174C-0.196242 24.5133 0.763857 30.3244 3.62685 35.2679L0.275391 47.4537L12.7994 44.1844C16.2633 46.0623 20.1447 47.0464 24.089 47.0466H24.0992C28.7715 47.047 33.339 45.6681 37.2242 43.0844C41.1094 40.5006 44.1378 36.8281 45.9266 32.531C47.7153 28.234 48.184 23.5054 47.2735 18.9431C46.363 14.3809 44.1141 10.1898 40.8111 6.8999ZM24.0992 43.0756H24.0939C20.5772 43.0759 17.1252 42.1349 14.0993 40.3511L13.3818 39.9277L5.94795 41.8674L7.93202 34.654L7.46481 33.9148C5.15069 30.2435 4.12771 25.9107 4.55669 21.5975C4.98567 17.2843 6.84229 13.2354 9.83467 10.0871C12.8271 6.93888 16.7855 4.86989 21.0878 4.20541C25.39 3.54092 29.7921 4.31862 33.602 6.41624C37.4119 8.51386 40.4136 11.8125 42.1351 15.7935C43.8567 19.7745 44.2005 24.2122 43.1126 28.409C42.0246 32.6057 39.5666 36.3236 36.1248 38.978C32.6831 41.6325 28.4529 43.073 24.0992 43.0732V43.0756Z" fill="white"/>
</g>
<defs>
<clipPath id="clip0_280_1748">
<rect width="48" height="48" fill="white" transform="translate(0 0.000488281)"/>
</clipPath>
</defs>
</svg>
