<svg xmlns="http://www.w3.org/2000/svg" width="130" height="36" viewBox="0 0 130 36" fill="none">
  <g clip-path="url(#clip0_1285_6224)">
    <path fill-rule="evenodd" clip-rule="evenodd" d="M36.324 30.5728L39.5127 0.598694H44.839L43.49 13.0729C44.2959 11.9516 45.1748 11.074 46.1267 10.4399C47.0786 9.80586 48.0861 9.48884 49.149 9.48884C49.8967 9.48884 50.5799 9.639 51.1991 9.93937C51.818 10.2397 52.3524 10.7102 52.8022 11.351C53.2518 11.9917 53.6022 12.8093 53.8533 13.8038C54.1045 14.7982 54.2301 15.9829 54.2301 17.3578C54.2301 19.1732 53.9877 20.8985 53.5028 22.5337C53.0181 24.1689 52.367 25.6072 51.5493 26.8487C50.7318 28.09 49.7886 29.0746 48.7199 29.8021C47.6512 30.5295 46.5327 30.8934 45.3646 30.8934C44.4652 30.8934 43.6739 30.6963 42.9907 30.3025C42.3073 29.9088 41.7263 29.3915 41.2473 28.7508L41.1947 28.9511C40.9121 29.9197 40.1206 30.5728 39.229 30.5728H36.324ZM46.9764 14.1942C46.5911 14.1942 46.191 14.3611 45.7763 14.6948C45.3618 15.0285 44.9617 15.4857 44.5761 16.0663C44.1909 16.647 43.8317 17.3278 43.4987 18.1087C43.1657 18.8896 42.8885 19.7205 42.6664 20.6015L42.1408 25.447C42.4797 25.7673 42.8593 25.9944 43.2797 26.1278C43.7003 26.2612 44.1032 26.3281 44.4885 26.3281C45.1195 26.3281 45.7005 26.0877 46.232 25.6072C46.7633 25.1266 47.2218 24.496 47.6074 23.7151C47.9927 22.9342 48.2934 22.0432 48.5096 21.042C48.7256 20.0409 48.8336 19.0197 48.8336 17.9785C48.8336 16.657 48.6643 15.6959 48.3257 15.0952C47.9868 14.4945 47.5372 14.1942 46.9764 14.1942ZM70.5592 30.5728H68.5192C67.0584 30.5728 65.874 29.2163 65.874 27.5429C65.874 27.4043 65.8823 27.266 65.8987 27.1289C65.1512 28.3036 64.3218 29.2248 63.4108 29.8922C62.4997 30.5597 61.4952 30.8934 60.3973 30.8934C59.743 30.8934 59.1124 30.7432 58.505 30.4428C57.8976 30.1423 57.3604 29.6886 56.8932 29.0812C56.4259 28.4738 56.0522 27.6996 55.7719 26.7585C55.4914 25.8174 55.3513 24.7062 55.3513 23.4247C55.3513 21.5426 55.6521 19.7572 56.2535 18.0686C56.8553 16.38 57.6963 14.9017 58.7765 13.6336C59.857 12.3655 61.1389 11.3576 62.6224 10.6101C64.1058 9.86259 65.7351 9.48884 67.5105 9.48884C68.3749 9.48884 69.2509 9.55558 70.1386 9.68907C71.0264 9.82256 71.9023 10.0628 72.7668 10.4099L70.5592 30.5728ZM62.5698 25.9878C62.9669 25.9878 63.3524 25.8174 63.7262 25.4771C64.0999 25.1366 64.4532 24.6728 64.7862 24.0855C65.119 23.4981 65.4256 22.8107 65.7059 22.0231C65.9863 21.2356 66.2259 20.3946 66.4244 19.5003L67.0551 13.7537H66.7397C65.8519 13.7537 65.0431 13.9806 64.3131 14.4345C63.583 14.8883 62.9554 15.5057 62.4297 16.2866C61.9041 17.0675 61.4981 17.9752 61.2119 19.0097C60.9258 20.0442 60.7828 21.1488 60.7828 22.3235C60.7828 22.9909 60.8294 23.5582 60.9229 24.0254C61.0162 24.4926 61.142 24.8697 61.2995 25.1568C61.4573 25.4438 61.6441 25.6541 61.8603 25.7875C62.0762 25.921 62.3129 25.9878 62.5698 25.9878ZM73.9931 30.5728L76.2008 9.80921H77.3872C79.2755 9.80921 80.8063 11.5627 80.8063 13.7258C80.8063 13.8487 80.8012 13.9717 80.791 14.0941C81.4919 12.6791 82.2512 11.5912 83.0689 10.8304C83.8865 10.0695 84.7332 9.68907 85.6093 9.68907C86.0998 9.68907 86.5845 9.81587 87.0635 10.0695L86.0824 15.8161C85.4866 15.5224 84.9202 15.3755 84.3828 15.3755C83.4834 15.3755 82.6864 15.8394 81.9914 16.7671C81.2964 17.6949 80.7329 19.1866 80.3005 21.2423L79.3194 30.5728H73.9931ZM88.8857 26.0877V25.7474C88.8857 25.614 88.8944 25.4237 88.9118 25.1767C88.9295 24.9298 88.9587 24.6028 88.9994 24.1956C89.0404 23.7885 89.096 23.2512 89.1659 22.5838L90.0945 14.0941H88.6403C88.4184 14.0941 88.2317 14.0107 88.0798 13.8438C87.9278 13.677 87.852 13.4267 87.852 13.093C87.852 13.0796 87.8636 12.9628 87.8869 12.7426C87.9104 12.5223 87.9337 12.2887 87.9571 12.0417C87.9804 11.7948 88.0037 11.5645 88.0272 11.351C88.0505 11.1374 88.0621 11.0172 88.0621 10.9906L88.1911 9.84924L90.8656 9.80921L91.3434 6.15521C91.5219 4.79138 92.5445 3.78233 93.7486 3.78233H96.5246L95.8588 9.84924H99.9236L99.8881 10.1808C99.6481 12.4153 97.9913 14.0941 96.026 14.0941H95.4033L94.5272 22.2434C94.4688 22.7907 94.425 23.2212 94.3958 23.5349C94.3666 23.8486 94.3433 24.0888 94.3259 24.2557C94.3138 24.3691 94.3021 24.4826 94.2908 24.5961C94.2849 24.6562 94.2821 24.6929 94.2821 24.7062C94.2821 25.0933 94.3607 25.4171 94.5185 25.6774C94.6761 25.9377 94.9243 26.0678 95.2632 26.0678C95.45 26.0678 95.6047 26.0444 95.7274 25.9978C95.8091 25.9666 96.0983 25.8364 96.5948 25.6072L98.3818 29.0911C97.6576 29.692 96.8809 30.1423 96.0514 30.4428C95.2222 30.7432 94.3871 30.8934 93.5461 30.8934C92.8452 30.8934 92.2146 30.783 91.6538 30.5628C91.0933 30.3426 90.6115 30.0223 90.2085 29.6018C89.8055 29.1813 89.4902 28.6774 89.2622 28.09C89.0345 27.5028 88.909 26.8353 88.8857 26.0877ZM115.972 14.915C115.972 15.8628 115.809 16.7304 115.482 17.518C115.155 18.3056 114.585 19.003 113.774 19.6104C112.962 20.2178 111.87 20.735 110.497 21.1622C109.125 21.5893 107.399 21.923 105.32 22.1633C105.343 23.5783 105.615 24.6128 106.135 25.2669C106.654 25.921 107.422 26.2479 108.439 26.2479C108.917 26.2479 109.332 26.2012 109.683 26.1079C110.033 26.0143 110.339 25.8942 110.602 25.7474C112.177 24.8675 114.06 25.1663 115.367 26.5038L115.587 26.7286C114.945 27.4493 114.317 28.0735 113.703 28.6006C113.09 29.1278 112.459 29.5617 111.811 29.9022C111.163 30.2425 110.474 30.4928 109.744 30.653C109.014 30.8132 108.217 30.8934 107.352 30.8934C106.278 30.8934 105.291 30.6831 104.391 30.2627C103.492 29.8422 102.718 29.2481 102.07 28.4806C101.421 27.713 100.919 26.7887 100.563 25.7073C100.207 24.6261 100.029 23.4247 100.029 22.1032C100.029 20.9953 100.137 19.9141 100.353 18.8595C100.569 17.805 100.878 16.8139 101.281 15.8861C101.684 14.9584 102.178 14.1041 102.762 13.3232C103.346 12.5423 104.003 11.8716 104.733 11.3109C105.463 10.7503 106.263 10.3131 107.133 9.99943C108.003 9.68574 108.929 9.5289 109.91 9.5289C110.88 9.5289 111.741 9.68907 112.495 10.0094C113.248 10.3298 113.882 10.7469 114.396 11.2609C114.909 11.7748 115.301 12.3521 115.569 12.9929C115.838 13.6336 115.972 14.2743 115.972 14.915ZM109.595 13.7137C108.696 13.7137 107.907 14.1241 107.23 14.9451C106.552 15.766 106.044 16.8906 105.705 18.3189C106.838 18.1187 107.755 17.9085 108.456 17.6882C109.157 17.4679 109.7 17.2277 110.086 16.9674C110.471 16.7071 110.731 16.4268 110.865 16.1264C111 15.8261 111.067 15.5024 111.067 15.1553C111.067 14.8082 110.95 14.4812 110.716 14.1742C110.483 13.8672 110.109 13.7137 109.595 13.7137ZM116.883 30.5728L119.091 9.80921H119.941C122.007 9.80921 123.681 11.7276 123.681 14.0941C124.382 12.6791 125.142 11.5912 125.959 10.8304C126.777 10.0695 127.624 9.68907 128.5 9.68907C128.99 9.68907 129.475 9.81587 129.954 10.0695L128.973 15.8161C128.377 15.5224 127.811 15.3755 127.273 15.3755C126.374 15.3755 125.577 15.8394 124.882 16.7671C124.187 17.6949 123.623 19.1866 123.191 21.2423L122.21 30.5728H116.883Z" fill="black"/>
    <path d="M22.5362 15.4143C26.7846 11.7273 35.524 -1.45048 21.8686 0.870996C15.9208 1.82688 8.5477 7.41337 6.78766 14.3778C5.86942 12.5155 4.85619 10.7145 3.75308 8.98378C2.11442 6.59403 -1.13344 8.92787 0.687292 11.3859C5.84608 18.4186 9.42685 26.8851 9.42685 35.42C9.8517 31.1867 10.5505 25.5072 8.97256 20.4546C9.54997 20.9018 9.5918 20.9353 9.99374 21.4806C12.7855 26.2602 17.074 30.2307 21.8686 32.1426C26.2385 33.9862 32.0647 32.8937 29.6978 25.5196C28.4233 21.4911 25.4493 17.9407 22.5362 15.4143Z" fill="#8C8C8C"/>
  </g>
  <defs>
    <clipPath id="clip0_1285_6224">
      <rect width="130" height="35" fill="white" transform="translate(0 0.5)"/>
    </clipPath>
  </defs>
</svg>