<svg xmlns="http://www.w3.org/2000/svg" width="192" height="36" viewBox="0 0 192 36" fill="none">
  <g clip-path="url(#clip0_1285_6223)">
    <path d="M17.7528 0.53479H7.82308L7.80406 0.568885L6.43363 3.03419H17.7528C26.1374 3.03419 32.9388 9.74891 32.9388 18.032C32.9388 26.3151 26.1395 33.0298 17.7528 33.0298C9.36613 33.0298 2.56616 26.3144 2.56616 18.032C2.56547 16.4652 2.81392 14.908 3.30245 13.4173H6.20183C4.14649 18.4332 5.65008 24.1864 9.90672 27.5934C14.1634 31.0005 20.1741 31.2617 24.7174 28.2372C29.2607 25.2127 31.2704 19.6122 29.6693 14.4374C28.0681 9.2626 23.232 5.72786 17.7528 5.72773H4.93709L3.54835 8.22644H17.7528C22.215 8.22734 26.1282 11.1681 27.3186 15.4151C28.509 19.662 26.684 24.1715 22.8575 26.4382C19.031 28.705 14.1433 28.172 10.9097 25.1354C7.67614 22.0988 6.89133 17.3047 8.99129 13.4166H12.2761C10.0835 15.9584 9.97749 19.6646 12.0211 22.3246C14.0648 24.9847 17.7075 25.882 20.7767 24.4813C23.846 23.0806 25.5147 19.7594 24.7877 16.4984C24.0607 13.2374 21.1339 10.9154 17.7528 10.9172H2.05181L0.662361 13.4173C0.246454 14.9211 0.035566 16.4731 0.0352783 18.032C0.0352783 27.6949 7.96752 35.5292 17.7528 35.5292C27.5381 35.5292 35.4704 27.6949 35.4704 18.032C35.4704 8.36909 27.5374 0.53479 17.7528 0.53479ZM17.7528 13.4173C20.3336 13.4173 22.4256 15.4834 22.4256 18.032C22.4256 20.5806 20.3336 22.6467 17.7528 22.6467C15.1721 22.6467 13.08 20.5806 13.08 18.032C13.08 15.4834 15.1721 13.4173 17.7528 13.4173ZM43.2582 18.4015C43.2582 13.5405 46.5606 10.1253 51.5131 10.1253C54.5661 10.1253 57.0582 11.4474 58.3666 13.6636L55.5011 15.6634C54.5971 14.2474 53.2267 13.5711 51.6068 13.5711C48.9294 13.5711 47.1524 15.4498 47.1524 18.4015C47.1524 21.324 48.928 23.2312 51.6068 23.2312C53.2274 23.2312 54.5971 22.5236 55.5011 21.1083L58.3666 23.1081C57.0582 25.3542 54.5661 26.6463 51.5131 26.6463C46.5606 26.6463 43.2582 23.2312 43.2582 18.4015ZM58.9049 18.4015C58.9049 13.848 62.1763 10.1253 67.2543 10.1253C72.3633 10.1253 75.603 13.848 75.603 18.4015C75.603 22.9244 72.3619 26.6463 67.2543 26.6463C62.1799 26.6463 58.9049 22.9237 58.9049 18.4015ZM71.7087 18.4015C71.7087 15.5403 69.9951 13.5405 67.2543 13.5405C64.5135 13.5405 62.7992 15.5403 62.7992 18.4015C62.7992 21.2314 64.5128 23.2312 67.2543 23.2312C69.9959 23.2312 71.7087 21.2314 71.7087 18.4015ZM100.55 10.5547L95.6879 26.2142H91.583L88.1467 15.1694L84.6802 26.2142H80.5696L75.7361 10.5547H79.5071L82.7912 21.8451L86.3183 10.5547H89.9674L93.4952 21.8451L96.7483 10.5547H100.55ZM153.953 10.5547L149.087 26.2142H144.982L141.546 15.1694L138.079 26.2142H133.977L129.142 10.5582H132.913L136.197 21.8486L139.721 10.5547H143.37L146.898 21.8451L150.152 10.5547H153.953ZM111.924 10.4948V14.0018C111.347 13.9074 110.764 13.856 110.179 13.848C107.407 13.848 105.942 15.2327 105.942 18.4933V26.217H102.144V10.5547H105.878V13.171C106.658 11.3563 108.37 10.2791 110.551 10.2791C111.018 10.2701 111.483 10.3432 111.924 10.4948ZM127.692 10.5547V24.6451C127.692 29.9063 124.732 32.7974 119.498 32.7974C116.788 32.7974 114.296 31.9979 112.8 30.6132L114.514 27.8751C115.853 28.9189 117.598 29.4442 119.28 29.4442C122.209 29.4442 123.953 27.8139 123.953 24.643V23.2924C123.05 25.0153 121.119 26.0611 118.781 26.0611C115.417 26.0611 113.299 23.9695 113.299 20.1543V10.5547H117.1V19.201C117.1 21.6009 118.097 22.6467 120.09 22.6467C122.395 22.6467 123.922 21.2627 123.922 18.9853V10.5547H127.692ZM154.953 5.60318C154.953 4.2491 155.919 3.26451 157.383 3.26451C158.815 3.26451 159.779 4.2491 159.779 5.60318C159.779 6.95725 158.813 7.94115 157.383 7.94115C155.919 7.94115 154.953 6.95656 154.953 5.60318ZM155.483 10.5561H159.283V26.2156H155.483V10.5561ZM161.196 23.6619L163.251 21.2926C164.497 22.6467 166.429 23.4462 168.454 23.4462C170.261 23.4462 171.258 22.7699 171.258 21.7853C171.258 20.9545 170.634 20.4319 169.046 20.0624L166.46 19.4779C163.158 18.709 161.756 17.2012 161.756 15.0476C161.756 12.1558 164.186 10.1253 168.298 10.1253C171.102 10.1253 173.438 11.0786 174.809 12.6178L172.784 15.0476C171.413 13.8786 169.856 13.3248 168.204 13.3248C166.428 13.3248 165.556 13.9712 165.556 14.9251C165.556 15.6634 166.085 16.1248 167.768 16.4935L170.509 17.14C173.842 17.8782 175.058 19.3854 175.058 21.539C175.058 24.6465 172.627 26.6463 168.422 26.6463C165.276 26.6463 162.629 25.4773 161.196 23.6619ZM191.936 19.5085H180.128C180.533 22.0316 182.215 23.385 184.801 23.385C186.576 23.385 188.071 22.7393 189.224 21.4158L191.498 23.6313C190.003 25.5386 187.604 26.6463 184.676 26.6463C179.629 26.6463 176.265 23.385 176.265 18.4627C176.265 13.6017 179.506 10.1253 184.302 10.1253C188.913 10.1253 192.028 13.2941 192.028 18.0626C192.027 18.546 191.996 19.0289 191.936 19.5085ZM180.128 16.9563H188.231C188.044 14.6482 186.61 13.3874 184.337 13.3874C181.998 13.3867 180.534 14.7094 180.128 16.9563Z" fill="#7B7B7B"/>
  </g>
  <defs>
    <clipPath id="clip0_1285_6223">
      <rect width="192" height="35" fill="white" transform="translate(0 0.5)"/>
    </clipPath>
  </defs>
</svg>