<svg xmlns="http://www.w3.org/2000/svg" width="32" height="32" viewBox="0 0 32 32" fill="none">
  <path d="M11.8667 11.3866H9.14673L10.6401 9.47998H12.5468L11.8667 11.3866Z" fill="#0471A6"/>
  <path d="M11.8401 13.3867L13.6268 19.2934L9.12012 13.3867H11.8401Z" fill="#0471A6"/>
  <path d="M18.0133 11.3866H13.9866L14.6666 9.47998H17.3466L18.0133 11.3866Z" fill="#0471A6"/>
  <path d="M13.9199 13.3867H18.1199L16.1333 20.6801L13.9199 13.3867Z" fill="#0471A6"/>
  <path d="M20.1335 11.3866L19.4668 9.47998H21.3601L22.8535 11.3866H20.1335Z" fill="#0471A6"/>
  <path d="M20.1866 13.3867H22.9333L18.5732 19.3467L20.1866 13.3867Z" fill="#0471A6"/>
  <path d="M24.3334 2.66663H7.66675C4.90675 2.66663 2.66675 4.90663 2.66675 7.66663V24.3333C2.66675 27.08 4.90675 29.3333 7.66675 29.3333H24.3334C27.0934 29.3333 29.3334 27.08 29.3334 24.3333V7.66663C29.3334 4.90663 27.0934 2.66663 24.3334 2.66663ZM25.8934 12.4133C25.8934 12.52 25.8667 12.6266 25.8267 12.7333C25.8134 12.7733 25.7867 12.8 25.7734 12.84C25.7467 12.8933 25.7334 12.9333 25.7067 12.9733L17.0001 24.8933C16.9867 24.9066 16.9734 24.9066 16.9601 24.92C16.9467 24.9466 16.9201 24.9733 16.8934 25L16.8134 25.08C16.7734 25.1066 16.7334 25.1333 16.6934 25.16C16.6667 25.1733 16.6268 25.1866 16.6001 25.2C16.5601 25.2266 16.5334 25.24 16.4934 25.2533C16.4934 25.2533 16.4934 25.2533 16.4801 25.2666C16.4001 25.28 16.3068 25.2933 16.2134 25.2933C16.2134 25.2933 16.2134 25.3066 16.2001 25.3066C16.2001 25.3066 16.2001 25.3066 16.1868 25.3066C16.1068 25.3066 16.0134 25.2933 15.9334 25.2666C15.9201 25.2666 15.9201 25.2666 15.9067 25.2533C15.8667 25.24 15.8401 25.2266 15.8001 25.2133C15.7601 25.2 15.7334 25.1866 15.7067 25.16C15.6667 25.1466 15.6268 25.12 15.5868 25.0933C15.5601 25.08 15.5468 25.0533 15.5201 25.04C15.4934 25 15.4668 24.9733 15.4268 24.9333C15.4268 24.9333 15.4001 24.92 15.4001 24.9066L6.30676 12.9866C6.26676 12.9466 6.25343 12.8933 6.22677 12.84C6.21343 12.8133 6.18675 12.7733 6.17342 12.7333C6.13342 12.6266 6.10673 12.52 6.10673 12.4C6.10673 12.3866 6.09342 12.3866 6.09342 12.3866C6.09342 12.3866 6.09342 12.3866 6.09342 12.3733C6.09342 12.2533 6.13342 12.1333 6.17342 12.0266C6.18675 11.9866 6.21343 11.9466 6.22677 11.92C6.25343 11.8666 6.2801 11.8133 6.30676 11.76L9.37341 7.86662C9.56008 7.61328 9.85341 7.47996 10.1601 7.47996H21.8534C22.1601 7.47996 22.4401 7.61328 22.6401 7.86662L25.6934 11.76C25.7201 11.8133 25.7467 11.8666 25.7734 11.92C25.7867 11.9466 25.8134 11.9866 25.8267 12.0266C25.8667 12.1333 25.8934 12.2533 25.8934 12.3733C25.8934 12.3733 25.9067 12.3733 25.9067 12.3866C25.9067 12.4 25.8934 12.4 25.8934 12.4133Z" fill="#0471A6"/>
</svg>