<svg xmlns="http://www.w3.org/2000/svg" width="137" height="40" viewBox="0 0 137 40" fill="none">
  <path d="M39.0414 22.1634H29.1731H29.1539L29.1035 22.2171L29.1299 22.261L28.9859 22.3122L28.9068 22.422H28.7916L28.7388 22.439V22.4707L28.6788 22.5415V22.5927L28.7076 22.6146L28.6356 22.7244L28.5685 22.8122V22.9268L28.5061 23.0634L28.3525 23.2902L28.2613 23.3293H28.2086L28.2302 23.3537V23.4195L28.2014 23.4634L28.1102 23.7488L28.0406 23.9293V24.0293L28.1606 24.1341L28.2494 24.2366H28.3069L28.3621 24.3951L28.3381 24.4463L28.3021 24.4341L28.2518 24.4683L28.2254 24.5732V24.7317L28.2877 24.7951V24.8976L28.2302 24.9463L28.2446 25.0415L28.2901 25.1561H28.2661L28.2925 25.2098L28.3093 25.2927L28.3597 25.3366L28.3165 25.4073L28.3573 25.4561L28.4005 25.5854L28.3861 25.6512L28.5373 25.7976L28.6476 25.8146L28.7388 25.8927V25.9366L28.77 25.9561L28.7556 26.0585L28.7316 26.1098L28.7556 26.1293L28.6668 26.2561V26.3024L28.6836 26.3341V26.361L28.65 26.3927L28.6692 26.5463L28.7172 26.639L28.6932 26.6659V26.7756L28.7172 26.8024V26.9098L28.6716 26.9537L28.6884 27.0683L28.6572 27.2829H28.6404L28.6644 27.3195V27.5122H28.5996V27.5366L28.6212 27.5683H28.7052L28.7292 27.5878L28.7484 27.7537L28.7052 27.8171L28.6596 27.8415L28.686 27.8805V27.922H28.6308L28.5709 27.9854L28.5877 28.0073L28.6068 27.9902H28.6596L28.6212 28.0463V28.1341H28.5685L28.4749 28.2537V28.3073L28.3909 28.4244H28.3213V28.5049L28.0382 28.661H27.9974L27.9758 28.722L27.7047 28.8683H27.6015V28.8902L27.4768 28.9488L27.3064 29.0634L27.2656 29.0341V29.0878L27.1625 29.2171L27.1097 29.2415L27.0809 29.1707L27.0617 29.2829L27.0137 29.2976L26.9969 29.361L26.8266 29.4659V29.5098L26.7834 29.5488L26.7426 29.561V29.622H26.6322L26.3923 29.7756V29.8732L26.3179 29.9293H26.2171L26.174 29.9854L26.0948 29.9341H26.0492V30L26.09 30.0488V30.1171L26.0588 30.161V30.2244L26.0132 30.2927L26.1356 30.461V30.5195L26.0828 30.5634L26.1236 30.5829L26.1692 30.6585V30.761L26.2195 30.8561L26.198 31.1244L26.2219 31.2195H26.2531V31.1439L26.3011 31.0415V31.1317H26.3203V31.2488L26.2867 31.2927V31.4098L26.3059 31.4268L26.2555 31.5634V31.6366L26.2171 31.6854V31.7732H26.1932L26.2099 31.8488L26.2747 31.8098L26.2891 31.8585L26.2363 31.939L26.2099 32.0512L26.0564 32.2171L25.7805 32.3439L25.4086 32.4195L25.2646 32.5585L25.1567 32.5854L25.1231 32.6366L25.0703 32.6805L25.0391 32.7878H24.9959L24.9551 32.8146L24.9743 32.839L25.0151 32.9171V32.9951L25.0535 32.9439L25.1135 32.9634L25.1327 32.8902H25.1615V32.9268L25.1447 33.0488L25.1015 33.1195V33.2073L25.0511 33.2756H25.0751L25.0247 33.4317L25.0103 33.5659L24.9479 33.6951L24.9071 33.861L24.8447 33.9366L24.8256 34.0122L24.7128 34.1463H24.6744L24.6504 34.1829L24.564 34.2244L24.5232 34.2732L24.4201 34.3415L24.3697 34.4439L24.2857 34.5415V34.5829L24.2377 34.6756H24.1561L24.0914 34.8024L23.9234 35.122L23.7867 35.2512L23.7651 35.3732L23.6859 35.4073L23.6115 35.4976H23.5683L23.5491 35.5317L23.1053 35.9756H23.0525V35.9976L22.9805 36.0805L22.6902 36.2707L22.6278 36.339L22.5246 36.3707V36.3976L22.3615 36.4415L22.2703 36.5H22.1743L22.1263 36.4634H21.9968L21.8912 36.4976L21.8456 36.5756L21.908 36.6293V36.6537H21.7592L21.6729 36.6098H21.6033L21.5433 36.6707L21.5697 36.7244L21.5433 36.7512L21.3394 36.7073L21.2818 36.661L21.085 36.6122L20.9579 36.6366V36.6683L20.8907 36.6927L20.7923 36.639H20.5644L20.4972 36.6707L20.478 36.7439L20.4324 36.722L20.3797 36.7366L20.3317 36.7756L20.3077 36.8098H20.2069L20.1397 36.839L20.015 36.7927L19.9142 36.8293L19.895 36.8585L19.7918 36.8366L19.7006 36.9415L19.6239 36.9561L19.5975 37.0195L19.5519 37.0024L19.5111 37.0219L19.3 36.922L19.2568 36.9463V36.8439L19.1776 36.8L19.1152 36.8317L19.0768 36.8146L19.1104 36.7854L19.0888 36.6951L18.9905 36.6781L18.9185 36.7415V36.8195L18.8657 36.778V36.6902L18.8945 36.6171L18.8753 36.5098L18.9329 36.4122L18.8585 36.2756L18.7841 36.2073L18.7145 36.0976V35.9854L18.7601 35.9439L18.8009 35.9878H18.8393L18.8897 35.9317L18.9137 35.8L18.8681 35.6537V35.5878L18.7481 35.3829V35.2878L18.6306 35.1317L18.5754 34.8878L18.4746 34.6341V34.5122L18.3834 34.2488L18.2467 34.1463L18.2227 34.0073L18.0787 33.9024L18.0547 33.8415L17.954 33.739L17.8508 33.5317L17.774 33.4244V33.2585L17.7068 33.1829V33.0951L17.7524 33.061L17.714 32.9829L17.6564 32.9512L17.6253 32.7268L17.5749 32.661L17.6349 32.622L17.5965 32.4976L17.6109 32.3146L17.4837 31.9756V31.6439L17.4237 31.422L17.4765 31.3976V31.2195L17.2534 30.8902V30.7683L17.0398 30.461L17.0086 30.2683L16.7975 29.7805L16.6631 29.5366L16.4232 29.2756L16.3992 28.9073V28.8634L16.4184 28.7268V28.5171L16.4376 28.3805V28.2244L16.5552 28.0805L16.5792 27.9171L16.6823 27.778V27.4317L16.7207 27.4V27.2561L16.9606 27.0463V26.9415L17.1478 26.7976H17.1982L17.3661 26.478V26.1L17.3133 26.0341V25.9634L17.1526 25.6951V25.5829L17.0878 25.478V25.322L17.011 25.2829L17.1454 25.1073L17.1646 24.9366L17.0374 24.7537V24.4171L16.7975 24.1488V24.0878L16.7519 24.0317L16.8743 23.9634L16.7951 23.9366H16.6727L16.6511 23.8854L16.6295 23.8341L16.6775 23.7439L16.6487 23.6195L16.596 23.5634L16.548 23.5073L16.5552 23.4146L16.488 23.339V23.261L16.3608 23.178L16.3152 23.1317L16.2313 23.0488L16.2121 23.0293L16.1377 23L16.1329 22.9268L15.9793 22.8512L15.9385 22.7561L15.7466 22.6L15.6314 22.4756L15.6626 22.4537L15.5547 22.361L15.5091 22.261L15.4443 22.1951V22.0634L15.3675 21.9634V21.8951L15.3195 21.8561L15.2308 21.6659V21.622L15.3339 21.6561L15.4155 21.5878L15.4347 21.3439L15.4467 21.2244L15.4947 21.2732L15.6818 21.2268L15.5499 21.1951L15.4659 21.0585L15.5571 21.0439V20.9415V20.9171L15.4515 20.861L15.5571 20.6561L15.6914 20.5024L15.6602 20.4268L15.677 20.4098L15.7442 20.3439L15.6818 20.278L15.7394 20.1268L15.725 19.961L15.6482 19.8512V19.7293L15.677 19.6732L15.6122 19.5707L15.4875 19.6244L15.4491 19.5805H15.3747L15.3243 19.3146L15.2571 19.3512L15.1996 19.3244L15.1684 19.3439L15.0964 19.2683L15.0532 19.3902L14.9452 19.4122L14.8757 19.3707L14.6789 19.4439L14.6357 19.4171L14.5518 19.4683L14.1415 19.4927L13.9879 19.4488L13.8775 19.3488L13.8296 19.1976L13.772 19.1683V19.0244L13.6664 18.8146L13.4937 18.6439L13.1818 18.4756L13.0474 18.5317L12.8818 18.4976H12.865L12.5723 18.5976L12.4212 18.578H12.3756L12.1477 18.722H12.1117L11.8717 18.7512L11.6702 18.8512L11.4495 19.039L11.1927 19.0634L10.8256 19.2415L10.6601 19.1659L10.4202 19.1341L10.3986 19.0951L10.3386 18.9805L10.257 19L10.2378 19.1073L10.0531 19.0244L9.83953 19.0951H9.27809L9.11734 19.1171V19.161L8.82222 19.2683L8.79103 19.3122H8.69746L8.5487 19.4415L8.51031 19.4268L8.09044 19.2683L7.76653 19.0244H7.67776L7.41384 18.7561H7.39464L7.23629 18.6488H7.17151L7.06354 18.4902L6.99396 18.4585L7.02515 18.3976H7.01315L6.95797 18.3341H6.79722L6.57168 18.2146L6.47571 18.1902L6.4997 18.1366L6.43732 18.0683L6.38454 18.0146L6.42053 17.9415V17.922L6.33415 17.9537L6.23818 17.8488V17.7512L6.19499 17.6146H6.11341L6.08222 17.5463L6.13981 17.4366L6.07982 17.4024V17.3366L6.12541 17.2561L6.06303 17.2049L5.94786 17.1439L5.91427 17.0122H5.8255L5.78711 16.9732V16.9049L5.8207 16.8707L5.75832 16.8293L5.71993 16.8854L5.65515 16.8585H5.55918L5.4632 16.7244L5.50159 16.5659L5.43441 16.4902L5.33364 16.5195L5.31205 16.4951V16.422L5.1321 16.4415L5.23287 16.3317H5.18489L5.20888 16.2927L5.17049 16.2488H5.10091L5.07452 16.2122H5.27846L5.31445 16.1854L5.20168 16.0976L5.09851 16.1195L4.99054 16.1585H4.94256L4.91856 16.0976H4.83219L4.75541 16.0195L4.83219 15.9585H4.77461H4.63305L4.59706 15.8927V15.8098L4.55867 15.7634L4.63065 15.7829L4.67623 15.7976L4.76741 15.739L4.62345 15.6878L4.52748 15.739L4.50588 15.7073L4.54667 15.661V15.5317L4.49869 15.4683L4.57306 15.3927L4.65944 15.5049H4.77461L4.83939 15.4439L4.74341 15.4707L4.63305 15.4146L4.61385 15.3488L4.60186 15.3146L4.65944 15.2707L4.55867 15.1976H4.59226V15.1098L4.51308 15.0976L4.41951 14.9317L4.27555 14.8122L4.54187 14.5683L4.65224 14.3659L4.66904 14.2244L4.69303 14.0488L4.76021 13.7805L4.86338 13.6341L4.89217 13.3244L4.8082 12.878L4.69063 12.6829L4.73862 12.6463H4.7986L4.82979 12.5L4.7986 12.4049L4.85378 12.3488L4.73142 12.1634L4.68103 12.2049L4.64024 12.1951L4.60426 12.0902L4.51068 12.1951V12.0293L4.55867 11.9268V11.9098V11.7683L4.60426 11.6756V11.5683L4.66424 11.5024H4.71702L4.85138 11.2585L4.92576 11.2293L4.87298 11.1902V11.1488L5.04333 10.9195V10.8537L5.1489 10.6098L5.21128 10.5756L5.41042 10.3878L5.42482 10.2634L5.68634 9.87805L5.61916 9.7561L5.73433 9.68781L5.76312 9.60244L6.05823 9.44634H6.13501V9.26829L6.30056 9.02439L6.40133 8.87805L6.81641 8.8L7.11152 8.53659H7.24588L7.36825 8.40244L7.39704 8.28293L7.66336 7.97561L7.69215 7.85122L7.64417 7.79024L7.60818 7.75366L7.66336 7.59268L7.59378 7.44878V7.3561L7.70415 7.12683L7.8745 6.97073V6.86585L7.80732 6.71707L7.99926 6.57561L8.05925 6.48293L8.16242 6.44878L8.33037 6.33415H8.39755L8.51511 6.20732L8.67107 6.15366L8.76464 6.0878H8.81023L9.00217 5.90732L9.05975 5.79512L9.07895 5.61707L9.17012 5.49512L9.18692 5.25122L9.26849 5.15854H9.33567L9.36926 5.12683L9.45324 5.09756L9.47723 5.12927L9.46284 5.15366V5.20244L9.48203 5.27073L9.52762 5.30732L9.64518 5.43415L9.73636 5.45366L9.86592 5.43415L9.95469 5.38537H10.0243L10.161 5.42439L10.2978 5.39512L10.3722 5.3122H10.4034L10.425 5.39512L10.4777 5.44878L10.7177 5.46829H10.7777H10.8904L11.02 5.42683L11.1016 5.33659L11.116 5.28537L11.1687 5.23659L11.2695 5.18293H11.3895L11.4135 5.14878L11.4591 5.11707H11.5166L11.5454 5.1439H11.591L11.6438 5.07317V5.00732L11.7446 4.9439H11.8046L11.9221 4.92683L12.1285 4.76585L12.222 4.78049H12.3852L12.4764 4.74878L12.5747 4.80244H12.6395L12.7475 4.69512L12.8291 4.72683H12.9178L12.961 4.63902L13.0138 4.62683L13.0906 4.65122H13.1338L13.2225 4.66585L13.3353 4.64634L13.3881 4.66098H13.5033L13.5584 4.74878H13.6544L13.7408 4.68049H13.808L13.8632 4.70244L13.9159 4.63415L14.0023 4.61707V4.55854L14.1007 4.53415L14.1607 4.58049V4.64878L14.307 4.66585L14.379 4.59268V4.54878L14.4942 4.59024L14.5877 4.67317L14.7677 4.61951L14.8301 4.63415L14.95 4.60976L14.9716 4.63659L15.082 4.53902L15.2356 4.46098L15.3483 4.43659L15.3915 4.5V4.4439L15.4851 4.42439L15.5379 4.47317V4.54878L15.5811 4.56341L15.6434 4.7122L15.6866 4.73659L15.737 4.68293L15.8882 4.54146L15.9265 4.57073V4.6561L15.8426 4.78293V4.86098L15.7394 4.93415L15.7202 5.04634L15.8234 5.18781L15.9481 5.23659V5.37805L15.9793 5.4L15.9961 5.46098L15.9505 5.50976L15.9865 5.56098L15.9553 5.60976L15.833 5.73171L15.6218 5.88293L15.5811 6.00976L15.6482 6.13415L15.7826 6.22927L15.845 6.21463L15.8642 6.28049L15.9218 6.30732L15.9529 6.28049V6.24878L15.9793 6.22927L16.0441 6.26585V6.32683L16.0561 6.37317L16.1833 6.45122H16.2337L16.3296 6.47073L16.4112 6.54878L16.6199 6.59512L16.9175 6.53902L17.035 6.58537H17.275L17.4189 6.68049L17.69 6.71951L17.798 6.86341V6.99756L17.93 7.25366L18.0715 7.32683H18.2347L18.2803 7.3L18.417 7.31707L18.7337 7.45122L18.9305 7.55366L19.0576 7.65854L19.2208 7.79512L19.4055 7.87073L19.4943 7.83659L19.6383 7.7122L19.6527 7.67073L19.763 7.55854L19.799 7.46098L19.7462 7.28781L19.6695 7.16585L19.6839 6.9439L19.7366 6.90244L19.763 6.78537L19.8662 6.68293L20.0461 6.59512L20.2549 6.57561L20.3868 6.50732H20.418L20.5092 6.55366L20.5524 6.51463L20.5884 6.53415L20.7371 6.57317H20.8283L21.0083 6.67317V6.72683L20.9747 6.73902L21.0083 6.78781L21.1594 6.82927H21.2698L21.3274 6.88293L21.6129 6.91707L21.6921 6.90488L21.7688 6.91707L21.8288 6.9878L21.8672 7.10732H21.9104H22.1215L22.2847 7.16098L22.6158 7.1878L22.7526 7.21707L22.8725 7.30244L22.9229 7.27073H22.9709L23.0933 7.34878H23.2372H23.338L23.4915 7.44634H23.6331L23.6499 7.40732L23.7531 7.31707L23.8634 7.28049L23.9162 7.25122L24.0314 7.1878L24.0818 7.15122H24.2017H24.2857L24.2185 7.18049H24.137V7.2L24.1657 7.22927L24.2593 7.19024H24.3409H24.4201V7.16098L24.3577 7.14878L24.3817 7.12195L24.5256 7.16098L24.612 7.19024H24.6816L24.7176 7.22683L24.6768 7.24634L24.696 7.32195L24.7824 7.37073L24.8399 7.45854V7.40244L24.7608 7.31707L24.78 7.2439L24.9359 7.35366L25.1471 7.29512L25.4182 7.34146L25.5333 7.29512L25.5885 7.21951L25.6341 7.24146L25.7181 7.36585L25.7613 7.52683L25.8812 7.7122L25.9748 7.93659L25.9388 8.04146L25.994 8.18781L25.9772 8.21463L25.9124 8.45854V8.55122L25.862 8.68049L25.9004 8.71951L25.8692 8.87317L25.8117 8.92927L25.7949 8.98049V8.9561L25.6821 8.89268L25.4782 8.67317L25.4542 8.59268L25.3414 8.54146L25.3006 8.4561V8.37073L25.1351 8.22927V8.17561L25.0967 8.12927L25.0679 8.01951H25.0271L25.0103 7.99268L24.9911 8.02195V8.08049V8.13902L25.0799 8.2561V8.35366L25.2382 8.5439L25.2574 8.6122L25.4974 8.82439L25.5333 8.89268L25.5166 8.96098V9.02439L25.6605 9.18293V9.23171L25.7037 9.28781L25.7205 9.45366L25.7661 9.52683V9.61707L26.0108 10L26.03 10.122L26.0996 10.1683L26.2675 10.4122L26.3059 10.5268L26.3539 10.5854V10.5561L26.3803 10.578L26.4499 10.6878H26.4907L26.5387 10.739H26.4139L26.3827 10.7122V10.7488L26.4115 10.8073V10.9146L26.3923 10.9756L26.4571 11.2024L26.589 11.2878H26.6682L26.721 11.2634L26.7738 11.378L26.8626 11.4049L26.8889 11.4585L26.9873 11.561L27.0617 11.5902V11.6268V11.6659L27.0833 11.7V11.722L27.0977 11.7415V11.7585L27.1145 11.7829L27.1433 11.9024L27.2249 12.0024V12.0439H27.2057L27.1937 12.0171L27.1601 11.9756L27.1457 11.9902V12.0683L27.2488 12.378L27.2704 12.5488L27.2464 12.7073L27.304 12.8927L27.3808 13.0415L27.4504 13.0561L27.6375 13.1829V13.2659H27.7239L27.8151 13.3146V13.3756H27.8319L27.9302 13.4829L28.1078 13.9561L28.1654 14.2659H28.1966L28.2206 14.3805V14.4195L28.2781 14.439L28.3141 14.5293L28.3357 14.6634L28.4101 14.6829V14.561H28.3909V14.4732L28.4221 14.4585L28.4989 14.5707L28.4701 14.6024L28.5421 14.7122L28.5901 14.7634L28.6332 14.7341H28.6956L28.722 14.7512L28.7772 14.7317L28.854 14.8195L28.8948 14.8707L29.0123 14.9L29.0387 14.9439L29.1827 15.1073L29.2451 15.2171L29.3314 15.2537L29.3938 15.3293H29.4274V15.3049L29.4562 15.3439L29.5258 15.5244L29.5786 15.539L29.6385 15.6171L29.6242 15.6439L29.6625 15.7293H29.7057L29.7537 15.7537L29.7873 15.722L29.8017 15.7463H29.8233V15.778L29.9217 15.8756H29.9481V15.9171L29.9625 16.0512L29.9193 16.0683L29.8401 16.1585H29.7801L29.7369 16.2244H29.6457L29.6937 16.2829H29.7225L29.7873 16.2537H29.8977L29.9121 16.2829L29.9385 16.3366H29.9649L30.2312 16.6659L30.2624 16.7317L30.3056 16.7439L30.4111 16.8415L30.5143 16.8659L30.6367 16.8512L30.675 16.8024L30.7854 16.7341H30.855L30.9965 16.6171H31.0397L31.0637 16.6415H31.1789L31.2197 16.6268L31.3037 16.6659L31.4284 16.6512L31.6851 16.4902L31.7691 16.4732L31.8531 16.5098L31.9155 16.4902H32.0306L32.1482 16.4293H32.2826L32.3234 16.4537H32.3665L32.5729 16.4146L32.6305 16.3415L32.7552 16.3244L32.7912 16.3561V16.3195L32.9208 16.3049L32.9976 16.2293H33.012L33.0456 16.1683L33.0983 16.1171H33.1343V16.0976L33.1847 16.1341L33.2927 16.1732H33.3431H33.3623L33.3167 16.239L33.2903 16.3073V16.378L33.2663 16.422L33.2855 16.4585H33.3503V16.4829L33.3047 16.522L33.2687 16.6122L33.3047 16.6634L33.3191 16.7366L33.2879 16.8049H33.3455V16.7829H33.3719L33.3982 16.8341L33.3695 16.8488V16.8317H33.3143H33.2783L33.2159 16.939L33.2495 16.9951L33.2327 17.0976L33.2063 17.1439V17.2561L33.0599 17.4634L32.9616 17.678L32.8992 17.7561H32.8656H39.0654C39.0983 17.7562 39.1298 17.7423 39.1521 17.7177C39.1745 17.6931 39.1856 17.6602 39.183 17.6268C39.183 17.5707 39.1686 17.5171 39.1614 17.4634C39.1206 17.1244 39.0702 16.7878 39.0126 16.4537C38.9958 16.3512 38.9766 16.2463 38.9574 16.1439C38.883 15.7537 38.8015 15.3659 38.7055 14.9829C38.7055 14.9537 38.6887 14.9268 38.6815 14.8976C38.5903 14.5415 38.4872 14.1878 38.3768 13.839C38.3456 13.739 38.3144 13.639 38.2808 13.5415C38.1657 13.2 38.0409 12.8634 37.9161 12.5293C37.9017 12.4976 37.8921 12.4634 37.8777 12.4317C37.7338 12.0707 37.5778 11.7171 37.4147 11.3683C37.3715 11.2756 37.3259 11.1854 37.2827 11.0951C37.1404 10.8024 36.9916 10.5146 36.8364 10.2317L36.7357 10.0439C36.5485 9.7187 36.3518 9.3935 36.1454 9.06829L35.9919 8.82439C35.8207 8.5626 35.6432 8.3065 35.4592 8.0561L35.2697 7.87805C35.0418 7.57561 34.809 7.27805 34.5643 6.99024L34.4132 6.81707C34.2068 6.57317 33.9957 6.3439 33.7773 6.11463L33.5902 5.90244C33.3263 5.63171 33.0551 5.36585 32.7768 5.10976L32.6689 5.01707C32.4289 4.79024 32.1602 4.57317 31.8987 4.36098L31.6588 4.16829C31.366 3.93902 31.0685 3.71463 30.7638 3.50244L30.7422 3.48537C30.4279 3.26829 30.1064 3.06098 29.7825 2.86098L29.5114 2.70732C29.2259 2.53902 28.938 2.37561 28.6452 2.21951L28.4917 2.13659C28.1558 1.96341 27.8103 1.80244 27.4624 1.64878L27.1961 1.53659C26.9057 1.4122 26.6106 1.29268 26.3131 1.1878L26.0732 1.1C25.7133 0.973171 25.3534 0.856098 24.9767 0.75122L24.7368 0.682927C24.4297 0.6 24.1202 0.52439 23.8058 0.456098L23.5203 0.392683C23.1388 0.314634 22.755 0.246341 22.3639 0.192683L22.1719 0.168293C21.8336 0.12439 21.5025 0.0902439 21.1618 0.0634146L20.8451 0.0414634C20.442 0.0170732 20.0389 0 19.6311 0H19.5591C19.1752 0 18.7889 0.0170732 18.4002 0.0414634L17.9947 0.0756098C17.7212 0.097561 17.4477 0.126829 17.1742 0.160976C17.0014 0.182927 16.8239 0.202439 16.6511 0.229268H16.6127C7.80634 1.63156 1.0308 8.88269 0.105569 17.8951C0.105569 17.9341 0.105569 17.9732 0.105569 18.0122C0.0695797 18.2756 0.0503853 18.5366 0.0359895 18.8049C0.0359895 18.8829 0.0359895 18.961 0.0359895 19.0488C0 19.3439 0 19.6512 0 19.961C0 19.9854 0 20.0098 0 20.0341C0 20.3195 0 20.6 0.0191944 20.8829L0.0335902 21.1268C0.047986 21.3707 0.0647811 21.6146 0.0887741 21.8732L0.10317 22.0463C0.134361 22.3439 0.17275 22.639 0.215937 22.9317C0.215937 23.0049 0.237531 23.0756 0.249527 23.1488C0.285517 23.3927 0.326305 23.6122 0.371891 23.8415C0.386287 23.9195 0.400683 23.9976 0.417478 24.0854C0.475061 24.3732 0.539842 24.661 0.611821 24.9439C0.611821 24.9756 0.628616 25.0098 0.638214 25.0415C0.702995 25.2854 0.774974 25.5463 0.849352 25.7951L0.921331 26.039C0.995709 26.2829 1.07249 26.5024 1.16126 26.7341C1.17806 26.7805 1.19245 26.8293 1.20925 26.8756C1.30762 27.1463 1.41319 27.4146 1.52116 27.6805L1.60753 27.8829C1.6963 28.0902 1.78748 28.2976 1.88345 28.5049L1.97942 28.7098C2.10419 28.9683 2.21935 29.222 2.36331 29.4732L2.42329 29.5805C2.54086 29.8 2.66322 30.0146 2.79039 30.2293L2.91515 30.4366C3.04231 30.6463 3.17187 30.8537 3.30623 31.0585C3.33023 31.0927 3.35182 31.1293 3.37581 31.1659C3.53177 31.4098 3.69492 31.6317 3.85567 31.861L3.98764 32.039C4.122 32.2171 4.25876 32.3951 4.39792 32.5683C4.4435 32.6268 4.48669 32.6829 4.53468 32.739C4.71222 32.9561 4.89457 33.1707 5.08172 33.3805L5.17529 33.4854C5.33604 33.6634 5.50159 33.8366 5.66715 34.0098L5.8351 34.1805C6.01264 34.3585 6.19259 34.5317 6.37494 34.7024L6.44932 34.7732C6.65566 34.9659 6.86919 35.1512 7.08273 35.3317L7.25788 35.4756C7.42823 35.6171 7.60338 35.7585 7.78093 35.8951L7.94648 36.022C8.16961 36.1902 8.39755 36.3561 8.62788 36.5098L8.75984 36.5951C8.95419 36.7268 9.15093 36.8561 9.35007 36.9805L9.55401 37.1073C9.77475 37.2415 9.99788 37.3732 10.2234 37.5L10.293 37.539C10.5329 37.6756 10.792 37.8049 11.0464 37.9293L11.2527 38.0317C11.4567 38.1293 11.663 38.222 11.8693 38.3146L12.0565 38.3976C12.318 38.5073 12.5819 38.6146 12.8482 38.7122L13.0114 38.7732C13.2321 38.8512 13.4529 38.9293 13.676 39L13.9159 39.0756C14.1775 39.1561 14.4414 39.2317 14.7053 39.3024L14.7485 39.3146C15.0292 39.3878 15.3123 39.4537 15.5954 39.5146L15.8354 39.561C16.0753 39.6073 16.2912 39.6488 16.524 39.6878L16.7231 39.7195C17.011 39.7634 17.3013 39.8 17.5917 39.8317L17.786 39.8488C18.0259 39.8732 18.2659 39.8902 18.5058 39.9049L18.7457 39.9195C19.0456 39.9317 19.348 39.9415 19.6503 39.9415C19.9526 39.9415 20.2789 39.9415 20.5908 39.9195C20.7108 39.9195 20.8307 39.9024 20.9435 39.8951C21.1378 39.8805 21.3298 39.8707 21.5217 39.8537C21.6465 39.8537 21.7616 39.822 21.8912 39.8073C22.076 39.7878 22.2583 39.7683 22.4406 39.7415L22.8365 39.6756C23.0069 39.6463 23.1748 39.622 23.3428 39.5902C23.5107 39.5585 23.6163 39.5293 23.7531 39.5C23.8898 39.4707 24.0746 39.4341 24.2329 39.3951C24.3913 39.3561 24.5088 39.322 24.6456 39.2854C24.7824 39.2488 24.9551 39.2049 25.1087 39.161C25.2622 39.1171 25.3798 39.0756 25.5141 39.0317C25.6485 38.9878 25.8165 38.939 25.9652 38.8878C26.114 38.8366 26.2291 38.7902 26.3611 38.7415C26.4931 38.6927 26.6586 38.6341 26.8074 38.5756C26.9561 38.5171 27.0689 38.4634 27.2009 38.4073C27.3328 38.3512 27.4864 38.2902 27.6279 38.2268C27.7695 38.1634 27.8871 38.1024 28.0142 38.0415C28.1414 37.9805 28.2949 37.9098 28.4317 37.8415C28.5685 37.7732 28.6716 37.7073 28.806 37.639C28.9403 37.5707 29.0795 37.4951 29.2139 37.4195C29.3482 37.3439 29.4538 37.2756 29.5762 37.2024C29.6985 37.1293 29.8449 37.0463 29.9744 36.9585C30.104 36.8707 30.2144 36.8049 30.3271 36.7268C30.4399 36.6488 30.5863 36.5585 30.7134 36.4707C30.8406 36.3829 30.9414 36.3049 31.0565 36.2268C31.1717 36.1488 31.2965 36.0488 31.4284 35.9561L31.7619 35.6902C31.8819 35.5951 32.0019 35.5024 32.1194 35.4049L32.4385 35.122C32.5537 35.022 32.6785 34.9244 32.7816 34.822C32.8848 34.7195 32.9856 34.6268 33.0887 34.5293C33.1919 34.4317 33.3119 34.3195 33.4222 34.2098C33.5326 34.1 33.6166 34.0049 33.715 33.9049C33.8133 33.8049 33.9285 33.6829 34.0317 33.5707C34.1348 33.4585 34.2212 33.3561 34.3148 33.2512C34.4084 33.1463 34.5187 33.022 34.6171 32.9049C34.7155 32.7878 34.7946 32.6829 34.8834 32.5707C34.9722 32.4585 35.0778 32.3268 35.1713 32.2122C35.2649 32.0976 35.3393 31.9683 35.4257 31.8634C35.512 31.7585 35.6056 31.6195 35.6944 31.4927C35.7832 31.3659 35.8527 31.2488 35.9343 31.1341C36.0159 31.0195 36.1047 30.8902 36.1742 30.7512C36.2438 30.6122 36.323 30.5073 36.3998 30.3805C36.4766 30.2537 36.5581 30.1195 36.6397 29.9854C36.7213 29.8512 36.7789 29.7415 36.8484 29.6C36.918 29.4585 36.9948 29.3341 37.0644 29.2C37.134 29.0659 37.1963 28.9341 37.2611 28.8024C37.3259 28.6707 37.3955 28.5293 37.4579 28.3902C37.5202 28.2512 37.5754 28.1195 37.6354 27.9829C37.6954 27.8463 37.7578 27.7049 37.8154 27.5634C37.8729 27.422 37.9209 27.2878 37.9737 27.1488C38.0265 27.0098 38.0841 26.861 38.1369 26.7146C38.1896 26.5683 38.228 26.4341 38.276 26.2951C38.324 26.1561 38.3744 25.9976 38.42 25.8488C38.4656 25.7 38.5016 25.5634 38.5399 25.4195C38.5783 25.2756 38.6263 25.1195 38.6647 24.9659C38.7031 24.8122 38.7343 24.6732 38.7679 24.5244C38.8015 24.3756 38.8399 24.222 38.871 24.0683C38.9022 23.9146 38.9262 23.7683 38.9526 23.6195C38.979 23.4707 39.0126 23.3098 39.0366 23.1537C39.0606 22.9976 39.0774 22.8488 39.099 22.6976C39.1206 22.5463 39.1374 22.4244 39.1518 22.2878C39.1545 22.2227 39.1054 22.1673 39.0414 22.1634ZM15.9361 6.20244L15.869 6.14878V6.11707H15.9481L15.9793 6.1561L15.9361 6.20244ZM6.36294 18.139L6.30536 18.1024L6.29336 18.0634L6.31256 18.0317H6.35814L6.39173 18.0732V18.1317L6.36294 18.139ZM14.3742 21.2878L14.3262 21.3195H14.2926V21.239L14.343 21.1854L14.3958 21.2195L14.3742 21.2878ZM15.094 19.9122V19.8463H15.1492L15.1828 19.7463L15.2715 19.6537L15.3027 19.6829V19.8049L15.2403 19.9732L15.1588 19.961L15.094 19.9122Z" fill="#7E7E7E"/>
  <path d="M24.881 33.1439L24.84 33.1512L24.811 33.1585L24.881 33.1439Z" fill="#7E7E7E"/>
  <path d="M47.0263 32.539L46.0666 34.8561H45.0876L48.7946 26.3L52.4079 34.8561H51.417L50.4693 32.539H47.0263ZM48.7634 28.4219L47.3886 31.6927H50.0974L48.7634 28.4219Z" fill="#7E7E7E"/>
  <path d="M65.3905 27.5341V29.9732H68.0658V30.8171H65.3905V34.8683H64.4956V26.6878H68.1401V27.5341H65.3905Z" fill="#7E7E7E"/>
  <path d="M81.4203 34.8561H80.5254V26.6878H81.6867C83.2126 26.6878 84.6282 27.1 84.6282 28.9415C84.6282 30.1976 83.8508 31.0878 82.6152 31.1951L85.1728 34.8537H84.074L81.6459 31.2683H81.4203V34.8561ZM81.4203 30.4659H81.6987C82.7112 30.4659 83.7333 30.2707 83.7333 29.0024C83.7333 27.6585 82.7735 27.539 81.6867 27.539H81.4203V30.4659Z" fill="#7E7E7E"/>
  <path d="M98.3305 34.8561H97.4355V26.6878H98.3305V34.8561Z" fill="#7E7E7E"/>
  <path d="M117.388 28.4756C116.745 27.791 115.857 27.4003 114.926 27.3927C113.137 27.3927 111.687 28.9756 111.687 30.7732C111.699 32.6124 113.149 34.1081 114.958 34.1463C115.876 34.1217 116.749 33.732 117.388 33.061V34.1878C116.69 34.703 115.851 34.9836 114.989 34.9903C113.504 34.9903 112.132 34.1851 111.39 32.8781C110.648 31.571 110.648 29.9607 111.39 28.6537C112.132 27.3466 113.504 26.5415 114.989 26.5415C115.854 26.5283 116.699 26.81 117.388 27.3415V28.4756ZM131.29 32.539L130.33 34.8561H129.349L133.058 26.3L136.669 34.8561H135.678L134.718 32.539H131.29ZM133.027 28.422L131.652 31.6927H134.361L133.027 28.422ZM56.3332 16.6878H47.2662C47.2662 18.4683 48.1875 19.4293 49.963 19.4293C50.8868 19.4293 51.549 19.1171 52.0216 18.3H56.1676C55.8624 19.6398 55.0333 20.7954 53.8715 21.5C52.6951 22.1998 51.3522 22.5575 49.9894 22.5342C45.9658 22.5342 42.9595 20.2244 42.9595 15.9659C42.9595 11.8512 45.7283 9.38049 49.6775 9.38049C53.8907 9.38049 56.3284 12.0268 56.3284 16.2366L56.3332 16.6878ZM52.3335 14.161C52.0916 12.9972 51.0655 12.1758 49.8958 12.2098C48.641 12.2098 47.5997 12.8829 47.3382 14.161H52.3335Z" fill="#7E7E7E"/>
  <path d="M69.6397 10.9756V3.98294H74.2799V22.1244H69.6397V14.6903H62.9408V22.1244H58.303V3.98294H62.9408V10.9756H69.6397Z" fill="#7E7E7E"/>
  <path d="M89.3259 16.6878H80.2614C80.2614 18.4683 81.1851 19.4293 82.9582 19.4293C83.8819 19.4293 84.5441 19.1171 85.0192 18.3H89.1604C88.8539 19.642 88.0209 20.7982 86.8546 21.5C85.6783 22.1998 84.3354 22.5575 82.9726 22.5342C78.949 22.5342 75.9426 20.2244 75.9426 15.9659C75.9426 11.8512 78.7114 9.38049 82.6607 9.38049C86.8738 9.38049 89.3115 12.0268 89.3115 16.2366L89.3259 16.6878ZM85.3263 14.161C85.0844 12.9972 84.0583 12.1758 82.8886 12.2098C81.6338 12.2098 80.5925 12.8829 80.3309 14.161H85.3263ZM104.933 22.1244H100.615V20.7537H100.569C99.8109 21.9732 98.3185 22.5342 96.8981 22.5342C93.2992 22.5342 90.7679 19.4781 90.7679 15.9488C90.7679 12.4195 93.2536 9.38049 96.8525 9.38049C98.2489 9.38049 99.7149 9.90976 100.615 10.9927V9.78049H104.933V22.1244ZM95.2282 15.9659C95.2282 17.5293 96.2455 18.7317 97.997 18.7317C99.7485 18.7317 100.771 17.5293 100.771 15.9659C100.771 14.4488 99.7485 13.1707 97.997 13.1707C96.2455 13.1707 95.2282 14.4488 95.2282 15.9659Z" fill="#7E7E7E"/>
  <path d="M111.615 22.1244H107.309V2.15366H111.615V22.1244Z" fill="#7E7E7E"/>
  <path d="M128.418 2.15366V11.3463H128.466C129.459 9.99756 130.666 9.37317 132.348 9.37317C135.424 9.37317 136.906 11.4415 136.906 14.5683V22.1293H132.588V15.7976C132.588 14.3537 132.374 12.8707 130.647 12.8707C128.919 12.8707 128.399 14.3634 128.399 15.7976V22.1244H124.08V2.15366H128.418Z" fill="#7E7E7E"/>
  <path d="M122.456 9.78049H120.018V2.15366H115.709V9.78049H113.273V13.3902H115.709V22.1244H120.018V13.3902H122.456V9.78049Z" fill="#7E7E7E"/>
</svg>