<svg xmlns="http://www.w3.org/2000/svg" width="173" height="40" viewBox="0 0 173 40" fill="none">
  <g clip-path="url(#clip0_1285_6225)">
    <path fill-rule="evenodd" clip-rule="evenodd" d="M99.608 0.148137C96.1217 0.56252 92.8214 2.10767 90.117 4.59178C87.4126 7.07588 85.423 10.3895 84.3954 14.1213C83.3678 17.8532 83.3473 21.8388 84.3366 25.5834C85.3258 29.3281 87.2812 32.6668 89.9599 35.1852C92.2217 37.3115 94.9218 38.7801 97.8186 39.4594C100.715 40.1388 103.718 40.0077 106.558 39.0778C109.398 38.148 111.987 36.4485 114.092 34.1315C116.197 31.8145 117.753 28.9524 118.621 25.8016C119.489 22.6507 119.641 19.3095 119.064 16.0771C118.487 12.8447 117.198 9.82217 115.314 7.28015C113.43 4.73812 111.009 2.75601 108.268 1.51132C105.527 0.266642 102.552 -0.201737 99.608 0.148137ZM99.6745 0.592581C104.273 0.0770282 108.869 1.60785 112.457 4.85085C116.046 8.09385 118.336 12.7856 118.828 17.9019C119.32 23.0182 117.974 28.1434 115.084 32.1587C112.193 36.174 107.993 38.7533 103.401 39.3333C101.108 39.6229 98.7866 39.4049 96.5699 38.6918C94.3532 37.9787 92.2851 36.7846 90.4846 35.1783C88.684 33.572 87.1866 31.5851 86.0785 29.3321C84.9704 27.079 84.2734 24.6042 84.0278 22.0501C83.7821 19.4961 83.9926 16.9131 84.6471 14.4499C85.3016 11.9868 86.3872 9.69201 87.8414 7.69771C89.2957 5.70342 91.0898 4.04898 93.1206 2.82959C95.1514 1.6102 97.3788 0.849949 99.6745 0.592581Z" fill="#696969"/>
    <path fill-rule="evenodd" clip-rule="evenodd" d="M100.806 1.40742C98.3421 1.53463 95.9346 2.27014 93.7577 3.56068C91.5808 4.85122 89.6889 6.66449 88.219 8.86923C86.7491 11.074 85.738 13.615 85.2588 16.3083C84.7797 19.0016 84.8445 21.7799 85.4486 24.4419C86.0527 27.1039 87.1809 29.5831 88.7517 31.6999C90.3224 33.8167 92.2963 35.5182 94.5304 36.6812C96.7646 37.8442 99.2031 38.4396 101.669 38.4243C104.136 38.4089 106.568 37.7833 108.79 36.5926C110.97 35.3881 112.887 33.668 114.407 31.5525C115.927 29.437 117.013 26.9773 117.59 24.3455C118.167 21.7137 118.22 18.9734 117.746 16.3163C117.272 13.6592 116.282 11.1496 114.845 8.96297C114.579 8.44445 114.247 8.22223 113.914 7.70371C112.308 5.60731 110.29 3.94943 108.018 2.85781C105.745 1.76619 103.278 1.26998 100.806 1.40742ZM101.205 17.7778C101.272 17.9259 101.272 17.7037 101.272 18L100.939 19.4074L100.606 21.1852C100.074 20.2963 99.6746 18.3704 99.475 17.1852C99.2088 15.1852 99.475 14.1482 99.5415 12.2963C99.2754 13.037 99.1423 14.0741 99.0758 14.963C98.4104 14.2963 98.3438 13.7037 97.4123 13.3333C98.3438 14.1482 98.7431 15.1111 98.8761 16.8148C98.9427 18.8889 99.2088 19.4815 99.5415 21.2593C98.9427 20.8148 98.61 20.3704 98.1442 19.7778C95.8154 16.8148 95.0834 18.8148 94.1519 14.8889C94.0854 16.3704 94.3515 16.5185 94.6842 17.5556C93.9523 17.5556 93.2204 17.4074 92.6215 17.8519C94.1519 18 95.2165 18.2222 96.2146 19.037C98.3438 20.7407 101.005 25.5556 101.138 28.8889C100.473 28.5185 99.8077 26.8889 96.8134 25.6296C95.8154 25.2593 95.0169 25.1111 94.1519 24.5926C93.6861 24.2222 92.6881 23.1852 92.6881 22.3704C92.6881 23.3333 93.4865 24.5185 93.8192 24.8148L90.6919 24.963C92.8211 25.1852 93.8192 24.963 95.6823 25.7778C96.9465 26.3704 98.4104 27.4074 99.1423 28.2222C99.6081 28.8148 101.072 30.1482 100.806 30.963L99.5415 34.4445C99.1423 35.6296 99.2088 35.7037 99.0758 37.037C95.224 36.3767 91.7414 34.1122 89.3326 30.7017C86.9237 27.2912 85.7685 22.9894 86.1007 18.6667C86.3566 15.4375 87.4242 12.3538 89.1813 9.76873C90.9384 7.18367 93.3139 5.20176 96.0359 4.04997C98.7578 2.89818 101.716 2.62308 104.572 3.25616C107.428 3.88925 110.066 5.40494 112.184 7.62964L112.583 8.14816C114.567 10.4443 115.939 13.3094 116.545 16.4233C117.151 19.5373 116.968 22.7775 116.015 25.7821C115.063 28.7867 113.379 31.4373 111.151 33.4379C108.923 35.4384 106.24 36.7102 103.401 37.1111C102.935 34.8889 103.135 34 103.667 31.8519C104.266 29.5556 104.598 29.4074 105.929 28.2222C109.057 25.5556 110.387 25.5556 113.382 24.3704C112.25 24.2963 111.385 24.5185 110.321 24.7407C110.853 23.7037 111.119 23.5556 111.252 22.0741C110.986 24.8148 108.125 25.2593 105.53 27.037L103.6 28.5185C102.403 25.8519 104.133 24.963 105.929 22.0741C106.395 21.3333 107.06 19.8519 107.26 18.6667C107.526 16.8148 107.925 16.5926 108.923 15.5556C108.125 15.8519 107.859 16.3704 107.393 16.8148L107.193 15.4815C107.127 17.6296 107.06 19.6296 105.197 21.4815C105.597 18.7407 105.463 18.5185 104.665 16.2963C105.463 19.037 104.798 21.6296 103.201 23.7037L101.804 25.4074C101.604 24.1482 101.471 22.6667 101.471 21.3333C101.471 20.6667 101.671 18.4445 102.07 17.7778C102.203 16.8148 103.135 15.1111 103.534 14.4445L105.064 12.3704L105.597 11.7778C105.264 12 104.399 12.6667 104.199 12.963V11.4074L103.867 10.2222C104 11.037 104.199 11.4815 103.933 12.5185C103.401 14.4445 101.338 16.3704 101.272 17.5556V15.6296C100.54 15.9259 99.8077 16.8148 100.207 18L100.606 16.963L100.407 18.0741C101.005 17.9259 100.939 18 101.205 17.7778Z" fill="#303030"/>
    <path fill-rule="evenodd" clip-rule="evenodd" d="M106.994 12.1482C107.726 11.7778 108.524 10.8889 109.988 10.8148C108.99 11.2593 107.792 11.7037 107.193 12.5185C108.79 14.3704 110.321 11.7778 110.92 11.2593C111.319 10.8889 111.718 10.8148 112.117 10.4444C111.119 10.0741 110.055 9.62963 108.857 9.92593C107.792 10.1482 106.861 10.8148 106.994 12.1482ZM107.792 27.4815C109.589 27.2593 109.788 27.5556 111.252 27.8519C109.788 27.7778 109.456 27.4815 107.792 27.9259C109.057 30.6667 110.587 28.4444 112.916 28.5185C111.518 26.2222 108.125 25.4815 107.792 27.4815ZM91.3573 12L91.5569 12.0741L91.6235 12.1482L92.0227 12.2963C92.2888 12.2963 92.4219 12.4444 92.6215 12.5185C93.7527 13.037 94.8838 14.4444 95.8819 12.2963C95.2831 11.8519 93.9523 11.6296 93.1538 11.6296C94.4181 11.5556 94.8173 11.6296 95.8819 11.9259C95.6158 10.963 94.7508 10.5926 93.6196 10.8148C92.4885 10.963 92.0892 11.6296 91.3573 12ZM111.785 23.1852C112.383 22.5926 112.45 22.0741 113.315 21.5556C112.982 22.1482 112.25 22.6667 112.051 23.5556C114.18 24.3704 113.714 22.8889 115.378 20.2963C113.581 20.0741 111.385 21.1111 111.785 23.1852ZM103.334 9.18519C103.401 8.5926 102.669 7.48148 102.469 7.11111C103.135 7.70371 103.201 8.14815 103.534 8.66667L103.733 8.96297C104 7.77778 103.6 7.18519 103.002 6.51852C102.469 6 101.671 5.48148 100.739 5.55556C101.87 7.48148 101.072 9.70371 103.334 9.18519ZM107.992 19.6296C108.657 20.2963 108.391 19.7037 109.922 21.4815C109.788 21.037 108.391 20.1482 107.726 19.8519C107.06 21.9259 109.057 22.0741 109.788 22.3704C110.254 22.5185 110.52 22.8148 110.853 22.963C110.72 19.4815 108.058 19.037 107.992 19.6296ZM101.005 14.8889C101.138 14.1482 101.005 13.4815 101.005 12.8148L101.072 12.963C101.205 13.3333 101.272 13.7037 101.272 14.7407C102.469 13.9259 101.671 11.3333 100.074 10.3704C100.273 12.3704 98.9427 14.4444 101.005 14.8889ZM89.5608 15.3333C90.5588 15.9259 90.6254 16 91.3573 16.6667C92.0892 17.4074 93.0208 17.1852 93.42 16.2222L91.5569 15.3333C92.3554 15.4074 92.8212 15.7037 93.4865 15.9259C93.2204 14.5185 91.69 14.3704 90.5588 14.7407L89.5608 15.3333ZM88.6292 21.6296C89.3612 22.2963 89.4277 22.2963 90.0931 23.3333C90.4923 24.0741 91.2242 24.4444 92.0892 23.6296C91.8896 23.1111 90.9581 22.3704 90.4258 22.1482C91.2908 22.3704 91.69 23.037 92.2888 23.3333C92.1558 21.4815 90.2262 21.1111 88.6292 21.6296ZM97.0131 31.6296C97.6785 29.4815 99.2754 30.2963 99.0758 28.2963C98.4104 28.5185 97.6785 29.2593 97.4788 29.8519C97.8115 28.8148 98.5435 28.3704 98.8762 28C97.0796 26.2222 96.1481 30.3704 97.0131 31.6296ZM98.2108 25.9259C98.4104 25.1111 98.4104 24.8889 98.4104 23.9259C98.61 24.5185 98.5435 25.3333 98.4104 26C99.6746 25.8519 99.8077 24.8889 99.2754 23.7037C98.9427 22.8148 98.2108 22.2963 97.6119 21.8519C97.6785 22.7407 97.8781 22.963 97.6785 24C97.4788 25.037 97.4788 25.6296 98.2108 25.9259ZM97.8115 18.8148L97.6785 16.2222L98.0777 18.7407C99.1423 18 98.5435 15.6296 96.9465 14.6667C97.0796 16.5185 95.8154 18.5926 97.8115 18.8148ZM109.922 15.9259L111.984 15.7778C111.252 15.9259 110.454 15.8519 109.922 16.2963C110.52 18.2222 111.984 16.3704 113.315 16.2963C113.182 15.9259 113.315 16.1482 112.982 15.9259L112.65 15.6296C111.718 14.963 110.321 14.8148 109.922 15.9259ZM98.61 12.4444C98.61 11.9259 98.3438 11.5556 98.2108 11.037L98.5435 11.4815L98.8096 12.1482C98.8096 12.1482 99.0092 12.0741 99.0758 11.6296C99.1423 10.6667 97.9446 9.48148 96.6804 9.33334L97.2127 11.4074C97.3458 12.2963 97.6785 12.5185 98.61 12.4444ZM92.1558 28.8889C92.6215 28.2963 92.6881 28 93.2204 27.6296C93.7527 27.1852 94.1519 27.1111 94.0854 26.1482C93.6196 26.0741 93.4865 26.3704 93.0873 26.5926C93.3535 26.1482 93.5531 26.0741 93.8192 25.7778C92.2888 24.3704 91.69 27.2593 92.1558 28.8889ZM92.4885 21.1852C93.0873 20.8889 93.2204 20.5926 93.9523 20.4444C94.6842 20.2222 95.0835 20.2222 95.0835 19.2593C94.3515 19.3333 94.285 19.4815 93.6861 19.7037C94.285 19.2593 94.3515 19.3333 95.0169 19.037C94.6842 17.6296 92.8212 18.2963 92.4885 21.1852ZM104.798 26.4444L105.597 24.8148C105.397 25.4074 105.197 25.7778 105.064 26.5926C106.661 26.5926 106.129 25.6296 106.728 23.4074C105.663 23.7037 104.332 24.8889 104.798 26.4444ZM102.669 22.4444L103.201 20.6667L102.868 22.5185C104.465 22.7407 103.867 20.7407 104.133 19.2593C103.334 19.5556 101.604 21.4815 102.669 22.4444ZM105.597 29.1852L105.73 29.2593L105.929 29.3333L106.861 29.8519C106.328 29.7037 106.129 29.5556 105.397 29.4815C105.53 31.3333 106.728 30.6667 108.192 31.1111C108.058 30.3704 107.659 29.8519 107.327 29.4815C106.994 29.1111 106.129 28.5185 105.597 29.1852ZM89.095 18.8148C89.8269 18.7407 90.0931 18.6667 90.7585 18.963C91.4238 19.1852 91.8231 19.1852 92.0227 18.5926C91.5569 18.2222 91.2242 18.3704 90.6919 18.2222L92.0892 18.3704C92.0892 16.1482 89.6273 17.6296 89.095 18.8148ZM101.005 10.1482C101.138 9.77778 100.806 9.33334 100.606 8.81482C100.806 9.11111 101.072 9.62963 101.338 9.85185C101.671 9.25926 101.138 8.51852 100.806 8.2963C100.407 7.92593 99.9408 7.77778 99.3419 7.70371C100.007 9.40741 99.9408 10.3704 101.005 10.1482ZM109.655 13.7037C110.188 13.5556 110.387 13.3333 110.92 13.3333C110.52 13.4815 109.988 13.6296 109.722 13.9259C110.055 14.4444 110.52 14.7407 111.119 14.1482L112.45 13.2593C111.718 12.7407 109.988 12.2963 109.655 13.7037ZM95.9485 29.1111C96.015 28.5185 96.015 28.2222 96.2146 27.7037C96.88 26.3704 96.3477 25.8519 95.9485 26.8148L95.7488 27.5556C95.7488 26.8889 95.9485 26.7407 96.0815 26.2222C94.4846 26.2222 94.9504 28.2222 95.9485 29.1111ZM102.27 17.6296H103.201L102.336 18.0741C102.802 19.2593 103.534 18.4444 104.598 17.8519L104.865 17.6296C104.465 17.4074 103.733 16.8148 102.802 17.1852L102.469 17.4074V17.4815L102.403 17.5556L102.27 17.6296ZM108.325 18.3704C108.724 18.2222 109.057 18.0741 109.522 18.0741C109.057 18.1482 108.657 18.2222 108.325 18.5926C108.923 19.7037 109.655 18.6667 110.055 18.3704L110.653 18.0741C109.988 17.6296 108.657 17.1111 108.325 18.3704ZM101.205 17.7778L101.471 17.4815V15.5556C100.739 15.8519 100.007 16.7407 100.407 17.8519L100.806 16.8148L100.606 18C101.005 17.9259 100.939 18 101.205 17.7778ZM106.861 14.4444L106.595 13.3333L106.728 13.5556L106.994 14.0741L107.193 14.2963C107.992 13.1852 106.728 12.4444 105.53 12.3704L105.663 12.6667C106.528 14.1482 105.996 14.4444 106.861 14.4444ZM106.062 10.4444L106.195 10.3704C106.861 10.1482 106.728 8.74074 105.929 8C105.463 9.33334 105.197 10.1482 106.062 10.4444ZM96.015 22.5185C96.3477 22.1482 96.2146 22 96.7469 21.3333C96.88 21.1111 97.0796 21.037 97.0796 20.6667C96.9465 20.1482 96.88 20.4444 96.5473 20.6667C96.7469 20.2963 96.9465 20.1482 96.4808 20.0741C96.2146 20.0741 96.015 20.2963 95.8819 20.5185C95.6158 21.2593 95.8819 21.9259 96.015 22.5185ZM102.27 13.5556L102.602 13.3333L102.802 12.963L102.602 13.7037C103.867 14 103.401 11.8519 102.868 11.4815C102.403 12.963 102.07 12.6667 102.27 13.5556ZM106.062 18.7407L106.462 18.2222L106.262 18.8148C107.06 18.5926 107.26 17.4074 106.794 16.6667L106.728 16.7407C106.661 17.1111 106.728 16.7407 106.661 16.8889C106.129 17.5556 105.33 18.0741 106.062 18.7407ZM106.062 22.5185L106.861 22.2963C106.462 22.4444 106.462 22.3704 106.129 22.7407C106.395 23.1111 106.661 23.2593 107.193 22.8889L107.992 22.2963L107.925 22.0741L107.593 21.9259L106.994 21.8519C106.462 21.8519 106.262 22.0741 106.062 22.5185ZM111.785 25.5556L112.45 25.4074C112.184 25.5556 112.051 25.4815 111.851 25.8519C112.317 26.4444 112.517 26.2222 113.515 25.4815L113.714 25.2593C113.049 25.037 112.184 24.5185 111.785 25.5556ZM95.8154 25.037L96.1481 24.3704L96.015 25.1852C97.0796 25.037 96.6804 24.2963 96.88 23.1852C96.2812 23.3333 95.2831 24.2222 95.8154 25.037ZM94.6842 24.2963C94.8838 24 94.8173 24 94.8173 23.6296L94.8838 23.8519L94.9504 24L95.0835 24.2222C95.2831 23.2593 95.0169 22.5185 94.285 22.0741C94.3515 23.1852 93.7527 24.0741 94.6842 24.2963ZM108.258 24.7407L108.391 24.5185L108.524 24.8889C109.788 24.8148 108.857 23.1852 108.458 22.8889C108.391 23.7037 107.925 24.2963 108.258 24.7407ZM94.6842 15.4815L94.9504 15.5556H95.2165C94.7508 15.6296 94.8173 15.6296 94.6842 15.9259C95.0169 16.1482 95.2165 16.2963 95.6158 16L96.4808 15.4815C95.9485 15.1111 95.0835 14.7407 94.6842 15.4815ZM106.395 16C106.661 15.5556 106.328 15.9259 106.462 15.7037L106.661 15.5556C106.462 14.963 106.062 14.8148 105.463 14.7407C105.929 15.9259 105.796 16 106.395 16ZM104.465 16L104.266 15.2593L104.665 15.7778C104.732 15.037 104.332 14.7407 103.667 14.6667C103.867 15.4815 103.733 15.9259 104.465 16ZM0 18.4444V14.7407H2.595V14.0741C2.595 10.1482 4.25846 8.22222 7.65192 8.22222C8.91615 8.22222 9.84769 8.37037 10.4465 8.81482C11.1119 9.18519 11.4446 9.77778 11.4446 10.5185C11.4446 11.1852 11.245 11.8519 10.8458 12.5926C10.1804 12.2222 9.38192 12 8.51692 12C7.785 12 7.25269 12.1482 6.92 12.5185C6.58731 12.8889 6.38769 13.4815 6.38769 14.2222V14.8148L10.4465 14.7407V18.4444L6.72038 18.3704V30.1482H2.595V18.3704L0 18.4444ZM23.355 30.1482H20.8931C19.5623 30.1482 18.7638 29.3333 18.6308 27.7037C17.7658 29.5556 16.3019 30.4444 14.2392 30.4444C12.975 30.4444 11.9769 30.0741 11.1119 29.2593C10.6686 28.8609 10.3167 28.3509 10.0854 27.7713C9.85397 27.1917 9.7497 26.5592 9.78115 25.9259C9.78115 22.4444 12.0435 20.6667 16.6346 20.6667H18.5642C18.5642 19.7037 18.3646 19.037 17.9654 18.5926C17.5662 18.2222 16.8342 18 15.9692 18C14.2392 18 12.7754 18.4444 11.5112 19.3333C11.1119 18.6667 10.8458 17.9259 10.8458 17.1111C10.8458 16.2963 11.1119 15.7778 11.5777 15.4815C12.7088 14.7407 14.3058 14.3704 16.3019 14.3704C18.2981 14.3704 19.8285 14.8889 20.9596 15.9259C22.0908 17.037 22.6231 18.5185 22.6231 20.5185V26.5185C22.6896 28.2222 22.8892 29.3333 23.355 30.1482ZM15.1708 26.963C16.5015 26.963 17.6992 26.3704 18.6308 24.963V23.3333H16.7012C14.6385 23.3333 13.5738 24 13.5738 25.4074C13.5738 25.8519 13.7069 26.2222 14.0396 26.5185C14.3723 26.8148 14.705 26.963 15.1708 26.963ZM28.9442 17.3333C29.2769 16.5926 29.8758 15.9259 30.6077 15.3333C31.3396 14.7407 32.2046 14.4444 33.0696 14.4444C33.8015 14.4444 34.4004 14.6667 34.9327 15.1111C35.465 15.6296 35.6646 16.2963 35.6646 17.1852C35.6646 18.1482 35.465 19.037 35.1323 20C34.3672 19.2369 33.3639 18.838 32.3377 18.8889C30.9404 18.8889 29.8092 19.4815 28.8777 20.6667V30.1482H24.7523V14.7407H26.4158C27.2808 14.7407 27.8796 14.963 28.2788 15.4074C28.6781 15.7778 28.8777 16.5185 28.9442 17.3333ZM53.7631 27.4815V20.3704C53.7631 18.963 53.1642 18.2222 52.0996 18.2222C51.5008 18.2222 50.9019 18.4444 50.3031 18.8889C49.7708 19.3333 49.3715 19.8519 49.1054 20.4444V30.1482H45.0465V20.3704C45.0465 18.963 44.4477 18.2222 43.3831 18.2222C42.7177 18.2222 42.1854 18.4444 41.5865 18.8889C41.0542 19.3333 40.655 19.8519 40.3223 20.4444V30.1482H36.2635V14.7407H37.8604C38.7254 14.7407 39.3242 14.963 39.7235 15.3333C40.0562 15.7778 40.2558 16.3704 40.3223 17.1852C41.4535 15.4074 42.9838 14.4444 45.0465 14.4444C46.9762 14.4444 48.1738 15.4815 48.7727 17.4815C49.2731 16.5466 49.9849 15.7741 50.8372 15.2412C51.6895 14.7083 52.6525 14.4336 53.63 14.4444C54.9608 14.4444 56.0254 14.8889 56.7573 15.8519C57.4892 16.8148 57.8219 18.2222 57.8219 19.9259V30.1482H56.2915C54.5615 30.1482 53.7631 29.2593 53.7631 27.4815Z" fill="#696969"/>
    <path fill-rule="evenodd" clip-rule="evenodd" d="M61.0822 28.2963C59.818 26.8889 59.1526 24.963 59.1526 22.3704C59.1526 19.9259 59.818 17.9259 61.0822 16.5185C62.3464 15.0371 64.143 14.2963 66.4053 14.2963C67.9357 14.2963 69.1999 14.5185 70.198 15.1111C70.6637 15.3333 70.9299 15.5556 71.063 15.7778C71.1961 16.0741 71.2626 16.5185 71.2626 17.0371C71.2626 17.8519 71.063 18.5926 70.7303 19.4074C69.5326 18.5926 68.2684 18.1482 66.8045 18.1482C64.4757 18.1482 63.3445 19.4815 63.3445 22.3704C63.3445 23.7037 63.6107 24.7408 64.2095 25.4815C64.8084 26.2222 65.7399 26.5926 66.9376 26.5926C68.2684 26.5926 69.6657 26.1482 70.9299 25.1852C71.3291 26 71.5287 26.8148 71.5287 27.6296C71.5287 28.1482 71.4622 28.5185 71.2626 28.8148C71.1295 29.0371 70.8634 29.3333 70.4641 29.5556C69.4661 30.1482 68.2018 30.4445 66.5384 30.4445C64.2095 30.5185 62.3464 29.7778 61.0822 28.2963ZM76.7853 17.3333C77.1845 16.5926 77.7168 15.9259 78.4487 15.3333C79.1807 14.7408 80.0457 14.4445 80.9107 14.4445C81.6426 14.4445 82.308 14.6667 82.8403 15.1111C83.3061 15.6296 83.5722 16.2963 83.5722 17.1852C83.5722 18.1482 83.3061 19.0371 82.9734 20C82.2083 19.2369 81.205 18.838 80.1787 18.8889C78.7814 18.8889 77.6503 19.4815 76.7853 20.6667V30.1482H72.5934V14.7408H74.2568C75.1218 14.7408 75.7207 14.963 76.1199 15.4074C76.5191 15.7778 76.7187 16.5185 76.7853 17.3333ZM131.214 23.1852L129.484 29.7037H123.828L120.102 14.2963H124.693L126.024 20.4445C126.556 22.5185 126.756 24.5185 126.822 26.3704H126.955C127.088 24.5185 127.488 22.4445 128.086 20.2222L129.75 14.2963H134.208L135.871 20.2222C136.404 22.4445 136.736 24.5926 136.87 26.3704H136.936C136.936 24.5185 137.202 22.5185 137.601 20.3704L139.265 14.2963H143.856L139.731 29.7037H134.541L132.877 23.1852L132.079 18.0741H132.012C131.746 20.2222 131.546 21.9259 131.214 23.1852ZM153.305 23.5556V19.8519C152.506 18.4445 151.508 17.7778 150.51 17.7778C149.645 17.7778 149.046 18.1482 148.514 18.8889C147.981 19.6296 147.715 20.6667 147.715 22C147.715 23.3333 147.981 24.3704 148.447 25.1111C148.913 25.8519 149.645 26.2222 150.51 26.2222C151.109 26.2222 151.641 26 152.173 25.4074C152.639 24.8889 153.038 24.2963 153.305 23.5556ZM157.363 10.8148V26.1482C157.363 27.7037 157.563 28.963 157.962 29.7037H155.434C154.103 29.7037 153.305 28.8889 153.171 27.2593C152.818 28.1208 152.245 28.8473 151.523 29.348C150.801 29.8486 149.963 30.1012 149.113 30.0741C147.449 30.0741 146.052 29.3333 145.054 27.9259C144.056 26.5185 143.523 24.5185 143.523 22C143.523 19.4815 144.056 17.4074 145.054 16C146.118 14.6667 147.516 13.9259 149.246 13.9259C150.028 13.9092 150.801 14.1189 151.49 14.5343C152.178 14.9498 152.757 15.5569 153.171 16.2963V8.14816H154.768C156.498 8.14816 157.363 9.03705 157.363 10.8148ZM172.933 14.2963V27.9259C172.933 30.5185 172.335 32.5926 171.07 34C169.74 35.4074 168.01 36.0741 165.681 36.0741C163.618 36.0741 162.221 35.8519 161.422 35.2593C160.757 34.6667 160.358 34 160.358 33.1111C160.358 32 160.557 31.1852 161.023 30.5926C162.088 31.7037 163.485 32.1482 165.148 32.1482C166.413 32.1482 167.278 31.9259 167.943 31.3333C168.542 30.8148 168.808 29.8519 168.808 28.5185V27.0371C168.322 27.8585 167.66 28.5324 166.882 28.9979C166.104 29.4635 165.233 29.706 164.35 29.7037C162.753 29.7037 161.555 29.1852 160.69 28.0741C159.825 26.963 159.426 25.3333 159.426 23.1852V14.2963H161.09C162.753 14.2963 163.618 15.1852 163.618 16.963V22.7408C163.618 24.7408 164.283 25.7778 165.681 25.7778C167.145 25.7778 168.143 25.1111 168.875 23.7037V14.2963H172.933Z" fill="#303030"/>
  </g>
  <defs>
    <clipPath id="clip0_1285_6225">
      <rect width="173" height="40" fill="white"/>
    </clipPath>
  </defs>
</svg>