<svg xmlns="http://www.w3.org/2000/svg" width="32" height="32" viewBox="0 0 32 32" fill="none">
  <path d="M7.66671 6.26668C7.28004 5.88002 6.64005 5.88002 6.25338 6.26668C5.86671 6.65335 5.86671 7.29335 6.25338 7.68001L7.96004 9.38668C8.16004 9.58668 8.41338 9.68001 8.66671 9.68001C8.92004 9.68001 9.17337 9.58668 9.37337 9.38668C9.76004 9.00001 9.76004 8.36002 9.37337 7.97335L7.66671 6.26668Z" fill="#0471A6"/>
  <path d="M7.87997 20.2667L6.1733 21.9867C5.78663 22.3733 5.78663 23 6.1733 23.4C6.3733 23.5867 6.62663 23.6933 6.87997 23.6933C7.14663 23.6933 7.39996 23.5867 7.58663 23.4L9.2933 21.6933C9.43996 21.5467 9.54663 21.36 9.58663 21.1733V20.7867C9.54663 20.6 9.43996 20.4134 9.2933 20.2667C8.90663 19.88 8.27997 19.88 7.87997 20.2667Z" fill="#0471A6"/>
  <path d="M14.8134 7.07996C15.36 7.07996 15.8134 6.62662 15.8134 6.07996V3.66663C15.8134 3.11996 15.36 2.66663 14.8134 2.66663C14.2667 2.66663 13.8134 3.11996 13.8134 3.66663V6.07996C13.8134 6.63996 14.2534 7.07996 14.8134 7.07996Z" fill="#0471A6"/>
  <path d="M20.9733 9.58663C21.2267 9.58663 21.48 9.4933 21.68 9.2933L23.3867 7.58663C23.7733 7.19996 23.7733 6.55997 23.3867 6.1733C23 5.78663 22.36 5.78663 21.9733 6.1733L20.2667 7.87997C19.88 8.26663 19.88 8.90663 20.2667 9.2933C20.4667 9.4933 20.72 9.58663 20.9733 9.58663Z" fill="#0471A6"/>
  <path d="M24.9334 23.52L28.1733 21.52C29 21.0134 29.44 20.0933 29.32 19.1467C29.2 18.1867 28.56 17.4 27.64 17.1067L16.6133 13.52C15.72 13.24 14.7733 13.4667 14.12 14.12C13.4667 14.7733 13.24 15.7334 13.52 16.6L17.1067 27.64C17.4 28.56 18.1867 29.2 19.1333 29.32C19.24 29.3333 19.3467 29.3333 19.44 29.3333C20.2933 29.3333 21.0667 28.9067 21.52 28.1733L23.52 24.9334L27.56 28.9734C27.76 29.1734 28.0134 29.2667 28.2667 29.2667C28.52 29.2667 28.7734 29.1734 28.9734 28.9734C29.36 28.5867 29.36 27.9467 28.9734 27.56L24.9334 23.52Z" fill="#0471A6"/>
</svg>