<svg xmlns="http://www.w3.org/2000/svg" width="32" height="32" viewBox="0 0 32 32" fill="none">
  <path d="M21.8799 26.1867C17.9999 24.3067 15.5066 20.3067 15.5066 16.0001C15.5066 11.6934 17.9999 7.69342 21.8799 5.81342C22.2132 5.65342 22.4399 5.29341 22.4399 4.92008C22.4399 4.53341 22.2265 4.18675 21.8799 4.01341C20.0532 3.12008 18.0932 2.66675 16.0399 2.66675C8.69321 2.66675 2.70654 8.65341 2.70654 16.0001C2.70654 23.3467 8.69321 29.3334 16.0399 29.3334C18.0932 29.3334 20.0532 28.8801 21.8799 27.9867C22.2265 27.8134 22.4399 27.4667 22.4399 27.0801C22.4399 26.7067 22.2132 26.3467 21.8799 26.1867Z" fill="#0471A6"/>
  <path d="M22.1067 15.0266C22.1067 15.0266 22.0934 15.0266 22.0934 15.0133L21.6133 14.84C21.5067 14.8133 21.4267 14.72 21.3867 14.6266L21.2267 14.1733C21.08 13.7733 20.6667 13.48 20.24 13.48C19.8133 13.48 19.4 13.76 19.2534 14.16L19.08 14.6266C19.04 14.72 18.96 14.8133 18.8534 14.84L18.3867 15.0133C18 15.16 17.6934 15.5733 17.6934 16C17.6934 16.4133 17.9867 16.84 18.3867 16.9866L18.8534 17.1466C18.96 17.1866 19.04 17.28 19.08 17.3733L19.2667 17.8533C19.4133 18.24 19.8267 18.52 20.24 18.52C20.6533 18.52 21.0667 18.24 21.2134 17.84L21.3867 17.3733C21.4267 17.2666 21.5067 17.1866 21.6133 17.16L22.1067 16.9733C22.4933 16.8266 22.7733 16.4133 22.7733 16C22.7733 15.5866 22.4933 15.1733 22.1067 15.0266Z" fill="#0471A6"/>
  <path d="M28.6001 22.08L28.1334 21.9066C28.0267 21.88 27.9467 21.7866 27.9067 21.6933L27.7334 21.24C27.6 20.84 27.1734 20.5466 26.7467 20.5466C26.3334 20.5466 25.92 20.8266 25.7734 21.2266L25.6001 21.6933C25.5601 21.7866 25.48 21.88 25.3734 21.9066L24.88 22.0933C24.4934 22.24 24.2134 22.6533 24.2134 23.0666C24.2134 23.4933 24.5067 23.9066 24.8934 24.0533L25.3734 24.2133C25.48 24.2533 25.5601 24.3333 25.6001 24.44L25.7734 24.92C25.92 25.3066 26.3334 25.5866 26.7467 25.5866C27.1734 25.5866 27.5867 25.3066 27.7334 24.9066L27.9067 24.44C27.9467 24.3333 28.0267 24.2533 28.1334 24.2133L28.6001 24.0533C29.0001 23.9066 29.2934 23.4933 29.2934 23.0666C29.2934 22.64 29.0001 22.2266 28.6001 22.08Z" fill="#0471A6"/>
  <path d="M28.6001 8.3201L28.1334 8.14677C28.0267 8.10677 27.9467 8.02677 27.9067 7.9201L27.7334 7.46677C27.6 7.06677 27.1734 6.77344 26.7467 6.77344C26.3334 6.77344 25.92 7.06677 25.7734 7.45344L25.6001 7.9201C25.5601 8.02677 25.48 8.10677 25.3734 8.14677L24.88 8.33343C24.4934 8.4801 24.2134 8.89343 24.2134 9.30677C24.2134 9.7201 24.5067 10.1468 24.8934 10.2801L25.3734 10.4534C25.48 10.4934 25.5601 10.5734 25.6001 10.6801L25.7734 11.1601C25.92 11.5468 26.3334 11.8268 26.7467 11.8268C27.1734 11.8268 27.5867 11.5334 27.7334 11.1468L27.9067 10.6801C27.9467 10.5734 28.0267 10.4934 28.1334 10.4534L28.6001 10.2801C29.0001 10.1468 29.2934 9.7201 29.2934 9.30677C29.2934 8.8801 29.0001 8.46677 28.6001 8.3201Z" fill="#0471A6"/>
</svg>