<svg width="368" height="189" viewBox="0 0 368 189" fill="none" xmlns="http://www.w3.org/2000/svg">
<path d="M0 16C0 7.16344 7.16344 0 16 0H352C360.837 0 368 7.16344 368 16V189H0V16Z" fill="#FAFAFA"/>
<path d="M243.737 38.7822C238.171 39.0071 237.609 47.1595 243.119 48.0591C246.605 48.6214 249.641 49.6334 250.54 51.3201C252.171 54.2999 247.673 58.9103 249.809 64.9262L246.267 66.6692C246.267 66.6692 259.424 70.7173 264.934 76.5083C264.934 76.5083 268.251 72.8538 263.247 66.6692C258.243 60.4846 258.299 55.6493 256.95 51.0952C255.6 46.4849 251.552 38.6135 243.962 38.7822C243.906 38.7822 243.793 38.7822 243.737 38.7822Z" fill="#1F77DB"/>
<path d="M102.278 101.134L114.76 102.146L114.198 117.889H147.37C147.37 117.889 144.277 92.3634 145.402 89.6647C146.526 86.966 150.181 82.5805 152.88 79.9942L154.51 78.42L145.233 64.9263C145.233 64.9263 135.788 68.8619 128.985 70.6611C122.182 72.404 105.539 76.5083 102.278 101.134Z" fill="#1F77DB"/>
<path d="M268.307 100.919L255.825 101.931V112.445L260.21 137.745L261.447 145.392L259.086 147.416L250.708 147.584L230.356 144.942L218.211 141.568L216.749 138.701L220.291 124.926C220.291 124.926 225.801 91.8105 224.677 89.0555C223.552 86.3568 220.404 82.4211 217.705 79.8348L216.075 78.2606L225.352 64.7669C225.352 64.7669 234.797 68.7026 241.6 70.5017C248.403 72.1884 265.046 76.2928 268.307 100.919Z" fill="#8FBBED"/>
<path d="M134.101 64.7107C138.374 62.2369 141.241 57.5703 141.073 52.2291C140.904 45.0887 135.169 39.1289 128.029 38.6792C119.932 38.1731 113.186 44.5826 113.186 52.6226C113.186 58.3012 116.559 63.1365 121.394 65.3292C122.968 66.0601 124.037 67.4657 124.374 69.1524" stroke="#0F3B6D" stroke-width="1.5" stroke-miterlimit="10" stroke-linecap="round" stroke-linejoin="round"/>
<path d="M126.229 162.034C125.386 169.737 124.711 175.978 124.374 177.327C122.687 184.861 113.86 186.772 113.242 176.202C112.623 165.632 114.31 106.597 114.928 96.6459" stroke="#0F3B6D" stroke-width="1.5" stroke-miterlimit="10" stroke-linecap="round" stroke-linejoin="round"/>
<path d="M102.222 130.268C102.222 130.268 99.0171 102.831 105.37 89.2245C113.129 72.5822 123.98 72.7509 141.072 66.5663C163.562 58.4139 162.887 37.4424 171.489 38.6231C179.136 39.6914 172.445 60.3817 162.494 70.4457C152.542 80.5098 145.739 85.7948 145.402 89.5056C145.064 93.2163 151.98 168.387 152.317 178.339C152.598 185.536 143.04 185.03 141.466 177.383C140.285 171.592 133.257 126.107 131.402 126.107" stroke="#0F3B6D" stroke-width="1.5" stroke-miterlimit="10" stroke-linecap="round" stroke-linejoin="round"/>
<path d="M237.496 39.8599C239.239 39.0728 241.151 38.6792 243.119 38.6792C250.821 38.6792 257.062 44.9201 257.062 52.6229" stroke="#0F3B6D" stroke-width="1.5" stroke-miterlimit="10" stroke-linecap="round" stroke-linejoin="round"/>
<path d="M252.958 62.5185C250.428 65.0486 246.942 66.6229 243.063 66.6229C235.36 66.6229 229.119 60.3819 229.119 52.6792C229.119 49.0246 230.524 45.6511 232.83 43.1772" stroke="#0F3B6D" stroke-width="1.5" stroke-miterlimit="10" stroke-linecap="round" stroke-linejoin="round"/>
<path d="M256.781 147.472C257.062 160.572 257.174 172.098 256.893 176.202C256.275 186.772 247.448 184.861 245.761 177.327C245.367 175.471 244.187 164.002 242.837 152.363" stroke="#0F3B6D" stroke-width="1.5" stroke-miterlimit="10" stroke-linecap="round" stroke-linejoin="round"/>
<path d="M255.207 96.7019C255.375 99.232 255.6 105.023 255.825 112.445" stroke="#0F3B6D" stroke-width="1.5" stroke-miterlimit="10" stroke-linecap="round" stroke-linejoin="round"/>
<path d="M223.777 105.079C223.777 105.079 223.777 105.023 223.777 105.079C224.452 96.5897 224.902 90.5737 224.789 89.5617C224.452 85.851 217.649 80.5659 207.697 70.5019C197.746 60.4379 191.055 39.7475 198.702 38.6793C207.248 37.4986 206.629 58.4138 229.119 66.6224C246.211 72.807 257.062 72.6384 264.821 89.2806C271.174 102.887 267.969 130.324 267.969 130.324" stroke="#0F3B6D" stroke-width="1.5" stroke-miterlimit="10" stroke-linecap="round" stroke-linejoin="round"/>
<path d="M234.179 145.56C231.818 158.661 229.344 174.235 228.669 177.439C227.095 185.03 217.537 185.592 217.818 178.395C217.931 174.741 218.999 162.146 220.179 147.528" stroke="#0F3B6D" stroke-width="1.5" stroke-miterlimit="10" stroke-linecap="round" stroke-linejoin="round"/>
<path d="M223.777 104.742C223.777 104.742 221.978 121.328 216.918 137.689C216.356 139.488 217.312 141.4 219.111 142.018C224.452 143.874 236.765 147.135 257.905 147.528C260.154 147.584 261.841 145.56 261.391 143.368C259.929 136.396 257.118 122.284 255.825 112.445" stroke="#0F3B6D" stroke-width="1.5" stroke-miterlimit="10" stroke-linecap="round" stroke-linejoin="round"/>
<path d="M257.062 52.7258C257.062 52.7258 257.343 58.011 260.098 62.1716C262.853 66.3322 268.363 72.0671 264.54 77.2398" stroke="#0F3B6D" stroke-width="1.5" stroke-miterlimit="10" stroke-linecap="round" stroke-linejoin="round"/>
<path d="M195.241 126.317C190.284 126.317 185.846 128.727 183.08 132.424C180.314 128.727 175.877 126.317 170.919 126.317C162.51 126.317 155.69 133.164 155.69 141.627C155.69 144.887 156.211 147.9 157.115 150.693C161.442 164.388 174.781 172.578 181.382 174.824C182.313 175.152 183.847 175.152 184.778 174.824C191.379 172.578 204.718 164.388 209.045 150.693C209.949 147.9 210.47 144.887 210.47 141.627C210.47 133.164 203.65 126.317 195.241 126.317Z" fill="#1F77DB"/>
<path d="M142.884 11.7169C143.222 10.761 144.627 10.761 144.908 11.7169C145.358 13.0663 145.92 14.3594 146.483 14.9217C147.045 15.4839 148.338 16.0462 149.687 16.496C150.643 16.8333 150.643 18.2389 149.687 18.5201C148.338 18.9699 147.045 19.5321 146.483 20.0943C145.92 20.6566 145.358 21.9498 144.908 23.2992C144.571 24.255 143.165 24.255 142.884 23.2992C142.434 21.9498 141.872 20.6566 141.31 20.0943C140.748 19.5321 139.454 18.9699 138.105 18.5201C137.149 18.1827 137.149 16.7771 138.105 16.496C139.454 16.0462 140.748 15.4839 141.31 14.9217C141.872 14.3594 142.434 13.0663 142.884 11.7169Z" stroke="#8FBBED" stroke-width="1.5" stroke-miterlimit="10" stroke-linecap="round" stroke-linejoin="round"/>
<path d="M179.4 94.9411C179.681 94.0415 180.974 94.0415 181.255 94.9411C181.649 96.1781 182.211 97.3588 182.661 97.8648C183.167 98.3708 184.347 98.8769 185.584 99.2704C186.484 99.5515 186.484 100.845 185.584 101.126C184.347 101.519 183.167 102.082 182.661 102.531C182.155 103.037 181.649 104.218 181.255 105.455C180.974 106.355 179.681 106.355 179.4 105.455C179.006 104.218 178.444 103.037 177.994 102.531C177.488 102.025 176.307 101.519 175.07 101.126C174.171 100.845 174.171 99.5515 175.07 99.2704C176.307 98.8769 177.488 98.3146 177.994 97.8648C178.5 97.3588 179.006 96.1218 179.4 94.9411Z" stroke="#8FBBED" stroke-width="1.5" stroke-miterlimit="10" stroke-linecap="round" stroke-linejoin="round"/>
<path d="M221.075 11.759C221.412 10.747 222.874 10.747 223.211 11.759C223.661 13.1084 224.28 14.514 224.842 15.0763C225.404 15.6385 226.753 16.2008 228.159 16.7068C229.171 17.0442 229.171 18.506 228.159 18.8433C226.81 19.2931 225.404 19.9116 224.842 20.4739C224.28 21.0361 223.717 22.3855 223.211 23.7911C222.874 24.8032 221.412 24.8032 221.075 23.7911C220.625 22.4417 220.006 21.0361 219.444 20.4739C218.882 19.9116 217.533 19.3494 216.127 18.8433C215.115 18.506 215.115 17.0442 216.127 16.7068C217.476 16.257 218.882 15.6385 219.444 15.0763C220.006 14.514 220.569 13.1084 221.075 11.759Z" stroke="#8FBBED" stroke-width="1.5" stroke-miterlimit="10" stroke-linecap="round" stroke-linejoin="round"/>
</svg>
