<svg xmlns="http://www.w3.org/2000/svg" width="22" height="28" viewBox="0 0 22 28" fill="none">
  <path d="M19 11.4134C18.8773 10.8141 18.7215 10.2221 18.5333 9.64006C18.2881 8.95099 17.9986 8.27848 17.6666 7.62673C16.5301 5.25659 14.9401 3.13212 12.9866 1.37339C12.4621 0.915733 11.7895 0.663574 11.0933 0.663574C10.3971 0.663574 9.72454 0.915733 9.19997 1.37339C7.23687 3.12965 5.63773 5.25429 4.4933 7.62673C4.18636 8.2795 3.92355 8.95212 3.70663 9.64006C3.51997 10.2401 3.35997 10.8401 3.23997 11.4267C2.78979 14.0657 2.9633 16.7734 3.74663 19.3334H18.4133C19.2235 16.7752 19.4244 14.063 19 11.4134V11.4134ZM11.0933 14.7067C10.3696 14.7094 9.66144 14.497 9.05861 14.0966C8.45579 13.6962 7.98547 13.1257 7.7073 12.4576C7.42914 11.7895 7.35567 11.0539 7.49621 10.3439C7.63675 9.63403 7.98496 8.98185 8.49669 8.47012C9.00842 7.95839 9.66061 7.61017 10.3705 7.46963C11.0804 7.32909 11.8161 7.40257 12.4842 7.68073C13.1523 7.95889 13.7227 8.42921 14.1232 9.03204C14.5236 9.63487 14.7359 10.343 14.7333 11.0667C14.7333 11.5447 14.6391 12.0181 14.4562 12.4597C14.2733 12.9013 14.0052 13.3026 13.6672 13.6406C13.3292 13.9786 12.9279 14.2467 12.4863 14.4296C12.0446 14.6126 11.5713 14.7067 11.0933 14.7067V14.7067Z" fill="#0471A6"/>
  <path d="M3.83993 22.8533C3.47312 21.7523 3.19228 20.6244 2.99993 19.48C2.96555 19.3082 2.88355 19.1497 2.7633 19.0223C2.64305 18.895 2.48941 18.8041 2.31993 18.76C2.15059 18.7134 1.97147 18.7163 1.80372 18.7683C1.63597 18.8203 1.4866 18.9192 1.37326 19.0533L1.01326 19.4666C0.735064 19.7652 0.529091 20.1236 0.411199 20.5142C0.293308 20.9049 0.266644 21.3174 0.333259 21.72L1.13326 25.64C1.20644 25.9911 1.36697 26.3182 1.60002 26.5908C1.83308 26.8635 2.13112 27.073 2.46659 27.2C2.79695 27.3233 3.15285 27.3623 3.50208 27.3134C3.8513 27.2645 4.18281 27.1293 4.46659 26.92L4.69326 26.7466C4.87343 26.6176 5.00095 26.4278 5.0524 26.2123C5.10384 25.9967 5.07574 25.7698 4.97326 25.5733C4.54144 24.6901 4.16298 23.7818 3.83993 22.8533V22.8533Z" fill="#0471A6"/>
  <path d="M18.2933 22.8533C18.6781 21.7538 18.9768 20.6259 19.1866 19.48C19.221 19.3082 19.303 19.1497 19.4232 19.0223C19.5435 18.895 19.6971 18.8041 19.8666 18.76C20.0359 18.7134 20.215 18.7163 20.3828 18.7683C20.5505 18.8203 20.6999 18.9192 20.8133 19.0533L21.1733 19.4666C21.4328 19.7746 21.6191 20.1373 21.7184 20.5275C21.8177 20.9178 21.8274 21.3255 21.7466 21.72L20.9466 25.64C20.8734 25.9911 20.7129 26.3182 20.4798 26.5908C20.2468 26.8635 19.9487 27.073 19.6133 27.2C19.3748 27.2904 19.1216 27.3356 18.8666 27.3333C18.4156 27.3315 17.9768 27.1868 17.6133 26.92L17.3866 26.7466C17.2064 26.6176 17.0789 26.4278 17.0274 26.2123C16.976 25.9967 17.0041 25.7698 17.1066 25.5733C17.5621 24.694 17.9585 23.7853 18.2933 22.8533Z" fill="#0471A6"/>
  <path d="M17.8399 20.5734C17.7733 20.7601 17.7199 20.9601 17.6533 21.1601C17.3905 22.2053 16.9773 23.2069 16.4266 24.1334V24.1334C16.3891 24.1779 16.3577 24.2272 16.3333 24.2801C16.0642 24.6423 15.7144 24.9369 15.3118 25.1406C14.9091 25.3442 14.4645 25.4513 14.0133 25.4534H8.21326C7.76011 25.454 7.31332 25.3467 6.90988 25.1404C6.50644 24.934 6.15795 24.6345 5.89326 24.2667C5.85471 24.223 5.82322 24.1735 5.79993 24.1201C5.24945 23.1982 4.83622 22.2011 4.57326 21.1601C4.5066 20.9467 4.45326 20.7467 4.3866 20.5601L17.8399 20.5734Z" fill="#0471A6"/>
</svg>