<svg xmlns="http://www.w3.org/2000/svg" width="169" height="189" viewBox="0 0 169 189" fill="none">
  <path d="M135.542 47.4398H125.838C122.699 39.1395 116.257 33.193 108.205 32.2433C91.9757 30.385 84.6252 41.2869 84.6252 41.2869C84.6252 41.2869 77.316 30.385 61.0458 32.2433C50.3504 33.4821 42.4631 43.682 41.4307 56.3182H32.1807C32.511 50.6195 33.9976 45.1273 36.5992 40.0893C41.6372 30.385 50.144 24.1494 59.9722 23.0345C61.5414 22.8693 63.1519 22.7454 64.6798 22.7454C73.0626 22.7454 79.7524 25.4709 84.5839 28.7332C89.4155 25.4709 96.1052 22.7454 104.488 22.7454C106.016 22.7454 107.585 22.828 109.196 23.0345C119.024 24.1494 127.572 30.385 132.569 40.0893C133.849 42.4431 134.799 44.8795 135.542 47.4398Z" fill="#FFEFDD"/>
  <path d="M131.784 80.5997C131.66 80.8887 131.495 81.1778 131.33 81.4256C119.024 104.303 89.7047 118.013 88.4658 118.591L84.6254 120.367L80.785 118.591C79.5874 118.054 51.7133 105.005 38.9119 83.1599H49.9376C62.45 99.967 84.5841 110.167 84.5841 110.167C84.5841 110.167 109.031 98.8933 121.048 80.5997H131.784Z" fill="#FFEFDD"/>
  <path d="M148.302 154.518C148.302 154.518 127.903 171.779 117.29 186.067C111.963 182.103 101.68 173.885 102.63 170.747C103.621 167.567 120.759 152.577 128.233 146.135C130.215 144.442 133.147 144.318 135.253 145.928C138.928 148.736 144.627 152.907 148.302 154.518Z" fill="#FFD8A9"/>
  <path d="M127.201 147.085C127.201 147.085 126.416 135.811 110.476 128.874C94.5364 121.936 59.1879 127.924 60.4268 138.495C61.6656 149.067 86.4013 144.029 92.3477 146.217" stroke="#80582A" stroke-width="1.5" stroke-miterlimit="10" stroke-linecap="round" stroke-linejoin="round"/>
  <path d="M63.2761 133.003C63.2761 133.003 60.5506 132.714 49.2771 122.308C38.0036 111.901 26.7713 124.207 38.9533 139.321C51.1354 154.435 64.4736 163.85 87.1445 164.635C97.8399 165.006 101.598 165.626 104.984 167.608" stroke="#80582A" stroke-width="1.5" stroke-miterlimit="10" stroke-linecap="round" stroke-linejoin="round"/>
  <path d="M120.304 188.256C119.065 187.471 101.391 174.876 102.63 170.747C103.621 167.567 120.759 152.577 128.233 146.135C130.215 144.4 133.147 144.318 135.253 145.928C139.217 148.943 145.494 153.485 149.087 154.848" stroke="#80582A" stroke-width="1.5" stroke-miterlimit="10" stroke-linecap="round" stroke-linejoin="round"/>
  <path d="M133.684 76.3876C132.982 78.0807 132.197 79.7738 131.33 81.4256C119.024 104.303 89.7047 118.013 88.4658 118.591L84.6254 120.367L80.785 118.591C79.5461 118.013 50.2267 104.303 37.9208 81.4256C37.0949 79.8977 36.3516 78.3698 35.7322 76.8006" stroke="#FFD8A9" stroke-width="1.5" stroke-miterlimit="10" stroke-linecap="round" stroke-linejoin="round"/>
  <path d="M32.9243 67.2614C31.1899 57.8461 32.3874 48.307 36.6408 40.0893C41.6788 30.385 50.1856 24.1494 60.0137 23.0345C61.583 22.8693 63.1935 22.7454 64.7214 22.7454C73.1042 22.7454 79.794 25.4709 84.6255 28.7332C89.457 25.4709 96.1468 22.7454 104.53 22.7454C106.058 22.7454 107.668 22.828 109.237 23.0345C119.066 24.1494 127.614 30.385 132.61 40.0893C135.418 45.5402 136.946 51.6106 137.111 57.8048" stroke="#FFD8A9" stroke-width="1.5" stroke-miterlimit="10" stroke-linecap="round" stroke-linejoin="round"/>
  <path d="M0.755371 70.854H15.9932L20.5769 61.3975L29.6205 80.5996L34.7411 70.854H43.3718C37.0949 52.3126 46.5102 33.8951 61.0873 32.2433C77.3162 30.385 84.6667 41.2869 84.6667 41.2869C84.6667 41.2869 91.9759 30.385 108.246 32.2433C121.419 33.7712 130.38 48.9264 127.366 65.4857" stroke="#80582A" stroke-width="1.5" stroke-miterlimit="10" stroke-linecap="round" stroke-linejoin="round"/>
  <path d="M46.0149 77.007C56.9993 97.448 84.6257 110.167 84.6257 110.167C84.6257 110.167 112.252 97.448 123.236 77.007C124.31 75.0249 125.177 73.0014 125.879 71.0193H134.014L138.598 61.5627L147.642 80.7649L152.762 71.0193H168" stroke="#80582A" stroke-width="1.5" stroke-miterlimit="10" stroke-linecap="round" stroke-linejoin="round"/>
  <path d="M149.5 45.499C149.789 44.6318 150.987 44.6318 151.276 45.499C151.689 46.6553 152.143 47.8115 152.638 48.3071C153.134 48.8026 154.249 49.2569 155.405 49.6698C156.272 49.9589 156.272 51.1565 155.405 51.4869C154.249 51.8998 153.093 52.3954 152.638 52.8496C152.143 53.3452 151.689 54.5014 151.276 55.6577C150.987 56.5249 149.789 56.5249 149.5 55.6577C149.087 54.5014 148.633 53.3452 148.137 52.8496C147.642 52.3541 146.527 51.8998 145.37 51.4869C144.503 51.1978 144.503 50.0002 145.37 49.6698C146.527 49.2569 147.683 48.7613 148.137 48.3071C148.633 47.8115 149.087 46.6553 149.5 45.499Z" fill="#FFB154"/>
</svg>