<svg xmlns="http://www.w3.org/2000/svg" width="161" height="186" viewBox="0 0 161 186" fill="none">
  <path d="M146.363 167.855C146.363 171.802 143.03 175.003 138.996 174.783C135.576 174.608 132.726 171.802 132.463 168.382C132.331 166.628 132.857 165.005 133.778 163.734C134.962 162.111 135.488 160.138 135.357 158.121C135.357 158.033 135.357 157.902 135.357 157.814C135.357 155.534 137.242 153.692 139.566 153.78C141.671 153.868 143.381 155.578 143.469 157.683C143.469 157.814 143.469 157.99 143.469 158.121C143.337 160.138 143.819 162.155 145.003 163.777C145.836 164.874 146.363 166.321 146.363 167.855Z" fill="#FEF8F8"/>
  <path d="M129.7 173.38C129.7 177.326 126.368 180.527 122.334 180.308C118.914 180.133 116.063 177.326 115.8 173.906C115.669 172.152 116.195 170.53 117.116 169.258C118.3 167.636 118.826 165.663 118.694 163.646C118.694 163.558 118.694 163.426 118.694 163.339C118.694 161.059 120.58 159.217 122.904 159.305C125.009 159.392 126.719 161.103 126.806 163.207C126.806 163.339 126.806 163.514 126.806 163.646C126.675 165.663 127.157 167.68 128.341 169.302C129.174 170.398 129.7 171.845 129.7 173.38Z" stroke="#FEDCDC" stroke-width="1.5" stroke-miterlimit="10" stroke-linecap="round" stroke-linejoin="round"/>
  <path d="M122.729 170.135V184.825" stroke="#FEDCDC" stroke-width="1.5" stroke-miterlimit="10" stroke-linecap="round" stroke-linejoin="round"/>
  <path d="M146.363 167.855C146.363 171.802 143.03 175.003 138.996 174.783C135.576 174.608 132.726 171.802 132.463 168.382C132.331 166.628 132.857 165.005 133.778 163.734C134.962 162.111 135.488 160.138 135.357 158.121C135.357 158.033 135.357 157.902 135.357 157.814C135.357 155.534 137.242 153.692 139.566 153.78C141.671 153.868 143.381 155.578 143.469 157.683C143.469 157.814 143.469 157.99 143.469 158.121C143.337 160.138 143.819 162.155 145.003 163.777C145.836 164.874 146.363 166.321 146.363 167.855Z" stroke="#FEDCDC" stroke-width="1.5" stroke-miterlimit="10" stroke-linecap="round" stroke-linejoin="round"/>
  <path d="M139.391 164.61V184.824" stroke="#FEDCDC" stroke-width="1.5" stroke-miterlimit="10" stroke-linecap="round" stroke-linejoin="round"/>
  <path d="M61.1658 122.955V147.729" stroke="#FEDCDC" stroke-width="1.5" stroke-miterlimit="10" stroke-linecap="round" stroke-linejoin="round"/>
  <path d="M61.1658 156.367V181.141" stroke="#FEDCDC" stroke-width="1.5" stroke-miterlimit="10" stroke-linecap="round" stroke-linejoin="round"/>
  <path d="M80.8533 122.56L61.1216 102.872L41.4338 122.56H0.830444L13.6341 95.7249H108.653L121.457 122.56H80.8533Z" fill="#FC4F4E"/>
  <path d="M61.1218 63.2772C53.7114 63.2772 47.7042 69.2843 47.7042 76.6947C47.7042 84.105 54.2814 90.1122 61.1218 90.1122C67.9621 90.1122 74.5393 84.105 74.5393 76.6947C74.5831 69.2843 68.5759 63.2772 61.1218 63.2772ZM61.1218 86.122C55.9038 86.122 51.6944 81.9126 51.6944 76.6947C51.6944 71.4768 55.9038 67.2235 61.1218 67.2235C66.3397 67.2235 70.5491 71.4768 70.5491 76.6947C70.593 81.9126 66.3397 86.122 61.1218 86.122Z" fill="#FEDCDC"/>
  <path d="M93.1744 -16C93.1744 -16 79.4061 -3.1525 76.0298 1.45155C72.6535 6.0556 99.0062 34.5569 105.452 33.943C111.898 33.3291 140.136 15.176 150.572 5.92406L161.007 -2.75786C160.964 -2.75786 129.656 2.98623 93.1744 -16Z" fill="#FEDCDC"/>
  <path d="M93.1744 -16C93.1744 -16 79.4061 -3.1525 76.0298 1.45155C72.6535 6.0556 99.0062 34.5569 105.452 33.943" stroke="#A83534" stroke-width="1.5" stroke-miterlimit="10" stroke-linecap="round" stroke-linejoin="round"/>
  <path d="M76.7753 5.92395C76.7753 5.92395 68.3565 14.1236 67.5234 16.1844C66.6903 18.2453 74.7145 33.4167 90.2367 41.9671C94.0077 44.028 102.646 33.1536 102.646 33.1536" stroke="#A83534" stroke-width="1.5" stroke-miterlimit="10" stroke-linecap="round" stroke-linejoin="round"/>
  <path d="M67.4801 17.8069C67.4801 17.8069 53.8433 17.8069 45.9068 21.8848C39.0226 25.3927 28.1922 35.5654 21.7903 42.2304C12.2753 52.0962 21.3957 57.5334 33.147 47.8429" stroke="#A83534" stroke-width="1.5" stroke-miterlimit="10" stroke-linecap="round" stroke-linejoin="round"/>
  <path d="M43.0125 33.9429C43.0125 33.9429 37.9261 41.2656 38.1015 53.7623C38.3207 66.2152 42.1355 76.081 47.485 74.1955C52.1329 72.5731 50.9051 64.812 51.1682 56.2178C51.4752 45.9135 61.1656 38.4593 70.5929 45.6065C80.0203 52.7538 67.1289 63.5843 72.8292 69.723C78.5295 75.8617 92.9555 57.5771 90.2369 42.011" stroke="#A83534" stroke-width="1.5" stroke-miterlimit="10" stroke-linecap="round" stroke-linejoin="round"/>
  <path d="M35.2074 29.5142C35.2074 29.5142 18.7205 33.899 14.5988 35.9598C10.5209 37.933 12.6257 42.7124 17.3612 42.4932" stroke="#A83534" stroke-width="1.5" stroke-miterlimit="10" stroke-linecap="round" stroke-linejoin="round"/>
  <path d="M47.9673 74.1076C47.7919 74.9408 47.7042 75.8177 47.7042 76.6947C47.7042 84.105 54.2814 90.1122 61.1217 90.1122C67.9621 90.1122 74.5393 84.105 74.5393 76.6947C74.5393 69.2843 68.5321 63.2772 61.1217 63.2772C57.0439 63.2772 53.4045 65.0749 50.949 67.9251" stroke="#A83534" stroke-width="1.5" stroke-miterlimit="10" stroke-linecap="round" stroke-linejoin="round"/>
  <path d="M56.5183 74.5631H57.6785V70.9069H58.8386L60.8225 74.5631H63.4793V70.9069H64.6395V74.5631H65.7996V75.7819H64.6395V77.0007H65.7996V78.2194H64.6395V81.8757H63.4793L61.4896 78.2194H58.8386V81.8757H57.6785V78.2194H56.5183V77.0007H57.6785V75.7819H56.5183V74.5631ZM58.8386 74.5631H59.4941L58.8386 73.3627V74.5631ZM58.8386 75.7819V77.0007H60.8225L60.1612 75.7819H58.8386ZM63.4793 79.4382V78.2194H62.8122L63.4793 79.4382ZM61.4838 75.7819L62.1509 77.0007H63.4793V75.7819H61.4838Z" fill="#FC4F4E"/>
  <path d="M12.5817 151.325L12.5817 185H3.81213" stroke="#A83534" stroke-width="1.5" stroke-miterlimit="10" stroke-linecap="round" stroke-linejoin="round"/>
  <path d="M12.5812 128.26L12.5812 147.466" stroke="#A83534" stroke-width="1.5" stroke-miterlimit="10" stroke-linecap="round" stroke-linejoin="round"/>
  <path d="M109.706 151.325V185H146.363" stroke="#A83534" stroke-width="1.5" stroke-miterlimit="10" stroke-linecap="round" stroke-linejoin="round"/>
  <path d="M109.706 122.56V147.597" stroke="#A83534" stroke-width="1.5" stroke-miterlimit="10" stroke-linecap="round" stroke-linejoin="round"/>
  <path d="M0.830444 122.56L13.6341 95.7249H108.653L121.457 122.56H80.8533L61.1216 102.872" stroke="#A83534" stroke-width="1.5" stroke-miterlimit="10" stroke-linecap="round" stroke-linejoin="round"/>
  <path d="M75.2413 181.141H47.047V185" stroke="#A83534" stroke-width="1.5" stroke-miterlimit="10" stroke-linecap="round" stroke-linejoin="round"/>
  <path d="M70.6371 156.367H51.7385V181.141H70.6371V156.367Z" stroke="#A83534" stroke-width="1.5" stroke-miterlimit="10" stroke-linecap="round" stroke-linejoin="round"/>
  <path d="M70.6371 122.955H51.7385V147.729H70.6371V122.955Z" stroke="#A83534" stroke-width="1.5" stroke-miterlimit="10" stroke-linecap="round" stroke-linejoin="round"/>
  <path d="M102.559 156.367H80.2844V170.968H102.559V156.367Z" stroke="#FEDCDC" stroke-width="1.5" stroke-miterlimit="10" stroke-linecap="round" stroke-linejoin="round"/>
  <path d="M87.7386 156.367V170.969" stroke="#FEDCDC" stroke-width="1.5" stroke-miterlimit="10" stroke-linecap="round" stroke-linejoin="round"/>
  <path d="M95.1047 156.367V170.968" stroke="#FEDCDC" stroke-width="1.5" stroke-miterlimit="10" stroke-linecap="round" stroke-linejoin="round"/>
  <path d="M42.0044 156.367H19.7296V170.968H42.0044V156.367Z" stroke="#FEDCDC" stroke-width="1.5" stroke-miterlimit="10" stroke-linecap="round" stroke-linejoin="round"/>
  <path d="M27.1833 156.367V170.969" stroke="#FEDCDC" stroke-width="1.5" stroke-miterlimit="10" stroke-linecap="round" stroke-linejoin="round"/>
  <path d="M34.5505 156.367V170.969" stroke="#FEDCDC" stroke-width="1.5" stroke-miterlimit="10" stroke-linecap="round" stroke-linejoin="round"/>
  <path d="M61.1657 117.167C62.6671 117.167 63.8842 115.95 63.8842 114.448C63.8842 112.947 62.6671 111.73 61.1657 111.73C59.6643 111.73 58.4471 112.947 58.4471 114.448C58.4471 115.95 59.6643 117.167 61.1657 117.167Z" stroke="#FEDCDC" stroke-width="1.5" stroke-miterlimit="10" stroke-linecap="round" stroke-linejoin="round"/>
  <path d="M26.5257 127.734H18.8522V142.95H26.5257V127.734Z" stroke="#FEDCDC" stroke-width="1.5" stroke-miterlimit="10" stroke-linecap="round" stroke-linejoin="round"/>
  <path d="M40.2062 127.734H32.5326V142.95H40.2062V127.734Z" stroke="#FEDCDC" stroke-width="1.5" stroke-miterlimit="10" stroke-linecap="round" stroke-linejoin="round"/>
  <path d="M89.7548 127.734H82.0812V142.95H89.7548V127.734Z" stroke="#FEDCDC" stroke-width="1.5" stroke-miterlimit="10" stroke-linecap="round" stroke-linejoin="round"/>
  <path d="M103.435 127.734H95.7618V142.95H103.435V127.734Z" stroke="#FEDCDC" stroke-width="1.5" stroke-miterlimit="10" stroke-linecap="round" stroke-linejoin="round"/>
  <path d="M113.125 147.817H9.16125V151.193H113.125V147.817Z" stroke="#FEDCDC" stroke-width="1.5" stroke-miterlimit="10" stroke-linecap="round" stroke-linejoin="round"/>
  <path d="M47.7042 99.6713H74.1446" stroke="#A83534" stroke-width="1.5" stroke-miterlimit="10" stroke-linecap="round" stroke-linejoin="round"/>
  <path d="M91.5957 36.0477C92.5401 36.0477 93.3057 35.2821 93.3057 34.3376C93.3057 33.3932 92.5401 32.6276 91.5957 32.6276C90.6512 32.6276 89.8856 33.3932 89.8856 34.3376C89.8856 35.2821 90.6512 36.0477 91.5957 36.0477Z" stroke="#A83534" stroke-width="1.5" stroke-miterlimit="10" stroke-linecap="round" stroke-linejoin="round"/>
</svg>