<svg xmlns="http://www.w3.org/2000/svg" width="96" height="44" viewBox="0 0 96 44" fill="none">
  <mask id="mask0_1338_1893" style="mask-type:luminance" maskUnits="userSpaceOnUse" x="0" y="0" width="96" height="44">
    <path d="M0 0H96V44H0V0Z" fill="white"/>
  </mask>
  <g mask="url(#mask0_1338_1893)">
    <path d="M1.49912 37.6328L0.796341 41.3391C0.702637 41.6242 0.702637 41.8618 0.702637 42.1469C0.702637 42.9546 1.17116 43.3348 1.82709 43.3348C2.67043 43.3348 3.2795 42.7646 3.51376 41.3391L4.2634 37.6328H5.01303L4.31025 41.3391C3.98229 43.1922 3.0921 43.9525 1.78024 43.9525C0.702637 43.9525 -0.0469971 43.3823 -0.0469971 42.0993L-0.000144947 41.1965L0.655785 37.5853H1.49912V37.6328ZM6.09063 43.9525L6.65286 40.7689C6.79341 40.2462 6.79341 39.8186 6.88712 39.4384H7.54305L7.40249 40.2937C7.77731 39.6285 8.38638 39.2959 9.04231 39.2959C9.55769 39.2959 10.1199 39.6285 10.1199 40.5313L10.0731 41.2916L9.55769 43.8574H8.7612L9.22972 41.2916L9.27658 40.6739C9.27658 40.2462 9.08917 39.9136 8.57379 39.9136C8.05842 39.9136 7.26193 40.5313 7.07453 41.6717L6.65286 43.8574H6.09063V43.9525ZM11.7597 43.9525L12.6031 39.4384H13.3996L12.5562 43.9525H11.7597ZM12.7436 38.1555C12.7436 37.9179 13.0247 37.6328 13.259 37.6328C13.5401 37.6328 13.7275 37.8229 13.7275 38.108C13.7275 38.4406 13.5401 38.6307 13.2122 38.6307C12.931 38.6307 12.7436 38.4406 12.7436 38.1555ZM16.6792 38.2505L16.4918 39.4384H17.5225L17.382 40.0086H16.3512L15.9764 42.1944C15.8827 42.4795 15.8827 42.6695 15.8827 42.9546C15.8827 43.1922 16.0233 43.3348 16.3044 43.3348H16.6324L16.5387 43.9525L15.9764 44C15.3205 44 15.0394 43.6199 15.0394 43.1447L15.0862 42.2894L15.5548 40.0086H14.8988L15.0394 39.4384H15.6953L15.8827 38.4406L16.6792 38.2505ZM21.5987 43.6674C21.2707 43.8574 20.7085 44 20.1463 44C18.975 44 18.4596 43.1922 18.4596 42.1944C18.4596 40.8639 19.4435 39.2959 20.8491 39.2959C21.6924 39.2959 22.1609 39.8186 22.1609 40.4363C22.1609 41.6242 20.8491 41.9568 19.2092 41.8618C19.1624 42.0993 19.2092 42.4795 19.3029 42.7646C19.4903 43.1447 19.8183 43.3348 20.2868 43.3348C20.8022 43.3348 21.177 43.1447 21.4581 43.0022L21.5987 43.6674ZM20.7085 39.9136C20.0057 39.9136 19.4903 40.6263 19.3029 41.2916C20.4742 41.2916 21.3644 41.149 21.3644 40.4363C21.3644 40.1037 21.1302 39.9136 20.7085 39.9136ZM28.0643 37.3002L27.0804 42.4795C26.9867 42.9546 26.893 43.4773 26.893 43.8574H26.1433L26.2839 43.0022C25.9091 43.6674 25.3 44 24.7378 44C23.8476 44 23.4259 43.2873 23.4259 42.3369C23.4259 40.7689 24.5972 39.2959 26.1433 39.2959C26.4245 39.2959 26.7524 39.3434 26.9398 39.4384L27.3146 37.3002H28.0643ZM26.7993 40.1037C26.6587 39.9611 26.4245 39.9136 26.0965 39.9136C25.0657 39.9136 24.1756 41.0065 24.1756 42.1944C24.1756 42.7646 24.4098 43.3348 25.0657 43.3348C25.628 43.3348 26.3776 42.6695 26.565 41.6717L26.7993 40.1037ZM32.6089 37.7279C33.0306 37.6328 33.4991 37.5853 33.9208 37.5853C34.5767 37.5853 35.0452 37.7279 35.3732 38.013C35.6543 38.2981 35.8417 38.6307 35.8417 39.0108C35.8417 39.8186 35.1858 40.4363 34.5299 40.6263C35.1389 40.8164 35.5606 41.2916 35.5606 42.0043C35.5606 42.6695 35.2327 43.1447 34.8578 43.4773C34.3893 43.8574 33.6865 44 32.8432 44L31.5313 43.9525L32.6089 37.7279ZM32.3747 43.2873L33.0306 43.3348C33.9208 43.3348 34.811 42.9546 34.811 41.9568C34.811 41.1965 34.2019 40.8639 33.4991 40.8639H32.89L32.3747 43.2873ZM32.9369 40.2937H33.546C34.3893 40.2937 35.1389 39.8186 35.1389 39.1058C35.1389 38.4881 34.6704 38.2505 34.0145 38.2505L33.3586 38.2981L32.9369 40.2937ZM39.9647 43.9525L40.1053 42.8121C39.6367 43.7149 38.9808 44.0475 38.3717 44.0475C37.6221 44.0475 37.1536 43.3823 37.1536 42.622C37.1536 41.0065 38.278 39.4384 40.199 39.4384C40.6206 39.4384 41.136 39.486 41.4171 39.6285L40.9486 41.9568C40.8081 42.7646 40.7612 43.5248 40.7612 44H39.9647V43.9525ZM40.4801 39.9611L39.9647 39.9136C38.8403 39.9136 37.8564 41.1015 37.8564 42.3369C37.8564 42.8596 38.0438 43.3348 38.6529 43.3348C39.3088 43.3348 40.0116 42.4795 40.199 41.2916L40.4801 39.9611ZM42.6353 43.9525L43.2444 40.7689L43.4318 39.4384H44.0877L43.9471 40.2937C44.322 39.6285 44.931 39.2959 45.587 39.2959C46.1023 39.2959 46.7114 39.6285 46.7114 40.5313L46.6177 41.2916L46.1023 43.8574H45.3059L45.7744 41.2916L45.8212 40.6739C45.8212 40.2462 45.6338 39.9136 45.1185 39.9136C44.6031 39.9136 43.8066 40.5313 43.6192 41.6717L43.2444 43.8574H42.6353V43.9525ZM48.3981 43.9525L49.6163 37.3952H50.3659L49.5694 41.4816C49.71 41.3391 49.8974 41.149 49.9442 41.0065L51.5372 39.4384H52.4274L50.5064 41.2916L51.7715 43.9525H50.9281L49.8974 41.7667L49.2883 42.2894L48.9603 44H48.3981V43.9525ZM55.9881 43.9525L56.6909 40.0086H56.1287L56.2224 39.4384H56.8315L56.8783 39.1533C57.0189 38.4881 57.2063 37.9654 57.628 37.5853C57.8622 37.3002 58.2839 37.1577 58.6587 37.1577C58.9867 37.1577 59.1741 37.2527 59.2678 37.3002L59.0335 37.9179C58.9398 37.8229 58.7993 37.8229 58.6119 37.8229C58.0028 37.8229 57.6748 38.4406 57.5343 39.1533V39.4384H58.5182L58.3776 40.0086H57.4406L56.6909 43.9525H55.9881ZM63.4845 41.1965C63.4845 42.622 62.5006 44.0475 61.0013 44.0475C59.9237 44.0475 59.3146 43.1922 59.3146 42.1944C59.3146 40.7689 60.3454 39.3434 61.7978 39.3434C62.9691 39.2959 63.4845 40.2462 63.4845 41.1965ZM60.1111 42.1469C60.1111 42.8596 60.4859 43.3823 61.1419 43.3823C62.0789 43.3823 62.7348 42.1944 62.7348 41.1965C62.7348 40.6739 62.4537 39.9611 61.6572 39.9611C60.7671 39.9136 60.1111 41.1015 60.1111 42.1469ZM64.89 43.9525L65.4054 41.0065C65.546 40.4363 65.5928 39.8186 65.6397 39.4384H66.2956L66.2019 40.4363C66.4362 39.8186 66.9515 39.3434 67.5606 39.3434H67.748L67.6075 40.1037H67.4201C66.7641 40.1037 66.2019 40.8639 65.9676 41.9568L65.5928 43.9525H64.89ZM72.3864 41.9568L71.4025 43.9525H70.606L73.8388 37.7279H74.729L75.6192 43.9525H74.8227L74.5416 41.9568H72.3864ZM74.4947 41.2916L74.2136 39.486C74.1668 39.1533 74.1668 38.6782 74.0731 38.3456L73.5577 39.486L72.6675 41.2916H74.4947ZM77.1653 43.9525L77.8681 40.0086H77.3059L77.4464 39.4384H78.0086L78.1023 39.1533C78.196 38.4881 78.4303 37.9654 78.8051 37.5853C79.0394 37.3002 79.4611 37.1577 79.8359 37.1577C80.1638 37.1577 80.3512 37.2527 80.445 37.3002L80.2575 37.9179C80.117 37.8229 79.9764 37.8229 79.789 37.8229C79.1799 37.8229 78.852 38.4406 78.7583 39.1533L78.6646 39.3434H79.6485L79.5079 39.9611H78.524L77.8212 43.8574H77.1653V43.9525ZM80.4918 43.9525L81.0072 41.0065L81.2883 39.4384H81.9442L81.8037 40.4363C82.0848 39.8186 82.6002 39.3434 83.1624 39.3434H83.3966L83.2561 40.1037H83.0687C82.4127 40.1037 81.8037 40.8639 81.6163 41.9568L81.2414 43.9525H80.4918ZM84.24 43.9525L85.0833 39.4384H85.8798L85.0365 43.9525H84.24ZM85.2239 38.1555C85.2239 37.9179 85.4113 37.6328 85.7392 37.6328C85.9735 37.6328 86.2078 37.8229 86.2078 38.108C86.2078 38.4406 85.9735 38.6307 85.6455 38.6307C85.4113 38.6307 85.2239 38.4406 85.2239 38.1555ZM90.1902 43.7149C89.9091 43.8574 89.4406 44 88.8783 44C87.707 44 87.1917 43.1922 87.1917 42.2894C87.1917 40.7689 88.2693 39.3434 89.8622 39.3434C90.237 39.3434 90.6587 39.486 90.7524 39.581L90.565 40.1512C90.3776 40.1037 90.1902 39.9611 89.8622 39.9611C88.6909 39.9611 87.9413 41.1015 87.9413 42.1469C87.9413 42.8596 88.363 43.3348 89.0657 43.3348C89.5343 43.3348 89.8622 43.1922 90.0965 43.0497L90.1902 43.7149ZM94.6411 43.9525L94.7348 42.8121C94.3132 43.7149 93.6572 44.0475 93.0482 44.0475C92.2517 44.0475 91.83 43.3823 91.83 42.622C91.83 41.0065 92.9076 39.4384 94.8754 39.4384C95.2971 39.4384 95.8124 39.486 96.0467 39.6285L95.625 41.9568C95.4845 42.7646 95.3908 43.5248 95.3908 44H94.6411V43.9525ZM95.1565 39.9611L94.6411 39.9136C93.5167 39.9136 92.5328 41.1015 92.5328 42.3369C92.5328 42.8596 92.7202 43.3348 93.3293 43.3348C93.9852 43.3348 94.688 42.4795 94.8754 41.2916L95.1565 39.9611ZM19.0218 11.0238L16.2107 24.2333C15.3674 27.0842 13.8212 29.0799 10.5416 29.2225C7.73046 29.2225 6.606 27.3218 7.30879 23.3305L9.79195 11.0238H5.66896L2.81098 25.1361C2.29561 30.5529 5.4347 32.0734 10.2136 31.9309C14.7583 31.7883 17.8974 29.6976 19.6777 25.5162L22.8168 11.0238H19.0218ZM53.7392 17.676L55.3791 24.5184H49.2883L53.7392 17.676ZM55.0042 11.0238L41.1829 31.4557H44.931L47.5548 27.5119H56.1756L57.0189 31.4557H61.4698L56.5504 11.0238H55.0042ZM68.4508 31.5983H76.3688C83.4903 31.2657 85.0365 27.987 82.7407 22.5227L74.0731 5.36933L68.4508 31.5983ZM87.8944 0C80.7729 0.332613 79.2736 3.65875 81.5694 9.07559L90.1902 26.2289L95.8124 0H87.8944ZM28.2517 28.8898L29.7041 22H31.3439C33.7334 22 35.748 22.8553 35.748 25.1361C35.748 27.892 33.0775 29.0324 30.0789 29.0324L28.2517 28.8898ZM31.3908 13.6371H33.3586C35.5138 13.6371 36.8256 14.1598 36.8256 15.9179C36.8256 18.0086 34.8578 19.3391 31.9062 19.3391H30.2663L31.3908 13.6371ZM28.2517 11.0238L27.9237 11.0713L23.7539 31.5508H31.7656C34.483 31.5508 36.0291 30.7905 37.0599 30.1728C38.6997 29.0799 39.871 27.3218 40.2927 25.1836C40.8081 22.2851 38.8403 20.7646 36.404 20.527C38.8871 19.9568 40.9955 18.1037 41.136 15.4428C41.464 11.0238 36.5445 11.0238 36.5445 11.0238H28.2517Z" fill="#787878"/>
  </g>
</svg>