<svg xmlns="http://www.w3.org/2000/svg" width="28" height="28" viewBox="0 0 28 28" fill="none">
  <path d="M16.5466 17.9334C17.7066 16.9601 18.9333 15.6401 19.9333 13.9068C21.4533 11.2801 21.8933 8.66677 21.96 6.77343C21.9733 6.49343 21.9733 6.24009 21.9733 6.01343C21.7466 6.01343 21.4933 6.02676 21.2133 6.02676C19.32 6.09343 16.7066 6.53343 14.08 8.05343C12.3466 9.05343 11.0266 10.2801 10.0533 11.4401C9.82662 11.7068 9.6133 11.9734 9.42664 12.2268C9.2133 12.5201 9.02663 12.8001 8.85329 13.0668L11.1866 15.4001L3.41329 23.1734C3.02662 23.5601 3.02662 24.2001 3.41329 24.5868C3.79996 24.9734 4.43995 24.9734 4.82662 24.5868L12.6 16.8134L14.9333 19.1468C15.2 18.9734 15.48 18.7868 15.7733 18.5734C16.0266 18.3734 16.28 18.1601 16.5466 17.9334Z" fill="#0471A6"/>
  <path d="M8.65336 10.04C9.73336 8.77336 11.1867 7.45337 13.0934 6.33337C15.0934 5.1867 17.0667 4.57337 18.8134 4.29337C19.36 4.20003 19.88 4.13337 20.3734 4.09337C20.96 4.04003 21.4934 4.0267 21.9734 4.0267C16.2 -0.7333 7.62669 -0.426635 2.21336 4.97337C2.21336 4.97337 2.20002 4.9867 2.18669 4.9867L0.97335 6.20003C0.586683 6.5867 0.586683 7.2267 0.97335 7.61336C1.36002 8.00003 2.00001 8.00003 2.38668 7.61336L2.89335 7.1067L7.4267 11.64C7.61337 11.3734 7.81336 11.1067 8.02669 10.8267C8.20003 10.56 8.41336 10.2934 8.65336 10.04Z" fill="#0471A6"/>
  <path d="M6.88008 12.4535C6.64008 12.8535 6.70675 13.3601 7.02675 13.6801C7.08008 13.7335 7.14674 13.7868 7.22674 13.8268C7.69341 14.1068 8.30674 13.9601 8.60007 13.4801C8.68007 13.3468 8.77341 13.2135 8.85341 13.0801L7.4134 11.6401C7.2134 11.9201 7.04008 12.2001 6.88008 12.4535Z" fill="#0471A6"/>
  <path d="M14.5199 19.4001C14.0399 19.6934 13.8933 20.2934 14.1733 20.7734C14.2133 20.8534 14.2533 20.9201 14.32 20.9734C14.64 21.2934 15.1466 21.3734 15.5466 21.1201C15.8133 20.9734 16.0799 20.7867 16.3733 20.5867L14.9333 19.1467C14.7866 19.2267 14.6533 19.3201 14.5199 19.4001Z" fill="#0471A6"/>
  <path d="M23.04 25.8C28.44 20.3867 28.7466 11.8134 23.9866 6.04004C23.9866 6.50671 23.9733 7.05337 23.92 7.64004C23.88 8.13337 23.8133 8.65338 23.72 9.20004C23.4266 10.9467 22.8266 12.92 21.68 14.92C20.5733 16.8267 19.2533 18.28 17.9733 19.36C17.72 19.6 17.4533 19.8 17.1866 19.9867C16.9066 20.2 16.64 20.4 16.3733 20.5867L20.9066 25.12L20.3999 25.6267C20.0133 26.0134 20.0133 26.6534 20.3999 27.04C20.7866 27.4267 21.4266 27.4267 21.8133 27.04L23.0266 25.8267C23.0266 25.8134 23.0266 25.8 23.04 25.8Z" fill="#0471A6"/>
</svg>